<svg width="512" height="512" viewBox="0 0 512 512" fill="none" xmlns="http://www.w3.org/2000/svg">
<g clip-path="url(#clip0_12_219)">
<path fill-rule="evenodd" clip-rule="evenodd" d="M255.5 95.5C183.5 95.5 111.5 95.5 39.5 95.5C39.3334 74.4974 39.5 53.4974 40 32.5C43.5 19.6667 51.6667 11.5 64.5 8C118.833 7.33333 173.167 7.33333 227.5 8C242.02 10.1883 251.187 18.355 255 32.5C255.5 53.4974 255.667 74.4974 255.5 95.5Z" fill="#414143"/>
<path fill-rule="evenodd" clip-rule="evenodd" d="M39.5 95.5C111.5 95.5 183.5 95.5 255.5 95.5C266.861 94.712 270.194 99.5453 265.5 110C252.908 111.441 240.241 111.941 227.5 111.5C174.167 111.5 120.833 111.5 67.5 111.5C54.7335 111.961 42.0668 111.461 29.5 110C24.8069 99.5434 28.1402 94.71 39.5 95.5Z" fill="#4E4E50"/>
<path fill-rule="evenodd" clip-rule="evenodd" d="M67.5 111.5C120.833 111.5 174.167 111.5 227.5 111.5C228.977 138.132 241.31 157.965 264.5 171C268.037 174.369 271.371 177.869 274.5 181.5C275.47 190.082 275.803 198.749 275.5 207.5C266.884 206.782 262.884 210.782 263.5 219.5C178.167 219.5 92.8333 219.5 7.5 219.5C8.71298 193.573 20.713 174.406 43.5 162C58.8953 148.708 66.8953 131.875 67.5 111.5Z" fill="#A97669"/>
<path fill-rule="evenodd" clip-rule="evenodd" d="M466.5 144.5C420.499 144.333 374.499 144.5 328.5 145C344.167 145.333 359.833 145.667 375.5 146C350.833 146.333 326.167 146.667 301.5 147C328.851 147.137 356.185 147.804 383.5 149C386.167 149.333 388.833 149.667 391.5 150C384.167 150.333 376.833 150.667 369.5 151C370.337 152.011 370.67 153.178 370.5 154.5C374.833 154.5 379.167 154.5 383.5 154.5C383.833 150.5 384.167 150.5 384.5 154.5C386.5 154.5 388.5 154.5 390.5 154.5C390.5 156.167 390.5 157.833 390.5 159.5C388.5 159.5 386.5 159.5 384.5 159.5C384.5 175.5 384.5 191.5 384.5 207.5C352.167 207.5 319.833 207.5 287.5 207.5C287.167 186.167 286.833 186.167 286.5 207.5C284.833 207.5 283.167 207.5 281.5 207.5C280.833 186.167 280.167 186.167 279.5 207.5C278.167 207.5 276.833 207.5 275.5 207.5C275.803 198.749 275.47 190.082 274.5 181.5C272.998 167.172 277.998 155.672 289.5 147C293.167 146 296.833 145 300.5 144C356.002 143.168 411.335 143.335 466.5 144.5Z" fill="#C5C9CA"/>
<path fill-rule="evenodd" clip-rule="evenodd" d="M466.5 144.5C479.358 146.014 487.525 153.014 491 165.5C491.5 179.496 491.667 193.496 491.5 207.5C455.833 207.5 420.167 207.5 384.5 207.5C384.5 191.5 384.5 175.5 384.5 159.5C386.5 159.5 388.5 159.5 390.5 159.5C390.5 157.833 390.5 156.167 390.5 154.5C388.5 154.5 386.5 154.5 384.5 154.5C384.167 150.5 383.833 150.5 383.5 154.5C379.167 154.5 374.833 154.5 370.5 154.5C370.67 153.178 370.337 152.011 369.5 151C376.833 150.667 384.167 150.333 391.5 150C388.833 149.667 386.167 149.333 383.5 149C356.185 147.804 328.851 147.137 301.5 147C326.167 146.667 350.833 146.333 375.5 146C359.833 145.667 344.167 145.333 328.5 145C374.499 144.5 420.499 144.333 466.5 144.5Z" fill="#C1C4C6"/>
<path fill-rule="evenodd" clip-rule="evenodd" d="M384.5 207.5C420.167 207.5 455.833 207.5 491.5 207.5C495.459 207.071 498.959 208.071 502 210.5C507.405 227.598 501.238 234.598 483.5 231.5C417.167 231.5 350.833 231.5 284.5 231.5C284.5 247.5 284.5 263.5 284.5 279.5C284.167 279.5 283.833 279.5 283.5 279.5C283.5 263.5 283.5 247.5 283.5 231.5C278.156 231.666 272.823 231.499 267.5 231C266.956 230.283 266.289 229.783 265.5 229.5C263.701 226.495 263.034 223.162 263.5 219.5C262.884 210.782 266.884 206.782 275.5 207.5C276.833 207.5 278.167 207.5 279.5 207.5C280.167 186.167 280.833 186.167 281.5 207.5C283.167 207.5 284.833 207.5 286.5 207.5C286.833 186.167 287.167 186.167 287.5 207.5C319.833 207.5 352.167 207.5 384.5 207.5Z" fill="#D1D1D3"/>
<path fill-rule="evenodd" clip-rule="evenodd" d="M7.5 219.5C92.8333 219.5 178.167 219.5 263.5 219.5C263.034 223.162 263.701 226.495 265.5 229.5C263.286 229.709 261.619 228.876 260.5 227C262.013 225.121 262.679 222.954 262.5 220.5C177.833 220.5 93.1667 220.5 8.5 220.5C8.5 283.833 8.5 347.167 8.5 410.5C8.5 410.833 8.5 411.167 8.5 411.5C8.16667 411.5 7.83333 411.5 7.5 411.5C7.5 347.5 7.5 283.5 7.5 219.5Z" fill="#F4996A"/>
<path fill-rule="evenodd" clip-rule="evenodd" d="M265.5 229.5C265.414 230.496 265.748 231.329 266.5 232C271.823 232.499 277.156 232.666 282.5 232.5C282.5 234.833 282.5 237.167 282.5 239.5C281.549 238.081 281.216 236.415 281.5 234.5C274.455 233.277 267.789 234.61 261.5 238.5C260.614 237.675 260.281 236.675 260.5 235.5C261.833 235.5 263.167 235.5 264.5 235.5C264.241 231.932 262.241 230.599 258.5 231.5C258.5 230.5 258.5 229.5 258.5 228.5C259.089 226.648 259.756 224.815 260.5 223C177.167 222.5 93.834 222.333 10.5 222.5C10.5 284.5 10.5 346.5 10.5 408.5C25.3235 408.018 39.9902 408.518 54.5 410C39.1703 410.5 23.837 410.667 8.5 410.5C8.5 347.167 8.5 283.833 8.5 220.5C93.1667 220.5 177.833 220.5 262.5 220.5C262.679 222.954 262.013 225.121 260.5 227C261.619 228.876 263.286 229.709 265.5 229.5Z" fill="#FE9350"/>
<path fill-rule="evenodd" clip-rule="evenodd" d="M258.5 228.5C254.921 228.234 254.587 226.901 257.5 224.5C176.836 223.5 96.1694 223.167 15.5 223.5C15.5 282.167 15.5 340.833 15.5 399.5C26.8148 400.095 37.9815 399.428 49 397.5C50.2613 397.759 51.2613 398.426 52 399.5C53.5548 397.854 55.2215 397.521 57 398.5C58.788 395.254 61.6213 393.587 65.5 393.5C64.9747 392.808 64.3081 392.308 63.5 392C65.7972 391.982 68.1305 392.149 70.5 392.5C70.5 392.833 70.5 393.167 70.5 393.5C69.8333 393.5 69.1667 393.5 68.5 393.5C66.9755 394.174 65.6422 395.174 64.5 396.5C63.6143 397.325 63.281 398.325 63.5 399.5C62.5 399.5 61.5 399.5 60.5 399.5C58.0853 403.047 56.4186 407.047 55.5 411.5C39.8333 411.5 24.1667 411.5 8.5 411.5C8.5 411.167 8.5 410.833 8.5 410.5C23.837 410.667 39.1703 410.5 54.5 410C39.9902 408.518 25.3235 408.018 10.5 408.5C10.5 346.5 10.5 284.5 10.5 222.5C93.834 222.333 177.167 222.5 260.5 223C259.756 224.815 259.089 226.648 258.5 228.5Z" fill="#F89861"/>
<path fill-rule="evenodd" clip-rule="evenodd" d="M12.5 223.5C13.8332 252.492 14.4998 281.826 14.5 311.5C14.1667 340.833 13.8333 370.167 13.5 399.5C12.5 340.837 12.1667 282.17 12.5 223.5Z" fill="#FF9359"/>
<path fill-rule="evenodd" clip-rule="evenodd" d="M258.5 228.5C258.5 229.5 258.5 230.5 258.5 231.5C262.241 230.599 264.241 231.932 264.5 235.5C263.167 235.5 261.833 235.5 260.5 235.5C260.281 236.675 260.614 237.675 261.5 238.5C267.789 234.61 274.455 233.277 281.5 234.5C281.216 236.415 281.549 238.081 282.5 239.5C282.667 250.172 282.5 260.839 282 271.5C281.779 274.943 280.779 275.276 279 272.5C275.984 275.874 275.818 279.374 278.5 283C277.618 287.472 276.951 287.306 276.5 282.5C274.712 282.215 273.045 282.548 271.5 283.5C271.624 284.107 271.957 284.44 272.5 284.5C272.5 318.5 272.5 352.5 272.5 386.5C206.499 386.333 140.499 386.5 74.5 387C75.056 387.383 75.3893 387.883 75.5 388.5C74.325 388.281 73.325 388.614 72.5 389.5C72.9569 390.298 73.6236 390.631 74.5 390.5C74.5 390.833 74.5 391.167 74.5 391.5C73.1667 391.833 71.8333 392.167 70.5 392.5C68.1305 392.149 65.7972 391.982 63.5 392C64.3081 392.308 64.9747 392.808 65.5 393.5C61.6213 393.587 58.788 395.254 57 398.5C55.2215 397.521 53.5548 397.854 52 399.5C51.2613 398.426 50.2613 397.759 49 397.5C37.9815 399.428 26.8148 400.095 15.5 399.5C15.5 340.833 15.5 282.167 15.5 223.5C96.1694 223.167 176.836 223.5 257.5 224.5C254.587 226.901 254.921 228.234 258.5 228.5Z" fill="#FE965B"/>
<path fill-rule="evenodd" clip-rule="evenodd" d="M483.5 231.5C483.5 244.833 483.5 258.167 483.5 271.5C478.371 271.719 478.371 272.386 483.5 273.5C483.5 274.5 483.5 275.5 483.5 276.5C482.127 276.343 480.793 276.51 479.5 277C481.437 277.122 482.77 277.955 483.5 279.5C417.167 279.5 350.833 279.5 284.5 279.5C284.5 263.5 284.5 247.5 284.5 231.5C350.833 231.5 417.167 231.5 483.5 231.5Z" fill="#F0F1F1"/>
<path fill-rule="evenodd" clip-rule="evenodd" d="M46.5 247.5C113.834 247.333 181.167 247.5 248.5 248C251.054 250.269 251.054 252.602 248.5 255C180.498 255.833 112.498 255.667 44.5 254.5C44.0133 253.554 43.6799 252.554 43.5 251.5C44.2858 249.959 45.2858 248.626 46.5 247.5Z" fill="#FCBA74"/>
<path fill-rule="evenodd" clip-rule="evenodd" d="M44.5001 283.5C112.833 283.5 181.167 283.5 249.5 283.5C249.519 285.06 249.852 286.56 250.5 288C250.18 289.653 249.18 290.653 247.5 291C179.831 291.833 112.164 291.667 44.5001 290.5C43.1784 288.135 43.1784 285.802 44.5001 283.5Z" fill="#FCBB75"/>
<path fill-rule="evenodd" clip-rule="evenodd" d="M283.5 279.5C283.833 279.5 284.167 279.5 284.5 279.5C350.833 279.5 417.167 279.5 483.5 279.5C483.5 281.833 483.5 284.167 483.5 286.5C482.539 284.735 482.205 282.735 482.5 280.5C465.5 280.5 448.5 280.5 431.5 280.5C431.5 281.833 431.5 283.167 431.5 284.5C399.493 284.167 367.493 284.5 335.5 285.5C357.159 286.333 378.826 286.833 400.5 287C401.167 287.667 401.833 288.333 402.5 289C400.99 289.85 399.49 290.683 398 291.5C386.731 289.321 375.398 288.988 364 290.5C362.833 290.167 361.667 289.833 360.5 289.5C361.506 288.604 361.506 287.938 360.5 287.5C359.679 290.447 359.179 293.447 359 296.5C357.081 295.029 356.081 295.362 356 297.5C356.561 298.022 357.228 298.355 358 298.5C360.33 296.957 362.83 296.457 365.5 297C363.273 297.941 361.273 299.108 359.5 300.5C353.868 304.604 348.035 308.604 342 312.5C327.318 331.25 323.985 351.917 332 374.5C334.741 376.067 335.908 378.401 335.5 381.5C335.119 382.931 334.119 383.764 332.5 384C334.455 386.326 336.455 388.659 338.5 391C337.552 391.483 336.552 391.649 335.5 391.5C335.5 393.5 335.5 395.5 335.5 397.5C333.856 397.286 332.356 397.62 331 398.5C329.879 408.193 328.379 408.526 326.5 399.5C325.548 401.045 325.215 402.712 325.5 404.5C324.116 402.03 322.116 400.363 319.5 399.5C319.719 398.325 319.386 397.325 318.5 396.5C315.218 394.127 311.552 392.627 307.5 392C299.841 391.5 292.174 391.334 284.5 391.5C284.167 391.5 283.833 391.5 283.5 391.5C283.5 354.167 283.5 316.833 283.5 279.5Z" fill="#409ECC"/>
<path fill-rule="evenodd" clip-rule="evenodd" d="M282.5 279.5C282.5 316.5 282.5 353.5 282.5 390.5C213.167 390.5 143.833 390.5 74.5 390.5C73.6236 390.631 72.9569 390.298 72.5 389.5C73.325 388.614 74.325 388.281 75.5 388.5C141.508 389.163 207.175 388.497 272.5 386.5C272.5 352.5 272.5 318.5 272.5 284.5C274.17 317.723 275.17 351.223 275.5 385C276.332 385.688 276.998 385.521 277.5 384.5C276.174 352.203 276.174 319.87 277.5 287.5C278.167 319.833 278.833 352.167 279.5 384.5C280.167 348.5 280.833 312.5 281.5 276.5C282.386 277.325 282.719 278.325 282.5 279.5Z" fill="#FE9352"/>
<path fill-rule="evenodd" clip-rule="evenodd" d="M265.5 229.5C266.289 229.783 266.956 230.283 267.5 231C272.823 231.499 278.156 231.666 283.5 231.5C283.5 247.5 283.5 263.5 283.5 279.5C283.167 279.5 282.833 279.5 282.5 279.5C282.719 278.325 282.386 277.325 281.5 276.5C280.833 312.5 280.167 348.5 279.5 384.5C278.833 352.167 278.167 319.833 277.5 287.5C276.174 319.87 276.174 352.203 277.5 384.5C276.998 385.521 276.332 385.688 275.5 385C275.17 351.223 274.17 317.723 272.5 284.5C271.957 284.44 271.624 284.107 271.5 283.5C273.045 282.548 274.712 282.215 276.5 282.5C276.951 287.306 277.618 287.472 278.5 283C275.818 279.374 275.984 275.874 279 272.5C280.779 275.276 281.779 274.943 282 271.5C282.5 260.839 282.667 250.172 282.5 239.5C282.5 237.167 282.5 234.833 282.5 232.5C277.156 232.666 271.823 232.499 266.5 232C265.748 231.329 265.414 230.496 265.5 229.5Z" fill="#F59961"/>
<path fill-rule="evenodd" clip-rule="evenodd" d="M483.5 286.5C483.5 286.833 483.5 287.167 483.5 287.5C482.501 332.33 482.168 377.33 482.5 422.5C431.167 422.5 379.833 422.5 328.5 422.5C328.834 417.393 328.501 413.06 327.5 409.5C326.069 408.22 325.402 406.553 325.5 404.5C325.215 402.712 325.548 401.045 326.5 399.5C328.379 408.526 329.879 408.193 331 398.5C332.356 397.62 333.856 397.286 335.5 397.5C335.5 395.5 335.5 393.5 335.5 391.5C336.552 391.649 337.552 391.483 338.5 391C336.455 388.659 334.455 386.326 332.5 384C334.119 383.764 335.119 382.931 335.5 381.5C340.247 386.422 344.913 391.589 349.5 397C374.934 412.223 399.267 410.723 422.5 392.5C442.008 370.074 444.508 345.74 430 319.5C410.963 296.79 387.463 290.457 359.5 300.5C361.273 299.108 363.273 297.941 365.5 297C362.83 296.457 360.33 296.957 358 298.5C357.228 298.355 356.561 298.022 356 297.5C356.081 295.362 357.081 295.029 359 296.5C359.179 293.447 359.679 290.447 360.5 287.5C361.506 287.938 361.506 288.604 360.5 289.5C361.667 289.833 362.833 290.167 364 290.5C375.398 288.988 386.731 289.321 398 291.5C399.49 290.683 400.99 289.85 402.5 289C401.833 288.333 401.167 287.667 400.5 287C378.826 286.833 357.159 286.333 335.5 285.5C367.493 284.5 399.493 284.167 431.5 284.5C431.5 283.167 431.5 281.833 431.5 280.5C448.5 280.5 465.5 280.5 482.5 280.5C482.205 282.735 482.539 284.735 483.5 286.5Z" fill="#3198C9"/>
<path fill-rule="evenodd" clip-rule="evenodd" d="M46.5001 319.5C114.17 319.167 181.837 319.5 249.5 320.5C251.139 323.04 250.806 325.207 248.5 327C181.167 327.667 113.833 327.667 46.5001 327C44.0111 324.566 44.0111 322.066 46.5001 319.5Z" fill="#FCBA74"/>
<path fill-rule="evenodd" clip-rule="evenodd" d="M45.5001 355.5C113.834 355.333 182.167 355.5 250.5 356C251.833 358.333 251.833 360.667 250.5 363C182.5 363.667 114.5 363.667 46.5001 363C42.8703 360.916 42.5369 358.416 45.5001 355.5Z" fill="#FDB974"/>
<path fill-rule="evenodd" clip-rule="evenodd" d="M335.5 381.5C335.908 378.401 334.741 376.067 332 374.5C323.985 351.917 327.318 331.25 342 312.5C348.035 308.604 353.868 304.604 359.5 300.5C387.463 290.457 410.963 296.79 430 319.5C444.508 345.74 442.008 370.074 422.5 392.5C399.267 410.723 374.934 412.223 349.5 397C344.913 391.589 340.247 386.422 335.5 381.5Z" fill="#2A93C6"/>
<path fill-rule="evenodd" clip-rule="evenodd" d="M394.5 390.5C387.825 390.666 381.158 390.5 374.5 390C375.337 388.989 375.67 387.822 375.5 386.5C374.5 386.5 373.5 386.5 372.5 386.5C372.715 388.179 372.048 389.179 370.5 389.5C369.685 388.571 368.852 387.571 368 386.5C367.5 380.175 367.334 373.842 367.5 367.5C360.825 367.666 354.158 367.5 347.5 367C343.975 362.549 342.641 357.382 343.5 351.5C343.667 347.833 343.833 344.167 344 340.5C344.465 339.069 345.299 337.903 346.5 337C353.385 335.575 360.385 335.075 367.5 335.5C367.075 328.385 367.575 321.385 369 314.5C369.833 313.667 370.667 312.833 371.5 312C379.167 311.333 386.833 311.333 394.5 312C395.579 312.956 396.745 313.789 398 314.5C399.425 321.385 399.925 328.385 399.5 335.5C405.842 335.334 412.175 335.5 418.5 336C420.57 336.948 422.07 338.448 423 340.5C423.667 347.833 423.667 355.167 423 362.5C421.833 364.333 420.333 365.833 418.5 367C412.175 367.5 405.842 367.666 399.5 367.5C399.666 373.842 399.5 380.175 399 386.5C397.951 388.384 396.451 389.718 394.5 390.5Z" fill="#FCAE4F"/>
<path fill-rule="evenodd" clip-rule="evenodd" d="M272.5 386.5C207.175 388.497 141.508 389.163 75.5 388.5C75.3893 387.883 75.056 387.383 74.5 387C140.499 386.5 206.499 386.333 272.5 386.5Z" fill="#F49A62"/>
<path fill-rule="evenodd" clip-rule="evenodd" d="M282.5 279.5C282.833 279.5 283.167 279.5 283.5 279.5C283.5 316.833 283.5 354.167 283.5 391.5C213.833 391.5 144.167 391.5 74.5 391.5C74.5 391.167 74.5 390.833 74.5 390.5C143.833 390.5 213.167 390.5 282.5 390.5C282.5 353.5 282.5 316.5 282.5 279.5Z" fill="#E99C71"/>
<path fill-rule="evenodd" clip-rule="evenodd" d="M394.5 390.5C387.345 391.655 380.012 391.822 372.5 391C371.584 390.722 370.918 390.222 370.5 389.5C372.048 389.179 372.715 388.179 372.5 386.5C373.5 386.5 374.5 386.5 375.5 386.5C375.67 387.822 375.337 388.989 374.5 390C381.158 390.5 387.825 390.666 394.5 390.5Z" fill="#D8B675"/>
<path fill-rule="evenodd" clip-rule="evenodd" d="M74.5002 391.5C144.167 391.5 213.833 391.5 283.5 391.5C283.833 391.5 284.167 391.5 284.5 391.5C291.655 392.329 298.989 392.829 306.5 393C299.579 394.219 292.579 394.886 285.5 395C283.893 396.049 283.227 397.549 283.5 399.5C282.127 399.657 280.793 399.49 279.5 399C280.308 398.692 280.975 398.192 281.5 397.5C212.833 396.167 144.167 396.167 75.5002 397.5C71.4996 398.299 67.4996 398.965 63.5002 399.5C63.2812 398.325 63.6145 397.325 64.5002 396.5C65.6424 395.174 66.9757 394.174 68.5002 393.5C67.7661 394.708 67.4328 396.041 67.5002 397.5C69.6959 397.435 71.6959 396.768 73.5002 395.5C143.5 394.833 213.5 394.167 283.5 393.5C212.481 392.18 141.481 392.18 70.5002 393.5C70.5002 393.167 70.5002 392.833 70.5002 392.5C71.8335 392.167 73.1669 391.833 74.5002 391.5Z" fill="#D9CECA"/>
<path fill-rule="evenodd" clip-rule="evenodd" d="M68.5002 393.5C69.1669 393.5 69.8335 393.5 70.5002 393.5C141.481 392.18 212.481 392.18 283.5 393.5C213.5 394.167 143.5 394.833 73.5002 395.5C71.6959 396.768 69.6959 397.435 67.5002 397.5C67.4328 396.041 67.7661 394.708 68.5002 393.5Z" fill="#C6D3DD"/>
<path fill-rule="evenodd" clip-rule="evenodd" d="M284.5 391.5C292.174 391.334 299.841 391.5 307.5 392C311.552 392.627 315.218 394.127 318.5 396.5C319.386 397.325 319.719 398.325 319.5 399.5C322.116 400.363 324.116 402.03 325.5 404.5C325.402 406.553 326.069 408.22 327.5 409.5C327.5 414.167 327.5 418.833 327.5 423.5C327.5 423.833 327.5 424.167 327.5 424.5C327.5 425.167 327.5 425.833 327.5 426.5C327.786 446.86 327.453 467.194 326.5 487.5C322.803 495.365 316.803 500.532 308.5 503C230.167 503.667 151.833 503.667 73.5002 503C65.7611 500.094 60.0944 494.927 56.5002 487.5C55.5281 462.199 55.1947 436.866 55.5002 411.5C56.4188 407.047 58.0855 403.047 60.5002 399.5C61.5002 399.5 62.5002 399.5 63.5002 399.5C67.4996 398.965 71.4996 398.299 75.5002 397.5C144.167 396.167 212.833 396.167 281.5 397.5C280.975 398.192 280.308 398.692 279.5 399C280.793 399.49 282.127 399.657 283.5 399.5C283.227 397.549 283.893 396.049 285.5 395C292.579 394.886 299.579 394.219 306.5 393C298.989 392.829 291.655 392.329 284.5 391.5Z" fill="#CFD1D2"/>
<path fill-rule="evenodd" clip-rule="evenodd" d="M7.49992 411.5C7.83325 411.5 8.16659 411.5 8.49992 411.5C24.1666 411.5 39.8332 411.5 55.4999 411.5C55.1944 436.866 55.5278 462.199 56.4999 487.5C29.6769 485.846 13.5102 471.846 7.99992 445.5C7.50006 434.172 7.3334 422.838 7.49992 411.5Z" fill="#AA7669"/>
<path fill-rule="evenodd" clip-rule="evenodd" d="M138.5 411.5C145.159 409.989 150.326 411.989 154 417.5C157.056 425.762 154.556 431.595 146.5 435C135.686 436.186 130.853 431.353 132 420.5C132.667 418.5 133.333 416.5 134 414.5C135.878 413.947 137.378 412.947 138.5 411.5Z" fill="#9CA62F"/>
<path fill-rule="evenodd" clip-rule="evenodd" d="M234.5 411.5C241.159 409.989 246.326 411.989 250 417.5C253.056 425.762 250.556 431.595 242.5 435C231.686 436.186 226.853 431.353 228 420.5C228.667 418.5 229.333 416.5 230 414.5C231.878 413.947 233.378 412.947 234.5 411.5Z" fill="#9CA62F"/>
<path fill-rule="evenodd" clip-rule="evenodd" d="M91.4999 411.5C105.796 411.784 110.296 418.451 105 431.5C96.3626 437.843 89.3626 436.51 83.9999 427.5C83.0379 423.181 83.7046 419.181 85.9999 415.5C87.812 414.023 89.6454 412.69 91.4999 411.5Z" fill="#829012"/>
<path fill-rule="evenodd" clip-rule="evenodd" d="M187.5 411.5C201.796 411.784 206.296 418.451 201 431.5C192.363 437.843 185.363 436.51 180 427.5C179.038 423.181 179.705 419.181 182 415.5C183.812 414.023 185.645 412.69 187.5 411.5Z" fill="#829012"/>
<path fill-rule="evenodd" clip-rule="evenodd" d="M283.5 411.5C297.796 411.784 302.296 418.451 297 431.5C288.363 437.843 281.363 436.51 276 427.5C275.038 423.181 275.705 419.181 278 415.5C279.812 414.023 281.645 412.69 283.5 411.5Z" fill="#829012"/>
<path fill-rule="evenodd" clip-rule="evenodd" d="M483.5 287.5C483.5 332.833 483.5 378.167 483.5 423.5C431.5 423.5 379.5 423.5 327.5 423.5C327.5 418.833 327.5 414.167 327.5 409.5C328.501 413.06 328.834 417.393 328.5 422.5C379.833 422.5 431.167 422.5 482.5 422.5C482.168 377.33 482.501 332.33 483.5 287.5Z" fill="#4493B6"/>
<path fill-rule="evenodd" clip-rule="evenodd" d="M327.5 424.5C379.501 424.333 431.501 424.5 483.5 425C481.942 425.21 480.609 425.71 479.5 426.5C428.833 426.5 378.167 426.5 327.5 426.5C327.5 425.833 327.5 425.167 327.5 424.5Z" fill="#F9EDEB"/>
<path fill-rule="evenodd" clip-rule="evenodd" d="M327.5 426.5C378.167 426.5 428.833 426.5 479.5 426.5C481.604 426.201 483.604 426.534 485.5 427.5C483.547 428.761 481.547 429.927 479.5 431C480.793 431.49 482.127 431.657 483.5 431.5C483.894 443.886 483.394 456.22 482 468.5C478.921 476.58 473.421 482.414 465.5 486C419.206 487.475 372.872 487.975 326.5 487.5C327.453 467.194 327.786 446.86 327.5 426.5Z" fill="#F0F1F1"/>
<path fill-rule="evenodd" clip-rule="evenodd" d="M90.5 459.5C97.1589 457.989 102.326 459.989 106 465.5C109.056 473.762 106.556 479.595 98.5 483C87.6862 484.186 82.8529 479.353 84 468.5C84.6667 466.5 85.3333 464.5 86 462.5C87.8778 461.947 89.3778 460.947 90.5 459.5Z" fill="#9CA62F"/>
<path fill-rule="evenodd" clip-rule="evenodd" d="M186.5 459.5C193.159 457.989 198.326 459.989 202 465.5C205.056 473.762 202.556 479.595 194.5 483C183.686 484.186 178.853 479.353 180 468.5C180.667 466.5 181.333 464.5 182 462.5C183.878 461.947 185.378 460.947 186.5 459.5Z" fill="#9CA62F"/>
<path fill-rule="evenodd" clip-rule="evenodd" d="M282.5 459.5C289.159 457.989 294.326 459.989 298 465.5C301.056 473.762 298.556 479.595 290.5 483C279.686 484.186 274.853 479.353 276 468.5C276.667 466.5 277.333 464.5 278 462.5C279.878 461.947 281.378 460.947 282.5 459.5Z" fill="#9CA62F"/>
<path fill-rule="evenodd" clip-rule="evenodd" d="M139.5 459.5C153.796 459.784 158.296 466.451 153 479.5C144.363 485.843 137.363 484.51 132 475.5C131.038 471.181 131.705 467.181 134 463.5C135.812 462.023 137.645 460.69 139.5 459.5Z" fill="#829012"/>
<path fill-rule="evenodd" clip-rule="evenodd" d="M235.5 459.5C249.796 459.784 254.296 466.451 249 479.5C240.363 485.843 233.363 484.51 228 475.5C227.038 471.181 227.705 467.181 230 463.5C231.812 462.023 233.645 460.69 235.5 459.5Z" fill="#829012"/>
</g>
<defs>
<clipPath id="clip0_12_219">
<rect width="512" height="512" fill="white"/>
</clipPath>
</defs>
</svg>
