<svg width="512" height="512" viewBox="0 0 512 512" fill="none" xmlns="http://www.w3.org/2000/svg">
<g clip-path="url(#clip0_12_401)">
<path fill-rule="evenodd" clip-rule="evenodd" d="M252.5 1.5C253.429 2.31491 254.429 3.14825 255.5 4C321.09 22.9361 369.923 62.4361 402 122.5C427.05 174.662 433.05 228.995 420 285.5C413.025 315.424 401.692 343.424 386 369.5C381.545 375.794 376.045 380.794 369.5 384.5C362.992 381.49 357.492 377.157 353 371.5C350.711 366.581 348.211 361.914 345.5 357.5C361.15 338.488 373.484 317.488 382.5 294.5C387.561 293.086 388.561 290.253 385.5 286C387.398 283.139 388.398 279.973 388.5 276.5C389.117 276.389 389.617 276.056 390 275.5C390.333 273.167 390.667 270.833 391 268.5C391.483 269.448 391.649 270.448 391.5 271.5C392.5 271.5 393.5 271.5 394.5 271.5C394.942 266.306 395.942 266.306 397.5 271.5C397.833 270.833 398.167 270.167 398.5 269.5C395.56 265.163 395.893 261.163 399.5 257.5C396.273 237.706 395.94 217.872 398.5 198C398.435 193.787 397.268 189.954 395 186.5C395.359 191.807 395.359 197.141 395 202.5C394.768 201.263 394.268 200.263 393.5 199.5C390.21 175.953 382.21 154.286 369.5 134.5C368.955 130.852 367.288 127.852 364.5 125.5C334.955 87.2229 296.288 64.0562 248.5 56C242.175 55.5005 235.842 55.3338 229.5 55.5C229.5 54.8333 229.167 54.5 228.5 54.5C228.069 50.6634 227.402 46.9968 226.5 43.5C226.54 38.8075 226.873 34.1408 227.5 29.5C227.694 26.6703 228.361 24.0037 229.5 21.5C230.968 20.2209 231.635 18.5542 231.5 16.5C237.302 9.77076 244.302 4.77076 252.5 1.5Z" fill="#D7CFD6"/>
<path fill-rule="evenodd" clip-rule="evenodd" d="M231.5 16.5C231.635 18.5542 230.968 20.2209 229.5 21.5C227.014 20.5384 227.014 19.7051 229.5 19C227.047 18.2618 224.547 17.7618 222 17.5C213.203 18.6786 204.369 19.3453 195.5 19.5C207.235 17.1059 219.235 16.1059 231.5 16.5Z" fill="#64D3E0"/>
<path fill-rule="evenodd" clip-rule="evenodd" d="M257.5 -0.5C262.167 -0.5 266.833 -0.5 271.5 -0.5C302.905 6.46674 331.905 18.9667 358.5 37C413.112 76.6731 445.446 130.173 455.5 197.5C455.5 198.5 455.5 199.5 455.5 200.5C455.216 202.415 455.549 204.081 456.5 205.5C456.57 223.176 456.237 240.843 455.5 258.5C454.366 261.37 453.7 264.37 453.5 267.5C452.554 276.228 451.221 284.895 449.5 293.5C447.825 296.507 447.159 299.84 447.5 303.5C446.717 305.076 445.55 306.409 444 307.5C443.667 310.167 443.333 312.833 443 315.5C441.544 318.032 440.377 320.699 439.5 323.5C433.471 336.865 427.471 350.198 421.5 363.5C409.653 383.748 392.32 390.748 369.5 384.5C376.045 380.794 381.545 375.794 386 369.5C401.692 343.424 413.025 315.424 420 285.5C433.05 228.995 427.05 174.662 402 122.5C369.923 62.4361 321.09 22.9361 255.5 4C254.429 3.14825 253.429 2.31491 252.5 1.5C254.306 0.975875 255.972 0.309209 257.5 -0.5Z" fill="#C8BFC8"/>
<path fill-rule="evenodd" clip-rule="evenodd" d="M189.5 19.5C188.054 21.5796 187.054 23.9129 186.5 26.5C181.978 27.3705 177.645 27.3705 173.5 26.5C174.167 27.1667 174.833 27.8333 175.5 28.5C178.497 29.2482 181.497 29.9149 184.5 30.5C185.331 36.8072 185.831 43.1406 186 49.5C187.825 50.1029 189.659 50.7696 191.5 51.5C190.051 52.1719 188.718 52.8386 187.5 53.5C183.01 55.6333 181.344 54.6333 182.5 50.5C179.774 50.2639 177.441 51.0972 175.5 53C177.044 53.2896 178.377 53.9563 179.5 55C178.892 55.8699 178.059 56.3699 177 56.5C175.238 55.4091 173.404 54.4091 171.5 53.5C172.32 51.8888 173.654 51.2222 175.5 51.5C175.5 50.5 175.5 49.5 175.5 48.5C177.833 48.5 180.167 48.5 182.5 48.5C182.5 42.8333 182.5 37.1667 182.5 31.5C176.774 31.3557 171.274 30.3557 166 28.5C163.152 28.7978 160.319 29.1312 157.5 29.5C159.598 28.065 161.931 26.8984 164.5 26C172.814 23.6718 181.147 21.5051 189.5 19.5Z" fill="#6FD6EB"/>
<path fill-rule="evenodd" clip-rule="evenodd" d="M229.5 21.5C228.361 24.0037 227.694 26.6703 227.5 29.5C226.883 29.6107 226.383 29.944 226 30.5C225.186 35.0204 225.353 39.3537 226.5 43.5C227.402 46.9968 228.069 50.6634 228.5 54.5C218.462 54.7081 208.462 55.3748 198.5 56.5C196.167 56.5 193.833 56.5 191.5 56.5C191.5 55.5 191.5 54.5 191.5 53.5C189.876 53.3601 188.71 54.0267 188 55.5C187.536 54.9056 187.369 54.2389 187.5 53.5C188.718 52.8386 190.051 52.1719 191.5 51.5C189.659 50.7696 187.825 50.1029 186 49.5C185.831 43.1406 185.331 36.8072 184.5 30.5C181.497 29.9149 178.497 29.2482 175.5 28.5C174.833 27.8333 174.167 27.1667 173.5 26.5C177.645 27.3705 181.978 27.3705 186.5 26.5C187.054 23.9129 188.054 21.5796 189.5 19.5C191.5 19.5 193.5 19.5 195.5 19.5C204.369 19.3453 213.203 18.6786 222 17.5C224.547 17.7618 227.047 18.2618 229.5 19C227.014 19.7051 227.014 20.5384 229.5 21.5Z" fill="#31D0E1"/>
<path fill-rule="evenodd" clip-rule="evenodd" d="M227.5 29.5C226.873 34.1408 226.54 38.8075 226.5 43.5C225.353 39.3537 225.186 35.0204 226 30.5C226.383 29.944 226.883 29.6107 227.5 29.5Z" fill="#8BCDD5"/>
<path fill-rule="evenodd" clip-rule="evenodd" d="M187.5 53.5C187.369 54.2389 187.536 54.9056 188 55.5C188.71 54.0267 189.876 53.3601 191.5 53.5C191.5 54.5 191.5 55.5 191.5 56.5C193.833 56.5 196.167 56.5 198.5 56.5C193.424 58.2388 188.09 59.4055 182.5 60C180.509 60.3736 178.842 61.207 177.5 62.5C166.025 64.8798 155.358 69.2131 145.5 75.5C143.214 73.7961 140.548 72.4628 137.5 71.5C140.107 70.6816 142.774 70.1816 145.5 70C146.5 69.1667 147.5 68.3333 148.5 67.5C146.704 66.8586 145.204 65.8586 144 64.5C140.572 64.4134 137.072 64.7467 133.5 65.5C130.167 64.6667 126.833 63.8333 123.5 63C125.736 62.2661 127.069 60.7661 127.5 58.5C126.453 56.9436 125.786 55.2769 125.5 53.5C122.743 53.3784 120.743 54.5451 119.5 57C120.938 57.2189 122.271 57.7189 123.5 58.5C122.975 59.1924 122.308 59.6924 121.5 60C117.778 60.2382 114.111 60.7382 110.5 61.5C109.614 60.675 109.281 59.675 109.5 58.5C112.588 58.3614 115.255 57.3614 117.5 55.5C117.5 54.5 117.5 53.5 117.5 52.5C115.508 52.3285 113.842 52.9951 112.5 54.5C111.702 54.0431 111.369 53.3764 111.5 52.5C125.19 41.6551 140.523 33.9885 157.5 29.5C160.319 29.1312 163.152 28.7978 166 28.5C171.274 30.3557 176.774 31.3557 182.5 31.5C182.5 37.1667 182.5 42.8333 182.5 48.5C180.167 48.5 177.833 48.5 175.5 48.5C175.5 49.5 175.5 50.5 175.5 51.5C173.654 51.2222 172.32 51.8888 171.5 53.5C173.404 54.4091 175.238 55.4091 177 56.5C178.059 56.3699 178.892 55.8699 179.5 55C178.377 53.9563 177.044 53.2896 175.5 53C177.441 51.0972 179.774 50.2639 182.5 50.5C181.344 54.6333 183.01 55.6333 187.5 53.5Z" fill="#6CD9E6"/>
<path fill-rule="evenodd" clip-rule="evenodd" d="M228.5 54.5C229.167 54.5 229.5 54.8333 229.5 55.5C222.191 56.2484 214.858 56.5817 207.5 56.5C205.897 56.3118 204.563 56.8118 203.5 58C209.01 58.0505 214.343 58.7172 219.5 60C210.805 60.6134 202.138 61.4467 193.5 62.5C191.608 61.5266 189.608 60.8599 187.5 60.5C184.158 61.1738 180.825 61.8405 177.5 62.5C178.842 61.207 180.509 60.3736 182.5 60C188.09 59.4055 193.424 58.2388 198.5 56.5C208.462 55.3748 218.462 54.7081 228.5 54.5Z" fill="#EED2AD"/>
<path fill-rule="evenodd" clip-rule="evenodd" d="M207.5 56.5C215.349 57.3301 223.349 58.1635 231.5 59C230.376 59.2492 229.376 59.7492 228.5 60.5C235.763 61.5304 242.429 64.0304 248.5 68C253.269 69.2201 257.936 70.7201 262.5 72.5C265.913 76.4942 270.247 78.9942 275.5 80C279.891 84.3755 284.891 88.0422 290.5 91C295.66 94.6612 299.994 99.1612 303.5 104.5C306.166 105.039 308.333 106.372 310 108.5C311.302 111.777 312.969 114.777 315 117.5C316.154 118.743 317.488 119.743 319 120.5C323.167 128.822 328.334 136.489 334.5 143.5C336.175 148.845 337.841 154.178 339.5 159.5C340.5 159.5 341.5 159.5 342.5 159.5C344.783 168.056 347.616 176.389 351 184.5C352.325 198.803 353.159 213.136 353.5 227.5C353.716 239.957 352.882 252.29 351 264.5C349.03 274.56 346.197 284.227 342.5 293.5C341.178 293.33 340.011 293.663 339 294.5C338.459 301.021 336.459 307.021 333 312.5C332.814 314.9 332.314 317.234 331.5 319.5C323.214 331.945 314.381 343.945 305 355.5C303.872 357.345 303.372 359.345 303.5 361.5C302.448 361.351 301.448 361.517 300.5 362C298.667 364.167 296.833 366.333 295 368.5C281.652 388.949 272.318 411.282 267 435.5C263.546 441.283 260.546 447.283 258 453.5C254.624 456.714 251.79 460.381 249.5 464.5C247.672 467.013 245.339 468.679 242.5 469.5C242.649 470.552 242.483 471.552 242 472.5C233.167 480 224.333 487.5 215.5 495C207.734 498.825 199.734 502.159 191.5 505C187.121 504.771 183.454 506.104 180.5 509C184.465 509.108 188.132 509.941 191.5 511.5C186.167 511.5 180.833 511.5 175.5 511.5C163.211 508.175 150.877 504.675 138.5 501C90.1855 476.657 63.0188 437.491 57 383.5C56.5 330.834 56.3333 278.168 56.5 225.5C67.8333 225.5 79.1667 225.5 90.5 225.5C94.747 225.178 98.747 226.011 102.5 228C105.328 230.248 108.328 232.248 111.5 234C114.474 237.128 116.807 240.628 118.5 244.5C118.694 247.33 119.361 249.996 120.5 252.5C119.5 252.5 118.5 252.5 117.5 252.5C117.5 253.5 117.5 254.5 117.5 255.5C114.86 255.954 112.527 257.121 110.5 259C105.957 263.714 101.957 268.881 98.5 274.5C97.675 275.386 96.675 275.719 95.5 275.5C95.6633 277.857 95.4966 280.19 95 282.5C93.1281 285.583 91.7948 288.916 91 292.5C90.171 301.578 90.671 310.578 92.5 319.5C94.6051 325.201 96.7718 330.868 99 336.5C103.251 341.037 107.418 345.703 111.5 350.5C116.471 352.328 120.804 355.161 124.5 359C127.52 359.901 130.52 360.734 133.5 361.5C134.5 362.167 135.5 362.833 136.5 363.5C133.5 362.833 130.5 362.167 127.5 361.5C124.86 380.991 129.194 398.658 140.5 414.5C141.325 415.386 142.325 415.719 143.5 415.5C143.5 416.833 143.5 418.167 143.5 419.5C144.978 419.238 146.311 419.571 147.5 420.5C148.373 422.413 149.373 424.247 150.5 426C153.412 427.24 156.079 428.906 158.5 431C164.01 433.998 169.677 436.498 175.5 438.5C200.321 444.948 220.821 438.281 237 418.5C239.588 414.326 241.921 409.993 244 405.5C245.717 393.514 247.384 381.514 249 369.5C252.3 359.235 257.966 350.568 266 343.5C272.623 332.886 280.623 323.552 290 315.5C294.767 308.286 299.767 301.286 305 294.5C324.339 261.472 329.005 226.472 319 189.5C301.801 149.305 271.301 127.972 227.5 125.5C220.608 125.39 213.942 126.056 207.5 127.5C202.73 127.692 198.063 128.525 193.5 130C186.586 133.526 179.586 136.86 172.5 140C166.595 145.58 160.428 150.747 154 155.5C150.577 160.74 147.077 165.74 143.5 170.5C140.742 173.678 138.742 177.345 137.5 181.5C135.087 183.985 133.42 186.985 132.5 190.5C131.271 191.281 129.938 191.781 128.5 192C130.521 192.401 131.855 193.568 132.5 195.5C131.446 197.201 130.446 198.868 129.5 200.5C123.828 198.333 118.494 195.5 113.5 192C109.064 190.755 104.731 189.589 100.5 188.5C100.389 187.883 100.056 187.383 99.5 187C89.8391 186.5 80.1724 186.334 70.5 186.5C68.4788 185.145 66.8121 183.479 65.5 181.5C64.5362 176.283 65.2029 171.283 67.5 166.5C82.0895 126.254 108.09 95.9206 145.5 75.5C155.358 69.2131 166.025 64.8798 177.5 62.5C180.825 61.8405 184.158 61.1738 187.5 60.5C189.608 60.8599 191.608 61.5266 193.5 62.5C202.138 61.4467 210.805 60.6134 219.5 60C214.343 58.7172 209.01 58.0505 203.5 58C204.563 56.8118 205.897 56.3118 207.5 56.5Z" fill="#FDD1A4"/>
<path fill-rule="evenodd" clip-rule="evenodd" d="M111.5 52.5C111.369 53.3764 111.702 54.0431 112.5 54.5C113.842 52.9951 115.508 52.3285 117.5 52.5C117.5 53.5 117.5 54.5 117.5 55.5C115.255 57.3614 112.588 58.3614 109.5 58.5C109.281 59.675 109.614 60.675 110.5 61.5C114.111 60.7382 117.778 60.2382 121.5 60C122.308 59.6924 122.975 59.1924 123.5 58.5C122.271 57.7189 120.938 57.2189 119.5 57C120.743 54.5451 122.743 53.3784 125.5 53.5C125.786 55.2769 126.453 56.9436 127.5 58.5C127.069 60.7661 125.736 62.2661 123.5 63C126.833 63.8333 130.167 64.6667 133.5 65.5C137.072 64.7467 140.572 64.4134 144 64.5C145.204 65.8586 146.704 66.8586 148.5 67.5C147.5 68.3333 146.5 69.1667 145.5 70C142.774 70.1816 140.107 70.6816 137.5 71.5C140.548 72.4628 143.214 73.7961 145.5 75.5C108.09 95.9206 82.0898 126.254 67.5003 166.5C65.1728 167.736 64.0061 169.736 64.0003 172.5C63.3336 175.167 63.3336 177.833 64.0003 180.5C64.3829 181.056 64.8829 181.389 65.5003 181.5C66.8124 183.479 68.4791 185.145 70.5003 186.5C80.3708 187.214 90.3708 187.88 100.5 188.5C104.731 189.589 109.064 190.755 113.5 192C118.494 195.5 123.828 198.333 129.5 200.5C132.476 203.302 135.642 205.969 139 208.5C141.667 211.833 144.333 215.167 147 218.5C149.324 221.48 150.824 224.813 151.5 228.5C152.508 230.544 153.508 232.544 154.5 234.5C155.489 237.726 156.489 241.06 157.5 244.5C145.044 244.13 133.044 246.463 121.5 251.5C120.912 248.937 119.912 246.604 118.5 244.5C116.807 240.628 114.474 237.128 111.5 234C108.328 232.248 105.328 230.248 102.5 228C98.7473 226.011 94.7473 225.178 90.5003 225.5C71.9618 224.934 53.2951 224.1 34.5003 223C23.3914 216.266 19.2247 206.433 22.0003 193.5C32.2108 133.681 62.0441 86.6814 111.5 52.5Z" fill="#6DD8E7"/>
<path fill-rule="evenodd" clip-rule="evenodd" d="M364.5 125.5C367.288 127.852 368.955 130.852 369.5 134.5C368.596 133.791 368.263 132.791 368.5 131.5C364.932 131.241 363.599 129.241 364.5 125.5Z" fill="#EDC6AE"/>
<path fill-rule="evenodd" clip-rule="evenodd" d="M229.5 55.5C235.842 55.3338 242.175 55.5005 248.5 56C296.288 64.0562 334.955 87.2229 364.5 125.5C363.599 129.241 364.932 131.241 368.5 131.5C368.263 132.791 368.596 133.791 369.5 134.5C382.21 154.286 390.21 175.953 393.5 199.5C394.667 218.16 394.667 236.827 393.5 255.5C393.167 255.5 392.833 255.5 392.5 255.5C391.881 262.588 390.548 269.588 388.5 276.5C385.291 281.96 383.291 287.96 382.5 294.5C373.484 317.488 361.15 338.488 345.5 357.5C327.935 377.631 316.435 400.965 311 427.5C292.318 474.656 257.818 502.656 207.5 511.5C202.167 511.5 196.833 511.5 191.5 511.5C188.132 509.941 184.465 509.108 180.5 509C183.454 506.104 187.121 504.771 191.5 505C199.734 502.159 207.734 498.825 215.5 495C224.333 487.5 233.167 480 242 472.5C242.483 471.552 242.649 470.552 242.5 469.5C245.339 468.679 247.672 467.013 249.5 464.5C251.79 460.381 254.624 456.714 258 453.5C260.546 447.283 263.546 441.283 267 435.5C272.318 411.282 281.652 388.949 295 368.5C296.833 366.333 298.667 364.167 300.5 362C301.448 361.517 302.448 361.351 303.5 361.5C303.372 359.345 303.872 357.345 305 355.5C314.381 343.945 323.214 331.945 331.5 319.5C332.314 317.234 332.814 314.9 333 312.5C336.459 307.021 338.459 301.021 339 294.5C340.011 293.663 341.178 293.33 342.5 293.5C346.197 284.227 349.03 274.56 351 264.5C352.882 252.29 353.716 239.957 353.5 227.5C353.159 213.136 352.325 198.803 351 184.5C347.616 176.389 344.783 168.056 342.5 159.5C341.5 159.5 340.5 159.5 339.5 159.5C337.841 154.178 336.175 148.845 334.5 143.5C328.334 136.489 323.167 128.822 319 120.5C317.488 119.743 316.154 118.743 315 117.5C312.969 114.777 311.302 111.777 310 108.5C308.333 106.372 306.166 105.039 303.5 104.5C299.994 99.1612 295.66 94.6612 290.5 91C284.891 88.0422 279.891 84.3755 275.5 80C270.247 78.9942 265.913 76.4942 262.5 72.5C257.936 70.7201 253.269 69.2201 248.5 68C242.429 64.0304 235.763 61.5304 228.5 60.5C229.376 59.7492 230.376 59.2492 231.5 59C223.349 58.1635 215.349 57.3301 207.5 56.5C214.858 56.5817 222.191 56.2484 229.5 55.5Z" fill="#FDBD85"/>
<path fill-rule="evenodd" clip-rule="evenodd" d="M175.5 438.5C175.351 437.448 175.517 436.448 176 435.5C197.861 423.023 207.861 404.023 206 378.5C207.071 371.547 209.071 364.88 212 358.5C225.208 340.784 239.375 323.784 254.5 307.5C258.085 302 261.918 296.667 266 291.5C270.011 282.121 274.011 272.788 278 263.5C284.582 240.219 284.915 216.886 279 193.5C271.439 173.856 259.606 157.356 243.5 144C236.594 140.758 229.927 137.092 223.5 133C218.26 130.934 212.926 129.101 207.5 127.5C213.942 126.056 220.608 125.39 227.5 125.5C271.301 127.972 301.801 149.305 319 189.5C329.005 226.472 324.339 261.472 305 294.5C299.767 301.286 294.767 308.286 290 315.5C280.623 323.552 272.623 332.886 266 343.5C257.966 350.568 252.3 359.235 249 369.5C247.384 381.514 245.717 393.514 244 405.5C241.921 409.993 239.588 414.326 237 418.5C220.821 438.281 200.321 444.948 175.5 438.5Z" fill="#F4A96D"/>
<path fill-rule="evenodd" clip-rule="evenodd" d="M67.5 166.5C65.2029 171.283 64.5362 176.283 65.5 181.5C64.8826 181.389 64.3826 181.056 64 180.5C63.3333 177.833 63.3333 175.167 64 172.5C64.0058 169.736 65.1725 167.736 67.5 166.5Z" fill="#A8D4C6"/>
<path fill-rule="evenodd" clip-rule="evenodd" d="M143.5 170.5C163.169 170.333 182.836 170.5 202.5 171C237.825 175.322 259.659 194.822 268 229.5C268.829 234.864 268.663 240.198 267.5 245.5C261.963 251.382 257.463 250.716 254 243.5C253.896 231.956 250.896 221.289 245 211.5C238.434 204.264 231.267 197.764 223.5 192C215.811 188.771 207.811 186.771 199.5 186C178.836 185.5 158.169 185.333 137.5 185.5C137.5 184.167 137.5 182.833 137.5 181.5C138.742 177.345 140.742 173.678 143.5 170.5Z" fill="#F4A96D"/>
<path fill-rule="evenodd" clip-rule="evenodd" d="M70.5 186.5C80.1724 186.334 89.8391 186.5 99.5 187C100.056 187.383 100.389 187.883 100.5 188.5C90.3705 187.88 80.3705 187.214 70.5 186.5Z" fill="#E9D9B7"/>
<path fill-rule="evenodd" clip-rule="evenodd" d="M207.5 127.5C212.926 129.101 218.26 130.934 223.5 133C229.927 137.092 236.594 140.758 243.5 144C259.606 157.356 271.439 173.856 279 193.5C284.915 216.886 284.582 240.219 278 263.5C274.011 272.788 270.011 282.121 266 291.5C261.918 296.667 258.085 302 254.5 307.5C239.375 323.784 225.208 340.784 212 358.5C209.071 364.88 207.071 371.547 206 378.5C207.861 404.023 197.861 423.023 176 435.5C175.517 436.448 175.351 437.448 175.5 438.5C169.677 436.498 164.01 433.998 158.5 431C156.079 428.906 153.412 427.24 150.5 426C149.373 424.247 148.373 422.413 147.5 420.5C146.311 419.571 144.978 419.238 143.5 419.5C143.5 418.167 143.5 416.833 143.5 415.5C142.325 415.719 141.325 415.386 140.5 414.5C129.194 398.658 124.86 380.991 127.5 361.5C130.5 362.167 133.5 362.833 136.5 363.5C145.173 363.666 153.84 363.5 162.5 363C175.487 358.914 186.987 352.08 197 342.5C201.416 335.33 205.083 327.663 208 319.5C213.814 291.919 205.314 270.086 182.5 254C176.242 250.446 169.576 247.946 162.5 246.5C160.972 245.691 159.306 245.024 157.5 244.5C156.489 241.06 155.489 237.726 154.5 234.5C154.975 231.687 153.975 229.687 151.5 228.5C150.824 224.813 149.324 221.48 147 218.5C144.333 215.167 141.667 211.833 139 208.5C135.642 205.969 132.476 203.302 129.5 200.5C130.446 198.868 131.446 197.201 132.5 195.5C131.855 193.568 130.521 192.401 128.5 192C129.938 191.781 131.271 191.281 132.5 190.5C133.42 186.985 135.087 183.985 137.5 181.5C137.5 182.833 137.5 184.167 137.5 185.5C158.169 185.333 178.836 185.5 199.5 186C207.811 186.771 215.811 188.771 223.5 192C231.267 197.764 238.434 204.264 245 211.5C250.896 221.289 253.896 231.956 254 243.5C257.463 250.716 261.963 251.382 267.5 245.5C268.663 240.198 268.829 234.864 268 229.5C259.659 194.822 237.825 175.322 202.5 171C182.836 170.5 163.169 170.333 143.5 170.5C147.077 165.74 150.577 160.74 154 155.5C160.428 150.747 166.595 145.58 172.5 140C179.586 136.86 186.586 133.526 193.5 130C198.063 128.525 202.73 127.692 207.5 127.5Z" fill="#FDBD85"/>
<path fill-rule="evenodd" clip-rule="evenodd" d="M388.5 276.5C390.548 269.588 391.881 262.588 392.5 255.5C392.183 258.572 392.516 261.572 393.5 264.5C396.101 258.053 396.935 251.386 396 244.5C394.907 248.169 394.074 251.836 393.5 255.5C394.667 236.827 394.667 218.16 393.5 199.5C394.268 200.263 394.768 201.263 395 202.5C395.359 197.141 395.359 191.807 395 186.5C397.268 189.954 398.435 193.787 398.5 198C395.94 217.872 396.273 237.706 399.5 257.5C395.893 261.163 395.56 265.163 398.5 269.5C398.167 270.167 397.833 270.833 397.5 271.5C395.942 266.306 394.942 266.306 394.5 271.5C393.5 271.5 392.5 271.5 391.5 271.5C391.649 270.448 391.483 269.448 391 268.5C390.667 270.833 390.333 273.167 390 275.5C389.617 276.056 389.117 276.389 388.5 276.5Z" fill="#DCCECB"/>
<path fill-rule="evenodd" clip-rule="evenodd" d="M489.5 214.5C490.661 227.994 490.827 241.66 490 255.5C489.963 257.974 489.13 259.974 487.5 261.5C489.27 245.914 489.936 230.247 489.5 214.5Z" fill="#D6FCFE"/>
<path fill-rule="evenodd" clip-rule="evenodd" d="M456.5 205.5C457.495 216.654 457.828 227.988 457.5 239.5C457.414 246.037 456.747 252.37 455.5 258.5C456.237 240.843 456.57 223.176 456.5 205.5Z" fill="#A1C9D3"/>
<path fill-rule="evenodd" clip-rule="evenodd" d="M151.5 228.5C153.975 229.687 154.975 231.687 154.5 234.5C153.508 232.544 152.508 230.544 151.5 228.5Z" fill="#B0D0AC"/>
<path fill-rule="evenodd" clip-rule="evenodd" d="M455.5 197.5C464.173 197.334 472.84 197.5 481.5 198C484.945 199.388 487.111 201.888 488 205.5C488.259 208.587 488.759 211.587 489.5 214.5C489.936 230.247 489.27 245.914 487.5 261.5C486.373 264.745 484.039 266.578 480.5 267C474.843 267.499 469.176 267.666 463.5 267.5C464.531 266.751 465.698 266.085 467 265.5C467.492 264.451 467.326 263.451 466.5 262.5C467.325 261.614 468.325 261.281 469.5 261.5C472.003 242.807 472.003 224.141 469.5 205.5C466.379 199.954 461.712 198.287 455.5 200.5C455.5 199.5 455.5 198.5 455.5 197.5Z" fill="#32D1E1"/>
<path fill-rule="evenodd" clip-rule="evenodd" d="M474.5 207.5C475.5 207.5 476.5 207.5 477.5 207.5C476.167 223.5 476.167 239.5 477.5 255.5C476.5 255.5 475.5 255.5 474.5 255.5C474.5 239.5 474.5 223.5 474.5 207.5Z" fill="#33CDE3"/>
<path fill-rule="evenodd" clip-rule="evenodd" d="M469.5 205.5C467.5 205.5 465.5 205.5 463.5 205.5C462.448 207.256 460.781 207.923 458.5 207.5C458.505 220.907 459.505 234.24 461.5 247.5C461.615 252.985 460.782 258.319 459 263.5C458.627 261.302 458.127 259.135 457.5 257C458.789 251.025 458.789 245.191 457.5 239.5C457.828 227.988 457.495 216.654 456.5 205.5C455.549 204.081 455.216 202.415 455.5 200.5C461.712 198.287 466.379 199.954 469.5 205.5Z" fill="#71D5EC"/>
<path fill-rule="evenodd" clip-rule="evenodd" d="M463.5 205.5C461.023 205.949 459.023 205.283 457.5 203.5C459.396 202.534 461.396 202.201 463.5 202.5C463.5 203.5 463.5 204.5 463.5 205.5Z" fill="#62E0DE"/>
<path fill-rule="evenodd" clip-rule="evenodd" d="M162.5 246.5C169.576 247.946 176.242 250.446 182.5 254C205.314 270.086 213.814 291.919 208 319.5C205.083 327.663 201.416 335.33 197 342.5C186.987 352.08 175.487 358.914 162.5 363C153.84 363.5 145.173 363.666 136.5 363.5C135.5 362.833 134.5 362.167 133.5 361.5C142.806 362.554 152.139 362.721 161.5 362C153.938 360.733 146.271 360.066 138.5 360C142.615 358.348 146.615 356.348 150.5 354C154.584 353.769 158.584 353.102 162.5 352C160.1 351.814 157.766 351.314 155.5 350.5C158.79 346.708 162.29 343.042 166 339.5C168.111 335.065 170.611 330.899 173.5 327C173.034 325.701 173.034 324.201 173.5 322.5C172.5 322.5 171.5 322.5 170.5 322.5C177.757 311.636 178.424 300.303 172.5 288.5C173.429 287.685 174.429 286.852 175.5 286C169.519 272.148 159.852 260.981 146.5 252.5C148.484 251.294 150.484 251.294 152.5 252.5C153.803 249.621 155.803 248.955 158.5 250.5C159.429 249.311 159.762 247.978 159.5 246.5C160.5 246.5 161.5 246.5 162.5 246.5Z" fill="#EFECEF"/>
<path fill-rule="evenodd" clip-rule="evenodd" d="M118.5 244.5C119.912 246.604 120.912 248.937 121.5 251.5C133.044 246.463 145.044 244.13 157.5 244.5C159.306 245.024 160.972 245.691 162.5 246.5C161.5 246.5 160.5 246.5 159.5 246.5C159.762 247.978 159.429 249.311 158.5 250.5C155.803 248.955 153.803 249.621 152.5 252.5C150.484 251.294 148.484 251.294 146.5 252.5C159.852 260.981 169.519 272.148 175.5 286C174.429 286.852 173.429 287.685 172.5 288.5C158.914 274.79 144.748 274.124 130 286.5C121.453 298.422 121.453 310.422 130 322.5C143.485 334.466 156.985 334.466 170.5 322.5C171.5 322.5 172.5 322.5 173.5 322.5C173.034 324.201 173.034 325.701 173.5 327C170.611 330.899 168.111 335.065 166 339.5C162.29 343.042 158.79 346.708 155.5 350.5C157.766 351.314 160.1 351.814 162.5 352C158.584 353.102 154.584 353.769 150.5 354C146.615 356.348 142.615 358.348 138.5 360C146.271 360.066 153.938 360.733 161.5 362C152.139 362.721 142.806 362.554 133.5 361.5C130.52 360.734 127.52 359.901 124.5 359C120.804 355.161 116.471 352.328 111.5 350.5C107.418 345.703 103.251 341.037 99.0001 336.5C96.7719 330.868 94.6052 325.201 92.5001 319.5C90.6711 310.578 90.1711 301.578 91.0001 292.5C91.7949 288.916 93.1282 285.583 95.0001 282.5C95.4967 280.19 95.6634 277.857 95.5001 275.5C96.6751 275.719 97.6751 275.386 98.5001 274.5C101.957 268.881 105.957 263.714 110.5 259C112.527 257.121 114.86 255.954 117.5 255.5C117.5 254.5 117.5 253.5 117.5 252.5C118.5 252.5 119.5 252.5 120.5 252.5C119.361 249.996 118.694 247.33 118.5 244.5Z" fill="#F8F6F7"/>
<path fill-rule="evenodd" clip-rule="evenodd" d="M463.5 205.5C465.5 205.5 467.5 205.5 469.5 205.5C472.003 224.141 472.003 242.807 469.5 261.5C468.325 261.281 467.325 261.614 466.5 262.5C467.326 263.451 467.492 264.451 467 265.5C465.698 266.085 464.531 266.751 463.5 267.5C460.167 267.5 456.833 267.5 453.5 267.5C453.7 264.37 454.366 261.37 455.5 258.5C456.747 252.37 457.414 246.037 457.5 239.5C458.789 245.191 458.789 251.025 457.5 257C458.127 259.135 458.627 261.302 459 263.5C460.782 258.319 461.615 252.985 461.5 247.5C459.505 234.24 458.505 220.907 458.5 207.5C460.781 207.923 462.448 207.256 463.5 205.5Z" fill="#6AD9E8"/>
<path fill-rule="evenodd" clip-rule="evenodd" d="M392.5 255.5C392.833 255.5 393.167 255.5 393.5 255.5C394.074 251.836 394.907 248.169 396 244.5C396.935 251.386 396.101 258.053 393.5 264.5C392.516 261.572 392.183 258.572 392.5 255.5Z" fill="#D0D0E5"/>
<path fill-rule="evenodd" clip-rule="evenodd" d="M172.5 288.5C178.424 300.303 177.757 311.636 170.5 322.5C156.985 334.466 143.485 334.466 130 322.5C121.453 310.422 121.453 298.422 130 286.5C144.748 274.124 158.914 274.79 172.5 288.5Z" fill="#7B7279"/>
<path fill-rule="evenodd" clip-rule="evenodd" d="M388.5 276.5C388.398 279.973 387.398 283.139 385.5 286C388.561 290.253 387.561 293.086 382.5 294.5C383.291 287.96 385.291 281.96 388.5 276.5Z" fill="#E2CCC3"/>
<path fill-rule="evenodd" clip-rule="evenodd" d="M474.5 295.5C478.701 296.63 480.701 299.463 480.5 304C480.164 309.613 478.831 314.78 476.5 319.5C476.82 316.102 476.487 312.768 475.5 309.5C474.236 313.18 474.236 316.847 475.5 320.5C474.938 324.413 473.438 325.079 471 322.5C470.392 319.183 469.892 315.849 469.5 312.5C470.887 309.635 471.887 306.635 472.5 303.5C475.022 303.872 477.022 303.039 478.5 301C477.335 299.916 476.002 299.083 474.5 298.5C473.224 297.386 473.224 296.386 474.5 295.5Z" fill="#35D2DC"/>
<path fill-rule="evenodd" clip-rule="evenodd" d="M449.5 293.5C450.5 293.5 451.5 293.5 452.5 293.5C452.5 294.5 452.5 295.5 452.5 296.5C454.857 296.337 457.19 296.503 459.5 297C460.104 299.468 461.438 301.468 463.5 303C461.757 307.469 460.091 311.969 458.5 316.5C458.657 315.127 458.49 313.793 458 312.5C456.571 318.46 454.571 324.127 452 329.5C450.476 326.39 449.642 323.056 449.5 319.5C448.167 319.5 446.833 319.5 445.5 319.5C445.726 316.751 445.393 314.084 444.5 311.5C444.833 311.167 445.167 310.833 445.5 310.5C446.251 311.376 446.751 312.376 447 313.5C447.498 310.183 447.665 306.85 447.5 303.5C447.159 299.84 447.825 296.507 449.5 293.5Z" fill="#6CD9E6"/>
<path fill-rule="evenodd" clip-rule="evenodd" d="M452.5 293.5C459.508 293.334 466.508 293.5 473.5 294C474.056 294.383 474.389 294.883 474.5 295.5C473.224 296.386 473.224 297.386 474.5 298.5C476.002 299.083 477.335 299.916 478.5 301C477.022 303.039 475.022 303.872 472.5 303.5C471.887 306.635 470.887 309.635 469.5 312.5C469.892 315.849 470.392 319.183 471 322.5C473.438 325.079 474.938 324.413 475.5 320.5C474.236 316.847 474.236 313.18 475.5 309.5C476.487 312.768 476.82 316.102 476.5 319.5C474.834 325.499 473.167 331.499 471.5 337.5C468.986 341.871 466.986 346.537 465.5 351.5C464.81 356.27 462.477 359.937 458.5 362.5C454.232 363.373 449.898 363.706 445.5 363.5C445.056 361.887 444.056 360.72 442.5 360C444.619 358.1 446.953 356.434 449.5 355C447.884 354.385 446.551 353.385 445.5 352C447.148 350.538 448.148 348.705 448.5 346.5C450.034 343.265 451.701 340.099 453.5 337C453.167 336 452.833 335 452.5 334C454.989 328.368 456.989 322.535 458.5 316.5C460.091 311.969 461.757 307.469 463.5 303C461.438 301.468 460.104 299.468 459.5 297C457.19 296.503 454.857 296.337 452.5 296.5C452.5 295.5 452.5 294.5 452.5 293.5Z" fill="#33D0E2"/>
<path fill-rule="evenodd" clip-rule="evenodd" d="M465.5 312.5C467.137 316.141 468.303 320.141 469 324.5C469.667 328.5 469.667 332.5 469 336.5C467.768 334.567 466.602 332.567 465.5 330.5C464.684 324.647 464.684 318.647 465.5 312.5Z" fill="#2AD4D9"/>
<path fill-rule="evenodd" clip-rule="evenodd" d="M447.5 303.5C447.665 306.85 447.498 310.183 447 313.5C446.751 312.376 446.251 311.376 445.5 310.5C445.167 310.833 444.833 311.167 444.5 311.5C445.393 314.084 445.726 316.751 445.5 319.5C446.833 319.5 448.167 319.5 449.5 319.5C449.642 323.056 450.476 326.39 452 329.5C454.571 324.127 456.571 318.46 458 312.5C458.49 313.793 458.657 315.127 458.5 316.5C456.989 322.535 454.989 328.368 452.5 334C452.833 335 453.167 336 453.5 337C451.701 340.099 450.034 343.265 448.5 346.5C444.194 344.731 443.361 341.731 446 337.5C447.411 341.397 448.578 341.397 449.5 337.5C448.5 335.5 447.5 333.5 446.5 331.5C445.571 332.689 445.238 334.022 445.5 335.5C444.167 335.5 442.833 335.5 441.5 335.5C441.604 332.91 440.937 330.577 439.5 328.5C439.833 327.833 440.167 327.167 440.5 326.5C441.281 327.737 442.281 328.737 443.5 329.5C444.53 327.483 445.53 325.483 446.5 323.5C446.167 322.833 445.833 322.167 445.5 321.5C444.566 326.173 443.066 326.506 441 322.5C440.617 323.056 440.117 323.389 439.5 323.5C440.377 320.699 441.544 318.032 443 315.5C443.333 312.833 443.667 310.167 444 307.5C445.55 306.409 446.717 305.076 447.5 303.5Z" fill="#6FD6EA"/>
<path fill-rule="evenodd" clip-rule="evenodd" d="M471.5 337.5C470.824 342.902 468.824 347.568 465.5 351.5C466.986 346.537 468.986 341.871 471.5 337.5Z" fill="#CDFBEF"/>
<path fill-rule="evenodd" clip-rule="evenodd" d="M448.5 346.5C448.148 348.705 447.148 350.538 445.5 352C446.551 353.385 447.884 354.385 449.5 355C446.953 356.434 444.619 358.1 442.5 360C444.056 360.72 445.056 361.887 445.5 363.5C437.5 363.5 429.5 363.5 421.5 363.5C427.471 350.198 433.471 336.865 439.5 323.5C440.117 323.389 440.617 323.056 441 322.5C443.066 326.506 444.566 326.173 445.5 321.5C445.833 322.167 446.167 322.833 446.5 323.5C445.53 325.483 444.53 327.483 443.5 329.5C442.281 328.737 441.281 327.737 440.5 326.5C440.167 327.167 439.833 327.833 439.5 328.5C440.937 330.577 441.604 332.91 441.5 335.5C442.833 335.5 444.167 335.5 445.5 335.5C445.238 334.022 445.571 332.689 446.5 331.5C447.5 333.5 448.5 335.5 449.5 337.5C448.578 341.397 447.411 341.397 446 337.5C443.361 341.731 444.194 344.731 448.5 346.5Z" fill="#6AD8E5"/>
<path fill-rule="evenodd" clip-rule="evenodd" d="M458.5 362.5C458.389 363.117 458.056 363.617 457.5 364C445.326 364.826 433.326 364.66 421.5 363.5C429.5 363.5 437.5 363.5 445.5 363.5C449.898 363.706 454.232 363.373 458.5 362.5Z" fill="#C4F8F5"/>
</g>
<defs>
<clipPath id="clip0_12_401">
<rect width="512" height="512" fill="white"/>
</clipPath>
</defs>
</svg>
