<svg width="512" height="512" viewBox="0 0 512 512" fill="none" xmlns="http://www.w3.org/2000/svg">
<g clip-path="url(#clip0_12_898)">
<path fill-rule="evenodd" clip-rule="evenodd" d="M89.5 100.5C89.5 114.833 89.5 129.167 89.5 143.5C88.8333 129.661 88.1667 115.661 87.5 101.5C86.5224 101.977 85.6891 102.643 85 103.5C84.5026 106.146 84.3359 108.813 84.5 111.5C83.5 111.5 82.5 111.5 81.5 111.5C82.9362 108.09 82.6028 104.923 80.5 102C76.5066 101.83 72.5066 101.996 68.5 102.5C68.8261 121.743 68.4928 140.91 67.5 160C68.8228 160.816 69.4894 161.983 69.5 163.5C62.7794 167.948 55.946 172.281 49 176.5C48.6667 168.833 48.3333 161.167 48 153.5C45.7607 150.038 42.594 148.705 38.5 149.5C38.7828 148.711 39.2828 148.044 40 147.5C40.1929 142.25 40.6929 137.083 41.5 132C40.6195 131.292 39.9528 130.458 39.5 129.5C43.6826 130.154 46.516 128.488 48 124.5C48.4997 116.507 48.6664 108.507 48.5 100.5C62.1667 100.5 75.8333 100.5 89.5 100.5Z" fill="#E0EBFA"/>
<path fill-rule="evenodd" clip-rule="evenodd" d="M89.5 143.5C89.7214 146.279 89.388 148.946 88.5 151.5C81.9979 155.25 75.6645 159.25 69.5 163.5C69.4894 161.983 68.8228 160.816 67.5 160C68.4928 140.91 68.8261 121.743 68.5 102.5C72.5066 101.996 76.5066 101.83 80.5 102C82.6028 104.923 82.9362 108.09 81.5 111.5C82.5 111.5 83.5 111.5 84.5 111.5C84.3359 108.813 84.5026 106.146 85 103.5C85.6891 102.643 86.5224 101.977 87.5 101.5C88.1667 115.661 88.8333 129.661 89.5 143.5Z" fill="#D2E4FB"/>
<path fill-rule="evenodd" clip-rule="evenodd" d="M89.5 100.5C90.1664 108.827 90.4998 117.327 90.5 126C90.4981 134.861 89.8314 143.361 88.5 151.5C89.388 148.946 89.7214 146.279 89.5 143.5C89.5 129.167 89.5 114.833 89.5 100.5Z" fill="#21292E"/>
<path fill-rule="evenodd" clip-rule="evenodd" d="M279.5 141.5C275.9 144.784 271.9 145.284 267.5 143C246.473 128.822 225.14 115.155 203.5 102C200.167 101.333 196.833 101.333 193.5 102C192.584 102.278 191.918 102.778 191.5 103.5C134.697 139.405 78.0301 175.571 21.5 212C12.5661 220.538 12.2328 229.538 20.5 239C26.1372 242.788 32.1372 243.454 38.5 241C88.3272 209.253 137.994 177.253 187.5 145C190.94 142.613 194.607 140.78 198.5 139.5C200.299 139.577 201.966 140.077 203.5 141C243.032 166.697 282.699 192.197 322.5 217.5C323.333 216.5 324.167 215.5 325 214.5C327.254 207.673 329.754 201.006 332.5 194.5C334.504 192.162 335.671 189.495 336 186.5C322.833 178 309.667 169.5 296.5 161C292.983 157.777 292.65 154.277 295.5 150.5C297.723 148.221 300.389 147.388 303.5 148C317.588 156.459 331.421 165.292 345 174.5C360.54 155.141 380.04 141.308 403.5 133C412.165 130.655 417.165 133.822 418.5 142.5C414.097 152.774 410.93 163.44 409 174.5C405.222 195.899 410.889 214.232 426 229.5C433.918 241 438.751 253.667 440.5 267.5C440.173 272.214 440.507 276.88 441.5 281.5C442.107 281.376 442.44 281.043 442.5 280.5C451.767 265.526 456.267 249.193 456 231.5C456.785 229.714 457.951 228.214 459.5 227C465.658 225.328 470.491 227.162 474 232.5C486.256 249.51 495.756 268.01 502.5 288C502.169 291.48 500.502 293.98 497.5 295.5C494.138 295.93 491.305 294.93 489 292.5C484.385 279.269 478.218 266.936 470.5 255.5C470.631 254.624 470.298 253.957 469.5 253.5C467.408 259.44 465.408 265.44 463.5 271.5C463.5 272.167 463.5 272.833 463.5 273.5C457.251 285.263 449.584 296.096 440.5 306C428.773 313.236 423.44 310.069 424.5 296.5C424.5 295.167 424.5 293.833 424.5 292.5C427.116 282.503 427.116 272.503 424.5 262.5C421.657 248.815 415.157 237.148 405 227.5C399.018 218.388 395.518 208.388 394.5 197.5C394.35 188.143 394.683 178.809 395.5 169.5C395.896 163.252 397.23 157.252 399.5 151.5C390.272 154.112 382.272 158.779 375.5 165.5C360.768 176.409 349.935 190.409 343 207.5C334.312 229.307 329.979 251.973 330 275.5C327.809 284.346 322.642 286.846 314.5 283C305.663 274.352 298.663 264.519 293.5 253.5C291.61 253.297 290.11 253.963 289 255.5C274.95 281.035 268.45 308.368 269.5 337.5C268.67 327.675 268.17 317.675 268 307.5C267.667 308.167 267.333 308.833 267 309.5C266.808 307.423 266.308 305.423 265.5 303.5C263.119 305.098 261.952 307.432 262 310.5C261.503 308.19 261.337 305.857 261.5 303.5C259.708 303.634 258.042 303.301 256.5 302.5C261.315 278.889 270.148 256.889 283 236.5C287.692 231.784 292.859 231.284 298.5 235C303.377 243.926 308.877 252.426 315 260.5C316.178 251.765 317.678 243.098 319.5 234.5C279.675 207.751 239.341 181.751 198.5 156.5C148.288 187.873 98.4547 219.873 49 252.5C48.6667 279.833 48.3333 307.167 48 334.5C45.4744 339.416 41.6411 340.75 36.5 338.5C35.2101 337.942 34.3768 336.942 34 335.5C33.5 309.502 33.3334 283.502 33.5 257.5C15.8054 257.001 4.47203 248.335 -0.5 231.5C-0.5 227.833 -0.5 224.167 -0.5 220.5C0.71545 216.05 2.54878 211.717 5 207.5C13.4848 199.346 22.8181 192.346 33 186.5C33.3333 175.5 33.6667 164.5 34 153.5C34.7475 151.249 36.2475 149.916 38.5 149.5C42.594 148.705 45.7607 150.038 48 153.5C48.3333 161.167 48.6667 168.833 49 176.5C55.946 172.281 62.7794 167.948 69.5 163.5C75.6645 159.25 81.9979 155.25 88.5 151.5C89.8314 143.361 90.4981 134.861 90.5 126C90.4998 117.327 90.1664 108.827 89.5 100.5C75.8333 100.5 62.1667 100.5 48.5 100.5C48.6664 108.507 48.4997 116.507 48 124.5C46.516 128.488 43.6826 130.154 39.5 129.5C36.8517 129.262 35.0183 127.928 34 125.5C33.5003 117.173 33.3336 108.84 33.5 100.5C28.4645 101.498 24.2978 100.165 21 96.5C20.0367 82.7389 20.37 69.0722 22 55.5C22.7504 54.8742 23.5838 54.3742 24.5 54C54.1667 53.3333 83.8333 53.3333 113.5 54C114.416 54.3742 115.25 54.8742 116 55.5C117.63 69.0722 117.963 82.7389 117 96.5C113.613 100.039 109.447 101.372 104.5 100.5C104.333 113.837 104.5 127.171 105 140.5C131.167 123.667 157.333 106.833 183.5 90C194.313 85.105 204.979 85.4384 215.5 91C236.167 104.333 256.833 117.667 277.5 131C280.542 134.041 281.208 137.541 279.5 141.5Z" fill="#050405"/>
<path fill-rule="evenodd" clip-rule="evenodd" d="M191.5 103.5C239.158 133.766 286.158 164.099 332.5 194.5C329.754 201.006 327.254 207.673 325 214.5C324.167 215.5 323.333 216.5 322.5 217.5C282.699 192.197 243.032 166.697 203.5 141C201.966 140.077 200.299 139.577 198.5 139.5C194.607 140.78 190.94 142.613 187.5 145C137.994 177.253 88.3273 209.253 38.5001 241C32.1373 243.454 26.1373 242.788 20.5001 239C12.2329 229.538 12.5662 220.538 21.5001 212C78.0302 175.571 134.697 139.405 191.5 103.5Z" fill="#365E7C"/>
<path fill-rule="evenodd" clip-rule="evenodd" d="M35.4996 68.5C35.4996 73.8333 35.4996 79.1667 35.4996 84.5C50.8329 84.5 66.1663 84.5 81.4996 84.5C81.4996 83.1667 81.4996 81.8333 81.4996 80.5C100.167 80.1667 100.167 79.8333 81.4996 79.5C81.4996 75.8333 81.4996 72.1667 81.4996 68.5C88.4996 68.5 95.4996 68.5 102.5 68.5C102.5 74.1667 102.5 79.8333 102.5 85.5C79.8329 85.5 57.1663 85.5 34.4996 85.5C34.1774 79.642 34.5107 73.9753 35.4996 68.5Z" fill="#2A4960"/>
<path fill-rule="evenodd" clip-rule="evenodd" d="M35.5 68.5C50.8333 68.5 66.1667 68.5 81.5 68.5C81.5 72.1667 81.5 75.8333 81.5 79.5C100.167 79.8333 100.167 80.1667 81.5 80.5C81.5 81.8333 81.5 83.1667 81.5 84.5C66.1667 84.5 50.8333 84.5 35.5 84.5C35.5 79.1667 35.5 73.8333 35.5 68.5Z" fill="#375E7B"/>
<path fill-rule="evenodd" clip-rule="evenodd" d="M279.5 141.5C284.833 144.5 290.167 147.5 295.5 150.5C292.65 154.277 292.983 157.777 296.5 161C309.667 169.5 322.833 178 336 186.5C335.671 189.495 334.504 192.162 332.5 194.5C286.158 164.099 239.158 133.766 191.5 103.5C191.918 102.778 192.584 102.278 193.5 102C196.833 101.333 200.167 101.333 203.5 102C225.14 115.155 246.473 128.822 267.5 143C271.9 145.284 275.9 144.784 279.5 141.5Z" fill="#2A4B63"/>
<path fill-rule="evenodd" clip-rule="evenodd" d="M256.5 302.5C248.533 359.396 266.867 405.896 311.5 442C287.502 442.5 263.502 442.667 239.5 442.5C239.667 399.499 239.5 356.499 239 313.5C238.065 310.898 236.232 309.398 233.5 309C209.833 308.333 186.167 308.333 162.5 309C160.274 310.227 158.774 312.061 158 314.5C157.5 357.165 157.333 399.832 157.5 442.5C121.167 442.5 84.8333 442.5 48.5 442.5C48.6666 416.165 48.5 389.831 48 363.5C45.7607 360.038 42.594 358.705 38.5 359.5C40.5632 358.628 42.5632 357.462 44.5 356C43.1667 355 41.8333 354 40.5 353C41.6219 349.591 41.7886 346.091 41 342.5C38.0495 343.232 36.5495 341.899 36.5 338.5C41.6411 340.75 45.4744 339.416 48 334.5C48.3333 307.167 48.6667 279.833 49 252.5C98.4547 219.873 148.288 187.873 198.5 156.5C239.341 181.751 279.675 207.751 319.5 234.5C317.678 243.098 316.178 251.765 315 260.5C308.877 252.426 303.377 243.926 298.5 235C292.859 231.284 287.692 231.784 283 236.5C270.148 256.889 261.315 278.889 256.5 302.5Z" fill="#F5F8FC"/>
<path fill-rule="evenodd" clip-rule="evenodd" d="M395.5 169.5C393.943 174.569 393.276 179.902 393.5 185.5C393.501 189.681 393.834 193.681 394.5 197.5C395.518 208.388 399.018 218.388 405 227.5C415.157 237.148 421.657 248.815 424.5 262.5C424.5 272.5 424.5 282.5 424.5 292.5C424.5 293.833 424.5 295.167 424.5 296.5C423.732 297.263 423.232 298.263 423 299.5C421.009 297.543 419.009 295.543 417 293.5C411.081 279.16 406.081 264.493 402 249.5C397.185 239.354 391.019 230.188 383.5 222C377.147 211.424 374.147 199.924 374.5 187.5C375.116 182.574 375.116 177.741 374.5 173C376.656 170.712 376.99 168.212 375.5 165.5C382.272 158.779 390.272 154.112 399.5 151.5C397.23 157.252 395.896 163.252 395.5 169.5Z" fill="#DA4655"/>
<path fill-rule="evenodd" clip-rule="evenodd" d="M395.5 169.5C394.683 178.809 394.35 188.143 394.5 197.5C393.834 193.681 393.501 189.681 393.5 185.5C393.276 179.902 393.943 174.569 395.5 169.5Z" fill="#2D0A0E"/>
<path fill-rule="evenodd" clip-rule="evenodd" d="M189.5 187.5C213.114 184.88 228.28 194.88 235 217.5C236.387 240.45 225.887 254.616 203.5 260C182.62 260.977 169.12 251.477 163 231.5C160.353 209.778 169.186 195.111 189.5 187.5Z" fill="#060608"/>
<path fill-rule="evenodd" clip-rule="evenodd" d="M375.5 165.5C376.99 168.212 376.656 170.712 374.5 173C375.116 177.741 375.116 182.574 374.5 187.5C374.147 199.924 377.147 211.424 383.5 222C391.019 230.188 397.185 239.354 402 249.5C406.081 264.493 411.081 279.16 417 293.5C419.009 295.543 421.009 297.543 423 299.5C423.232 298.263 423.732 297.263 424.5 296.5C423.44 310.069 428.773 313.236 440.5 306C449.584 296.096 457.251 285.263 463.5 273.5C467.94 285.911 471.773 298.578 475 311.5C482.9 350.053 474.566 384.386 450 414.5C444.929 420.076 439.429 425.076 433.5 429.5C433.817 425.298 433.483 421.298 432.5 417.5C430.12 399.075 422.62 383.075 410 369.5C408.392 366.618 407.059 363.618 406 360.5C404.458 351.896 404.124 343.23 405 334.5C406.511 328.641 408.011 322.807 409.5 317C409.972 312.262 407.972 309.262 403.5 308C376.23 311.255 355.063 324.421 340 347.5C334.209 357.04 330.709 367.373 329.5 378.5C328.089 384.441 327.423 390.608 327.5 397C327.501 400.683 327.835 404.183 328.5 407.5C329.336 417.662 331.002 427.662 333.5 437.5C333.167 438.167 332.833 438.833 332.5 439.5C303.681 419.532 283.847 392.866 273 359.5C271.016 352.294 269.849 344.961 269.5 337.5C268.45 308.368 274.95 281.035 289 255.5C290.11 253.963 291.61 253.297 293.5 253.5C298.663 264.519 305.663 274.352 314.5 283C322.642 286.846 327.809 284.346 330 275.5C329.979 251.973 334.312 229.307 343 207.5C349.935 190.409 360.768 176.409 375.5 165.5Z" fill="#E5636D"/>
<path fill-rule="evenodd" clip-rule="evenodd" d="M191.5 243.5C193.855 240.124 195.688 236.457 197 232.5C199.616 224.101 198.782 216.101 194.5 208.5C195.025 207.808 195.692 207.308 196.5 207C194.24 206.451 192.574 205.284 191.5 203.5C207.806 199.993 217.472 206.493 220.5 223C217.948 240.433 208.282 247.266 191.5 243.5Z" fill="#9DC5F7"/>
<path fill-rule="evenodd" clip-rule="evenodd" d="M191.5 203.5C192.574 205.284 194.24 206.451 196.5 207C195.692 207.308 195.025 207.808 194.5 208.5C198.782 216.101 199.616 224.101 197 232.5C195.688 236.457 193.855 240.124 191.5 243.5C181.771 240.229 177.104 233.396 177.5 223C177.889 213.377 182.555 206.877 191.5 203.5Z" fill="#BCD5F7"/>
<path fill-rule="evenodd" clip-rule="evenodd" d="M470.5 255.5C468.447 259.863 466.947 264.53 466 269.5C465.583 270.756 464.75 271.423 463.5 271.5C465.408 265.44 467.408 259.44 469.5 253.5C470.298 253.957 470.631 254.624 470.5 255.5Z" fill="#AD4551"/>
<path fill-rule="evenodd" clip-rule="evenodd" d="M470.5 255.5C478.218 266.936 484.385 279.269 489 292.5C491.305 294.93 494.138 295.93 497.5 295.5C499.215 301.407 500.548 307.407 501.5 313.5C496.137 315.249 494.137 318.916 495.5 324.5C496.415 333.46 496.748 342.46 496.5 351.5C490.471 390.526 469.805 418.859 434.5 436.5C433.532 434.393 433.198 432.059 433.5 429.5C439.429 425.076 444.929 420.076 450 414.5C474.566 384.386 482.9 350.053 475 311.5C471.773 298.578 467.94 285.911 463.5 273.5C463.5 272.833 463.5 272.167 463.5 271.5C464.75 271.423 465.583 270.756 466 269.5C466.947 264.53 468.447 259.863 470.5 255.5Z" fill="#DA4655"/>
<path fill-rule="evenodd" clip-rule="evenodd" d="M440.5 267.5C441.167 271.833 441.833 276.167 442.5 280.5C442.44 281.043 442.107 281.376 441.5 281.5C440.507 276.88 440.173 272.214 440.5 267.5Z" fill="#696969"/>
<path fill-rule="evenodd" clip-rule="evenodd" d="M424.5 262.5C427.116 272.503 427.116 282.503 424.5 292.5C424.5 282.5 424.5 272.5 424.5 262.5Z" fill="#B14752"/>
<path fill-rule="evenodd" clip-rule="evenodd" d="M256.5 302.5C258.042 303.301 259.708 303.634 261.5 303.5C261.337 305.857 261.503 308.19 262 310.5C261.952 307.432 263.119 305.098 265.5 303.5C266.308 305.423 266.808 307.423 267 309.5C267.333 308.833 267.667 308.167 268 307.5C268.17 317.675 268.67 327.675 269.5 337.5C269.849 344.961 271.016 352.294 273 359.5C283.847 392.866 303.681 419.532 332.5 439.5C332.833 438.833 333.167 438.167 333.5 437.5C331.002 427.662 329.336 417.662 328.5 407.5C328.468 397.817 328.801 388.151 329.5 378.5C330.709 367.373 334.209 357.04 340 347.5C355.063 324.421 376.23 311.255 403.5 308C407.972 309.262 409.972 312.262 409.5 317C408.011 322.807 406.511 328.641 405 334.5C404.124 343.23 404.458 351.896 406 360.5C407.059 363.618 408.392 366.618 410 369.5C422.62 383.075 430.12 399.075 432.5 417.5C432.753 423.873 432.419 430.206 431.5 436.5C432.347 438.93 433.347 438.93 434.5 436.5C469.805 418.859 490.471 390.526 496.5 351.5C497.657 343.344 497.823 335.01 497 326.5C496.722 325.584 496.222 324.918 495.5 324.5C494.137 318.916 496.137 315.249 501.5 313.5C508.277 314.062 511.61 317.729 511.5 324.5C511.5 334.167 511.5 343.833 511.5 353.5C509.428 366.107 505.928 378.44 501 390.5C485.151 421.681 460.984 443.847 428.5 457C298.167 457.667 167.833 457.667 37.5 457C35.6667 456.5 34.5 455.333 34 453.5C33.3333 423.5 33.3333 393.5 34 363.5C34.7475 361.249 36.2475 359.916 38.5 359.5C42.594 358.705 45.7607 360.038 48 363.5C48.5 389.831 48.6666 416.165 48.5 442.5C84.8333 442.5 121.167 442.5 157.5 442.5C157.333 399.832 157.5 357.165 158 314.5C158.774 312.061 160.274 310.227 162.5 309C186.167 308.333 209.833 308.333 233.5 309C236.232 309.398 238.065 310.898 239 313.5C239.5 356.499 239.667 399.499 239.5 442.5C263.502 442.667 287.502 442.5 311.5 442C266.867 405.896 248.533 359.396 256.5 302.5Z" fill="#070505"/>
<path fill-rule="evenodd" clip-rule="evenodd" d="M67.4996 308.5C91.1686 308.333 114.836 308.5 138.5 309C139.931 309.465 141.097 310.299 142 311.5C143.647 335.746 143.98 360.079 143 384.5C142.535 385.931 141.701 387.097 140.5 388C116.254 389.647 91.9206 389.98 67.4996 389C66.0688 388.535 64.9021 387.701 63.9996 386.5C62.353 362.254 62.0196 337.921 62.9996 313.5C64.0246 311.313 65.5246 309.646 67.4996 308.5Z" fill="#030305"/>
<path fill-rule="evenodd" clip-rule="evenodd" d="M110.5 323.5C116.5 323.5 122.5 323.5 128.5 323.5C128.5 329.5 128.5 335.5 128.5 341.5C122.5 341.5 116.5 341.5 110.5 341.5C110.5 335.5 110.5 329.5 110.5 323.5Z" fill="#9FC4F5"/>
<path fill-rule="evenodd" clip-rule="evenodd" d="M77.5 323.5C83.5 323.5 89.5 323.5 95.5 323.5C95.5 329.5 95.5 335.5 95.5 341.5C89.5 341.5 83.5 341.5 77.5 341.5C77.5 335.5 77.5 329.5 77.5 323.5Z" fill="#BCD4F5"/>
<path fill-rule="evenodd" clip-rule="evenodd" d="M223.5 326.5C223.5 365.167 223.5 403.833 223.5 442.5C216.5 442.5 209.5 442.5 202.5 442.5C202.5 403.833 202.5 365.167 202.5 326.5C209.5 326.5 216.5 326.5 223.5 326.5Z" fill="#785152"/>
<path fill-rule="evenodd" clip-rule="evenodd" d="M495.5 324.5C496.222 324.918 496.722 325.584 497 326.5C497.823 335.01 497.657 343.344 496.5 351.5C496.748 342.46 496.415 333.46 495.5 324.5Z" fill="#250102"/>
<path fill-rule="evenodd" clip-rule="evenodd" d="M202.5 323.5C209.726 323.849 216.726 324.849 223.5 326.5C216.5 326.5 209.5 326.5 202.5 326.5C202.5 365.167 202.5 403.833 202.5 442.5C192.5 442.5 182.5 442.5 172.5 442.5C172.5 402.833 172.5 363.167 172.5 323.5C182.5 323.5 192.5 323.5 202.5 323.5Z" fill="#885B5B"/>
<path fill-rule="evenodd" clip-rule="evenodd" d="M202.5 323.5C209.833 323.5 217.167 323.5 224.5 323.5C224.832 363.337 224.499 403.004 223.5 442.5C223.5 403.833 223.5 365.167 223.5 326.5C216.726 324.849 209.726 323.849 202.5 323.5Z" fill="#5F5050"/>
<path fill-rule="evenodd" clip-rule="evenodd" d="M368.5 338.5C369.5 338.5 370.5 338.5 371.5 338.5C369.448 352.11 371.948 364.777 379 376.5C380.708 378.543 382.708 380.21 385 381.5C389.778 390.907 394.112 400.573 398 410.5C399.488 418.445 399.822 426.445 399 434.5C398.094 437.31 396.927 439.976 395.5 442.5C380.485 442.833 365.485 442.499 350.5 441.5C341.618 417.145 340.451 392.479 347 367.5C351.276 355.584 358.442 345.917 368.5 338.5Z" fill="#FDE07D"/>
<path fill-rule="evenodd" clip-rule="evenodd" d="M77.5 356.5C83.5 356.5 89.5 356.5 95.5 356.5C95.5 362.5 95.5 368.5 95.5 374.5C89.5 374.5 83.5 374.5 77.5 374.5C77.5 368.5 77.5 362.5 77.5 356.5Z" fill="#BDD3F3"/>
<path fill-rule="evenodd" clip-rule="evenodd" d="M110.5 356.5C116.5 356.5 122.5 356.5 128.5 356.5C128.5 362.5 128.5 368.5 128.5 374.5C122.5 374.5 116.5 374.5 110.5 374.5C110.5 368.5 110.5 362.5 110.5 356.5Z" fill="#A8BAD7"/>
<path fill-rule="evenodd" clip-rule="evenodd" d="M111.5 357.5C116.833 357.5 122.167 357.5 127.5 357.5C127.5 362.833 127.5 368.167 127.5 373.5C122.167 373.5 116.833 373.5 111.5 373.5C111.5 368.167 111.5 362.833 111.5 357.5Z" fill="#9DC6FB"/>
<path fill-rule="evenodd" clip-rule="evenodd" d="M395.5 442.5C396.927 439.976 398.094 437.31 399 434.5C399.822 426.445 399.488 418.445 398 410.5C394.112 400.573 389.778 390.907 385 381.5C382.708 380.21 380.708 378.543 379 376.5C371.948 364.777 369.448 352.11 371.5 338.5C370.5 338.5 369.5 338.5 368.5 338.5C375.066 332.379 382.733 328.046 391.5 325.5C387.379 343.513 389.212 360.846 397 377.5C411.832 392.491 418.832 410.491 418 431.5C417.171 435.161 415.671 438.495 413.5 441.5C407.537 442.496 401.537 442.829 395.5 442.5Z" fill="#FAC26A"/>
<path fill-rule="evenodd" clip-rule="evenodd" d="M329.5 378.5C328.801 388.151 328.468 397.817 328.5 407.5C327.835 404.183 327.501 400.683 327.5 397C327.423 390.608 328.089 384.441 329.5 378.5Z" fill="#4E1A22"/>
<path fill-rule="evenodd" clip-rule="evenodd" d="M432.5 417.5C433.483 421.298 433.817 425.298 433.5 429.5C433.198 432.059 433.532 434.393 434.5 436.5C433.347 438.93 432.347 438.93 431.5 436.5C432.419 430.206 432.753 423.873 432.5 417.5Z" fill="#581D23"/>
</g>
<defs>
<clipPath id="clip0_12_898">
<rect width="512" height="512" fill="white"/>
</clipPath>
</defs>
</svg>
