<svg width="512" height="512" viewBox="0 0 512 512" fill="none" xmlns="http://www.w3.org/2000/svg">
<g clip-path="url(#clip0_12_735)">
<path fill-rule="evenodd" clip-rule="evenodd" d="M287.5 130.5C284.862 133.474 282.195 136.474 279.5 139.5C272.043 145.455 265.043 151.955 258.5 159C256.5 159.667 254.5 159.667 252.5 159C246.167 152.667 239.833 146.333 233.5 140C232.906 139.536 232.239 139.369 231.5 139.5C230.833 138.167 229.833 137.167 228.5 136.5C227.299 134.091 225.633 132.091 223.5 130.5C222.833 129.167 221.833 128.167 220.5 127.5C216.565 123.338 212.398 119.338 208 115.5C194.8 97.7598 196.967 82.2598 214.5 69C224.485 65.2297 234.151 65.8963 243.5 71C247.648 74.3137 251.648 77.8137 255.5 81.5C260.447 76.0486 266.114 71.5486 272.5 68C291.16 63.2459 303.993 69.7459 311 87.5C312.31 94.8714 311.31 101.871 308 108.5C301.272 116.056 294.439 123.39 287.5 130.5Z" fill="#C61151"/>
<path fill-rule="evenodd" clip-rule="evenodd" d="M223.5 82.5C227.308 82.1632 230.974 82.6632 234.5 84C241.348 91.0147 248.348 97.848 255.5 104.5C263.016 97.15 270.683 89.9833 278.5 83C290.835 81.0034 296.335 86.1701 295 98.5C282.716 112.952 269.549 126.619 255.5 139.5C242.151 126.985 229.318 113.985 217 100.5C213.854 92.4771 216.02 86.4771 223.5 82.5Z" fill="#F0EDEF"/>
<path fill-rule="evenodd" clip-rule="evenodd" d="M228.5 136.5C229.833 137.167 230.833 138.167 231.5 139.5C232.176 155.825 232.51 172.158 232.5 188.5C232.5 197.833 232.5 207.167 232.5 216.5C231.833 196.833 231.167 177.167 230.5 157.5C226.03 156.514 221.363 156.181 216.5 156.5C216.664 150.833 216.997 150.5 217.5 155.5C218.5 155.5 219.5 155.5 220.5 155.5C220.5 154.167 220.5 152.833 220.5 151.5C221.5 151.5 222.5 151.5 223.5 151.5C223.657 150.127 223.49 148.793 223 147.5C220.959 148.423 218.792 148.756 216.5 148.5C216.561 146.408 217.561 144.908 219.5 144C217.982 140.011 219.315 137.511 223.5 136.5C223.119 138.942 223.786 139.609 225.5 138.5C228.469 139.668 228.802 141.001 226.5 142.5C227.689 143.429 229.022 143.762 230.5 143.5C230.415 141.071 229.415 139.071 227.5 137.5C227.624 136.893 227.957 136.56 228.5 136.5Z" fill="#EECD9C"/>
<path fill-rule="evenodd" clip-rule="evenodd" d="M287.5 130.5C290.261 132.408 292.761 134.741 295 137.5C295.5 143.825 295.666 150.158 295.5 156.5C290.305 156.179 285.305 156.513 280.5 157.5C280.167 157.5 279.833 157.5 279.5 157.5C279.5 156.833 279.5 156.167 279.5 155.5C279.5 150.167 279.5 144.833 279.5 139.5C282.195 136.474 284.862 133.474 287.5 130.5Z" fill="#ECC69C"/>
<path fill-rule="evenodd" clip-rule="evenodd" d="M223.5 130.5C225.633 132.091 227.299 134.091 228.5 136.5C227.957 136.56 227.624 136.893 227.5 137.5C229.415 139.071 230.415 141.071 230.5 143.5C229.022 143.762 227.689 143.429 226.5 142.5C228.802 141.001 228.469 139.668 225.5 138.5C223.786 139.609 223.119 138.942 223.5 136.5C219.315 137.511 217.982 140.011 219.5 144C217.561 144.908 216.561 146.408 216.5 148.5C218.792 148.756 220.959 148.423 223 147.5C223.49 148.793 223.657 150.127 223.5 151.5C222.5 151.5 221.5 151.5 220.5 151.5C220.5 152.833 220.5 154.167 220.5 155.5C219.5 155.5 218.5 155.5 217.5 155.5C216.997 150.5 216.664 150.833 216.5 156.5C216.167 156.5 215.833 156.5 215.5 156.5C215.334 150.158 215.5 143.825 216 137.5C218.469 135.036 220.969 132.703 223.5 130.5Z" fill="#EBBD9E"/>
<path fill-rule="evenodd" clip-rule="evenodd" d="M230.5 157.5C230.832 167.855 230.499 178.188 229.5 188.5C227.837 149.868 226.837 149.868 226.5 188.5C226.667 198.167 226.833 207.833 227 217.5C229.016 218.955 229.849 220.955 229.5 223.5C228.5 223.5 227.5 223.5 226.5 223.5C226.292 225.92 226.626 228.253 227.5 230.5C226.923 232.55 225.59 233.55 223.5 233.5C223.5 251.833 223.5 270.167 223.5 288.5C244.833 288.5 266.167 288.5 287.5 288.5C286.581 252.374 286.581 216.54 287.5 181C286.92 173.105 286.253 165.271 285.5 157.5C288.5 157.5 291.5 157.5 294.5 157.5C294.5 204.833 294.5 252.167 294.5 299.5C268.5 299.5 242.5 299.5 216.5 299.5C216.5 252.167 216.5 204.833 216.5 157.5C221.167 157.5 225.833 157.5 230.5 157.5Z" fill="#FCB204"/>
<path fill-rule="evenodd" clip-rule="evenodd" d="M119.5 209.5C114.167 209.5 108.833 209.5 103.5 209.5C103.333 192.83 103.5 176.163 104 159.5C106.072 154.857 109.572 153.357 114.5 155C116.333 156.167 117.833 157.667 119 159.5C119.5 176.163 119.667 192.83 119.5 209.5Z" fill="#EEC89F"/>
<path fill-rule="evenodd" clip-rule="evenodd" d="M220.5 127.5C221.833 128.167 222.833 129.167 223.5 130.5C220.969 132.703 218.469 135.036 216 137.5C215.5 143.825 215.334 150.158 215.5 156.5C215.5 204.167 215.5 251.833 215.5 299.5C215.5 299.833 215.5 300.167 215.5 300.5C214.833 253.665 214.167 206.665 213.5 159.5C212.172 204.204 212.172 248.871 213.5 293.5C213.054 296.64 211.721 299.307 209.5 301.5C208.255 300.045 208.422 298.711 210 297.5C210.667 295.167 210.667 292.833 210 290.5C208.059 294.554 207.225 294.22 207.5 289.5C208.5 289.5 209.5 289.5 210.5 289.5C210.833 246.162 210.5 202.828 209.5 159.5C208.667 202.163 208.167 244.829 208 287.5C207.167 243.496 207.333 199.496 208.5 155.5C209.935 154.176 210.935 152.51 211.5 150.5C212.086 150.709 212.586 151.043 213 151.5C213.944 148.653 213.444 146.153 211.5 144C212.274 141.595 212.774 139.095 213 136.5C220.743 131.15 220.243 129.817 211.5 132.5C211.215 130.712 211.548 129.045 212.5 127.5C214.134 127.032 215.3 126.032 216 124.5C217.129 126.141 218.629 127.141 220.5 127.5Z" fill="#FDFCEC"/>
<path fill-rule="evenodd" clip-rule="evenodd" d="M215.5 156.5C215.833 156.5 216.167 156.5 216.5 156.5C221.363 156.181 226.03 156.514 230.5 157.5C225.833 157.5 221.167 157.5 216.5 157.5C216.5 204.833 216.5 252.167 216.5 299.5C216.167 299.5 215.833 299.5 215.5 299.5C215.5 251.833 215.5 204.167 215.5 156.5Z" fill="#E7B337"/>
<path fill-rule="evenodd" clip-rule="evenodd" d="M218.5 159.5C219.5 159.5 220.5 159.5 221.5 159.5C221.5 202.167 221.5 244.833 221.5 287.5C220.5 287.5 219.5 287.5 218.5 287.5C218.5 244.833 218.5 202.167 218.5 159.5Z" fill="#F5B407"/>
<path fill-rule="evenodd" clip-rule="evenodd" d="M289.5 159.5C290.5 159.5 291.5 159.5 292.5 159.5C292.5 202.167 292.5 244.833 292.5 287.5C291.5 287.5 290.5 287.5 289.5 287.5C289.5 244.833 289.5 202.167 289.5 159.5Z" fill="#F5B407"/>
<path fill-rule="evenodd" clip-rule="evenodd" d="M280.5 157.5C285.305 156.513 290.305 156.179 295.5 156.5C295.5 204.5 295.5 252.5 295.5 300.5C268.833 300.5 242.167 300.5 215.5 300.5C215.5 300.167 215.5 299.833 215.5 299.5C215.833 299.5 216.167 299.5 216.5 299.5C242.5 299.5 268.5 299.5 294.5 299.5C294.5 252.167 294.5 204.833 294.5 157.5C291.5 157.5 288.5 157.5 285.5 157.5C283.833 157.5 282.167 157.5 280.5 157.5Z" fill="#E0B63C"/>
<path fill-rule="evenodd" clip-rule="evenodd" d="M295.5 300.5C295.5 252.5 295.5 204.5 295.5 156.5C295.666 150.158 295.5 143.825 295 137.5C292.761 134.741 290.261 132.408 287.5 130.5C288.583 130.461 289.583 130.127 290.5 129.5C291.984 131.074 293.651 132.407 295.5 133.5C296.333 139.5 297.167 145.5 298 151.5C298.414 151.043 298.914 150.709 299.5 150.5C300.065 152.51 301.065 154.176 302.5 155.5C303.667 199.496 303.833 243.496 303 287.5C302.833 244.829 302.333 202.163 301.5 159.5C300.5 202.828 300.167 246.162 300.5 289.5C301.5 289.5 302.5 289.5 303.5 289.5C303.775 294.22 302.941 294.554 301 290.5C300.109 293.934 300.609 297.101 302.5 300C302.167 300.5 301.833 301 301.5 301.5C299.279 299.307 297.946 296.64 297.5 293.5C298.828 248.871 298.828 204.204 297.5 159.5C296.833 206.665 296.167 253.665 295.5 300.5Z" fill="#FDFDEB"/>
<path fill-rule="evenodd" clip-rule="evenodd" d="M183.5 209.5C178.167 209.5 172.833 209.5 167.5 209.5C167.333 192.83 167.5 176.163 168 159.5C170.072 154.857 173.572 153.357 178.5 155C180.333 156.167 181.833 157.667 183 159.5C183.5 176.163 183.667 192.83 183.5 209.5Z" fill="#EDC8A0"/>
<path fill-rule="evenodd" clip-rule="evenodd" d="M231.5 139.5C232.239 139.369 232.906 139.536 233.5 140C239.833 146.333 246.167 152.667 252.5 159C254.5 159.667 256.5 159.667 258.5 159C265.043 151.955 272.043 145.455 279.5 139.5C279.5 144.833 279.5 150.167 279.5 155.5C278.67 166.326 278.17 177.326 278 188.5C272.442 176.374 262.942 171.207 249.5 173C241.056 175.283 235.389 180.45 232.5 188.5C232.51 172.158 232.176 155.825 231.5 139.5Z" fill="#FAFCF9"/>
<path fill-rule="evenodd" clip-rule="evenodd" d="M343.5 210.5C338.167 210.5 332.833 210.5 327.5 210.5C327.333 193.497 327.5 176.497 328 159.5C330.072 154.857 333.572 153.357 338.5 155C340.333 156.167 341.833 157.667 343 159.5C343.5 176.497 343.667 193.497 343.5 210.5Z" fill="#EDC8A0"/>
<path fill-rule="evenodd" clip-rule="evenodd" d="M407.5 210.5C402.167 210.5 396.833 210.5 391.5 210.5C391.333 193.497 391.5 176.497 392 159.5C394.072 154.857 397.572 153.357 402.5 155C404.333 156.167 405.833 157.667 407 159.5C407.5 176.497 407.667 193.497 407.5 210.5Z" fill="#EFC79E"/>
<path fill-rule="evenodd" clip-rule="evenodd" d="M279.5 155.5C279.5 156.167 279.5 156.833 279.5 157.5C279.821 177.576 279.487 197.576 278.5 217.5C276.687 207.884 275.854 197.884 276 187.5C275.667 186.833 275.333 186.167 275 185.5C274.667 196.167 274.333 206.833 274 217.5C272.914 208.87 272.247 200.203 272 191.5C267.803 189.603 263.803 187.27 260 184.5C258.684 181.312 258.184 177.978 258.5 174.5C256.143 174.337 253.81 174.503 251.5 175C253.415 184.24 249.749 188.74 240.5 188.5C239.833 189.5 239.167 190.5 238.5 191.5C237.833 189.167 237.167 186.833 236.5 184.5C236.167 185 235.833 185.5 235.5 186C235.207 196.518 234.207 206.685 232.5 216.5C232.5 207.167 232.5 197.833 232.5 188.5C235.389 180.45 241.056 175.283 249.5 173C262.942 171.207 272.442 176.374 278 188.5C278.17 177.326 278.67 166.326 279.5 155.5Z" fill="#EDCCA6"/>
<path fill-rule="evenodd" clip-rule="evenodd" d="M166.5 211.5C165.173 215.783 164.507 220.449 164.5 225.5C164.507 230.551 165.173 235.217 166.5 239.5C166.509 241.308 166.009 242.975 165 244.5C163.629 247.266 161.796 249.599 159.5 251.5C159.035 247.208 159.868 243.208 162 239.5C161.999 218.167 161.332 218.167 160 239.5C158.562 240.9 157.729 242.567 157.5 244.5C156.167 244.5 154.833 244.5 153.5 244.5C153.351 243.448 153.517 242.448 154 241.5C156.268 240.924 157.268 239.59 157 237.5C156.184 238.823 155.017 239.489 153.5 239.5C157.141 235.551 159.141 230.884 159.5 225.5C148.833 225.5 138.167 225.5 127.5 225.5C127.228 231.538 129.562 236.205 134.5 239.5C134.5 241.5 134.5 243.5 134.5 245.5C133.127 245.657 131.793 245.49 130.5 245C129.572 243.024 128.405 241.191 127 239.5C126.333 234.167 126.333 228.833 127 223.5C137.772 224.819 148.605 224.819 159.5 223.5C160.383 222.452 161.05 221.285 161.5 220C161.032 214.873 160.865 209.706 161 204.5C160.667 204.167 160.333 203.833 160 203.5C158.599 205.192 156.766 205.859 154.5 205.5C154.5 204.5 154.5 203.5 154.5 202.5C152.473 202.662 150.473 202.495 148.5 202C147.355 200.141 145.688 199.307 143.5 199.5C138.564 201.274 133.731 203.274 129 205.5C128.228 205.355 127.561 205.022 127 204.5C125.422 208.661 124.255 212.994 123.5 217.5C123.036 215.025 122.036 213.025 120.5 211.5C122.678 204.159 127.178 198.826 134 195.5C149.375 191.604 160.209 196.938 166.5 211.5Z" fill="#EDC7A5"/>
<path fill-rule="evenodd" clip-rule="evenodd" d="M134.5 239.5C140.73 243.337 147.064 243.337 153.5 239.5C155.017 239.489 156.184 238.823 157 237.5C157.268 239.59 156.268 240.924 154 241.5C153.517 242.448 153.351 243.448 153.5 244.5C154.833 244.5 156.167 244.5 157.5 244.5C157.729 242.567 158.562 240.9 160 239.5C161.332 218.167 161.999 218.167 162 239.5C159.868 243.208 159.035 247.208 159.5 251.5C152.695 257.23 144.695 259.063 135.5 257C127.41 253.748 122.41 247.915 120.5 239.5C120.5 230.167 120.5 220.833 120.5 211.5C122.036 213.025 123.036 215.025 123.5 217.5C124.255 212.994 125.422 208.661 127 204.5C127.561 205.022 128.228 205.355 129 205.5C133.731 203.274 138.564 201.274 143.5 199.5C145.688 199.307 147.355 200.141 148.5 202C150.473 202.495 152.473 202.662 154.5 202.5C154.5 203.5 154.5 204.5 154.5 205.5C156.766 205.859 158.599 205.192 160 203.5C160.333 203.833 160.667 204.167 161 204.5C160.865 209.706 161.032 214.873 161.5 220C161.05 221.285 160.383 222.452 159.5 223.5C148.605 224.819 137.772 224.819 127 223.5C126.333 228.833 126.333 234.167 127 239.5C128.405 241.191 129.572 243.024 130.5 245C131.793 245.49 133.127 245.657 134.5 245.5C134.5 243.5 134.5 241.5 134.5 239.5Z" fill="#EEC89E"/>
<path fill-rule="evenodd" clip-rule="evenodd" d="M391.5 213.5C391.5 222.167 391.5 230.833 391.5 239.5C389.989 242.005 388.655 244.672 387.5 247.5C386.5 247.5 385.5 247.5 384.5 247.5C384.723 245.658 385.057 243.825 385.5 242C384.772 235.857 384.272 229.691 384 223.5C373 224.833 362 224.833 351 223.5C350.667 229.167 350.333 234.833 350 240.5C348.199 242.138 348.032 243.972 349.5 246C349.333 246.5 349.167 247 349 247.5C348.583 246.244 347.75 245.577 346.5 245.5C345.637 243.579 344.971 241.579 344.5 239.5C345.827 235.217 346.493 230.551 346.5 225.5C346.493 220.449 345.827 215.783 344.5 211.5C346.678 204.159 351.178 198.826 358 195.5C370.321 191.652 380.321 194.985 388 205.5C388.461 208.577 389.628 211.244 391.5 213.5Z" fill="#EEC89F"/>
<path fill-rule="evenodd" clip-rule="evenodd" d="M103.5 209.5C108.833 209.5 114.167 209.5 119.5 209.5C119.5 209.833 119.5 210.167 119.5 210.5C114.167 210.5 108.833 210.5 103.5 210.5C103.5 214.167 103.5 217.833 103.5 221.5C103.5 254.833 103.5 288.167 103.5 321.5C102.167 284.167 102.167 246.833 103.5 209.5Z" fill="#D7FBFA"/>
<path fill-rule="evenodd" clip-rule="evenodd" d="M119.5 210.5C119.5 220.167 119.5 229.833 119.5 239.5C119.992 243.29 119.159 243.956 117 241.5C116.5 234.842 116.334 228.175 116.5 221.5C113.5 221.5 110.5 221.5 107.5 221.5C107.5 220.5 107.5 219.5 107.5 218.5C110.5 218.5 113.5 218.5 116.5 218.5C115.981 215.225 113.981 213.892 110.5 214.5C107.493 214.307 105.827 215.64 105.5 218.5C105.899 220.197 106.399 221.863 107 223.5C107.5 255.498 107.667 287.498 107.5 319.5C106.5 319.5 105.5 319.5 104.5 319.5C104.832 286.662 104.498 253.996 103.5 221.5C103.5 217.833 103.5 214.167 103.5 210.5C108.833 210.5 114.167 210.5 119.5 210.5Z" fill="#0CA0CA"/>
<path fill-rule="evenodd" clip-rule="evenodd" d="M166.5 211.5C166.5 220.833 166.5 230.167 166.5 239.5C165.173 235.217 164.507 230.551 164.5 225.5C164.507 220.449 165.173 215.783 166.5 211.5Z" fill="#F9C594"/>
<path fill-rule="evenodd" clip-rule="evenodd" d="M167.5 210.5C167.5 210.167 167.5 209.833 167.5 209.5C172.833 209.5 178.167 209.5 183.5 209.5C184.833 246.833 184.833 284.167 183.5 321.5C183.5 284.5 183.5 247.5 183.5 210.5C178.167 210.5 172.833 210.5 167.5 210.5Z" fill="#D7FBFA"/>
<path fill-rule="evenodd" clip-rule="evenodd" d="M327.5 319.5C327.5 320.167 327.5 320.833 327.5 321.5C327.5 322.167 327.5 322.833 327.5 323.5C327.795 325.735 327.461 327.735 326.5 329.5C324.978 328.569 323.645 327.402 322.5 326C323.648 324.274 324.815 324.441 326 326.5C326.774 324.597 326.44 322.93 325 321.5C324.823 288.304 324.323 255.137 323.5 222C324.028 219.138 324.695 216.304 325.5 213.5C326.167 248.998 326.833 284.331 327.5 319.5Z" fill="#E9FCFC"/>
<path fill-rule="evenodd" clip-rule="evenodd" d="M327.5 210.5C332.833 210.5 338.167 210.5 343.5 210.5C343.5 211.167 343.5 211.833 343.5 212.5C343.5 215.167 343.5 217.833 343.5 220.5C342.523 217.713 342.19 214.713 342.5 211.5C337.833 211.5 333.167 211.5 328.5 211.5C328.5 247.833 328.5 284.167 328.5 320.5C354.5 320.5 380.5 320.5 406.5 320.5C406.5 288.167 406.5 255.833 406.5 223.5C406.5 221.5 406.5 219.5 406.5 217.5C406.5 215.5 406.5 213.5 406.5 211.5C401.833 211.5 397.167 211.5 392.5 211.5C392.827 221.681 392.494 231.681 391.5 241.5C391.5 240.833 391.5 240.167 391.5 239.5C391.5 230.833 391.5 222.167 391.5 213.5C391.5 212.5 391.5 211.5 391.5 210.5C396.833 210.5 402.167 210.5 407.5 210.5C407.5 246.833 407.5 283.167 407.5 319.5C407.5 320.167 407.5 320.833 407.5 321.5C380.833 321.5 354.167 321.5 327.5 321.5C327.5 320.833 327.5 320.167 327.5 319.5C327.5 283.167 327.5 246.833 327.5 210.5Z" fill="#AA1952"/>
<path fill-rule="evenodd" clip-rule="evenodd" d="M406.5 217.5C406.5 219.5 406.5 221.5 406.5 223.5C404.837 255.156 403.837 287.156 403.5 319.5C402.5 285.507 402.167 251.507 402.5 217.5C403.833 217.5 405.167 217.5 406.5 217.5Z" fill="#C20C50"/>
<path fill-rule="evenodd" clip-rule="evenodd" d="M408.5 329.5C408.167 329.5 407.833 329.5 407.5 329.5C407.5 327.5 407.5 325.5 407.5 323.5C407.5 322.833 407.5 322.167 407.5 321.5C407.5 320.833 407.5 320.167 407.5 319.5C408.167 284.331 408.833 248.998 409.5 213.5C410.305 216.304 410.972 219.138 411.5 222C410.677 255.137 410.177 288.304 410 321.5C408.56 322.93 408.226 324.597 409 326.5C409.965 324.74 411.132 324.406 412.5 325.5C411.479 327.188 410.145 328.521 408.5 329.5Z" fill="#E9FCFC"/>
<path fill-rule="evenodd" clip-rule="evenodd" d="M230.5 157.5C231.167 177.167 231.833 196.833 232.5 216.5C232.609 221.718 234.609 226.051 238.5 229.5C241.304 231.138 243.971 232.971 246.5 235C255.715 236.987 264.048 235.32 271.5 230C272.826 227.842 274.493 226.008 276.5 224.5C277.17 222.137 277.837 219.804 278.5 217.5C279.487 197.576 279.821 177.576 279.5 157.5C279.833 157.5 280.167 157.5 280.5 157.5C282.167 157.5 283.833 157.5 285.5 157.5C286.253 165.271 286.92 173.105 287.5 181C286.581 216.54 286.581 252.374 287.5 288.5C266.167 288.5 244.833 288.5 223.5 288.5C223.5 270.167 223.5 251.833 223.5 233.5C225.59 233.55 226.923 232.55 227.5 230.5C226.626 228.253 226.292 225.92 226.5 223.5C227.5 223.5 228.5 223.5 229.5 223.5C229.849 220.955 229.016 218.955 227 217.5C226.833 207.833 226.667 198.167 226.5 188.5C226.837 149.868 227.837 149.868 229.5 188.5C230.499 178.188 230.832 167.855 230.5 157.5Z" fill="#F9B305"/>
<path fill-rule="evenodd" clip-rule="evenodd" d="M278.5 217.5C277.837 219.804 277.17 222.137 276.5 224.5C274.493 226.008 272.826 227.842 271.5 230C264.048 235.32 255.715 236.987 246.5 235C243.971 232.971 241.304 231.138 238.5 229.5C234.609 226.051 232.609 221.718 232.5 216.5C234.207 206.685 235.207 196.518 235.5 186C235.833 185.5 236.167 185 236.5 184.5C237.167 186.833 237.833 189.167 238.5 191.5C239.167 190.5 239.833 189.5 240.5 188.5C249.749 188.74 253.415 184.24 251.5 175C253.81 174.503 256.143 174.337 258.5 174.5C258.184 177.978 258.684 181.312 260 184.5C263.803 187.27 267.803 189.603 272 191.5C272.247 200.203 272.914 208.87 274 217.5C274.333 206.833 274.667 196.167 275 185.5C275.333 186.167 275.667 186.833 276 187.5C275.854 197.884 276.687 207.884 278.5 217.5Z" fill="#F0C69F"/>
<path fill-rule="evenodd" clip-rule="evenodd" d="M239.5 204.5C250.167 204.5 260.833 204.5 271.5 204.5C268.638 218.933 260.305 223.433 246.5 218C241.878 214.586 239.544 210.086 239.5 204.5Z" fill="#C91451"/>
<path fill-rule="evenodd" clip-rule="evenodd" d="M52.4997 226.5C55.3195 226.248 57.9862 226.748 60.4997 228C64.6664 232.167 68.833 236.333 72.9997 240.5C76.2146 249.58 73.0479 253.747 63.4997 253C59.0948 248.717 54.5948 244.55 49.9997 240.5C46.0072 234.774 46.8406 230.107 52.4997 226.5Z" fill="#C71252"/>
<path fill-rule="evenodd" clip-rule="evenodd" d="M343.5 220.5C343.5 226.833 343.5 233.167 343.5 239.5C344.656 259.777 355.323 268.277 375.5 265C377.674 262.648 380.341 261.481 383.5 261.5C385.035 258.768 386.869 256.102 389 253.5C389.943 249.504 390.776 245.504 391.5 241.5C392.494 231.681 392.827 221.681 392.5 211.5C397.167 211.5 401.833 211.5 406.5 211.5C406.5 213.5 406.5 215.5 406.5 217.5C405.167 217.5 403.833 217.5 402.5 217.5C402.167 251.507 402.5 285.507 403.5 319.5C403.837 287.156 404.837 255.156 406.5 223.5C406.5 255.833 406.5 288.167 406.5 320.5C380.5 320.5 354.5 320.5 328.5 320.5C328.5 284.167 328.5 247.833 328.5 211.5C333.167 211.5 337.833 211.5 342.5 211.5C342.19 214.713 342.523 217.713 343.5 220.5Z" fill="#C8094F"/>
<path fill-rule="evenodd" clip-rule="evenodd" d="M387.5 247.5C378.769 257.734 368.102 260.234 355.5 255C351.62 252.621 348.62 249.454 346.5 245.5C347.75 245.577 348.583 246.244 349 247.5C349.167 247 349.333 246.5 349.5 246C348.032 243.972 348.199 242.138 350 240.5C350.333 234.833 350.667 229.167 351 223.5C362 224.833 373 224.833 384 223.5C384.272 229.691 384.772 235.857 385.5 242C385.057 243.825 384.723 245.658 384.5 247.5C385.5 247.5 386.5 247.5 387.5 247.5Z" fill="#F3C29F"/>
<path fill-rule="evenodd" clip-rule="evenodd" d="M370.5 242.5C367.482 242.665 364.482 242.498 361.5 242C360.154 240.331 358.487 239.164 356.5 238.5C353.074 234.897 351.408 230.563 351.5 225.5C362.167 225.5 372.833 225.5 383.5 225.5C383.236 234.391 378.903 240.058 370.5 242.5Z" fill="#CA2055"/>
<path fill-rule="evenodd" clip-rule="evenodd" d="M344.5 211.5C345.827 215.783 346.493 220.449 346.5 225.5C346.493 230.551 345.827 235.217 344.5 239.5C344.167 239.5 343.833 239.5 343.5 239.5C343.5 233.167 343.5 226.833 343.5 220.5C343.5 217.833 343.5 215.167 343.5 212.5C344.167 212.5 344.5 212.167 344.5 211.5Z" fill="#EBC99B"/>
<path fill-rule="evenodd" clip-rule="evenodd" d="M452.5 226.5C464.023 226.948 466.523 231.948 460 241.5C455.59 244.975 451.423 248.808 447.5 253C439.333 254.167 435.833 250.667 437 242.5C441.698 236.637 446.865 231.303 452.5 226.5Z" fill="#C51352"/>
<path fill-rule="evenodd" clip-rule="evenodd" d="M356.5 238.5C358.487 239.164 360.154 240.331 361.5 242C364.482 242.498 367.482 242.665 370.5 242.5C372.936 242.683 375.103 242.016 377 240.5C377.5 241 378 241.5 378.5 242C375.36 244.021 371.86 244.855 368 244.5C363.311 244.394 358.811 243.894 354.5 243C353.167 244 353.167 245 354.5 246C356.866 246.562 359.199 246.396 361.5 245.5C363.236 246.425 365.07 247.092 367 247.5C369.19 247.144 371.023 246.477 372.5 245.5C375.406 246.528 378.239 246.528 381 245.5C381.219 244.062 381.719 242.729 382.5 241.5C383.48 244.086 383.813 246.753 383.5 249.5C380.15 249.335 376.817 249.502 373.5 250C372.048 251.958 371.715 253.958 372.5 256C368.833 256.667 365.167 256.667 361.5 256C362.167 255.667 362.833 255.333 363.5 255C361.845 253.556 361.178 251.722 361.5 249.5C358.167 249.5 354.833 249.5 351.5 249.5C351.5 246.833 351.5 244.167 351.5 241.5C353.942 241.646 354.609 240.813 353.5 239C354.448 238.517 355.448 238.351 356.5 238.5Z" fill="#EBC9A0"/>
<path fill-rule="evenodd" clip-rule="evenodd" d="M167.5 210.5C172.833 210.5 178.167 210.5 183.5 210.5C183.5 247.5 183.5 284.5 183.5 321.5C183.5 321.833 183.5 322.167 183.5 322.5C156.833 322.5 130.167 322.5 103.5 322.5C103.5 322.167 103.5 321.833 103.5 321.5C103.5 288.167 103.5 254.833 103.5 221.5C104.498 253.996 104.832 286.662 104.5 319.5C105.5 319.5 106.5 319.5 107.5 319.5C107.667 287.498 107.5 255.498 107 223.5C106.399 221.863 105.899 220.197 105.5 218.5C105.827 215.64 107.493 214.307 110.5 214.5C113.981 213.892 115.981 215.225 116.5 218.5C113.5 218.5 110.5 218.5 107.5 218.5C107.5 219.5 107.5 220.5 107.5 221.5C110.5 221.5 113.5 221.5 116.5 221.5C116.334 228.175 116.5 234.842 117 241.5C119.159 243.956 119.992 243.29 119.5 239.5C119.833 239.5 120.167 239.5 120.5 239.5C122.41 247.915 127.41 253.748 135.5 257C144.695 259.063 152.695 257.23 159.5 251.5C161.796 249.599 163.629 247.266 165 244.5C166.009 242.975 166.509 241.308 166.5 239.5C167.494 230.014 167.827 220.348 167.5 210.5Z" fill="#069FC7"/>
<path fill-rule="evenodd" clip-rule="evenodd" d="M153.5 239.5C147.064 243.337 140.73 243.337 134.5 239.5C129.562 236.205 127.228 231.538 127.5 225.5C138.167 225.5 148.833 225.5 159.5 225.5C159.141 230.884 157.141 235.551 153.5 239.5Z" fill="#CA1F54"/>
<path fill-rule="evenodd" clip-rule="evenodd" d="M343.5 239.5C343.833 239.5 344.167 239.5 344.5 239.5C344.971 241.579 345.637 243.579 346.5 245.5C348.62 249.454 351.62 252.621 355.5 255C368.102 260.234 378.769 257.734 387.5 247.5C388.655 244.672 389.989 242.005 391.5 239.5C391.5 240.167 391.5 240.833 391.5 241.5C390.776 245.504 389.943 249.504 389 253.5C386.869 256.102 385.035 258.768 383.5 261.5C380.341 261.481 377.674 262.648 375.5 265C355.323 268.277 344.656 259.777 343.5 239.5Z" fill="#A10A29"/>
<path fill-rule="evenodd" clip-rule="evenodd" d="M35.5002 282.5C43.1741 282.334 50.8408 282.5 58.5002 283C63.0382 284.713 64.5382 287.88 63.0002 292.5C61.8335 295 60.0002 296.833 57.5002 298C50.5002 298.667 43.5002 298.667 36.5002 298C30.2557 293.145 29.9223 287.979 35.5002 282.5Z" fill="#C61A53"/>
<path fill-rule="evenodd" clip-rule="evenodd" d="M451.5 282.5C459.174 282.334 466.841 282.5 474.5 283C479.038 284.713 480.538 287.88 479 292.5C477.833 295 476 296.833 473.5 298C466.5 298.667 459.5 298.667 452.5 298C446.255 293.145 445.922 287.979 451.5 282.5Z" fill="#C61A53"/>
<path fill-rule="evenodd" clip-rule="evenodd" d="M215.5 300.5C242.167 300.5 268.833 300.5 295.5 300.5C295.5 301.167 295.5 301.833 295.5 302.5C268.833 302.5 242.167 302.5 215.5 302.5C215.5 301.833 215.5 301.167 215.5 300.5Z" fill="#3B9994"/>
<path fill-rule="evenodd" clip-rule="evenodd" d="M215.5 302.5C242.167 302.5 268.833 302.5 295.5 302.5C295.5 338.5 295.5 374.5 295.5 410.5C292.833 410.5 290.167 410.5 287.5 410.5C282.167 410.5 276.833 410.5 271.5 410.5C268.833 410.5 266.167 410.5 263.5 410.5C263.667 386.164 263.5 361.831 263 337.5C258.044 330.85 253.044 330.85 248 337.5C247.5 361.831 247.333 386.164 247.5 410.5C244.833 410.5 242.167 410.5 239.5 410.5C234.167 410.5 228.833 410.5 223.5 410.5C220.833 410.5 218.167 410.5 215.5 410.5C215.5 374.5 215.5 338.5 215.5 302.5Z" fill="#07A0C7"/>
<path fill-rule="evenodd" clip-rule="evenodd" d="M327.5 321.5C354.167 321.5 380.833 321.5 407.5 321.5C407.5 322.167 407.5 322.833 407.5 323.5C406.141 324.007 405.141 325.007 404.5 326.5C402.775 325.985 401.108 325.318 399.5 324.5C378.177 323.5 356.844 323.167 335.5 323.5C335.5 324.5 335.5 325.5 335.5 326.5C333.396 326.799 331.396 326.466 329.5 325.5C330.609 323.786 329.942 323.119 327.5 323.5C327.5 322.833 327.5 322.167 327.5 321.5Z" fill="#444E7D"/>
<path fill-rule="evenodd" clip-rule="evenodd" d="M407.5 329.5C407.833 329.5 408.167 329.5 408.5 329.5C411.207 352.109 413.04 374.776 414 397.5C410.263 401.993 405.43 403.659 399.5 402.5C394.167 402.5 388.833 402.5 383.5 402.5C372.833 402.5 362.167 402.5 351.5 402.5C346.167 402.5 340.833 402.5 335.5 402.5C332.482 402.665 329.482 402.498 326.5 402C324.456 401.502 323.122 400.335 322.5 398.5C322.112 391.423 322.445 386.423 323.5 383.5C324.5 383.5 325.5 383.5 326.5 383.5C327.467 377.527 328.467 372.194 329.5 367.5C330.5 367.5 331.5 367.5 332.5 367.5C332.875 364.603 332.375 361.937 331 359.5C330.138 361.087 329.471 362.754 329 364.5C328.833 362.333 328.667 360.167 328.5 358C329.951 350.564 330.617 343.064 330.5 335.5C331.5 335.5 332.5 335.5 333.5 335.5C333.163 339.308 333.663 342.974 335 346.5C335.667 342.833 335.667 339.167 335 335.5C333.354 333.431 331.187 332.098 328.5 331.5C331.049 330.716 333.382 329.549 335.5 328C356.833 327.333 378.167 327.333 399.5 328C402.014 329.252 404.68 329.752 407.5 329.5Z" fill="#0E5079"/>
<path fill-rule="evenodd" clip-rule="evenodd" d="M63.5 326.5C72.2071 326.037 75.7071 330.037 74 338.5C69.8333 344 65 348.833 59.5 353C54.7579 355.229 50.9246 354.062 48 349.5C47.3333 347.167 47.3333 344.833 48 342.5C53.3697 337.298 58.5364 331.965 63.5 326.5Z" fill="#C51552"/>
<path fill-rule="evenodd" clip-rule="evenodd" d="M459.5 352.5C456.098 352.658 452.764 352.324 449.5 351.5C444.63 347.605 440.463 342.938 437 337.5C436.062 328.433 439.895 325.266 448.5 328C453.333 332.833 458.167 337.667 463 342.5C464.419 346.872 463.252 350.206 459.5 352.5Z" fill="#C51151"/>
<path fill-rule="evenodd" clip-rule="evenodd" d="M449.5 351.5C452.764 352.324 456.098 352.658 459.5 352.5C455.886 355.313 452.552 354.979 449.5 351.5Z" fill="#C14A71"/>
<path fill-rule="evenodd" clip-rule="evenodd" d="M327.5 323.5C329.942 323.119 330.609 323.786 329.5 325.5C331.396 326.466 333.396 326.799 335.5 326.5C335.5 325.5 335.5 324.5 335.5 323.5C356.844 323.167 378.177 323.5 399.5 324.5C401.108 325.318 402.775 325.985 404.5 326.5C405.141 325.007 406.141 324.007 407.5 323.5C407.5 325.5 407.5 327.5 407.5 329.5C404.68 329.752 402.014 329.252 399.5 328C378.167 327.333 356.833 327.333 335.5 328C333.382 329.549 331.049 330.716 328.5 331.5C331.187 332.098 333.354 333.431 335 335.5C335.667 339.167 335.667 342.833 335 346.5C333.663 342.974 333.163 339.308 333.5 335.5C332.5 335.5 331.5 335.5 330.5 335.5C330.617 343.064 329.951 350.564 328.5 358C328.667 360.167 328.833 362.333 329 364.5C329.471 362.754 330.138 361.087 331 359.5C332.375 361.937 332.875 364.603 332.5 367.5C331.5 367.5 330.5 367.5 329.5 367.5C328.467 372.194 327.467 377.527 326.5 383.5C325.5 383.5 324.5 383.5 323.5 383.5C322.445 386.423 322.112 391.423 322.5 398.5C321.883 398.389 321.383 398.056 321 397.5C321.959 374.779 323.793 352.112 326.5 329.5C327.461 327.735 327.795 325.735 327.5 323.5Z" fill="#135276"/>
<path fill-rule="evenodd" clip-rule="evenodd" d="M103.5 322.5C130.167 322.5 156.833 322.5 183.5 322.5C183.5 346.5 183.5 370.5 183.5 394.5C180.833 394.5 178.167 394.5 175.5 394.5C170.167 394.5 164.833 394.5 159.5 394.5C156.833 394.5 154.167 394.5 151.5 394.5C151.5 385.5 151.5 376.5 151.5 367.5C152.329 375.323 152.829 383.323 153 391.5C153.495 389.527 153.662 387.527 153.5 385.5C162.833 385.5 172.167 385.5 181.5 385.5C182.649 370.188 182.816 350.854 182 327.5C180.938 328.097 179.772 328.43 178.5 328.5C166.904 327.23 155.238 326.564 143.5 326.5C131.762 326.564 120.096 327.23 108.5 328.5C107.228 328.43 106.062 328.097 105 327.5C104.184 350.854 104.351 370.188 105.5 385.5C112.737 384.013 120.07 383.346 127.5 383.5C127.5 377.167 127.5 370.833 127.5 364.5C128.5 364.5 129.5 364.5 130.5 364.5C130.215 362.712 130.548 361.045 131.5 359.5C132.154 370.19 132.988 380.857 134 391.5C134.171 383.323 134.671 375.323 135.5 367.5C135.5 376.5 135.5 385.5 135.5 394.5C132.833 394.5 130.167 394.5 127.5 394.5C122.167 394.5 116.833 394.5 111.5 394.5C108.833 394.5 106.167 394.5 103.5 394.5C103.5 370.5 103.5 346.5 103.5 322.5Z" fill="#175174"/>
<path fill-rule="evenodd" clip-rule="evenodd" d="M151.5 367.5C153.008 357.843 149.008 353.677 139.5 355C135.961 358.387 134.628 362.553 135.5 367.5C134.671 375.323 134.171 383.323 134 391.5C132.988 380.857 132.154 370.19 131.5 359.5C130.548 361.045 130.215 362.712 130.5 364.5C129.5 364.5 128.5 364.5 127.5 364.5C127.5 370.833 127.5 377.167 127.5 383.5C120.07 383.346 112.737 384.013 105.5 385.5C104.351 370.188 104.184 350.854 105 327.5C106.062 328.097 107.228 328.43 108.5 328.5C120.096 327.23 131.762 326.564 143.5 326.5C155.238 326.564 166.904 327.23 178.5 328.5C179.772 328.43 180.938 328.097 182 327.5C182.816 350.854 182.649 370.188 181.5 385.5C172.167 385.5 162.833 385.5 153.5 385.5C153.662 387.527 153.495 389.527 153 391.5C152.829 383.323 152.329 375.323 151.5 367.5Z" fill="#0B5079"/>
<path fill-rule="evenodd" clip-rule="evenodd" d="M111.5 394.5C116.833 394.5 122.167 394.5 127.5 394.5C127.5 397.167 127.5 399.833 127.5 402.5C122.167 402.5 116.833 402.5 111.5 402.5C111.5 399.833 111.5 397.167 111.5 394.5Z" fill="#D1AA82"/>
<path fill-rule="evenodd" clip-rule="evenodd" d="M159.5 394.5C164.833 394.5 170.167 394.5 175.5 394.5C175.5 397.167 175.5 399.833 175.5 402.5C170.167 402.5 164.833 402.5 159.5 402.5C159.5 399.833 159.5 397.167 159.5 394.5Z" fill="#D1AA82"/>
<path fill-rule="evenodd" clip-rule="evenodd" d="M335.5 402.5C340.833 402.5 346.167 402.5 351.5 402.5C351.5 405.167 351.5 407.833 351.5 410.5C346.167 410.5 340.833 410.5 335.5 410.5C335.5 407.833 335.5 405.167 335.5 402.5Z" fill="#D0AB83"/>
<path fill-rule="evenodd" clip-rule="evenodd" d="M383.5 402.5C388.833 402.5 394.167 402.5 399.5 402.5C399.5 405.167 399.5 407.833 399.5 410.5C394.167 410.5 388.833 410.5 383.5 410.5C383.5 407.833 383.5 405.167 383.5 402.5Z" fill="#D0AB83"/>
<path fill-rule="evenodd" clip-rule="evenodd" d="M111.5 402.5C116.833 402.5 122.167 402.5 127.5 402.5C127.5 412.833 127.5 423.167 127.5 433.5C122.167 433.5 116.833 433.5 111.5 433.5C111.5 423.167 111.5 412.833 111.5 402.5Z" fill="#EFC89E"/>
<path fill-rule="evenodd" clip-rule="evenodd" d="M159.5 402.5C164.833 402.5 170.167 402.5 175.5 402.5C175.5 412.5 175.5 422.5 175.5 432.5C170.161 433.228 164.828 433.561 159.5 433.5C159.5 423.167 159.5 412.833 159.5 402.5Z" fill="#EFC79F"/>
<path fill-rule="evenodd" clip-rule="evenodd" d="M223.5 410.5C228.833 410.5 234.167 410.5 239.5 410.5C239.5 413.167 239.5 415.833 239.5 418.5C234.167 418.5 228.833 418.5 223.5 418.5C223.5 415.833 223.5 413.167 223.5 410.5Z" fill="#D1AC83"/>
<path fill-rule="evenodd" clip-rule="evenodd" d="M271.5 410.5C276.833 410.5 282.167 410.5 287.5 410.5C287.5 413.167 287.5 415.833 287.5 418.5C282.167 418.5 276.833 418.5 271.5 418.5C271.5 415.833 271.5 413.167 271.5 410.5Z" fill="#D1AC83"/>
<path fill-rule="evenodd" clip-rule="evenodd" d="M335.5 410.5C340.833 410.5 346.167 410.5 351.5 410.5C351.5 418.167 351.5 425.833 351.5 433.5C346.167 433.5 340.833 433.5 335.5 433.5C335.5 425.833 335.5 418.167 335.5 410.5Z" fill="#EFC89E"/>
<path fill-rule="evenodd" clip-rule="evenodd" d="M383.5 410.5C388.833 410.5 394.167 410.5 399.5 410.5C399.5 417.833 399.5 425.167 399.5 432.5C394.161 433.228 388.828 433.561 383.5 433.5C383.5 425.833 383.5 418.167 383.5 410.5Z" fill="#EEC89F"/>
<path fill-rule="evenodd" clip-rule="evenodd" d="M223.5 418.5C228.833 418.5 234.167 418.5 239.5 418.5C239.5 423.5 239.5 428.5 239.5 433.5C234.167 433.5 228.833 433.5 223.5 433.5C223.5 428.5 223.5 423.5 223.5 418.5Z" fill="#EEC79F"/>
<path fill-rule="evenodd" clip-rule="evenodd" d="M271.5 418.5C276.833 418.5 282.167 418.5 287.5 418.5C287.5 423.5 287.5 428.5 287.5 433.5C282.167 433.5 276.833 433.5 271.5 433.5C271.5 428.5 271.5 423.5 271.5 418.5Z" fill="#EEC79F"/>
<path fill-rule="evenodd" clip-rule="evenodd" d="M111.5 433.5C116.833 433.5 122.167 433.5 127.5 433.5C127.5 433.833 127.5 434.167 127.5 434.5C118.447 434.222 109.447 434.556 100.5 435.5C100.611 434.883 100.944 434.383 101.5 434C104.817 433.502 108.15 433.335 111.5 433.5Z" fill="#FCD36B"/>
<path fill-rule="evenodd" clip-rule="evenodd" d="M175.5 432.5C178.833 433.167 182.167 433.833 185.5 434.5C176.833 434.5 168.167 434.5 159.5 434.5C159.5 434.167 159.5 433.833 159.5 433.5C164.828 433.561 170.161 433.228 175.5 432.5Z" fill="#FDD36F"/>
<path fill-rule="evenodd" clip-rule="evenodd" d="M335.5 433.5C340.833 433.5 346.167 433.5 351.5 433.5C351.5 433.833 351.5 434.167 351.5 434.5C342.447 434.222 333.447 434.556 324.5 435.5C324.611 434.883 324.944 434.383 325.5 434C328.817 433.502 332.15 433.335 335.5 433.5Z" fill="#FCD36B"/>
<path fill-rule="evenodd" clip-rule="evenodd" d="M399.5 432.5C402.833 433.167 406.167 433.833 409.5 434.5C400.833 434.5 392.167 434.5 383.5 434.5C383.5 434.167 383.5 433.833 383.5 433.5C388.828 433.561 394.161 433.228 399.5 432.5Z" fill="#FDD36F"/>
<path fill-rule="evenodd" clip-rule="evenodd" d="M212.5 434.5C221.5 434.5 230.5 434.5 239.5 434.5C241.224 446.776 235.891 452.109 223.5 450.5C217.311 451.625 212.144 449.959 208 445.5C206.393 440.438 207.893 436.772 212.5 434.5Z" fill="#155278"/>
<path fill-rule="evenodd" clip-rule="evenodd" d="M127.5 434.5C127.665 437.85 127.498 441.183 127 444.5C126.148 445.571 125.315 446.571 124.5 447.5C123.711 447.783 123.044 448.283 122.5 449C114.841 449.5 107.174 449.666 99.5003 449.5C95.5645 446.349 94.5645 442.349 96.5003 437.5C97.5772 436.295 98.9105 435.628 100.5 435.5C109.447 434.556 118.447 434.222 127.5 434.5Z" fill="#F7B310"/>
<path fill-rule="evenodd" clip-rule="evenodd" d="M351.5 434.5C351.665 437.85 351.498 441.183 351 444.5C350.148 445.571 349.315 446.571 348.5 447.5C347.711 447.783 347.044 448.283 346.5 449C338.841 449.5 331.174 449.666 323.5 449.5C319.564 446.349 318.564 442.349 320.5 437.5C321.577 436.295 322.91 435.628 324.5 435.5C333.447 434.556 342.447 434.222 351.5 434.5Z" fill="#F7B310"/>
<path fill-rule="evenodd" clip-rule="evenodd" d="M159.5 434.5C168.167 434.5 176.833 434.5 185.5 434.5C191.304 436.533 192.971 440.533 190.5 446.5C188.472 447.549 186.472 448.549 184.5 449.5C178.158 449.666 171.825 449.5 165.5 449C164.473 448.487 163.473 447.987 162.5 447.5C161.685 446.571 160.852 445.571 160 444.5C159.502 441.183 159.335 437.85 159.5 434.5Z" fill="#F8B30B"/>
<path fill-rule="evenodd" clip-rule="evenodd" d="M383.5 434.5C392.167 434.5 400.833 434.5 409.5 434.5C415.304 436.533 416.971 440.533 414.5 446.5C412.472 447.549 410.472 448.549 408.5 449.5C402.158 449.666 395.825 449.5 389.5 449C388.473 448.487 387.473 447.987 386.5 447.5C385.685 446.571 384.852 445.571 384 444.5C383.502 441.183 383.335 437.85 383.5 434.5Z" fill="#F8B30B"/>
<path fill-rule="evenodd" clip-rule="evenodd" d="M271.5 434.5C280.506 434.334 289.506 434.5 298.5 435C303.143 437.072 304.643 440.572 303 445.5C301.457 447.378 299.624 448.878 297.5 450C290.833 450.667 284.167 450.667 277.5 450C275.376 448.878 273.543 447.378 272 445.5C271.501 441.848 271.335 438.182 271.5 434.5Z" fill="#155279"/>
<path fill-rule="evenodd" clip-rule="evenodd" d="M124.5 447.5C124.586 448.496 124.252 449.329 123.5 450C115.323 450.823 107.323 450.656 99.5 449.5C107.174 449.666 114.841 449.5 122.5 449C123.044 448.283 123.711 447.783 124.5 447.5Z" fill="#F3D57F"/>
<path fill-rule="evenodd" clip-rule="evenodd" d="M162.5 447.5C163.473 447.987 164.473 448.487 165.5 449C171.825 449.5 178.158 449.666 184.5 449.5C177.679 450.655 170.679 450.821 163.5 450C162.748 449.329 162.414 448.496 162.5 447.5Z" fill="#F0D077"/>
<path fill-rule="evenodd" clip-rule="evenodd" d="M348.5 447.5C348.586 448.496 348.252 449.329 347.5 450C339.323 450.823 331.323 450.656 323.5 449.5C331.174 449.666 338.841 449.5 346.5 449C347.044 448.283 347.711 447.783 348.5 447.5Z" fill="#F3D57F"/>
<path fill-rule="evenodd" clip-rule="evenodd" d="M386.5 447.5C387.473 447.987 388.473 448.487 389.5 449C395.825 449.5 402.158 449.666 408.5 449.5C401.679 450.655 394.679 450.821 387.5 450C386.748 449.329 386.414 448.496 386.5 447.5Z" fill="#F0D077"/>
</g>
<defs>
<clipPath id="clip0_12_735">
<rect width="512" height="512" fill="white"/>
</clipPath>
</defs>
</svg>
