<svg width="512" height="512" viewBox="0 0 512 512" fill="none" xmlns="http://www.w3.org/2000/svg">
<g clip-path="url(#clip0_12_484)">
<path fill-rule="evenodd" clip-rule="evenodd" d="M32.5 -0.5C175.5 -0.5 318.5 -0.5 461.5 -0.5C464.06 0.220313 465.893 1.88698 467 4.5C467.667 16.8333 467.667 29.1667 467 41.5C466.226 43.9393 464.726 45.7727 462.5 47C458.848 47.4986 455.182 47.6653 451.5 47.5C451.5 80.8333 451.5 114.167 451.5 147.5C456.179 147.334 460.845 147.501 465.5 148C467.939 148.774 469.773 150.274 471 152.5C471.5 256.166 471.667 359.833 471.5 463.5C478.589 463.116 485.589 463.616 492.5 465C493.701 465.903 494.535 467.069 495 468.5C495.667 480.833 495.667 493.167 495 505.5C494.317 508.679 492.484 510.679 489.5 511.5C333.167 511.5 176.833 511.5 20.5 511.5C18.525 510.354 17.025 508.687 16 506.5C15.3333 493.833 15.3333 481.167 16 468.5C16.8333 466.333 18.3333 464.833 20.5 464C26.1569 463.501 31.8236 463.334 37.5 463.5C38.8333 394.503 39.5 325.17 39.5 255.5C39.5 185.83 38.8333 116.497 37.5 47.5C32.926 47.7641 29.7593 45.7641 28 41.5C27.3333 29.1667 27.3333 16.8333 28 4.5C29.0591 2.34079 30.5591 0.674125 32.5 -0.5Z" fill="#2D4355"/>
<path fill-rule="evenodd" clip-rule="evenodd" d="M450.5 31.5C450.5 28.8333 450.5 26.1667 450.5 23.5C315.167 23.5 179.833 23.5 44.5002 23.5C44.5002 26.1667 44.5002 28.8333 44.5002 31.5C43.5121 26.3595 43.1788 21.0262 43.5002 15.5C179.5 15.5 315.5 15.5 451.5 15.5C451.821 21.0262 451.488 26.3595 450.5 31.5Z" fill="#D89C71"/>
<path fill-rule="evenodd" clip-rule="evenodd" d="M447.5 20.5C314.167 20.5 180.833 20.5 47.5 20.5C47.5 19.5 47.5 18.5 47.5 17.5C180.833 17.5 314.167 17.5 447.5 17.5C447.5 18.5 447.5 19.5 447.5 20.5Z" fill="#DD9A74"/>
<path fill-rule="evenodd" clip-rule="evenodd" d="M47.5 20.5C180.833 20.5 314.167 20.5 447.5 20.5C381.17 21.8333 314.503 22.5 247.5 22.5C180.497 22.5 113.83 21.8333 47.5 20.5Z" fill="#D59E73"/>
<path fill-rule="evenodd" clip-rule="evenodd" d="M450.5 31.5C449.5 31.5 448.5 31.5 447.5 31.5C447.5 30.8333 447.5 30.1667 447.5 29.5C381.17 28.1667 314.503 27.5 247.5 27.5C180.497 27.5 113.83 28.1667 47.5 29.5C47.5 30.1667 47.5 30.8333 47.5 31.5C46.5 31.5 45.5 31.5 44.5 31.5C44.5 28.8333 44.5 26.1667 44.5 23.5C179.833 23.5 315.167 23.5 450.5 23.5C450.5 26.1667 450.5 28.8333 450.5 31.5Z" fill="#D38653"/>
<path fill-rule="evenodd" clip-rule="evenodd" d="M47.5 24.5C180.835 24.1667 314.168 24.5 447.5 25.5C380.833 25.8333 314.167 26.1667 247.5 26.5C180.497 26.5 113.83 25.8333 47.5 24.5Z" fill="#DA8450"/>
<path fill-rule="evenodd" clip-rule="evenodd" d="M447.5 29.5C314.167 29.5 180.833 29.5 47.5 29.5C113.83 28.1667 180.497 27.5 247.5 27.5C314.503 27.5 381.17 28.1667 447.5 29.5Z" fill="#D0894E"/>
<path fill-rule="evenodd" clip-rule="evenodd" d="M47.5 29.5C180.833 29.5 314.167 29.5 447.5 29.5C447.5 30.1667 447.5 30.8333 447.5 31.5C314.167 31.5 180.833 31.5 47.5 31.5C47.5 30.8333 47.5 30.1667 47.5 29.5Z" fill="#D88550"/>
<path fill-rule="evenodd" clip-rule="evenodd" d="M37.5 47.5C38.8333 116.497 39.5 185.83 39.5 255.5C39.5 325.17 38.8333 394.503 37.5 463.5C37.5 324.833 37.5 186.167 37.5 47.5Z" fill="#FDFDFA"/>
<path fill-rule="evenodd" clip-rule="evenodd" d="M44.5 47.5C44.5 186.167 44.5 324.833 44.5 463.5C43.1667 394.503 42.5 325.17 42.5 255.5C42.5 185.83 43.1667 116.497 44.5 47.5Z" fill="#33414D"/>
<path fill-rule="evenodd" clip-rule="evenodd" d="M44.5 47.5C45.5 47.5 46.5 47.5 47.5 47.5C47.5 186.167 47.5 324.833 47.5 463.5C46.5 463.5 45.5 463.5 44.5 463.5C44.5 324.833 44.5 186.167 44.5 47.5Z" fill="#2A4459"/>
<path fill-rule="evenodd" clip-rule="evenodd" d="M435.5 55.5C308.833 55.5 182.167 55.5 55.5 55.5C55.5 52.8333 55.5 50.1667 55.5 47.5C182.167 47.5 308.833 47.5 435.5 47.5C435.5 50.1667 435.5 52.8333 435.5 55.5Z" fill="#EFF5F9"/>
<path fill-rule="evenodd" clip-rule="evenodd" d="M55.5 55.5C182.167 55.5 308.833 55.5 435.5 55.5C435.5 86.1667 435.5 116.833 435.5 147.5C320.166 147.333 204.833 147.5 89.5 148C87 149.167 85.1667 151 84 153.5C83.3333 170.5 83.3333 187.5 84 204.5C84.7386 207.573 86.5719 209.74 89.5 211C92.8168 211.498 96.1501 211.665 99.5 211.5C99.5 232.833 99.5 254.167 99.5 275.5C96.1501 275.335 92.8168 275.502 89.5 276C87 277.167 85.1667 279 84 281.5C83.5 339.499 83.3333 397.499 83.5 455.5C74.1667 455.5 64.8333 455.5 55.5 455.5C55.5 322.167 55.5 188.833 55.5 55.5Z" fill="#E0EBF3"/>
<path fill-rule="evenodd" clip-rule="evenodd" d="M88.5 63.5C108.836 63.3334 129.169 63.5 149.5 64C152.232 64.3981 154.065 65.8981 155 68.5C155.667 89.1667 155.667 109.833 155 130.5C154.044 131.579 153.211 132.745 152.5 134C131.256 135.644 109.922 135.977 88.5 135C87.0692 134.535 85.9025 133.701 85 132.5C83.3563 111.256 83.023 89.9222 84 68.5C85.025 66.313 86.525 64.6464 88.5 63.5Z" fill="#2D4456"/>
<path fill-rule="evenodd" clip-rule="evenodd" d="M264.5 63.5C284.836 63.3334 305.169 63.5 325.5 64C328.232 64.3981 330.065 65.8981 331 68.5C331.667 89.1667 331.667 109.833 331 130.5C330.044 131.579 329.211 132.745 328.5 134C307.256 135.644 285.922 135.977 264.5 135C263.069 134.535 261.903 133.701 261 132.5C259.356 111.256 259.023 89.9222 260 68.5C261.025 66.313 262.525 64.6464 264.5 63.5Z" fill="#2D4456"/>
<path fill-rule="evenodd" clip-rule="evenodd" d="M139.5 87.5C126.167 87.5 112.833 87.5 99.5 87.5C99.5 84.8333 99.5 82.1667 99.5 79.5C112.833 79.5 126.167 79.5 139.5 79.5C139.5 82.1667 139.5 84.8333 139.5 87.5Z" fill="#A9E6ED"/>
<path fill-rule="evenodd" clip-rule="evenodd" d="M315.5 87.5C302.167 87.5 288.833 87.5 275.5 87.5C275.5 84.8333 275.5 82.1667 275.5 79.5C288.833 79.5 302.167 79.5 315.5 79.5C315.5 82.1667 315.5 84.8333 315.5 87.5Z" fill="#A9E6ED"/>
<path fill-rule="evenodd" clip-rule="evenodd" d="M176.5 63.5C196.836 63.3334 217.169 63.5 237.5 64C240.232 64.3981 242.065 65.8981 243 68.5C243.667 89.1667 243.667 109.833 243 130.5C242.044 131.579 241.211 132.745 240.5 134C219.256 135.644 197.922 135.977 176.5 135C175.069 134.535 173.903 133.701 173 132.5C171.356 111.256 171.023 89.9222 172 68.5C173.025 66.313 174.525 64.6464 176.5 63.5Z" fill="#2D4356"/>
<path fill-rule="evenodd" clip-rule="evenodd" d="M227.5 87.5C214.167 87.5 200.833 87.5 187.5 87.5C187.5 84.8333 187.5 82.1667 187.5 79.5C200.833 79.5 214.167 79.5 227.5 79.5C227.5 82.1667 227.5 84.8333 227.5 87.5Z" fill="#A9E6ED"/>
<path fill-rule="evenodd" clip-rule="evenodd" d="M352.5 63.5C372.836 63.3334 393.169 63.5 413.5 64C416.232 64.3981 418.065 65.8981 419 68.5C419.667 89.1667 419.667 109.833 419 130.5C418.044 131.579 417.211 132.745 416.5 134C395.256 135.644 373.922 135.977 352.5 135C351.069 134.535 349.903 133.701 349 132.5C347.356 111.256 347.023 89.9222 348 68.5C349.025 66.313 350.525 64.6464 352.5 63.5Z" fill="#2D4356"/>
<path fill-rule="evenodd" clip-rule="evenodd" d="M403.5 87.5C390.167 87.5 376.833 87.5 363.5 87.5C363.5 84.8333 363.5 82.1667 363.5 79.5C376.833 79.5 390.167 79.5 403.5 79.5C403.5 82.1667 403.5 84.8333 403.5 87.5Z" fill="#A9E6ED"/>
<path fill-rule="evenodd" clip-rule="evenodd" d="M99.5 87.5C112.833 87.5 126.167 87.5 139.5 87.5C139.5 95.5 139.5 103.5 139.5 111.5C126.167 111.5 112.833 111.5 99.5 111.5C99.5 103.5 99.5 95.5 99.5 87.5Z" fill="#80D9E3"/>
<path fill-rule="evenodd" clip-rule="evenodd" d="M187.5 87.5C200.833 87.5 214.167 87.5 227.5 87.5C227.5 95.5 227.5 103.5 227.5 111.5C214.167 111.5 200.833 111.5 187.5 111.5C187.5 103.5 187.5 95.5 187.5 87.5Z" fill="#80D9E3"/>
<path fill-rule="evenodd" clip-rule="evenodd" d="M275.5 87.5C288.833 87.5 302.167 87.5 315.5 87.5C315.5 95.5 315.5 103.5 315.5 111.5C302.167 111.5 288.833 111.5 275.5 111.5C275.5 103.5 275.5 95.5 275.5 87.5Z" fill="#80D9E3"/>
<path fill-rule="evenodd" clip-rule="evenodd" d="M363.5 87.5C376.833 87.5 390.167 87.5 403.5 87.5C403.5 95.5 403.5 103.5 403.5 111.5C390.167 111.5 376.833 111.5 363.5 111.5C363.5 103.5 363.5 95.5 363.5 87.5Z" fill="#80D9E3"/>
<path fill-rule="evenodd" clip-rule="evenodd" d="M187.5 111.5C200.833 111.5 214.167 111.5 227.5 111.5C227.5 114.167 227.5 116.833 227.5 119.5C214.167 119.5 200.833 119.5 187.5 119.5C187.5 116.833 187.5 114.167 187.5 111.5Z" fill="#5FACAF"/>
<path fill-rule="evenodd" clip-rule="evenodd" d="M363.5 111.5C376.833 111.5 390.167 111.5 403.5 111.5C403.5 114.167 403.5 116.833 403.5 119.5C390.167 119.5 376.833 119.5 363.5 119.5C363.5 116.833 363.5 114.167 363.5 111.5Z" fill="#5FACAF"/>
<path fill-rule="evenodd" clip-rule="evenodd" d="M99.5 111.5C112.833 111.5 126.167 111.5 139.5 111.5C139.5 114.167 139.5 116.833 139.5 119.5C126.167 119.5 112.833 119.5 99.5 119.5C99.5 116.833 99.5 114.167 99.5 111.5Z" fill="#61ACAF"/>
<path fill-rule="evenodd" clip-rule="evenodd" d="M275.5 111.5C288.833 111.5 302.167 111.5 315.5 111.5C315.5 114.167 315.5 116.833 315.5 119.5C302.167 119.5 288.833 119.5 275.5 119.5C275.5 116.833 275.5 114.167 275.5 111.5Z" fill="#61ACAF"/>
<path fill-rule="evenodd" clip-rule="evenodd" d="M452.5 160.5C337.793 160.171 223.126 160.504 108.5 161.5C165.496 160.167 222.829 159.5 280.5 159.5C338.001 159.5 395.334 159.833 452.5 160.5Z" fill="#36414A"/>
<path fill-rule="evenodd" clip-rule="evenodd" d="M466.5 159.5C466.5 260.833 466.5 362.167 466.5 463.5C465.5 463.5 464.5 463.5 463.5 463.5C463.667 367.166 463.5 270.833 463 174.5C462.833 266.502 462.333 358.502 461.5 450.5C460.833 450.167 460.167 449.833 459.5 449.5C459.128 454.571 458.128 459.238 456.5 463.5C456.5 364.833 456.5 266.167 456.5 167.5C460.157 165.027 461.324 161.694 460 157.5C461.011 156.663 462.178 156.33 463.5 156.5C463.5 157.5 463.5 158.5 463.5 159.5C464.5 159.5 465.5 159.5 466.5 159.5Z" fill="#2A4459"/>
<path fill-rule="evenodd" clip-rule="evenodd" d="M466.5 159.5C467.833 209.829 468.5 260.496 468.5 311.5C468.5 362.504 467.833 413.171 466.5 463.5C466.5 362.167 466.5 260.833 466.5 159.5Z" fill="#33414D"/>
<path fill-rule="evenodd" clip-rule="evenodd" d="M108.5 161.5C223.126 160.504 337.793 160.171 452.5 160.5C454.972 160.365 456.306 161.032 456.5 162.5C337.5 162.5 218.5 162.5 99.5 162.5C98.7703 160.955 97.437 160.122 95.5 160C99.9473 159.631 104.281 160.131 108.5 161.5Z" fill="#204960"/>
<path fill-rule="evenodd" clip-rule="evenodd" d="M99.5 163.5C218.167 163.5 336.833 163.5 455.5 163.5C455.5 263.5 455.5 363.5 455.5 463.5C455.167 463.5 454.833 463.5 454.5 463.5C454.5 460.833 454.5 458.167 454.5 455.5C454.5 360.833 454.5 266.167 454.5 171.5C454.5 169.167 454.5 166.833 454.5 164.5C336.5 164.5 218.5 164.5 100.5 164.5C100.5 166.833 100.5 169.167 100.5 171.5C100.5 171.833 100.5 172.167 100.5 172.5C100.167 172.5 99.8333 172.5 99.5 172.5C99.5 169.5 99.5 166.5 99.5 163.5Z" fill="#E59285"/>
<path fill-rule="evenodd" clip-rule="evenodd" d="M454.5 171.5C453.833 171.5 453.167 171.5 452.5 171.5C338.833 171.5 225.167 171.5 111.5 171.5C108.5 171.5 105.5 171.5 102.5 171.5C101.833 171.5 101.167 171.5 100.5 171.5C100.5 169.167 100.5 166.833 100.5 164.5C218.5 164.5 336.5 164.5 454.5 164.5C454.5 166.833 454.5 169.167 454.5 171.5Z" fill="#FA937F"/>
<path fill-rule="evenodd" clip-rule="evenodd" d="M111.5 172.5C224.838 171.835 337.838 172.502 450.5 174.5C337.162 175.165 224.162 174.498 111.5 172.5Z" fill="#FF745C"/>
<path fill-rule="evenodd" clip-rule="evenodd" d="M450.5 175.5C450.5 268.833 450.5 362.167 450.5 455.5C449.833 455.5 449.167 455.5 448.5 455.5C447.836 361.827 448.502 268.494 450.5 175.5Z" fill="#FE745E"/>
<path fill-rule="evenodd" clip-rule="evenodd" d="M111.5 172.5C111.5 172.167 111.5 171.833 111.5 171.5C225.167 171.5 338.833 171.5 452.5 171.5C452.5 266.167 452.5 360.833 452.5 455.5C451.833 455.5 451.167 455.5 450.5 455.5C450.5 362.167 450.5 268.833 450.5 175.5C450.5 175.167 450.5 174.833 450.5 174.5C337.838 172.502 224.838 171.835 111.5 172.5Z" fill="#F77A66"/>
<path fill-rule="evenodd" clip-rule="evenodd" d="M452.5 171.5C453.167 171.5 453.833 171.5 454.5 171.5C454.5 266.167 454.5 360.833 454.5 455.5C453.833 455.5 453.167 455.5 452.5 455.5C452.5 360.833 452.5 266.167 452.5 171.5Z" fill="#FD7552"/>
<path fill-rule="evenodd" clip-rule="evenodd" d="M99.5 163.5C99.5 163.167 99.5 162.833 99.5 162.5C218.5 162.5 337.5 162.5 456.5 162.5C456.5 164.167 456.5 165.833 456.5 167.5C456.5 266.167 456.5 364.833 456.5 463.5C456.167 463.5 455.833 463.5 455.5 463.5C455.5 363.5 455.5 263.5 455.5 163.5C336.833 163.5 218.167 163.5 99.5 163.5Z" fill="#453B43"/>
<path fill-rule="evenodd" clip-rule="evenodd" d="M457.5 172.5C458.5 172.5 459.5 172.5 460.5 172.5C461.826 264.141 461.826 355.807 460.5 447.5C460.152 355.729 459.152 264.062 457.5 172.5Z" fill="#294651"/>
<path fill-rule="evenodd" clip-rule="evenodd" d="M102.5 171.5C105.5 171.5 108.5 171.5 111.5 171.5C111.5 171.833 111.5 172.167 111.5 172.5C224.162 174.498 337.162 175.165 450.5 174.5C450.5 174.833 450.5 175.167 450.5 175.5C448.502 268.494 447.836 361.827 448.5 455.5C439.833 455.5 431.167 455.5 422.5 455.5C422.174 365.471 422.508 275.471 423.5 185.5C423.351 272.639 423.518 359.973 424 447.5C423.079 452.898 425.246 455.231 430.5 454.5C436.167 454.5 441.833 454.5 447.5 454.5C447.5 361.5 447.5 268.5 447.5 175.5C441.833 175.5 436.167 175.5 430.5 175.5C430.281 180.629 429.614 180.629 428.5 175.5C427.5 175.5 426.5 175.5 425.5 175.5C424.5 175.5 423.5 175.5 422.5 175.5C422.5 177.833 422.5 180.167 422.5 182.5C419.956 179.693 418.956 180.36 419.5 184.5C417.855 183.521 416.521 182.188 415.5 180.5C367.505 179.5 319.505 179.167 271.5 179.5C320.002 178.833 368.668 178.167 417.5 177.5C417.192 176.692 416.692 176.025 416 175.5C367.667 176.833 319.333 176.833 271 175.5C267.751 177.734 265.751 180.734 265 184.5C264.5 224.499 264.333 264.499 264.5 304.5C262.208 304.244 260.041 304.577 258 305.5C205.208 304.849 154.375 304.182 105.5 303.5C109.151 303.838 110.817 302.172 110.5 298.5C154.501 298.333 198.501 298.5 242.5 299C198.835 299.5 155.168 299.667 111.5 299.5C111.5 300.5 111.5 301.5 111.5 302.5C158.501 302.667 205.501 302.5 252.5 302C255.055 300.742 255.722 298.909 254.5 296.5C253.914 296.709 253.414 297.043 253 297.5C248.586 296.697 244.086 296.197 239.5 296C196.835 295.5 154.168 295.333 111.5 295.5C156.331 294.667 201.331 294.167 246.5 294C248.431 293.098 250.097 291.931 251.5 290.5C251.5 290.167 251.5 289.833 251.5 289.5C252.496 289.586 253.329 289.252 254 288.5C254.833 258.828 254.667 229.161 253.5 199.5C252.702 199.957 252.369 200.624 252.5 201.5C252.167 201.5 251.833 201.5 251.5 201.5C250.194 199.527 248.527 197.861 246.5 196.5C246.5 196.167 246.5 195.833 246.5 195.5C247.404 194.791 247.737 193.791 247.5 192.5C250.061 191.169 252.561 191.502 255 193.5C255.333 190.5 255.667 187.5 256 184.5C256.5 224.165 256.667 263.832 256.5 303.5C257.5 303.5 258.5 303.5 259.5 303.5C259.833 154.167 260.167 154.167 260.5 303.5C261.5 303.5 262.5 303.5 263.5 303.5C263.205 260.818 263.539 218.152 264.5 175.5C213.5 175.5 162.5 175.5 111.5 175.5C111.5 180.833 111.5 186.167 111.5 191.5C156.336 191.168 201.003 191.501 245.5 192.5C197.833 192.5 150.167 192.5 102.5 192.5C102.5 185.5 102.5 178.5 102.5 171.5Z" fill="#F27C65"/>
<path fill-rule="evenodd" clip-rule="evenodd" d="M425.5 175.5C426.326 266.139 426.826 356.805 427 447.5C427.333 361.833 427.667 276.167 428 190.5C428.333 188.833 428.667 187.167 429 185.5C429.333 186.5 429.667 187.5 430 188.5C430.5 277.166 430.667 365.833 430.5 454.5C425.246 455.231 423.079 452.898 424 447.5C423.518 359.973 423.351 272.639 423.5 185.5C423.737 184.209 423.404 183.209 422.5 182.5C422.5 180.167 422.5 177.833 422.5 175.5C423.5 175.5 424.5 175.5 425.5 175.5Z" fill="#FC785C"/>
<path fill-rule="evenodd" clip-rule="evenodd" d="M425.5 175.5C426.5 175.5 427.5 175.5 428.5 175.5C429.614 180.629 430.281 180.629 430.5 175.5C436.167 175.5 441.833 175.5 447.5 175.5C447.5 268.5 447.5 361.5 447.5 454.5C441.833 454.5 436.167 454.5 430.5 454.5C430.667 365.833 430.5 277.166 430 188.5C429.667 187.5 429.333 186.5 429 185.5C428.667 187.167 428.333 188.833 428 190.5C427.667 276.167 427.333 361.833 427 447.5C426.826 356.805 426.326 266.139 425.5 175.5Z" fill="#FB785F"/>
<path fill-rule="evenodd" clip-rule="evenodd" d="M247.5 192.5C246.833 192.5 246.167 192.5 245.5 192.5C201.003 191.501 156.336 191.168 111.5 191.5C111.5 186.167 111.5 180.833 111.5 175.5C162.5 175.5 213.5 175.5 264.5 175.5C263.539 218.152 263.205 260.818 263.5 303.5C262.5 303.5 261.5 303.5 260.5 303.5C260.167 154.167 259.833 154.167 259.5 303.5C258.5 303.5 257.5 303.5 256.5 303.5C256.667 263.832 256.5 224.165 256 184.5C255.667 187.5 255.333 190.5 255 193.5C252.561 191.502 250.061 191.169 247.5 192.5Z" fill="#FC785E"/>
<path fill-rule="evenodd" clip-rule="evenodd" d="M268.5 185.5C269.833 205.489 270.5 225.822 270.5 246.5C270.662 267.313 270.162 287.979 269 308.5C268.5 267.501 268.333 226.501 268.5 185.5Z" fill="#1D495E"/>
<path fill-rule="evenodd" clip-rule="evenodd" d="M415.5 189.5C416.75 189.577 417.583 190.244 418 191.5C418.833 282.169 418.667 372.835 417.5 463.5C416.828 372.128 416.162 280.795 415.5 189.5Z" fill="#1C495D"/>
<path fill-rule="evenodd" clip-rule="evenodd" d="M422.5 182.5C423.404 183.209 423.737 184.209 423.5 185.5C422.508 275.471 422.174 365.471 422.5 455.5C420.834 365.671 419.834 275.671 419.5 185.5C419.5 185.167 419.5 184.833 419.5 184.5C418.956 180.36 419.956 179.693 422.5 182.5Z" fill="#FE735B"/>
<path fill-rule="evenodd" clip-rule="evenodd" d="M100.5 171.5C101.167 171.5 101.833 171.5 102.5 171.5C102.5 178.5 102.5 185.5 102.5 192.5C150.167 192.5 197.833 192.5 245.5 192.5C246.167 192.5 246.833 192.5 247.5 192.5C247.737 193.791 247.404 194.791 246.5 195.5C197.905 194.505 149.239 194.172 100.5 194.5C100.5 187.167 100.5 179.833 100.5 172.5C100.5 172.167 100.5 171.833 100.5 171.5Z" fill="#FE7054"/>
<path fill-rule="evenodd" clip-rule="evenodd" d="M99.5 172.5C99.8333 172.5 100.167 172.5 100.5 172.5C100.5 179.833 100.5 187.167 100.5 194.5C149.239 194.172 197.905 194.505 246.5 195.5C246.5 195.833 246.5 196.167 246.5 196.5C197.542 195.509 148.542 195.176 99.5 195.5C99.5 187.833 99.5 180.167 99.5 172.5Z" fill="#DF8377"/>
<path fill-rule="evenodd" clip-rule="evenodd" d="M403.5 203.5C402.167 203.5 400.833 203.5 399.5 203.5C360.833 203.5 322.167 203.5 283.5 203.5C283.5 200.833 283.5 198.167 283.5 195.5C323.5 195.5 363.5 195.5 403.5 195.5C403.5 198.167 403.5 200.833 403.5 203.5Z" fill="#F3F4F7"/>
<path fill-rule="evenodd" clip-rule="evenodd" d="M287.5 198.5C324.839 198.167 362.173 198.5 399.5 199.5C380.833 199.833 362.167 200.167 343.5 200.5C324.488 200.5 305.821 199.833 287.5 198.5Z" fill="#ECF5FF"/>
<path fill-rule="evenodd" clip-rule="evenodd" d="M251.5 201.5C251.833 201.5 252.167 201.5 252.5 201.5C252.825 230.907 252.491 260.24 251.5 289.5C251.5 289.833 251.5 290.167 251.5 290.5C250.167 290.5 248.833 290.5 247.5 290.5C248.145 289.188 249.145 288.188 250.5 287.5C251.5 258.841 251.833 230.174 251.5 201.5Z" fill="#DD7F74"/>
<path fill-rule="evenodd" clip-rule="evenodd" d="M251.5 289.5C252.491 260.24 252.825 230.907 252.5 201.5C252.369 200.624 252.702 199.957 253.5 199.5C254.667 229.161 254.833 258.828 254 288.5C253.329 289.252 252.496 289.586 251.5 289.5Z" fill="#FE7055"/>
<path fill-rule="evenodd" clip-rule="evenodd" d="M283.5 203.5C322.167 203.5 360.833 203.5 399.5 203.5C399.5 204.5 399.5 205.5 399.5 206.5C361.79 206.173 324.124 206.506 286.5 207.5C285.5 290.164 285.167 372.831 285.5 455.5C284.833 455.5 284.167 455.5 283.5 455.5C283.5 371.5 283.5 287.5 283.5 203.5Z" fill="#DDEBF6"/>
<path fill-rule="evenodd" clip-rule="evenodd" d="M399.5 203.5C400.833 203.5 402.167 203.5 403.5 203.5C403.5 287.5 403.5 371.5 403.5 455.5C398.167 455.5 392.833 455.5 387.5 455.5C387.667 410.832 387.5 366.165 387 321.5C385.833 319 384 317.167 381.5 316C356.167 315.333 330.833 315.333 305.5 316C303 317.167 301.167 319 300 321.5C299.5 366.165 299.333 410.832 299.5 455.5C294.833 455.5 290.167 455.5 285.5 455.5C285.167 372.831 285.5 290.164 286.5 207.5C324.124 206.506 361.79 206.173 399.5 206.5C399.5 205.5 399.5 204.5 399.5 203.5Z" fill="#E0EAF3"/>
<path fill-rule="evenodd" clip-rule="evenodd" d="M365.5 218.5C365.5 223.5 365.5 228.5 365.5 233.5C370.5 233.5 375.5 233.5 380.5 233.5C383.675 233.84 385.841 235.507 387 238.5C387.667 249.833 387.667 261.167 387 272.5C385.841 275.493 383.675 277.16 380.5 277.5C375.5 277.5 370.5 277.5 365.5 277.5C365.5 282.5 365.5 287.5 365.5 292.5C365.16 295.675 363.493 297.841 360.5 299C349.167 299.667 337.833 299.667 326.5 299C323.944 297.945 322.277 296.112 321.5 293.5C321.5 288.167 321.5 282.833 321.5 277.5C316.5 277.5 311.5 277.5 306.5 277.5C303.325 277.16 301.159 275.493 300 272.5C299.333 261.167 299.333 249.833 300 238.5C301.159 235.507 303.325 233.84 306.5 233.5C311.5 233.5 316.5 233.5 321.5 233.5C321.5 228.5 321.5 223.5 321.5 218.5C321.84 215.325 323.507 213.159 326.5 212C337.833 211.333 349.167 211.333 360.5 212C363.493 213.159 365.16 215.325 365.5 218.5Z" fill="#2D4356"/>
<path fill-rule="evenodd" clip-rule="evenodd" d="M115.5 219.5C132.833 219.5 150.167 219.5 167.5 219.5C167.5 235.5 167.5 251.5 167.5 267.5C150.167 267.5 132.833 267.5 115.5 267.5C115.5 251.5 115.5 235.5 115.5 219.5Z" fill="#81D9E3"/>
<path fill-rule="evenodd" clip-rule="evenodd" d="M183.5 219.5C200.833 219.5 218.167 219.5 235.5 219.5C235.5 235.5 235.5 251.5 235.5 267.5C218.167 267.5 200.833 267.5 183.5 267.5C183.5 251.5 183.5 235.5 183.5 219.5Z" fill="#80D9E3"/>
<path fill-rule="evenodd" clip-rule="evenodd" d="M321.5 218.5C321.5 223.5 321.5 228.5 321.5 233.5C316.5 233.5 311.5 233.5 306.5 233.5C310.97 232.514 315.637 232.181 320.5 232.5C320.181 227.637 320.514 222.97 321.5 218.5Z" fill="#9CABB8"/>
<path fill-rule="evenodd" clip-rule="evenodd" d="M365.5 218.5C366.486 222.97 366.819 227.637 366.5 232.5C371.363 232.181 376.03 232.514 380.5 233.5C375.5 233.5 370.5 233.5 365.5 233.5C365.5 228.5 365.5 223.5 365.5 218.5Z" fill="#9CABB8"/>
<path fill-rule="evenodd" clip-rule="evenodd" d="M337.5 227.5C337.5 230.833 337.5 234.167 337.5 237.5C338.5 237.5 339.5 237.5 340.5 237.5C340.343 236.127 340.51 234.793 341 233.5C342.017 235.376 342.851 237.376 343.5 239.5C344.149 237.376 344.983 235.376 346 233.5C346.49 234.793 346.657 236.127 346.5 237.5C347.5 237.5 348.5 237.5 349.5 237.5C349.5 234.167 349.5 230.833 349.5 227.5C350.327 232.985 350.827 238.652 351 244.5C351.374 245.416 351.874 246.25 352.5 247C358.715 248.416 365.048 248.916 371.5 248.5C371.5 253.167 371.5 257.833 371.5 262.5C365.048 262.084 358.715 262.584 352.5 264C351.874 264.75 351.374 265.584 351 266.5C350.501 272.157 350.334 277.824 350.5 283.5C345.833 283.5 341.167 283.5 336.5 283.5C336.916 277.048 336.416 270.715 335 264.5C334.25 263.874 333.416 263.374 332.5 263C326.843 262.501 321.176 262.334 315.5 262.5C315.5 257.833 315.5 253.167 315.5 248.5C321.952 248.916 328.285 248.416 334.5 247C335.126 246.25 335.626 245.416 336 244.5C336.173 238.652 336.673 232.985 337.5 227.5Z" fill="#81D6E0"/>
<path fill-rule="evenodd" clip-rule="evenodd" d="M337.5 227.5C341.5 227.5 345.5 227.5 349.5 227.5C349.5 230.833 349.5 234.167 349.5 237.5C348.5 237.5 347.5 237.5 346.5 237.5C346.657 236.127 346.49 234.793 346 233.5C344.983 235.376 344.149 237.376 343.5 239.5C342.851 237.376 342.017 235.376 341 233.5C340.51 234.793 340.343 236.127 340.5 237.5C339.5 237.5 338.5 237.5 337.5 237.5C337.5 234.167 337.5 230.833 337.5 227.5Z" fill="#7FDAE3"/>
<path fill-rule="evenodd" clip-rule="evenodd" d="M235.5 219.5C235.5 216.833 235.5 214.167 235.5 211.5C218.167 211.5 200.833 211.5 183.5 211.5C183.5 214.167 183.5 216.833 183.5 219.5C183.5 235.5 183.5 251.5 183.5 267.5C183.5 270.167 183.5 272.833 183.5 275.5C200.833 275.5 218.167 275.5 235.5 275.5C236.978 275.238 238.311 275.571 239.5 276.5C237.234 277.314 234.9 277.814 232.5 278C215.823 278.167 199.157 278.667 182.5 279.5C196.167 280.167 209.833 280.833 223.5 281.5C212.849 282.332 202.182 282.832 191.5 283C202.5 283.333 213.5 283.667 224.5 284C226.727 284.704 227.06 285.871 225.5 287.5C192.167 287.5 158.833 287.5 125.5 287.5C123.94 285.871 124.273 284.704 126.5 284C137.5 283.667 148.5 283.333 159.5 283C148.818 282.832 138.151 282.332 127.5 281.5C141.167 280.833 154.833 280.167 168.5 279.5C152.177 278.667 135.844 278.167 119.5 278C116.774 277.818 114.107 277.318 111.5 276.5C112.689 275.571 114.022 275.238 115.5 275.5C132.833 275.5 150.167 275.5 167.5 275.5C167.5 272.833 167.5 270.167 167.5 267.5C167.5 251.5 167.5 235.5 167.5 219.5C167.5 216.833 167.5 214.167 167.5 211.5C150.167 211.5 132.833 211.5 115.5 211.5C115.5 212.833 115.5 214.167 115.5 215.5C114.839 216.718 114.172 218.051 113.5 219.5C112.205 215.62 112.205 211.786 113.5 208C112.833 207.667 112.167 207.333 111.5 207C154.167 206.333 196.833 206.333 239.5 207C238.536 211.066 238.203 215.233 238.5 219.5C237.5 219.5 236.5 219.5 235.5 219.5Z" fill="#2F4256"/>
<path fill-rule="evenodd" clip-rule="evenodd" d="M235.5 219.5C218.167 219.5 200.833 219.5 183.5 219.5C183.5 216.833 183.5 214.167 183.5 211.5C200.833 211.5 218.167 211.5 235.5 211.5C235.5 214.167 235.5 216.833 235.5 219.5Z" fill="#A9E5EE"/>
<path fill-rule="evenodd" clip-rule="evenodd" d="M167.5 219.5C150.167 219.5 132.833 219.5 115.5 219.5C115.5 218.167 115.5 216.833 115.5 215.5C115.5 214.167 115.5 212.833 115.5 211.5C132.833 211.5 150.167 211.5 167.5 211.5C167.5 214.167 167.5 216.833 167.5 219.5Z" fill="#A8E6EE"/>
<path fill-rule="evenodd" clip-rule="evenodd" d="M127.5 208.5C141.99 207.504 156.657 207.171 171.5 207.5C171.164 211.167 171.997 214.5 174 217.5C175 213.5 176 213.5 177 217.5C179.003 214.5 179.836 211.167 179.5 207.5C194.17 207.333 208.837 207.5 223.5 208C209.504 208.5 195.504 208.667 181.5 208.5C180.891 229.489 180.224 250.489 179.5 271.5C178.833 255.5 178.167 239.5 177.5 223.5C176.538 240.333 176.205 256.999 176.5 273.5C179.488 276.1 179.154 278.1 175.5 279.5C171.846 278.1 171.512 276.1 174.5 273.5C174.795 256.999 174.462 240.333 173.5 223.5C172.833 239.5 172.167 255.5 171.5 271.5C170.776 250.489 170.109 229.489 169.5 208.5C155.5 208.5 141.5 208.5 127.5 208.5Z" fill="#294654"/>
<path fill-rule="evenodd" clip-rule="evenodd" d="M115.5 267.5C132.833 267.5 150.167 267.5 167.5 267.5C167.5 270.167 167.5 272.833 167.5 275.5C150.167 275.5 132.833 275.5 115.5 275.5C115.5 272.833 115.5 270.167 115.5 267.5Z" fill="#5FACB1"/>
<path fill-rule="evenodd" clip-rule="evenodd" d="M183.5 267.5C200.833 267.5 218.167 267.5 235.5 267.5C235.5 270.167 235.5 272.833 235.5 275.5C218.167 275.5 200.833 275.5 183.5 275.5C183.5 272.833 183.5 270.167 183.5 267.5Z" fill="#5FACB0"/>
<path fill-rule="evenodd" clip-rule="evenodd" d="M306.5 277.5C311.5 277.5 316.5 277.5 321.5 277.5C321.5 282.833 321.5 288.167 321.5 293.5C320.513 288.695 320.179 283.695 320.5 278.5C315.637 278.819 310.97 278.486 306.5 277.5Z" fill="#9CACBA"/>
<path fill-rule="evenodd" clip-rule="evenodd" d="M380.5 277.5C376.03 278.486 371.363 278.819 366.5 278.5C366.819 283.363 366.486 288.03 365.5 292.5C365.5 287.5 365.5 282.5 365.5 277.5C370.5 277.5 375.5 277.5 380.5 277.5Z" fill="#9DACBB"/>
<path fill-rule="evenodd" clip-rule="evenodd" d="M239.5 287.5C240.376 287.369 241.043 287.702 241.5 288.5C240.757 289.182 240.091 289.849 239.5 290.5C196.828 290.833 154.161 290.5 111.5 289.5C154.331 288.833 196.998 288.167 239.5 287.5Z" fill="#1D4A5E"/>
<path fill-rule="evenodd" clip-rule="evenodd" d="M244.5 290.5C245.167 290.5 245.833 290.5 246.5 290.5C246.389 291.117 246.056 291.617 245.5 292C197.168 292.5 148.834 292.667 100.5 292.5C100.815 296.371 100.482 300.038 99.5 303.5C99.5 299.5 99.5 295.5 99.5 291.5C148.003 291.832 196.336 291.499 244.5 290.5Z" fill="#E68072"/>
<path fill-rule="evenodd" clip-rule="evenodd" d="M271.5 179.5C270.5 181.5 269.5 183.5 268.5 185.5C268.167 185.5 267.833 185.5 267.5 185.5C266.501 225.663 266.168 265.997 266.5 306.5C210.833 306.5 155.167 306.5 99.5 306.5C99.5 305.5 99.5 304.5 99.5 303.5C100.482 300.038 100.815 296.371 100.5 292.5C148.834 292.667 197.168 292.5 245.5 292C246.056 291.617 246.389 291.117 246.5 290.5C246.833 290.5 247.167 290.5 247.5 290.5C248.833 290.5 250.167 290.5 251.5 290.5C250.097 291.931 248.431 293.098 246.5 294C201.331 294.167 156.331 294.667 111.5 295.5C110.89 297.85 110.556 297.517 110.5 294.5C107.833 294.5 105.167 294.5 102.5 294.5C102.5 297.167 102.5 299.833 102.5 302.5C103.791 302.263 104.791 302.596 105.5 303.5C154.375 304.182 205.208 304.849 258 305.5C260.041 304.577 262.208 304.244 264.5 304.5C264.333 264.499 264.5 224.499 265 184.5C265.751 180.734 267.751 177.734 271 175.5C319.333 176.833 367.667 176.833 416 175.5C416.692 176.025 417.192 176.692 417.5 177.5C368.668 178.167 320.002 178.833 271.5 179.5Z" fill="#FE7157"/>
<path fill-rule="evenodd" clip-rule="evenodd" d="M111.5 295.5C154.168 295.333 196.835 295.5 239.5 296C244.086 296.197 248.586 296.697 253 297.5C253.414 297.043 253.914 296.709 254.5 296.5C255.722 298.909 255.055 300.742 252.5 302C205.501 302.5 158.501 302.667 111.5 302.5C111.5 301.5 111.5 300.5 111.5 299.5C155.168 299.667 198.835 299.5 242.5 299C198.501 298.5 154.501 298.333 110.5 298.5C110.817 302.172 109.151 303.838 105.5 303.5C104.791 302.596 103.791 302.263 102.5 302.5C102.5 299.833 102.5 297.167 102.5 294.5C105.167 294.5 107.833 294.5 110.5 294.5C110.556 297.517 110.89 297.85 111.5 295.5Z" fill="#FC785C"/>
<path fill-rule="evenodd" clip-rule="evenodd" d="M267.5 185.5C267.5 226.167 267.5 266.833 267.5 307.5C265.5 307.5 263.5 307.5 261.5 307.5C207.331 307.832 153.331 307.499 99.5 306.5C155.167 306.5 210.833 306.5 266.5 306.5C266.168 265.997 266.501 225.663 267.5 185.5Z" fill="#E08276"/>
<path fill-rule="evenodd" clip-rule="evenodd" d="M125.5 287.5C158.833 287.5 192.167 287.5 225.5 287.5C230.167 287.5 234.833 287.5 239.5 287.5C196.998 288.167 154.331 288.833 111.5 289.5C154.161 290.5 196.828 290.833 239.5 290.5C241.167 290.5 242.833 290.5 244.5 290.5C196.336 291.499 148.003 291.832 99.5 291.5C99.5 295.5 99.5 299.5 99.5 303.5C99.5 304.5 99.5 305.5 99.5 306.5C153.331 307.499 207.331 307.832 261.5 307.5C207.336 308.499 153.003 308.832 98.5 308.5C98.8588 306.234 98.1922 304.401 96.5 303C98.3888 299.164 99.0555 294.997 98.5 290.5C102.5 290.5 106.5 290.5 110.5 290.5C110.5 289.5 110.5 288.5 110.5 287.5C115.5 287.5 120.5 287.5 125.5 287.5Z" fill="#403C44"/>
<path fill-rule="evenodd" clip-rule="evenodd" d="M270.5 321.5C270.265 320.903 269.765 320.57 269 320.5C260.662 322.403 252.162 323.07 243.5 322.5C243.53 321.503 243.03 320.836 242 320.5C240.899 321.291 240.066 321.291 239.5 320.5C240.5 320.167 241.5 319.833 242.5 319.5C248.81 320.54 255.143 320.707 261.5 320C259.096 319.804 257.429 318.638 256.5 316.5C256.833 316.167 257.167 315.833 257.5 315.5C261.779 319.788 264.279 318.788 265 312.5C272.62 310.868 273.12 311.701 266.5 315C267.649 316.744 268.983 316.911 270.5 315.5C271.833 316.5 271.833 317.5 270.5 318.5C268.802 317.319 267.135 317.319 265.5 318.5C267.5 319.167 269.5 319.833 271.5 320.5C271.376 321.107 271.043 321.44 270.5 321.5Z" fill="#2C4262"/>
<path fill-rule="evenodd" clip-rule="evenodd" d="M226.5 399.5C227.156 376.475 226.49 353.809 224.5 331.5C224.167 331.5 223.833 331.5 223.5 331.5C196.833 331.5 170.167 331.5 143.5 331.5C143.167 331.5 142.833 331.5 142.5 331.5C140.51 353.809 139.844 376.475 140.5 399.5C139.502 374.339 139.169 349.005 139.5 323.5C168.833 323.5 198.167 323.5 227.5 323.5C227.831 349.005 227.498 374.339 226.5 399.5Z" fill="#A4E3EC"/>
<path fill-rule="evenodd" clip-rule="evenodd" d="M123.5 323.5C123.5 325.833 123.5 328.167 123.5 330.5C122.105 329.185 121.105 329.519 120.5 331.5C117.098 331.342 113.764 331.676 110.5 332.5C108.052 331.527 105.385 331.194 102.5 331.5C102.027 330.094 101.027 329.427 99.5 329.5C99.5 327.5 99.5 325.5 99.5 323.5C107.5 323.5 115.5 323.5 123.5 323.5Z" fill="#FAE3A9"/>
<path fill-rule="evenodd" clip-rule="evenodd" d="M243.5 323.5C251.5 323.5 259.5 323.5 267.5 323.5C267.5 325.833 267.5 328.167 267.5 330.5C266.105 329.185 265.105 329.519 264.5 331.5C261.098 331.342 257.764 331.676 254.5 332.5C252.052 331.527 249.385 331.194 246.5 331.5C246.027 330.094 245.027 329.427 243.5 329.5C243.5 327.5 243.5 325.5 243.5 323.5Z" fill="#FAE3A9"/>
<path fill-rule="evenodd" clip-rule="evenodd" d="M302.5 321.5C303.404 322.209 303.737 323.209 303.5 324.5C304.675 324.281 305.675 324.614 306.5 325.5C307.002 330.258 309.668 332.425 314.5 332C314.812 375.715 314.479 419.548 313.5 463.5C311.833 292.839 310.833 292.839 310.5 463.5C309.5 463.5 308.5 463.5 307.5 463.5C307.667 420.499 307.5 377.499 307 334.5C306.585 332.709 305.585 331.376 304 330.5C304.807 374.804 304.64 419.137 303.5 463.5C302.5 416.171 302.167 368.838 302.5 321.5Z" fill="#28455A"/>
<path fill-rule="evenodd" clip-rule="evenodd" d="M315.5 331.5C334.167 331.5 352.833 331.5 371.5 331.5C371.5 375.5 371.5 419.5 371.5 463.5C352.833 463.5 334.167 463.5 315.5 463.5C315.5 419.5 315.5 375.5 315.5 331.5Z" fill="#FEFEFE"/>
<path fill-rule="evenodd" clip-rule="evenodd" d="M383.5 319.5C384.831 367.335 384.831 415.335 383.5 463.5C382.36 419.137 382.193 374.804 383 330.5C381.415 331.376 380.415 332.709 380 334.5C379.5 377.499 379.333 420.499 379.5 463.5C378.5 463.5 377.5 463.5 376.5 463.5C376.167 292.839 375.167 292.839 373.5 463.5C372.333 420.837 372.167 378.171 373 335.5C373.845 332.815 375.678 331.149 378.5 330.5C379.318 328.892 379.985 327.225 380.5 325.5C381.325 324.614 382.325 324.281 383.5 324.5C383.5 322.833 383.5 321.167 383.5 319.5Z" fill="#29455A"/>
<path fill-rule="evenodd" clip-rule="evenodd" d="M98.5 327.5C98.5 372.833 98.5 418.167 98.5 463.5C97.167 442.511 96.5003 421.177 96.5 399.5C96.7215 374.522 96.8882 349.855 97 325.5C97.2784 326.416 97.7784 327.082 98.5 327.5Z" fill="#234663"/>
<path fill-rule="evenodd" clip-rule="evenodd" d="M123.5 323.5C115.5 323.5 107.5 323.5 99.5 323.5C99.5 325.5 99.5 327.5 99.5 329.5C99.5 374.167 99.5 418.833 99.5 463.5C99.1667 463.5 98.8333 463.5 98.5 463.5C98.5 418.167 98.5 372.833 98.5 327.5C98.1156 325.071 97.449 322.737 96.5 320.5C105.531 322 114.531 323 123.5 323.5Z" fill="#374439"/>
<path fill-rule="evenodd" clip-rule="evenodd" d="M99.5 329.5C101.027 329.427 102.027 330.094 102.5 331.5C100.506 372.487 99.8389 413.82 100.5 455.5C100.5 458.167 100.5 460.833 100.5 463.5C100.167 463.5 99.8333 463.5 99.5 463.5C99.5 418.833 99.5 374.167 99.5 329.5Z" fill="#F2D993"/>
<path fill-rule="evenodd" clip-rule="evenodd" d="M102.5 331.5C102.5 372.833 102.5 414.167 102.5 455.5C101.833 455.5 101.167 455.5 100.5 455.5C99.8391 413.82 100.506 372.487 102.5 331.5Z" fill="#FEDA78"/>
<path fill-rule="evenodd" clip-rule="evenodd" d="M102.5 331.5C105.385 331.194 108.052 331.527 110.5 332.5C113.764 331.676 117.098 331.342 120.5 331.5C120.5 372.833 120.5 414.167 120.5 455.5C117.833 455.5 115.167 455.5 112.5 455.5C111.833 295.5 111.167 295.5 110.5 455.5C107.833 455.5 105.167 455.5 102.5 455.5C102.5 414.167 102.5 372.833 102.5 331.5Z" fill="#FDDA83"/>
<path fill-rule="evenodd" clip-rule="evenodd" d="M110.5 332.5C109.411 334.117 107.744 334.95 105.5 335C106.663 374.762 106.83 414.596 106 454.5C104.506 413.978 104.006 373.312 104.5 332.5C106.5 332.5 108.5 332.5 110.5 332.5Z" fill="#FDDC79"/>
<path fill-rule="evenodd" clip-rule="evenodd" d="M112.5 455.5C111.833 455.5 111.167 455.5 110.5 455.5C111.167 295.5 111.833 295.5 112.5 455.5Z" fill="#FADD7B"/>
<path fill-rule="evenodd" clip-rule="evenodd" d="M113.5 332.5C115.167 332.5 116.833 332.5 118.5 332.5C118.994 373.312 118.494 413.978 117 454.5C116.17 414.596 116.337 374.762 117.5 335C115.563 334.878 114.23 334.045 113.5 332.5Z" fill="#FDDC79"/>
<path fill-rule="evenodd" clip-rule="evenodd" d="M120.5 331.5C122.494 372.487 123.161 413.82 122.5 455.5C121.833 455.5 121.167 455.5 120.5 455.5C120.5 414.167 120.5 372.833 120.5 331.5Z" fill="#FED976"/>
<path fill-rule="evenodd" clip-rule="evenodd" d="M123.5 330.5C123.832 375.003 123.499 419.336 122.5 463.5C122.5 460.833 122.5 458.167 122.5 455.5C123.161 413.82 122.494 372.487 120.5 331.5C121.105 329.519 122.105 329.185 123.5 330.5Z" fill="#F1D993"/>
<path fill-rule="evenodd" clip-rule="evenodd" d="M124.5 331.5C125.833 353.156 126.5 375.156 126.5 397.5C126.167 419.5 125.833 441.5 125.5 463.5C124.5 419.505 124.167 375.505 124.5 331.5Z" fill="#234663"/>
<path fill-rule="evenodd" clip-rule="evenodd" d="M142.5 331.5C142.5 354.167 142.5 376.833 142.5 399.5C141.833 399.5 141.167 399.5 140.5 399.5C139.844 376.475 140.51 353.809 142.5 331.5Z" fill="#78DCE3"/>
<path fill-rule="evenodd" clip-rule="evenodd" d="M142.5 331.5C142.833 331.5 143.167 331.5 143.5 331.5C143.5 332.5 143.5 333.5 143.5 334.5C170.167 334.5 196.833 334.5 223.5 334.5C223.5 333.5 223.5 332.5 223.5 331.5C223.833 331.5 224.167 331.5 224.5 331.5C224.5 354.167 224.5 376.833 224.5 399.5C224.167 399.5 223.833 399.5 223.5 399.5C223.5 378.167 223.5 356.833 223.5 335.5C196.833 335.5 170.167 335.5 143.5 335.5C143.5 356.833 143.5 378.167 143.5 399.5C143.167 399.5 142.833 399.5 142.5 399.5C142.5 376.833 142.5 354.167 142.5 331.5Z" fill="#88D4E6"/>
<path fill-rule="evenodd" clip-rule="evenodd" d="M143.5 331.5C170.167 331.5 196.833 331.5 223.5 331.5C223.5 332.5 223.5 333.5 223.5 334.5C196.833 334.5 170.167 334.5 143.5 334.5C143.5 333.5 143.5 332.5 143.5 331.5Z" fill="#7DDBE1"/>
<path fill-rule="evenodd" clip-rule="evenodd" d="M223.5 399.5C196.833 399.5 170.167 399.5 143.5 399.5C143.5 378.167 143.5 356.833 143.5 335.5C170.167 335.5 196.833 335.5 223.5 335.5C223.5 356.833 223.5 378.167 223.5 399.5Z" fill="#81D9E2"/>
<path fill-rule="evenodd" clip-rule="evenodd" d="M224.5 331.5C226.49 353.809 227.156 376.475 226.5 399.5C225.833 399.5 225.167 399.5 224.5 399.5C224.5 376.833 224.5 354.167 224.5 331.5Z" fill="#77DEE3"/>
<path fill-rule="evenodd" clip-rule="evenodd" d="M240.5 331.5C241.833 353.156 242.5 375.156 242.5 397.5C242.167 419.5 241.833 441.5 241.5 463.5C240.525 419.339 240.191 375.339 240.5 331.5Z" fill="#234663"/>
<path fill-rule="evenodd" clip-rule="evenodd" d="M243.5 329.5C245.027 329.427 246.027 330.094 246.5 331.5C244.506 372.487 243.839 413.82 244.5 455.5C244.5 458.167 244.5 460.833 244.5 463.5C243.501 419.003 243.168 374.336 243.5 329.5Z" fill="#F2D993"/>
<path fill-rule="evenodd" clip-rule="evenodd" d="M246.5 331.5C246.5 372.833 246.5 414.167 246.5 455.5C245.833 455.5 245.167 455.5 244.5 455.5C243.839 413.82 244.506 372.487 246.5 331.5Z" fill="#FEDA78"/>
<path fill-rule="evenodd" clip-rule="evenodd" d="M246.5 331.5C249.385 331.194 252.052 331.527 254.5 332.5C257.764 331.676 261.098 331.342 264.5 331.5C264.5 372.833 264.5 414.167 264.5 455.5C261.833 455.5 259.167 455.5 256.5 455.5C255.833 295.5 255.167 295.5 254.5 455.5C251.833 455.5 249.167 455.5 246.5 455.5C246.5 414.167 246.5 372.833 246.5 331.5Z" fill="#FDDA83"/>
<path fill-rule="evenodd" clip-rule="evenodd" d="M254.5 332.5C253.411 334.117 251.744 334.95 249.5 335C250.663 374.762 250.83 414.596 250 454.5C248.506 413.978 248.006 373.312 248.5 332.5C250.5 332.5 252.5 332.5 254.5 332.5Z" fill="#FDDC79"/>
<path fill-rule="evenodd" clip-rule="evenodd" d="M256.5 455.5C255.833 455.5 255.167 455.5 254.5 455.5C255.167 295.5 255.833 295.5 256.5 455.5Z" fill="#FADD7B"/>
<path fill-rule="evenodd" clip-rule="evenodd" d="M257.5 332.5C259.167 332.5 260.833 332.5 262.5 332.5C262.994 373.312 262.494 413.978 261 454.5C260.17 414.596 260.337 374.762 261.5 335C259.563 334.878 258.23 334.045 257.5 332.5Z" fill="#FDDC79"/>
<path fill-rule="evenodd" clip-rule="evenodd" d="M264.5 331.5C266.494 372.487 267.161 413.82 266.5 455.5C265.833 455.5 265.167 455.5 264.5 455.5C264.5 414.167 264.5 372.833 264.5 331.5Z" fill="#FED976"/>
<path fill-rule="evenodd" clip-rule="evenodd" d="M267.5 330.5C267.5 374.833 267.5 419.167 267.5 463.5C267.167 463.5 266.833 463.5 266.5 463.5C266.5 460.833 266.5 458.167 266.5 455.5C267.161 413.82 266.494 372.487 264.5 331.5C265.105 329.519 266.105 329.185 267.5 330.5Z" fill="#F1D993"/>
<path fill-rule="evenodd" clip-rule="evenodd" d="M270.5 321.5C268.899 324.584 268.232 327.917 268.5 331.5C268.5 375.5 268.5 419.5 268.5 463.5C268.167 463.5 267.833 463.5 267.5 463.5C267.5 419.167 267.5 374.833 267.5 330.5C267.5 328.167 267.5 325.833 267.5 323.5C259.5 323.5 251.5 323.5 243.5 323.5C243.5 323.167 243.5 322.833 243.5 322.5C252.162 323.07 260.662 322.403 269 320.5C269.765 320.57 270.265 320.903 270.5 321.5Z" fill="#37443A"/>
<path fill-rule="evenodd" clip-rule="evenodd" d="M268.5 331.5C269.833 353.156 270.5 375.156 270.5 397.5C270.5 419.844 269.833 441.844 268.5 463.5C268.5 419.5 268.5 375.5 268.5 331.5Z" fill="#234663"/>
<path fill-rule="evenodd" clip-rule="evenodd" d="M227.5 455.5C198.167 455.5 168.833 455.5 139.5 455.5C139.5 442.167 139.5 428.833 139.5 415.5C168.833 415.5 198.167 415.5 227.5 415.5C227.5 428.833 227.5 442.167 227.5 455.5Z" fill="#80D9E3"/>
<path fill-rule="evenodd" clip-rule="evenodd" d="M55.5 455.5C64.8333 455.5 74.1667 455.5 83.5 455.5C83.5 458.167 83.5 460.833 83.5 463.5C74.1667 463.5 64.8333 463.5 55.5 463.5C55.5 460.833 55.5 458.167 55.5 455.5Z" fill="#BEC7CF"/>
<path fill-rule="evenodd" clip-rule="evenodd" d="M283.5 455.5C284.167 455.5 284.833 455.5 285.5 455.5C290.167 455.5 294.833 455.5 299.5 455.5C299.5 458.167 299.5 460.833 299.5 463.5C294.167 463.5 288.833 463.5 283.5 463.5C283.5 460.833 283.5 458.167 283.5 455.5Z" fill="#BEC7D0"/>
<path fill-rule="evenodd" clip-rule="evenodd" d="M387.5 455.5C392.833 455.5 398.167 455.5 403.5 455.5C403.5 458.167 403.5 460.833 403.5 463.5C398.167 463.5 392.833 463.5 387.5 463.5C387.5 460.833 387.5 458.167 387.5 455.5Z" fill="#BEC8D0"/>
<path fill-rule="evenodd" clip-rule="evenodd" d="M100.5 455.5C101.167 455.5 101.833 455.5 102.5 455.5C105.167 455.5 107.833 455.5 110.5 455.5C111.167 455.5 111.833 455.5 112.5 455.5C115.167 455.5 117.833 455.5 120.5 455.5C121.167 455.5 121.833 455.5 122.5 455.5C122.5 458.167 122.5 460.833 122.5 463.5C115.167 463.5 107.833 463.5 100.5 463.5C100.5 460.833 100.5 458.167 100.5 455.5Z" fill="#DAB96E"/>
<path fill-rule="evenodd" clip-rule="evenodd" d="M244.5 455.5C245.167 455.5 245.833 455.5 246.5 455.5C249.167 455.5 251.833 455.5 254.5 455.5C255.167 455.5 255.833 455.5 256.5 455.5C259.167 455.5 261.833 455.5 264.5 455.5C265.167 455.5 265.833 455.5 266.5 455.5C266.5 458.167 266.5 460.833 266.5 463.5C259.167 463.5 251.833 463.5 244.5 463.5C244.5 460.833 244.5 458.167 244.5 455.5Z" fill="#DAB96E"/>
<path fill-rule="evenodd" clip-rule="evenodd" d="M419.5 185.5C419.834 275.671 420.834 365.671 422.5 455.5C431.167 455.5 439.833 455.5 448.5 455.5C449.167 455.5 449.833 455.5 450.5 455.5C451.167 455.5 451.833 455.5 452.5 455.5C453.167 455.5 453.833 455.5 454.5 455.5C454.5 458.167 454.5 460.833 454.5 463.5C442.833 463.5 431.167 463.5 419.5 463.5C419.5 370.833 419.5 278.167 419.5 185.5Z" fill="#D76B5A"/>
<path fill-rule="evenodd" clip-rule="evenodd" d="M139.5 455.5C168.833 455.5 198.167 455.5 227.5 455.5C227.5 458.167 227.5 460.833 227.5 463.5C198.167 463.5 168.833 463.5 139.5 463.5C139.5 460.833 139.5 458.167 139.5 455.5Z" fill="#5FACB0"/>
<path fill-rule="evenodd" clip-rule="evenodd" d="M479.5 485.5C330.167 485.5 180.833 485.5 31.5 485.5C31.5 483.5 31.5 481.5 31.5 479.5C180.833 479.5 330.167 479.5 479.5 479.5C479.5 481.5 479.5 483.5 479.5 485.5Z" fill="#D68650"/>
<path fill-rule="evenodd" clip-rule="evenodd" d="M31.5 485.5C180.833 485.5 330.167 485.5 479.5 485.5C479.5 486.167 479.5 486.833 479.5 487.5C330.167 487.5 180.833 487.5 31.5 487.5C31.5 486.833 31.5 486.167 31.5 485.5Z" fill="#D28754"/>
<path fill-rule="evenodd" clip-rule="evenodd" d="M31.5 487.5C180.833 487.5 330.167 487.5 479.5 487.5C479.5 488.167 479.5 488.833 479.5 489.5C330.167 489.5 180.833 489.5 31.5 489.5C31.5 488.833 31.5 488.167 31.5 487.5Z" fill="#B16C40"/>
<path fill-rule="evenodd" clip-rule="evenodd" d="M31.5 489.5C180.833 489.5 330.167 489.5 479.5 489.5C479.5 491.5 479.5 493.5 479.5 495.5C330.167 495.5 180.833 495.5 31.5 495.5C31.5 493.5 31.5 491.5 31.5 489.5Z" fill="#AE6D43"/>
</g>
<defs>
<clipPath id="clip0_12_484">
<rect width="512" height="512" fill="white"/>
</clipPath>
</defs>
</svg>
