<svg width="512" height="512" viewBox="0 0 512 512" fill="none" xmlns="http://www.w3.org/2000/svg">
<g clip-path="url(#clip0_12_971)">
<path fill-rule="evenodd" clip-rule="evenodd" d="M511.5 58.5C511.5 61.8333 511.5 65.1667 511.5 68.5C509.744 73.1619 507.077 77.3285 503.5 81C497.5 85.3333 491.5 89.6667 485.5 94C493.954 102.134 495.788 111.634 491 122.5C489.542 124.96 487.709 127.127 485.5 129C478.314 132.161 471.314 135.494 464.5 139C470.396 151.685 471.063 164.685 466.5 178C467.754 181.203 470.087 182.203 473.5 181C482.167 177.333 490.833 173.667 499.5 170C504.357 168.593 508.357 169.76 511.5 173.5C511.5 282.833 511.5 392.167 511.5 501.5C510.679 504.484 508.679 506.317 505.5 507C342.5 507.667 179.5 507.667 16.5 507C7.44513 503.785 1.77846 497.618 -0.5 488.5C-0.5 451.833 -0.5 415.167 -0.5 378.5C3.84287 372.288 8.67621 371.954 14 377.5C14.4997 385.493 14.6664 393.493 14.5 401.5C18.814 402.275 23.1474 402.941 27.5 403.5C37.1962 408.172 47.5295 410.505 58.5 410.5C62.1667 410.333 65.8333 410.167 69.5 410C78.8473 407.323 88.1806 404.656 97.5 402C106.852 401.349 116.186 401.516 125.5 402.5C130.733 404.131 136.066 405.798 141.5 407.5C142.209 408.404 143.209 408.737 144.5 408.5C144.832 374.329 144.498 340.329 143.5 306.5C140.167 306.5 136.833 306.5 133.5 306.5C115.164 306.333 96.8303 306.5 78.5 307C77.3333 308.167 76.1667 309.333 75 310.5C73.5539 332.286 62.3872 340.452 41.5 335C32.7198 329.137 28.3865 320.97 28.5 310.5C27.657 308.827 26.3237 307.66 24.5 307C21.1832 306.502 17.8499 306.335 14.5 306.5C14.9498 321.239 14.4498 335.905 13 350.5C7.16351 355.034 2.66351 354.034 -0.5 347.5C-0.5 315.5 -0.5 283.5 -0.5 251.5C1.25258 243.401 3.75258 235.401 7 227.5C24.3333 193.5 41.6667 159.5 59 125.5C62.1085 117.476 63.2751 109.143 62.5 100.5C55.6892 101.346 50.8559 98.6792 48 92.5C47.3333 79.1667 47.3333 65.8333 48 52.5C49.884 49.6155 52.384 47.4488 55.5 46C91.1667 45.3333 126.833 45.3333 162.5 46C166.573 47.0721 169.407 49.5721 171 53.5C171.667 66.5 171.667 79.5 171 92.5C168.144 98.6792 163.311 101.346 156.5 100.5C156.171 107.241 156.671 113.908 158 120.5C166.319 138.472 175.153 156.139 184.5 173.5C184.369 174.376 184.702 175.043 185.5 175.5C186.823 164.674 186.823 154.007 185.5 143.5C180.43 140.926 176.93 136.926 175 131.5C174.333 123.833 174.333 116.167 175 108.5C177.565 102.269 182.065 98.1022 188.5 96C209.833 95.3333 231.167 95.3333 252.5 96C255.82 96.743 258.987 97.9097 262 99.5C276.221 92.0221 290.554 91.6888 305 98.5C305.427 86.2087 309.927 75.7087 318.5 67C324.907 64.2036 328.907 66.2036 330.5 73C326.694 78.7782 323.527 84.9449 321 91.5C320.176 94.8823 320.343 98.2156 321.5 101.5C327.232 97.5325 333.566 95.0325 340.5 94C365.069 92.1969 381.902 102.697 391 125.5C395.171 122.184 399.338 119.017 403.5 116C399.941 109.715 396.774 103.215 394 96.5C392.287 80.3765 399.454 71.0432 415.5 68.5C413.621 59.8954 411.954 51.2287 410.5 42.5C410.942 37.2828 412.776 32.6161 416 28.5C425.97 20.0027 436.47 19.336 447.5 26.5C449.405 21.6913 451.572 17.0247 454 12.5C463.203 2.36103 473.703 0.861032 485.5 8.00001C494.608 17.7383 495.941 28.5716 489.5 40.5C500.194 42.5389 507.528 48.5389 511.5 58.5Z" fill="#040304"/>
<path fill-rule="evenodd" clip-rule="evenodd" d="M442.5 51.5C441.833 51.5 441.167 51.5 440.5 51.5C439.882 47.7992 439.049 44.1325 438 40.5C434.693 36.6562 431.359 36.6562 428 40.5C427.502 43.8168 427.335 47.1501 427.5 50.5C423.16 41.0157 426.16 36.5157 436.5 37C437.333 37.8333 438.167 38.6667 439 39.5C440.061 43.5457 441.228 47.5457 442.5 51.5Z" fill="#93B980"/>
<path fill-rule="evenodd" clip-rule="evenodd" d="M440.5 51.5C437.231 60.574 435.231 69.9074 434.5 79.5C431.982 70.0132 429.649 60.3465 427.5 50.5C427.335 47.1501 427.502 43.8168 428 40.5C431.359 36.6562 434.693 36.6562 438 40.5C439.049 44.1325 439.882 47.7992 440.5 51.5Z" fill="#97D87C"/>
<path fill-rule="evenodd" clip-rule="evenodd" d="M458.5 124.5C459.184 122.815 460.517 121.815 462.5 121.5C463.833 120.5 463.833 119.5 462.5 118.5C454.355 112.845 445.855 107.845 437 103.5C436.204 98.2122 435.037 93.0456 433.5 88C435.673 85.3025 436.006 82.4692 434.5 79.5C435.231 69.9074 437.231 60.574 440.5 51.5C441.167 51.5 441.833 51.5 442.5 51.5C446.933 54.4248 451.1 54.0914 455 50.5C458.389 40.7232 462.056 31.0565 466 21.5C469.397 18.0193 473.064 17.686 477 20.5C477.958 22.1992 478.458 24.0326 478.5 26C475.819 34.5331 472.986 43.0331 470 51.5C468.045 59.7913 471.212 63.2913 479.5 62C482.437 59.3663 485.771 57.533 489.5 56.5C495.101 57.6007 497.267 60.934 496 66.5C485.287 75.5478 474.287 84.2144 463 92.5C460.46 97.097 461.293 100.93 465.5 104C468.833 104.333 472.167 104.667 475.5 105C480.268 108.706 480.601 112.706 476.5 117C470.43 119.41 464.43 121.91 458.5 124.5Z" fill="#B7E87B"/>
<path fill-rule="evenodd" clip-rule="evenodd" d="M62.5 60.5C62.3505 61.552 62.5172 62.552 63 63.5C70.8942 61.5506 79.0608 60.884 87.5 61.5C87.5 69.1667 87.5 76.8333 87.5 84.5C79.5 84.5 71.5 84.5 63.5 84.5C63.6602 82.8008 63.4935 81.1341 63 79.5C62.5045 81.4727 62.3379 83.4727 62.5 85.5C61.1667 77.1667 61.1667 68.8333 62.5 60.5Z" fill="#73CAF3"/>
<path fill-rule="evenodd" clip-rule="evenodd" d="M62.5004 60.5C94.1671 60.5 125.833 60.5 157.5 60.5C157.5 68.8333 157.5 77.1667 157.5 85.5C125.833 85.5 94.1671 85.5 62.5004 85.5C62.3383 83.4727 62.5049 81.4727 63.0004 79.5C63.4939 81.1341 63.6606 82.8008 63.5004 84.5C71.5004 84.5 79.5004 84.5 87.5004 84.5C87.5004 76.8333 87.5004 69.1667 87.5004 61.5C79.0612 60.884 70.8946 61.5506 63.0004 63.5C62.5176 62.552 62.3509 61.552 62.5004 60.5Z" fill="#91D8F7"/>
<path fill-rule="evenodd" clip-rule="evenodd" d="M511.5 68.5C511.5 103.5 511.5 138.5 511.5 173.5C508.357 169.76 504.357 168.593 499.5 170C490.833 173.667 482.167 177.333 473.5 181C470.087 182.203 467.754 181.203 466.5 178C471.063 164.685 470.396 151.685 464.5 139C471.314 135.494 478.314 132.161 485.5 129C487.709 127.127 489.542 124.96 491 122.5C495.788 111.634 493.954 102.134 485.5 94C491.5 89.6667 497.5 85.3333 503.5 81C507.077 77.3285 509.744 73.1619 511.5 68.5Z" fill="#FCFCFC"/>
<path fill-rule="evenodd" clip-rule="evenodd" d="M431.5 88.5C429.628 90.0615 427.295 91.0615 424.5 91.5C425.85 92.9501 427.516 93.6168 429.5 93.5C429.756 95.7925 429.423 97.9592 428.5 100C427.551 100.617 426.718 100.451 426 99.5C425.51 98.2068 425.343 96.8734 425.5 95.5C422.859 94.7369 420.192 94.5702 417.5 95C420.183 97.8469 423.183 100.347 426.5 102.5C427.933 105.333 428.6 108.333 428.5 111.5C426.5 111.5 424.5 111.5 422.5 111.5C422.872 108.978 422.039 106.978 420 105.5C419.242 107.769 419.409 109.936 420.5 112C425.155 112.499 429.821 112.666 434.5 112.5C434.286 110.856 434.62 109.356 435.5 108C438.5 107.333 441.5 107.333 444.5 108C443.386 109.449 442.386 110.783 441.5 112C444.672 112.32 447.005 113.82 448.5 116.5C447.624 117.251 446.624 117.751 445.5 118C446.056 118.383 446.389 118.883 446.5 119.5C438.001 115.414 429.001 113.248 419.5 113C415.873 106.915 412.373 100.748 409 94.5C407.471 87.3689 410.304 83.8689 417.5 84C419.792 85.2899 421.792 86.9565 423.5 89C426.192 89.4298 428.859 89.2631 431.5 88.5Z" fill="#98D67D"/>
<path fill-rule="evenodd" clip-rule="evenodd" d="M434.5 79.5C436.006 82.4692 435.673 85.3025 433.5 88C435.037 93.0456 436.204 98.2122 437 103.5C445.855 107.845 454.355 112.845 462.5 118.5C463.833 119.5 463.833 120.5 462.5 121.5C460.517 121.815 459.184 122.815 458.5 124.5C456.863 125.218 455.197 125.384 453.5 125C451.097 123.147 448.764 121.314 446.5 119.5C446.389 118.883 446.056 118.383 445.5 118C446.624 117.751 447.624 117.251 448.5 116.5C447.005 113.82 444.672 112.32 441.5 112C442.386 110.783 443.386 109.449 444.5 108C441.5 107.333 438.5 107.333 435.5 108C434.62 109.356 434.286 110.856 434.5 112.5C429.821 112.666 425.155 112.499 420.5 112C419.409 109.936 419.242 107.769 420 105.5C422.039 106.978 422.872 108.978 422.5 111.5C424.5 111.5 426.5 111.5 428.5 111.5C428.6 108.333 427.933 105.333 426.5 102.5C423.183 100.347 420.183 97.8469 417.5 95C420.192 94.5702 422.859 94.7369 425.5 95.5C425.343 96.8734 425.51 98.2068 426 99.5C426.718 100.451 427.551 100.617 428.5 100C429.423 97.9592 429.756 95.7925 429.5 93.5C427.516 93.6168 425.85 92.9501 424.5 91.5C427.295 91.0615 429.628 90.0615 431.5 88.5C433.871 86.0034 434.871 83.0034 434.5 79.5Z" fill="#98DB78"/>
<path fill-rule="evenodd" clip-rule="evenodd" d="M77.4998 100.5C99.1665 100.5 120.833 100.5 142.5 100.5C141.895 109.994 142.729 119.328 145 128.5C153.151 144.802 161.318 161.136 169.5 177.5C160.184 178.332 150.851 178.832 141.5 179C138.507 180.159 136.84 182.325 136.5 185.5C129.833 185.5 123.167 185.5 116.5 185.5C116.16 182.325 114.493 180.159 111.5 179C90.8358 178.5 70.1692 178.333 49.4998 178.5C49.2625 177.209 49.5958 176.209 50.4998 175.5C51.152 176.725 52.3187 177.392 53.9998 177.5C56.8108 177.297 59.4775 176.631 61.9998 175.5C68.5022 162.665 75.0022 149.832 81.4998 137C82.0083 135.831 82.8417 134.998 83.9998 134.5C86.9338 123.696 88.1004 112.696 87.4998 101.5C84.2232 101.216 81.0565 101.549 77.9998 102.5C77.5355 101.906 77.3688 101.239 77.4998 100.5Z" fill="#B1E3F9"/>
<path fill-rule="evenodd" clip-rule="evenodd" d="M296.5 111.5C290.87 110.708 285.203 110.375 279.5 110.5C277.435 110.517 275.435 110.85 273.5 111.5C273.611 110.883 273.944 110.383 274.5 110C282.159 107.67 289.492 108.17 296.5 111.5Z" fill="#C96F7E"/>
<path fill-rule="evenodd" clip-rule="evenodd" d="M371.5 168.5C371.274 165.751 371.607 163.084 372.5 160.5C370.833 160.167 369.167 159.833 367.5 159.5C361.867 160.976 356.534 163.143 351.5 166C347.062 167.401 342.562 168.568 338 169.5C330.861 167.512 324.027 164.845 317.5 161.5C311.628 159.6 305.628 159.1 299.5 160C289.298 163.918 279.132 167.751 269 171.5C267.409 164.608 267.076 157.608 268 150.5C268.71 149.027 269.876 148.36 271.5 148.5C271.5 146.833 271.5 145.167 271.5 143.5C274.385 142.455 276.552 140.455 278 137.5C279.346 128.559 279.846 119.559 279.5 110.5C285.203 110.375 290.87 110.708 296.5 111.5C302.909 113.384 307.909 117.218 311.5 123C314.5 125 317.5 125 320.5 123C332.88 107.493 347.88 104.493 365.5 114C374.943 121.994 379.11 132.161 378 144.5C375.811 152.598 373.644 160.598 371.5 168.5Z" fill="#FC7D91"/>
<path fill-rule="evenodd" clip-rule="evenodd" d="M211.5 110.5C211.5 117.167 211.5 123.833 211.5 130.5C204.825 130.666 198.158 130.5 191.5 130C190.22 127.106 189.554 123.939 189.5 120.5C189.554 117.061 190.22 113.894 191.5 111C198.158 110.5 204.825 110.334 211.5 110.5Z" fill="#5E525E"/>
<path fill-rule="evenodd" clip-rule="evenodd" d="M211.5 110.5C224.837 110.333 238.171 110.5 251.5 111C252 111.5 252.5 112 253 112.5C253.667 117.833 253.667 123.167 253 128.5C252.5 129 252 129.5 251.5 130C238.171 130.5 224.837 130.667 211.5 130.5C211.5 123.833 211.5 117.167 211.5 110.5Z" fill="#726571"/>
<path fill-rule="evenodd" clip-rule="evenodd" d="M453.5 167.5C453.778 165.654 453.111 164.32 451.5 163.5C450.833 165.5 450.167 167.5 449.5 169.5C449.113 167.269 448.947 164.936 449 162.5C446.441 160.313 443.441 159.313 440 159.5C427.86 161.439 416.193 164.772 405 169.5C403.989 168.663 402.822 168.33 401.5 168.5C403.43 160.342 404.93 152.009 406 143.5C407.604 140.219 409.104 136.886 410.5 133.5C409.3 132.708 407.967 132.708 406.5 133.5C410.708 129.855 415.708 128.189 421.5 128.5C445.527 130.839 456.194 143.839 453.5 167.5Z" fill="#FCCE5C"/>
<path fill-rule="evenodd" clip-rule="evenodd" d="M77.5 100.5C77.369 101.239 77.5357 101.906 78 102.5C81.0567 101.549 84.2234 101.216 87.5 101.5C88.1006 112.696 86.934 123.696 84 134.5C82.8419 134.998 82.0085 135.831 81.5 137C75.0024 149.832 68.5024 162.665 62 175.5C59.4777 176.631 56.811 177.297 54 177.5C52.3189 177.392 51.1522 176.725 50.5 175.5C59.8107 157.879 68.3107 139.879 76 121.5C76.1715 114.321 76.6715 107.321 77.5 100.5Z" fill="#90D6F4"/>
<path fill-rule="evenodd" clip-rule="evenodd" d="M185.5 143.5C186.823 154.007 186.823 164.674 185.5 175.5C184.702 175.043 184.369 174.376 184.5 173.5C185.494 163.681 185.827 153.681 185.5 143.5Z" fill="#7D7D7D"/>
<path fill-rule="evenodd" clip-rule="evenodd" d="M242.5 210.5C243.967 215.71 246.133 220.71 249 225.5C257 234.833 265 244.167 273 253.5C275.358 256.222 277.191 259.222 278.5 262.5C278.522 265.998 277.022 267.331 274 266.5C271.887 268.271 272.053 269.771 274.5 271C273.183 275.175 273.349 279.342 275 283.5C275.499 279.514 275.666 275.514 275.5 271.5C276.5 271.5 277.5 271.5 278.5 271.5C279.369 286.434 279.702 301.434 279.5 316.5C279.167 317.5 278.833 318.5 278.5 319.5C278.118 313.904 275.951 309.237 272 305.5C271.333 316.833 271.333 328.167 272 339.5C273.188 338.437 273.688 337.103 273.5 335.5C274.5 335.5 275.5 335.5 276.5 335.5C275.334 338.562 273.834 341.562 272 344.5C271.503 346.81 271.337 349.143 271.5 351.5C271.833 389.839 271.5 428.172 270.5 466.5C270.167 466 269.833 465.5 269.5 465C270.327 408.195 270.827 351.362 271 294.5C271.333 297.5 271.667 300.5 272 303.5C272.667 298.167 272.667 292.833 272 287.5C271.751 288.624 271.251 289.624 270.5 290.5C269.583 289.873 268.583 289.539 267.5 289.5C266.317 288.496 264.984 287.662 263.5 287C235.167 286.333 206.833 286.333 178.5 287C176.356 287.792 175.023 289.292 174.5 291.5C173.883 291.611 173.383 291.944 173 292.5C172.333 350.5 172.333 408.5 173 466.5C173.822 468.788 174.489 471.122 175 473.5C175.519 472.484 176.353 471.818 177.5 471.5C180.797 472.496 184.131 472.663 187.5 472C185.059 471.964 183.059 471.131 181.5 469.5C211.305 468.253 240.971 468.253 270.5 469.5C271.48 472.086 271.813 474.753 271.5 477.5C269.633 477.955 267.8 478.622 266 479.5C240.496 478.171 214.996 478.171 189.5 479.5C188.068 479.267 187.568 478.6 188 477.5C189.067 476.809 190.234 476.309 191.5 476C216.277 475.273 240.944 475.44 265.5 476.5C266.167 476.333 266.833 476.167 267.5 476C266.437 474.812 265.103 474.312 263.5 474.5C263.5 473.5 263.5 472.5 263.5 471.5C260.824 470.992 258.157 470.825 255.5 471C256.91 471.368 257.91 472.201 258.5 473.5C234.507 474.333 210.507 474.833 186.5 475C183.52 478.504 179.853 479.337 175.5 477.5C176.912 476.194 178.579 475.36 180.5 475C178.527 474.505 176.527 474.338 174.5 474.5C174.371 476.216 174.038 477.883 173.5 479.5C172.5 479.5 171.5 479.5 170.5 479.5C169.351 412.851 169.184 346.184 170 279.5C170.116 274.156 171.283 269.156 173.5 264.5C174.239 264.631 174.906 264.464 175.5 264C187.02 251.101 197.687 237.601 207.5 223.5C209.557 218.377 210.724 213.044 211 207.5C211.5 187.169 211.667 166.836 211.5 146.5C221.167 146.5 230.833 146.5 240.5 146.5C240.333 167.503 240.5 188.503 241 209.5C241.383 210.056 241.883 210.389 242.5 210.5Z" fill="#B8EA7B"/>
<path fill-rule="evenodd" clip-rule="evenodd" d="M279.5 110.5C279.846 119.559 279.346 128.559 278 137.5C276.552 140.455 274.385 142.455 271.5 143.5C271.5 145.167 271.5 146.833 271.5 148.5C269.876 148.36 268.71 149.027 268 150.5C267.076 157.608 267.409 164.608 269 171.5C279.132 167.751 289.298 163.918 299.5 160C305.628 159.1 311.628 159.6 317.5 161.5C324.027 164.845 330.861 167.512 338 169.5C342.562 168.568 347.062 167.401 351.5 166C356.534 163.143 361.867 160.976 367.5 159.5C369.167 159.833 370.833 160.167 372.5 160.5C371.607 163.084 371.274 165.751 371.5 168.5C360.825 173.397 349.825 177.73 338.5 181.5C327.96 176.819 317.126 172.819 306 169.5C295.078 173.197 284.245 177.197 273.5 181.5C267.762 180.478 262.429 178.478 257.5 175.5C256.167 164.833 256.167 154.167 257.5 143.5C261.475 141.358 264.642 138.358 267 134.5C268.263 127.272 268.93 119.939 269 112.5C270.356 111.62 271.856 111.286 273.5 111.5C275.435 110.85 277.435 110.517 279.5 110.5Z" fill="#F65D79"/>
<path fill-rule="evenodd" clip-rule="evenodd" d="M453.5 167.5C453.167 169.5 452.833 171.5 452.5 173.5C448.858 172.501 445.191 171.335 441.5 170C439.167 169.333 436.833 169.333 434.5 170C424.732 174.033 414.899 177.867 405 181.5C399.01 179.589 393.176 177.256 387.5 174.5C386.638 159.122 391.638 145.955 402.5 135C403.745 134.209 405.078 133.709 406.5 133.5C407.967 132.708 409.3 132.708 410.5 133.5C409.104 136.886 407.604 140.219 406 143.5C404.93 152.009 403.43 160.342 401.5 168.5C402.822 168.33 403.989 168.663 405 169.5C416.193 164.772 427.86 161.439 440 159.5C443.441 159.313 446.441 160.313 449 162.5C448.947 164.936 449.113 167.269 449.5 169.5C450.167 167.5 450.833 165.5 451.5 163.5C453.111 164.32 453.778 165.654 453.5 167.5Z" fill="#F8BF46"/>
<path fill-rule="evenodd" clip-rule="evenodd" d="M488.5 191.5C490.861 191.326 493.194 190.993 495.5 190.5C495.5 287.5 495.5 384.5 495.5 481.5C487.992 481.962 480.658 481.462 473.5 480C473.913 476.867 475.413 474.367 478 472.5C484.577 447.918 483.744 423.585 475.5 399.5C473.671 400.282 472.171 399.616 471 397.5C467.326 390.815 462.492 384.982 456.5 380C451.3 377.794 446.633 374.794 442.5 371C437.315 368.7 431.982 366.7 426.5 365C388.187 363.737 349.853 363.071 311.5 363C311 362.5 310.5 362 310 361.5C309.833 332.161 309.333 302.828 308.5 273.5C306.73 272.18 306.397 270.68 307.5 269C306.97 262.045 304.97 255.545 301.5 249.5C296.373 246.187 292.873 241.52 291 235.5C283.985 228.814 277.652 221.481 272 213.5C269.47 208.501 267.637 203.501 266.5 198.5C265.692 198.192 265.025 197.692 264.5 197C265.793 196.51 267.127 196.343 268.5 196.5C270.738 197.537 273.071 197.703 275.5 197C285.724 192.972 295.89 188.805 306 184.5C316.855 189.229 327.855 193.562 339 197.5C350.321 193.59 361.488 189.257 372.5 184.5C383.148 189.326 393.981 193.66 405 197.5C416.212 193.728 427.212 189.395 438 184.5C448.855 189.229 459.855 193.562 471 197.5C476.8 195.347 482.633 193.347 488.5 191.5Z" fill="#FEDF9C"/>
<path fill-rule="evenodd" clip-rule="evenodd" d="M116.5 185.5C123.167 185.5 129.833 185.5 136.5 185.5C136.544 189.09 138.211 191.59 141.5 193C152.828 193.5 164.162 193.667 175.5 193.5C175.897 198.959 175.397 204.292 174 209.5C165 220.167 156 230.833 147 241.5C142.484 247.532 139.317 254.198 137.5 261.5C100.167 261.5 62.8333 261.5 25.5 261.5C25.6977 254.344 26.8643 247.344 29 240.5C37.3771 225.079 45.2104 209.412 52.5 193.5C71.8362 193.667 91.1695 193.5 110.5 193C114.518 192.137 116.518 189.637 116.5 185.5Z" fill="#F7F7F7"/>
<path fill-rule="evenodd" clip-rule="evenodd" d="M496.5 191.5C496.5 291.833 496.5 392.167 496.5 492.5C481.496 492.667 466.496 492.5 451.5 492C452.705 490.624 454.038 489.458 455.5 488.5C455.441 490.765 456.274 491.098 458 489.5C459.225 489.862 460.391 490.362 461.5 491C472.828 491.5 484.162 491.667 495.5 491.5C495.5 488.167 495.5 484.833 495.5 481.5C495.5 384.5 495.5 287.5 495.5 190.5C493.194 190.993 490.861 191.326 488.5 191.5C490.867 190.086 493.367 188.752 496 187.5C496.49 188.793 496.657 190.127 496.5 191.5Z" fill="#F2DDB7"/>
<path fill-rule="evenodd" clip-rule="evenodd" d="M259.5 192.5C257.558 197.056 256.892 202.056 257.5 207.5C256.512 202.36 256.179 197.026 256.5 191.5C257.791 191.263 258.791 191.596 259.5 192.5Z" fill="#796140"/>
<path fill-rule="evenodd" clip-rule="evenodd" d="M52.5 193.5C45.2104 209.412 37.3771 225.079 29 240.5C26.8643 247.344 25.6977 254.344 25.5 261.5C21.8333 261.5 18.1667 261.5 14.5 261.5C14.5204 253.231 16.0204 245.231 19 237.5C26.1511 223.198 33.3178 208.864 40.5 194.5C44.4454 193.509 48.4454 193.176 52.5 193.5Z" fill="#E5E5E5"/>
<path fill-rule="evenodd" clip-rule="evenodd" d="M175.5 193.5C176.675 193.281 177.675 193.614 178.5 194.5C180.97 199.272 183.303 204.106 185.5 209C184.47 211.56 183.303 214.06 182 216.5C173.376 227.46 164.376 238.126 155 248.5C152.579 252.34 150.412 256.34 148.5 260.5C144.893 261.489 141.226 261.823 137.5 261.5C139.317 254.198 142.484 247.532 147 241.5C156 230.833 165 220.167 174 209.5C175.397 204.292 175.897 198.959 175.5 193.5Z" fill="#E6E6E6"/>
<path fill-rule="evenodd" clip-rule="evenodd" d="M242.5 210.5C241.883 210.389 241.383 210.056 241 209.5C240.5 188.503 240.333 167.503 240.5 146.5C230.833 146.5 221.167 146.5 211.5 146.5C211.667 166.836 211.5 187.169 211 207.5C210.724 213.044 209.557 218.377 207.5 223.5C197.687 237.601 187.02 251.101 175.5 264C174.906 264.464 174.239 264.631 173.5 264.5C172.448 264.351 171.448 264.517 170.5 265C169.782 266.987 168.782 268.821 167.5 270.5C168.454 276.104 168.788 281.771 168.5 287.5C166.712 287.785 165.045 287.452 163.5 286.5C166.548 281.053 166.882 275.553 164.5 270C165.833 267.333 167.167 264.667 168.5 262C168.167 261.5 167.833 261 167.5 260.5C166.482 261.193 165.482 261.859 164.5 262.5C173.716 249.772 183.549 237.439 194 225.5C197.439 219.951 199.772 213.951 201 207.5C201.5 186.836 201.667 166.169 201.5 145.5C215.167 145.5 228.833 145.5 242.5 145.5C242.5 167.167 242.5 188.833 242.5 210.5Z" fill="#96D67B"/>
<path fill-rule="evenodd" clip-rule="evenodd" d="M259.5 192.5C262.682 193.594 265.682 194.928 268.5 196.5C267.127 196.343 265.793 196.51 264.5 197C265.025 197.692 265.692 198.192 266.5 198.5C267.637 203.501 269.47 208.501 272 213.5C277.652 221.481 283.985 228.814 291 235.5C292.873 241.52 296.373 246.187 301.5 249.5C304.97 255.545 306.97 262.045 307.5 269C306.397 270.68 306.73 272.18 308.5 273.5C309.333 302.828 309.833 332.161 310 361.5C310.5 362 311 362.5 311.5 363C349.853 363.071 388.187 363.737 426.5 365C431.982 366.7 437.315 368.7 442.5 371C446.633 374.794 451.3 377.794 456.5 380C462.492 384.982 467.326 390.815 471 397.5C472.171 399.616 473.671 400.282 475.5 399.5C483.744 423.585 484.577 447.918 478 472.5C475.413 474.367 473.913 476.867 473.5 480C480.658 481.462 487.992 481.962 495.5 481.5C495.5 484.833 495.5 488.167 495.5 491.5C484.162 491.667 472.828 491.5 461.5 491C460.391 490.362 459.225 489.862 458 489.5C456.274 491.098 455.441 490.765 455.5 488.5C469.994 470.012 475.161 449.012 471 425.5C464.09 395.753 445.59 378.753 415.5 374.5C377.306 373.816 338.973 373.149 300.5 372.5C300.187 365.245 300.52 358.079 301.5 351C301.12 348.674 300.12 346.841 298.5 345.5C296.637 343.295 294.303 341.961 291.5 341.5C291.5 334.833 291.5 328.167 291.5 321.5C294.287 321.22 296.453 319.887 298 317.5C298.941 300.78 298.607 284.113 297 267.5C295.217 261.933 292.883 256.599 290 251.5C280.333 239.833 270.667 228.167 261 216.5C259.336 213.673 258.17 210.673 257.5 207.5C256.892 202.056 257.558 197.056 259.5 192.5Z" fill="#FACF8C"/>
<path fill-rule="evenodd" clip-rule="evenodd" d="M14.5 276.5C57.8333 276.5 101.167 276.5 144.5 276.5C144.5 281.5 144.5 286.5 144.5 291.5C121.831 291.333 99.1642 291.5 76.5 292C64.4385 297.083 58.2718 306.25 58 319.5C53.8874 323.272 49.8874 323.272 46 319.5C44.7345 299.733 34.2345 290.4 14.5 291.5C14.5 286.5 14.5 281.5 14.5 276.5Z" fill="#B2E1F6"/>
<path fill-rule="evenodd" clip-rule="evenodd" d="M15.5 277.5C58.1667 277.5 100.833 277.5 143.5 277.5C143.5 281.833 143.5 286.167 143.5 290.5C120.045 290.601 96.7116 290.435 73.5 290C72.1667 289.333 72.1667 288.667 73.5 288C92.8061 288.589 112.139 288.589 131.5 288C130.687 286.686 129.687 285.519 128.5 284.5C131.876 283.075 132.043 281.741 129 280.5C95.6772 281.827 62.3439 281.827 29 280.5C26.0156 280.455 25.1823 281.622 26.5 284C25.3514 286.189 24.6847 288.189 24.5 290C21.5184 290.498 18.5184 290.665 15.5 290.5C15.5 286.167 15.5 281.833 15.5 277.5Z" fill="#A9E2FD"/>
<path fill-rule="evenodd" clip-rule="evenodd" d="M267.5 289.5C268.662 347.43 268.829 405.43 268 463.5C266.786 465.049 265.286 466.215 263.5 467C235.167 467.667 206.833 467.667 178.5 467C177.5 466.167 176.5 465.333 175.5 464.5C174.504 406.875 174.171 349.208 174.5 291.5C175.023 289.292 176.356 287.792 178.5 287C206.833 286.333 235.167 286.333 263.5 287C264.984 287.662 266.317 288.496 267.5 289.5Z" fill="#030204"/>
<path fill-rule="evenodd" clip-rule="evenodd" d="M173.5 264.5C171.283 269.156 170.116 274.156 170 279.5C169.184 346.184 169.351 412.851 170.5 479.5C169.06 474.392 168.06 469.059 167.5 463.5C166.5 405.837 166.167 348.171 166.5 290.5C165.5 290.5 164.5 290.5 163.5 290.5C164.309 348.152 164.809 405.818 165 463.5C165.171 468.864 165.671 474.198 166.5 479.5C168.523 481.173 170.856 481.84 173.5 481.5C209.167 481.5 244.833 481.5 280.5 481.5C280.833 482.5 281.5 483.167 282.5 483.5C282.5 485.167 282.5 486.833 282.5 488.5C282.5 489.833 281.833 490.5 280.5 490.5C241.856 491.643 203.189 491.809 164.5 491C163.437 489.812 162.103 489.312 160.5 489.5C159.337 416.904 159.17 344.237 160 271.5C161.04 268.177 162.54 265.177 164.5 262.5C165.482 261.859 166.482 261.193 167.5 260.5C167.833 261 168.167 261.5 168.5 262C167.167 264.667 165.833 267.333 164.5 270C166.882 275.553 166.548 281.053 163.5 286.5C165.045 287.452 166.712 287.785 168.5 287.5C168.788 281.771 168.454 276.104 167.5 270.5C168.782 268.821 169.782 266.987 170.5 265C171.448 264.517 172.448 264.351 173.5 264.5Z" fill="#97DB7B"/>
<path fill-rule="evenodd" clip-rule="evenodd" d="M170.5 479.5C171.5 479.5 172.5 479.5 173.5 479.5C173.5 480.167 173.5 480.833 173.5 481.5C170.856 481.84 168.523 481.173 166.5 479.5C165.671 474.198 165.171 468.864 165 463.5C164.809 405.818 164.309 348.152 163.5 290.5C164.5 290.5 165.5 290.5 166.5 290.5C166.167 348.171 166.5 405.837 167.5 463.5C168.06 469.059 169.06 474.392 170.5 479.5Z" fill="#9DD77F"/>
<path fill-rule="evenodd" clip-rule="evenodd" d="M28.5 310.5C27.0181 310.876 25.6848 310.876 24.5 310.5C24.6324 340.669 24.6324 371.336 24.5 402.5C25.791 402.263 26.791 402.596 27.5 403.5C23.1474 402.941 18.814 402.275 14.5 401.5C14.6664 393.493 14.4997 385.493 14 377.5C8.67621 371.954 3.84287 372.288 -0.5 378.5C-0.5 368.167 -0.5 357.833 -0.5 347.5C2.66351 354.034 7.16351 355.034 13 350.5C14.4498 335.905 14.9498 321.239 14.5 306.5C17.8499 306.335 21.1832 306.502 24.5 307C26.3237 307.66 27.657 308.827 28.5 310.5Z" fill="#E9E9E9"/>
<path fill-rule="evenodd" clip-rule="evenodd" d="M133.5 306.5C134.149 320.873 133.482 334.873 131.5 348.5C127.269 339.731 121.769 331.731 115 324.5C111.284 322.066 107.451 321.899 103.5 324C95.2931 332.543 89.1264 342.376 85 353.5C82.6739 376.173 92.8406 386.673 115.5 385C120.477 383.503 124.81 381.003 128.5 377.5C129.721 378.465 131.054 378.298 132.5 377C131.549 376.282 131.383 375.449 132 374.5C133.08 376.553 133.914 378.72 134.5 381C133.687 387.419 133.187 393.919 133 400.5C132.667 400.167 132.333 399.833 132 399.5C130.713 402.145 128.547 403.145 125.5 402.5C116.186 401.516 106.852 401.349 97.5 402C88.1806 404.656 78.8473 407.323 69.5 410C65.8333 410.167 62.1667 410.333 58.5 410.5C47.5295 410.505 37.1962 408.172 27.5 403.5C26.791 402.596 25.791 402.263 24.5 402.5C24.6324 371.336 24.6324 340.669 24.5 310.5C25.6848 310.876 27.0181 310.876 28.5 310.5C28.3865 320.97 32.7198 329.137 41.5 335C62.3872 340.452 73.5539 332.286 75 310.5C76.1667 309.333 77.3333 308.167 78.5 307C96.8303 306.5 115.164 306.333 133.5 306.5Z" fill="#F6F6F6"/>
<path fill-rule="evenodd" clip-rule="evenodd" d="M133.5 306.5C136.833 306.5 140.167 306.5 143.5 306.5C144.16 340.517 143.493 374.183 141.5 407.5C136.066 405.798 130.733 404.131 125.5 402.5C128.547 403.145 130.713 402.145 132 399.5C132.333 399.833 132.667 400.167 133 400.5C133.187 393.919 133.687 387.419 134.5 381C133.914 378.72 133.08 376.553 132 374.5C131.383 375.449 131.549 376.282 132.5 377C131.054 378.298 129.721 378.465 128.5 377.5C133.822 368.335 134.822 358.669 131.5 348.5C133.482 334.873 134.149 320.873 133.5 306.5Z" fill="#E6E6E6"/>
<path fill-rule="evenodd" clip-rule="evenodd" d="M143.5 306.5C144.498 340.329 144.832 374.329 144.5 408.5C143.209 408.737 142.209 408.404 141.5 407.5C143.493 374.183 144.16 340.517 143.5 306.5Z" fill="#71746E"/>
<path fill-rule="evenodd" clip-rule="evenodd" d="M278.5 262.5C281.632 266.912 283.465 271.912 284 277.5C284.333 290.833 284.667 304.167 285 317.5C286.324 320.244 288.491 321.577 291.5 321.5C291.5 328.167 291.5 334.833 291.5 341.5C288.737 341.744 286.571 343.077 285 345.5C284.667 392.5 284.333 439.5 284 486.5C283.722 487.416 283.222 488.082 282.5 488.5C282.5 486.833 282.5 485.167 282.5 483.5C282.667 438.499 282.5 393.499 282 348.5C281.705 345.568 280.205 343.568 277.5 342.5C276.784 344.482 275.617 346.149 274 347.5C273.5 391.499 273.333 435.499 273.5 479.5C274.833 479.5 276.167 479.5 277.5 479.5C277.817 435.803 277.484 392.137 276.5 348.5C277.5 348.5 278.5 348.5 279.5 348.5C280.484 392.803 280.818 437.137 280.5 481.5C244.833 481.5 209.167 481.5 173.5 481.5C173.5 480.833 173.5 480.167 173.5 479.5C174.038 477.883 174.371 476.216 174.5 474.5C176.527 474.338 178.527 474.505 180.5 475C178.579 475.36 176.912 476.194 175.5 477.5C179.853 479.337 183.52 478.504 186.5 475C210.507 474.833 234.507 474.333 258.5 473.5C257.91 472.201 256.91 471.368 255.5 471C258.157 470.825 260.824 470.992 263.5 471.5C263.5 472.5 263.5 473.5 263.5 474.5C265.103 474.312 266.437 474.812 267.5 476C266.833 476.167 266.167 476.333 265.5 476.5C240.944 475.44 216.277 475.273 191.5 476C190.234 476.309 189.067 476.809 188 477.5C187.568 478.6 188.068 479.267 189.5 479.5C214.996 478.171 240.496 478.171 266 479.5C267.8 478.622 269.633 477.955 271.5 477.5C272.825 436.706 272.825 394.706 271.5 351.5C271.337 349.143 271.503 346.81 272 344.5C273.834 341.562 275.334 338.562 276.5 335.5C275.5 335.5 274.5 335.5 273.5 335.5C273.688 337.103 273.188 338.437 272 339.5C271.333 328.167 271.333 316.833 272 305.5C275.951 309.237 278.118 313.904 278.5 319.5C278.833 318.5 279.167 317.5 279.5 316.5C279.702 301.434 279.369 286.434 278.5 271.5C277.5 271.5 276.5 271.5 275.5 271.5C275.666 275.514 275.499 279.514 275 283.5C273.349 279.342 273.183 275.175 274.5 271C272.053 269.771 271.887 268.271 274 266.5C277.022 267.331 278.522 265.998 278.5 262.5Z" fill="#B1DF79"/>
<path fill-rule="evenodd" clip-rule="evenodd" d="M131.5 348.5C134.822 358.669 133.822 368.335 128.5 377.5C124.81 381.003 120.477 383.503 115.5 385C92.8402 386.673 82.6735 376.173 84.9996 353.5C89.126 342.376 95.2927 332.543 103.5 324C107.451 321.899 111.284 322.066 115 324.5C121.769 331.731 127.269 339.731 131.5 348.5Z" fill="#060607"/>
<path fill-rule="evenodd" clip-rule="evenodd" d="M271.5 351.5C272.825 394.706 272.825 436.706 271.5 477.5C271.813 474.753 271.48 472.086 270.5 469.5C240.971 468.253 211.305 468.253 181.5 469.5C183.059 471.131 185.059 471.964 187.5 472C184.131 472.663 180.797 472.496 177.5 471.5C176.353 471.818 175.519 472.484 175 473.5C174.489 471.122 173.822 468.788 173 466.5C172.333 408.5 172.333 350.5 173 292.5C173.383 291.944 173.883 291.611 174.5 291.5C174.171 349.208 174.504 406.875 175.5 464.5C176.5 465.333 177.5 466.167 178.5 467C206.833 467.667 235.167 467.667 263.5 467C265.286 466.215 266.786 465.049 268 463.5C268.829 405.43 268.662 347.43 267.5 289.5C268.583 289.539 269.583 289.873 270.5 290.5C271.251 289.624 271.751 288.624 272 287.5C272.667 292.833 272.667 298.167 272 303.5C271.667 300.5 271.333 297.5 271 294.5C270.827 351.362 270.327 408.195 269.5 465C269.833 465.5 270.167 466 270.5 466.5C271.5 428.172 271.833 389.839 271.5 351.5Z" fill="#9DC475"/>
<path fill-rule="evenodd" clip-rule="evenodd" d="M188.5 301.5C210.167 301.5 231.833 301.5 253.5 301.5C253.5 351.833 253.5 402.167 253.5 452.5C231.833 452.5 210.167 452.5 188.5 452.5C188.5 402.167 188.5 351.833 188.5 301.5Z" fill="#70636F"/>
<path fill-rule="evenodd" clip-rule="evenodd" d="M217.5 317.5C220.187 317.336 222.854 317.503 225.5 318C237.912 328.365 243.745 341.531 243 357.5C237.954 370.61 228.454 375.777 214.5 373C202.435 367.704 197.601 358.538 200 345.5C203.549 334.735 209.382 325.401 217.5 317.5Z" fill="#040305"/>
<path fill-rule="evenodd" clip-rule="evenodd" d="M220.5 336.5C225.221 340.242 228.221 345.242 229.5 351.5C227.969 358.044 223.969 360.211 217.5 358C215.274 356.38 213.94 354.214 213.5 351.5C215.041 346.087 217.374 341.087 220.5 336.5Z" fill="#F2CA5D"/>
<path fill-rule="evenodd" clip-rule="evenodd" d="M282.5 483.5C281.5 483.167 280.833 482.5 280.5 481.5C280.818 437.137 280.484 392.803 279.5 348.5C278.5 348.5 277.5 348.5 276.5 348.5C277.484 392.137 277.817 435.803 277.5 479.5C276.167 479.5 274.833 479.5 273.5 479.5C273.333 435.499 273.5 391.499 274 347.5C275.617 346.149 276.784 344.482 277.5 342.5C280.205 343.568 281.705 345.568 282 348.5C282.5 393.499 282.667 438.499 282.5 483.5Z" fill="#B9EB77"/>
<path fill-rule="evenodd" clip-rule="evenodd" d="M108.5 341.5C117.042 348.534 119.709 357.201 116.5 367.5C110.389 371.988 104.889 371.321 99.9998 365.5C99.1365 356.22 101.97 348.22 108.5 341.5Z" fill="#B1E1F5"/>
<path fill-rule="evenodd" clip-rule="evenodd" d="M298.5 345.5C300.12 346.841 301.12 348.674 301.5 351C300.52 358.079 300.187 365.245 300.5 372.5C338.973 373.149 377.306 373.816 415.5 374.5C376.833 374.5 338.167 374.5 299.5 374.5C298.506 365.014 298.173 355.348 298.5 345.5Z" fill="#E1C499"/>
<path fill-rule="evenodd" clip-rule="evenodd" d="M496.5 191.5C497.333 287.999 497.833 384.666 498 481.5C498.333 384.833 498.667 288.167 499 191.5C499.483 292.985 499.65 394.318 499.5 495.5C483.941 493.463 468.274 492.963 452.5 494C451.975 494.692 451.308 495.192 450.5 495.5C449.435 493.149 448.101 490.482 446.5 487.5C447.167 487.167 447.833 486.833 448.5 486.5C447.192 484.359 445.692 482.359 444 480.5C443.101 482.327 441.767 483.66 440 484.5C439.235 484.43 438.735 484.097 438.5 483.5C440.139 482.527 441.473 481.194 442.5 479.5C449.092 473.654 453.092 466.321 454.5 457.5C456.04 451.749 456.706 445.749 456.5 439.5C456.333 435.167 456.167 430.833 456 426.5C455.79 424.942 455.29 423.609 454.5 422.5C449.345 405.347 438.012 394.68 420.5 390.5C419.667 407.824 419.167 425.157 419 442.5C414.651 455.765 405.484 461.598 391.5 460C381.624 456.626 375.957 449.793 374.5 439.5C374.5 422.833 374.5 406.167 374.5 389.5C369.5 389.5 364.5 389.5 359.5 389.5C359.5 406.833 359.5 424.167 359.5 441.5C353.329 458.949 341.662 464.116 324.5 457C320.418 454.095 317.751 450.262 316.5 445.5C315.865 442.507 315.699 439.507 316 436.5C317.498 439.967 318.498 443.634 319 447.5C319.424 441.926 320.757 436.592 323 431.5C323.994 418.071 323.327 404.738 321 391.5C319.512 392.196 318.012 391.862 316.5 390.5C317.689 389.571 319.022 389.238 320.5 389.5C320.338 387.176 319.172 385.509 317 384.5C315.266 385.249 313.433 385.749 311.5 386C312.624 386.249 313.624 386.749 314.5 387.5C308.862 388.33 303.196 388.83 297.5 389C296.663 390.011 296.33 391.178 296.5 392.5C290.599 392.06 290.266 390.727 295.5 388.5C294.833 387.5 294.167 386.5 293.5 385.5C293.166 382.792 293.666 380.125 295 377.5C295.067 380.047 295.901 382.214 297.5 384C296.663 385.011 296.33 386.178 296.5 387.5C299.187 387.664 301.854 387.497 304.5 387C305.833 386.333 305.833 385.667 304.5 385C302.866 384.506 301.199 384.34 299.5 384.5C299.5 381.167 299.5 377.833 299.5 374.5C338.167 374.5 376.833 374.5 415.5 374.5C445.59 378.753 464.09 395.753 471 425.5C475.161 449.012 469.994 470.012 455.5 488.5C454.038 489.458 452.705 490.624 451.5 492C466.496 492.5 481.496 492.667 496.5 492.5C496.5 392.167 496.5 291.833 496.5 191.5Z" fill="#050206"/>
<path fill-rule="evenodd" clip-rule="evenodd" d="M207.5 392.5C216.839 392.334 226.173 392.5 235.5 393C242.648 396.742 243.315 401.408 237.5 407C226.833 407.667 216.167 407.667 205.5 407C199.76 401.211 200.427 396.378 207.5 392.5Z" fill="#070507"/>
<path fill-rule="evenodd" clip-rule="evenodd" d="M299.5 390.5C303.833 390.5 308.167 390.5 312.5 390.5C311.895 392.026 310.729 393.026 309 393.5C308.563 422.522 309.23 451.522 311 480.5C313.565 482.179 316.398 482.846 319.5 482.5C348.672 483.771 378.005 483.771 407.5 482.5C410.167 482.833 412.833 483.167 415.5 483.5C410.208 484.495 404.875 484.828 399.5 484.5C399.5 485.833 399.5 487.167 399.5 488.5C362.152 488.893 335.485 488.559 319.5 487.5C319.5 486.5 319.5 485.5 319.5 484.5C313.907 484.193 308.407 484.527 303 485.5C302.833 455.494 302.333 425.494 301.5 395.5C300.5 427.16 300.167 458.826 300.5 490.5C341.167 490.5 381.833 490.5 422.5 490.5C422.351 489.448 422.517 488.448 423 487.5C424.494 488.747 425.994 488.747 427.5 487.5C425.138 486.729 422.804 485.895 420.5 485C421.365 483.641 422.365 482.474 423.5 481.5C425.92 481.708 428.253 481.374 430.5 480.5C432.064 483.136 433.397 482.969 434.5 480C437.128 478.39 439.795 478.223 442.5 479.5C441.473 481.194 440.139 482.527 438.5 483.5C432.5 487.833 425.833 490.5 418.5 491.5C378.833 491.5 339.167 491.5 299.5 491.5C299.5 457.833 299.5 424.167 299.5 390.5Z" fill="#FCC14A"/>
<path fill-rule="evenodd" clip-rule="evenodd" d="M299.5 390.5C299.5 390.167 299.5 389.833 299.5 389.5C304.5 389.5 309.5 389.5 314.5 389.5C314.5 406.5 314.5 423.5 314.5 440.5C313.833 423.833 313.167 407.167 312.5 390.5C308.167 390.5 303.833 390.5 299.5 390.5Z" fill="#EDCD8B"/>
<path fill-rule="evenodd" clip-rule="evenodd" d="M343.5 440.5C343.5 423.833 343.5 407.167 343.5 390.5C340.167 390.5 336.833 390.5 333.5 390.5C332.5 390.5 331.5 390.5 330.5 390.5C330.5 407.167 330.5 423.833 330.5 440.5C329.503 423.675 329.17 406.675 329.5 389.5C334.5 389.5 339.5 389.5 344.5 389.5C344.83 406.675 344.497 423.675 343.5 440.5Z" fill="#E9C26E"/>
<path fill-rule="evenodd" clip-rule="evenodd" d="M374.5 439.5C373.504 423.342 373.17 407.009 373.5 390.5C369.167 390.5 364.833 390.5 360.5 390.5C360.83 407.675 360.497 424.675 359.5 441.5C359.5 424.167 359.5 406.833 359.5 389.5C364.5 389.5 369.5 389.5 374.5 389.5C374.5 406.167 374.5 422.833 374.5 439.5Z" fill="#F1CF82"/>
<path fill-rule="evenodd" clip-rule="evenodd" d="M389.5 389.5C388.833 403.339 388.167 417.339 387.5 431.5C386.622 418.12 386.289 404.787 386.5 391.5C387.277 388.466 388.611 385.8 390.5 383.5C391.262 384.628 391.929 385.795 392.5 387C396.833 387.333 401.167 387.667 405.5 388C399.984 388.173 394.651 388.673 389.5 389.5Z" fill="#020117"/>
<path fill-rule="evenodd" clip-rule="evenodd" d="M389.5 389.5C394.5 389.5 399.5 389.5 404.5 389.5C404.83 406.675 404.497 423.675 403.5 440.5C403.5 423.833 403.5 407.167 403.5 390.5C399.167 390.5 394.833 390.5 390.5 390.5C390.5 407.167 390.5 423.833 390.5 440.5C389.503 423.675 389.17 406.675 389.5 389.5Z" fill="#EAC370"/>
<path fill-rule="evenodd" clip-rule="evenodd" d="M312.5 390.5C313.167 407.167 313.833 423.833 314.5 440.5C314.796 442.403 315.463 444.07 316.5 445.5C317.751 450.262 320.418 454.095 324.5 457C341.662 464.116 353.329 458.949 359.5 441.5C360.497 424.675 360.83 407.675 360.5 390.5C364.833 390.5 369.167 390.5 373.5 390.5C373.17 407.009 373.504 423.342 374.5 439.5C375.957 449.793 381.624 456.626 391.5 460C405.484 461.598 414.651 455.765 419 442.5C419.167 425.157 419.667 407.824 420.5 390.5C438.012 394.68 449.345 405.347 454.5 422.5C454.783 429.731 453.95 430.064 452 423.5C451.833 424.333 451.667 425.167 451.5 426C453.35 430.275 454.35 434.775 454.5 439.5C454.32 442.956 453.653 446.289 452.5 449.5C453.992 451.972 454.658 454.639 454.5 457.5C453.092 466.321 449.092 473.654 442.5 479.5C439.795 478.223 437.128 478.39 434.5 480C433.397 482.969 432.064 483.136 430.5 480.5C428.253 481.374 425.92 481.708 423.5 481.5C388.663 481.168 353.996 481.502 319.5 482.5C316.398 482.846 313.565 482.179 311 480.5C309.23 451.522 308.563 422.522 309 393.5C310.729 393.026 311.895 392.026 312.5 390.5Z" fill="#FCCF5C"/>
<path fill-rule="evenodd" clip-rule="evenodd" d="M333.5 390.5C336.833 390.5 340.167 390.5 343.5 390.5C343.5 407.167 343.5 423.833 343.5 440.5C341.641 444.926 338.308 446.426 333.5 445C331.859 443.871 330.859 442.371 330.5 440.5C331.5 440.5 332.5 440.5 333.5 440.5C332.212 423.81 332.212 407.144 333.5 390.5Z" fill="#FBC146"/>
<path fill-rule="evenodd" clip-rule="evenodd" d="M333.5 390.5C332.212 407.144 332.212 423.81 333.5 440.5C332.5 440.5 331.5 440.5 330.5 440.5C330.5 423.833 330.5 407.167 330.5 390.5C331.5 390.5 332.5 390.5 333.5 390.5Z" fill="#FEC034"/>
<path fill-rule="evenodd" clip-rule="evenodd" d="M23.5 418.5C23.4697 421.189 24.1363 424.023 25.5 427C25.4184 431.544 25.4184 436.044 25.5 440.5C22.1667 440.5 18.8333 440.5 15.5 440.5C15.81 437.287 15.4767 434.287 14.5 431.5C14.5 426.833 14.5 422.167 14.5 417.5C17.7131 417.19 20.7131 417.523 23.5 418.5Z" fill="#93D8F6"/>
<path fill-rule="evenodd" clip-rule="evenodd" d="M207.5 422.5C216.839 422.334 226.173 422.5 235.5 423C242.637 426.692 243.304 431.359 237.5 437C226.833 437.667 216.167 437.667 205.5 437C199.813 431.291 200.479 426.458 207.5 422.5Z" fill="#070506"/>
<path fill-rule="evenodd" clip-rule="evenodd" d="M68.5 451.5C67.6851 450.571 66.8518 449.571 66 448.5C63.04 448.922 59.8733 448.922 56.5 448.5C53.2308 448.604 50.2308 449.27 47.5 450.5C48.1742 446.683 46.8408 443.85 43.5 442C33.8391 441.5 24.1724 441.334 14.5 441.5C14.5 438.167 14.5 434.833 14.5 431.5C15.4767 434.287 15.81 437.287 15.5 440.5C18.8333 440.5 22.1667 440.5 25.5 440.5C25.4184 436.044 25.4184 431.544 25.5 427C24.1363 424.023 23.4697 421.189 23.5 418.5C40.2802 425.264 57.6135 427.097 75.5 424C83.1667 421.667 90.8333 419.333 98.5 417C107.22 416.161 115.887 416.495 124.5 418C130.833 419.946 137.166 421.779 143.5 423.5C143.5 429.5 143.5 435.5 143.5 441.5C119.831 441.333 96.1643 441.5 72.5 442C69.038 444.239 67.7046 447.406 68.5 451.5Z" fill="#B0E2F8"/>
<path fill-rule="evenodd" clip-rule="evenodd" d="M454.5 422.5C455.29 423.609 455.79 424.942 456 426.5C456.167 430.833 456.333 435.167 456.5 439.5C456.706 445.749 456.04 451.749 454.5 457.5C454.658 454.639 453.992 451.972 452.5 449.5C453.653 446.289 454.32 442.956 454.5 439.5C454.35 434.775 453.35 430.275 451.5 426C451.667 425.167 451.833 424.333 452 423.5C453.95 430.064 454.783 429.731 454.5 422.5Z" fill="#F3C66D"/>
<path fill-rule="evenodd" clip-rule="evenodd" d="M403.5 440.5C401.641 444.926 398.308 446.426 393.5 445C391.859 443.871 390.859 442.371 390.5 440.5C390.5 423.833 390.5 407.167 390.5 390.5C394.833 390.5 399.167 390.5 403.5 390.5C403.5 407.167 403.5 423.833 403.5 440.5Z" fill="#FCC045"/>
<path fill-rule="evenodd" clip-rule="evenodd" d="M68.4996 451.5C69.0226 453.708 70.3559 455.208 72.4996 456C92.8302 456.5 113.164 456.667 133.5 456.5C133.745 465.208 133.411 473.874 132.5 482.5C99.4979 482.667 66.4979 482.5 33.4996 482C29.836 481.009 27.1693 478.842 25.4996 475.5C24.5804 469.206 24.2471 462.873 24.4996 456.5C30.5088 456.666 36.5088 456.499 42.4996 456C45.0786 454.924 46.7453 453.091 47.4996 450.5C50.2304 449.27 53.2304 448.604 56.4996 448.5C59.8729 448.922 63.0396 448.922 65.9996 448.5C66.8514 449.571 67.6847 450.571 68.4996 451.5Z" fill="#F7F7F7"/>
<path fill-rule="evenodd" clip-rule="evenodd" d="M24.4999 456.5C24.2474 462.873 24.5807 469.206 25.4999 475.5C27.1696 478.842 29.8363 481.009 33.4999 482C66.4982 482.5 99.4982 482.667 132.5 482.5C133.411 473.874 133.745 465.208 133.5 456.5C137.167 456.5 140.833 456.5 144.5 456.5C144.188 468.218 144.521 479.884 145.5 491.5C103.171 492.667 60.8372 492.833 18.4999 492C16.9511 490.786 15.7844 489.286 14.9999 487.5C14.5001 477.172 14.3334 466.839 14.4999 456.5C17.8332 456.5 21.1666 456.5 24.4999 456.5Z" fill="#E5E5E5"/>
<path fill-rule="evenodd" clip-rule="evenodd" d="M319.5 482.5C353.996 481.502 388.663 481.168 423.5 481.5C422.365 482.474 421.365 483.641 420.5 485C422.804 485.895 425.138 486.729 427.5 487.5C425.994 488.747 424.494 488.747 423 487.5C422.517 488.448 422.351 489.448 422.5 490.5C381.833 490.5 341.167 490.5 300.5 490.5C300.167 458.826 300.5 427.16 301.5 395.5C302.333 425.494 302.833 455.494 303 485.5C308.407 484.527 313.907 484.193 319.5 484.5C319.5 485.5 319.5 486.5 319.5 487.5C335.485 488.559 362.152 488.893 399.5 488.5C399.5 487.167 399.5 485.833 399.5 484.5C404.875 484.828 410.208 484.495 415.5 483.5C412.833 483.167 410.167 482.833 407.5 482.5C378.005 483.771 348.672 483.771 319.5 482.5Z" fill="#FEC23E"/>
<path fill-rule="evenodd" clip-rule="evenodd" d="M-0.5 488.5C1.77846 497.618 7.44513 503.785 16.5 507C179.5 507.667 342.5 507.667 505.5 507C508.679 506.317 510.679 504.484 511.5 501.5C511.5 504.833 511.5 508.167 511.5 511.5C340.833 511.5 170.167 511.5 -0.5 511.5C-0.5 503.833 -0.5 496.167 -0.5 488.5Z" fill="#FDFDFD"/>
<path fill-rule="evenodd" clip-rule="evenodd" d="M160.5 489.5C162.103 489.312 163.437 489.812 164.5 491C203.189 491.809 241.856 491.643 280.5 490.5C280.082 491.222 279.416 491.722 278.5 492C240.167 492.667 201.833 492.667 163.5 492C162.058 491.623 161.058 490.79 160.5 489.5Z" fill="#A2CE98"/>
<path fill-rule="evenodd" clip-rule="evenodd" d="M299.5 389.5C299.5 389.833 299.5 390.167 299.5 390.5C299.5 424.167 299.5 457.833 299.5 491.5C339.167 491.5 378.833 491.5 418.5 491.5C378.331 492.831 337.998 492.831 297.5 491.5C298.16 457.373 298.827 423.373 299.5 389.5Z" fill="#C6A166"/>
</g>
<defs>
<clipPath id="clip0_12_971">
<rect width="512" height="512" fill="white"/>
</clipPath>
</defs>
</svg>
