<svg width="512" height="512" viewBox="0 0 512 512" fill="none" xmlns="http://www.w3.org/2000/svg">
<g clip-path="url(#clip0_12_306)">
<path fill-rule="evenodd" clip-rule="evenodd" d="M499.5 234.5C485.929 226.422 471.596 220.088 456.5 215.5C463.563 215.932 470.229 217.599 476.5 220.5C476.48 218.857 477.147 217.524 478.5 216.5C476.566 177.852 464.066 143.185 441 112.5C440.51 111.207 440.343 109.873 440.5 108.5C439.022 108.762 437.689 108.429 436.5 107.5C407.184 72.4064 369.85 50.9064 324.5 43C274.474 35.4399 229.14 46.1065 188.5 75C185.081 75.2485 181.747 75.7485 178.5 76.5C177.5 76.5 176.5 76.5 175.5 76.5C150.538 67.6545 130.371 73.9878 115 95.5C112.781 99.2707 111.115 103.271 110 107.5C103.924 131.047 98.4244 154.713 93.5 178.5C68.2085 179.076 43.5419 183.076 19.5 190.5C39.2218 122.941 79.8884 72.1081 141.5 38C219.629 0.451378 297.295 1.45138 374.5 41C448.437 84.3109 490.104 148.811 499.5 234.5Z" fill="#67B1CF"/>
<path fill-rule="evenodd" clip-rule="evenodd" d="M175.5 76.5C169.951 79.8752 164.784 83.8752 160 88.5C156.735 94.0309 153.735 99.6975 151 105.5C145.507 127.137 140.174 148.804 135 170.5C134.169 176.477 133.669 182.477 133.5 188.5C126.978 188.177 120.645 188.51 114.5 189.5C113.833 189.5 113.5 189.833 113.5 190.5C109.615 191.263 107.281 193.596 106.5 197.5C105.505 209.989 105.171 222.656 105.5 235.5C103.167 235.5 100.833 235.5 98.4999 235.5C94.9152 221.741 92.9152 207.741 92.4999 193.5C92.4125 188.463 92.7459 183.463 93.4999 178.5C98.4243 154.713 103.924 131.047 110 107.5C111.115 103.271 112.781 99.2707 115 95.5C130.371 73.9878 150.538 67.6545 175.5 76.5Z" fill="#D3D2D9"/>
<path fill-rule="evenodd" clip-rule="evenodd" d="M417.5 205.5C417.448 209.198 417.114 212.865 416.5 216.5C413.053 233.754 407.553 250.421 400 266.5C399.505 268.473 399.338 270.473 399.5 272.5C398.833 272.5 398.5 272.833 398.5 273.5C390.833 273.5 383.167 273.5 375.5 273.5C325.85 274.18 276.35 271.846 227 266.5C220.234 268.031 218.234 272.031 221 278.5C221.816 279.823 222.983 280.489 224.5 280.5C227.287 281.477 230.287 281.81 233.5 281.5C243.304 283.038 253.304 284.038 263.5 284.5C275.649 285.95 287.982 286.95 300.5 287.5C330.826 288.324 361.159 288.657 391.5 288.5C378.838 322.817 366.171 357.151 353.5 391.5C349.4 400.948 345.567 410.615 342 420.5C340.314 423.883 338.147 426.883 335.5 429.5C330.265 426.4 327.099 421.733 326 415.5C323.058 392.531 320.391 369.531 318 346.5C316.417 337.168 313.751 328.168 310 319.5C304.59 311.538 297.09 306.705 287.5 305C277.86 302.626 268.193 302.126 258.5 303.5C247.347 303.327 238.847 307.993 233 317.5C228.94 327.85 225.94 338.517 224 349.5C222.024 364.162 220.191 378.829 218.5 393.5C217.34 400.782 216.507 408.116 216 415.5C214.981 418.872 213.481 421.872 211.5 424.5C195.827 385.177 180.494 345.511 165.5 305.5C164.833 310.317 164.166 314.983 163.5 319.5C163.5 310.833 163.5 302.167 163.5 293.5C167.5 293.5 171.5 293.5 175.5 293.5C184.173 293.666 192.84 293.5 201.5 293C204.106 292.208 206.106 290.708 207.5 288.5C208.11 287.609 208.443 286.609 208.5 285.5C209.661 271.673 209.827 257.673 209 243.5C207.737 239.781 205.237 237.281 201.5 236C188.838 235.5 176.171 235.333 163.5 235.5C163.829 222.656 163.495 209.989 162.5 197.5C161.752 193.583 159.418 191.083 155.5 190C141.837 189.5 128.171 189.333 114.5 189.5C120.645 188.51 126.978 188.177 133.5 188.5C133.669 182.477 134.169 176.477 135 170.5C140.174 148.804 145.507 127.137 151 105.5C153.735 99.6975 156.735 94.0309 160 88.5C164.784 83.8752 169.951 79.8752 175.5 76.5C176.5 76.5 177.5 76.5 178.5 76.5C187.744 80.1058 197.41 81.2725 207.5 80C216.355 77.9039 225.021 75.2372 233.5 72C247.844 68.7358 262.177 68.7358 276.5 72C285.29 75.2622 294.29 77.9289 303.5 80C315.507 80.8913 327.173 79.2246 338.5 75C362.567 68.4639 381.734 75.2972 396 95.5C403.88 119.812 410.547 144.479 416 169.5C417.365 181.453 417.865 193.453 417.5 205.5Z" fill="#ECEBF2"/>
<path fill-rule="evenodd" clip-rule="evenodd" d="M456.5 215.5C443.543 212.011 430.543 208.677 417.5 205.5C417.865 193.453 417.365 181.453 416 169.5C410.547 144.479 403.88 119.812 396 95.5C381.734 75.2972 362.567 68.4639 338.5 75C327.173 79.2246 315.507 80.8913 303.5 80C294.29 77.9289 285.29 75.2622 276.5 72C262.177 68.7358 247.844 68.7358 233.5 72C225.021 75.2372 216.355 77.9039 207.5 80C197.41 81.2725 187.744 80.1058 178.5 76.5C181.747 75.7485 185.081 75.2485 188.5 75C229.14 46.1065 274.474 35.4399 324.5 43C369.85 50.9064 407.184 72.4064 436.5 107.5C437.689 108.429 439.022 108.762 440.5 108.5C440.343 109.873 440.51 111.207 441 112.5C464.066 143.185 476.566 177.852 478.5 216.5C477.147 217.524 476.48 218.857 476.5 220.5C470.229 217.599 463.563 215.932 456.5 215.5Z" fill="#7EBED7"/>
<path fill-rule="evenodd" clip-rule="evenodd" d="M342.5 116.5C348.842 116.334 355.175 116.5 361.5 117C364.711 117.732 366.711 119.566 367.5 122.5C369.39 122.297 370.89 122.963 372 124.5C374.899 127.952 377.566 131.618 380 135.5C382.6 145.999 384.434 156.666 385.5 167.5C384.328 180.931 382.494 194.264 380 207.5C377.066 214.374 374.399 221.374 372 228.5C368.293 231.25 366.793 234.916 367.5 239.5C363.22 241.248 359.554 244.081 356.5 248C343.776 255.386 333.943 252.552 327 239.5C325.359 230.526 325.359 221.526 327 212.5C328.348 194.666 327.348 177 324 159.5C319.724 150.709 318.39 141.376 320 131.5C322.546 128.915 325.046 126.248 327.5 123.5C332.201 120.313 337.201 117.98 342.5 116.5Z" fill="#FEF5F4"/>
<path fill-rule="evenodd" clip-rule="evenodd" d="M201.5 136.5C200.665 135.057 199.332 134.057 197.5 133.5C199.534 131.401 199.868 129.068 198.5 126.5C197.167 128.5 195.833 130.5 194.5 132.5C194.089 131.738 193.923 130.738 194 129.5C192.025 128.522 190.358 127.189 189 125.5C188.05 126.022 187.216 126.689 186.5 127.5C185.779 125.314 185.113 123.147 184.5 121C183.423 120.53 182.423 120.697 181.5 121.5C180.874 110.942 185.374 107.609 195 111.5C197.006 114.536 197.84 117.869 197.5 121.5C206.772 120.919 210.272 124.919 208 133.5C206.491 135.919 204.325 136.919 201.5 136.5Z" fill="#5C69CC"/>
<path fill-rule="evenodd" clip-rule="evenodd" d="M201.5 136.5C199.708 136.366 198.042 136.699 196.5 137.5C195.244 137.096 194.077 136.429 193 135.5C192.5 135.833 192 136.167 191.5 136.5C192.246 137.736 192.579 139.07 192.5 140.5C191.167 140.5 189.833 140.5 188.5 140.5C188.216 137.223 188.549 134.057 189.5 131C189 130.5 188.5 130 188 129.5C183.882 130.798 179.715 130.798 175.5 129.5C176.5 128.833 177.5 128.167 178.5 127.5C178 127.167 177.5 126.833 177 126.5C175.56 127.148 174.06 127.481 172.5 127.5C172.762 128.978 172.429 130.311 171.5 131.5C170.126 128.669 170.793 126.336 173.5 124.5C176.311 123.92 178.977 123.254 181.5 122.5C181.5 122.167 181.5 121.833 181.5 121.5C182.423 120.697 183.423 120.53 184.5 121C185.113 123.147 185.779 125.314 186.5 127.5C187.216 126.689 188.05 126.022 189 125.5C190.358 127.189 192.025 128.522 194 129.5C193.923 130.738 194.089 131.738 194.5 132.5C195.833 130.5 197.167 128.5 198.5 126.5C199.868 129.068 199.534 131.401 197.5 133.5C199.332 134.057 200.665 135.057 201.5 136.5Z" fill="#5863D3"/>
<path fill-rule="evenodd" clip-rule="evenodd" d="M181.5 122.5C178.977 123.254 176.311 123.92 173.5 124.5C170.793 126.336 170.126 128.669 171.5 131.5C172.429 130.311 172.762 128.978 172.5 127.5C174.06 127.481 175.56 127.148 177 126.5C177.5 126.833 178 127.167 178.5 127.5C177.5 128.167 176.5 128.833 175.5 129.5C179.715 130.798 183.882 130.798 188 129.5C188.5 130 189 130.5 189.5 131C188.549 134.057 188.216 137.223 188.5 140.5C189.833 140.5 191.167 140.5 192.5 140.5C192.579 139.07 192.246 137.736 191.5 136.5C192 136.167 192.5 135.833 193 135.5C194.077 136.429 195.244 137.096 196.5 137.5C196.5 139.5 196.5 141.5 196.5 143.5C194.704 144.793 193.037 146.293 191.5 148C189.866 148.494 188.199 148.66 186.5 148.5C184.003 147.871 182.67 146.204 182.5 143.5C182.5 141.167 182.5 138.833 182.5 136.5C179.833 136.5 177.167 136.5 174.5 136.5C170.058 134.61 168.558 131.277 170 126.5C170.5 124.667 171.667 123.5 173.5 123C176.146 122.503 178.813 122.336 181.5 122.5Z" fill="#5967CB"/>
<path fill-rule="evenodd" clip-rule="evenodd" d="M174.5 136.5C177.167 136.5 179.833 136.5 182.5 136.5C182.5 138.833 182.5 141.167 182.5 143.5C181.539 141.735 181.205 139.735 181.5 137.5C178.941 137.802 176.607 137.468 174.5 136.5Z" fill="#9FA5DD"/>
<path fill-rule="evenodd" clip-rule="evenodd" d="M196.5 143.5C194.829 148.889 191.495 150.556 186.5 148.5C188.199 148.66 189.866 148.494 191.5 148C193.037 146.293 194.704 144.793 196.5 143.5Z" fill="#696EB9"/>
<path fill-rule="evenodd" clip-rule="evenodd" d="M203.5 172.5C202.759 175.413 202.259 178.413 202 181.5C199.619 182.435 197.119 182.768 194.5 182.5C196.265 181.539 198.265 181.205 200.5 181.5C199.459 178.542 199.459 175.542 200.5 172.5C201.5 172.5 202.5 172.5 203.5 172.5Z" fill="#C5C8E8"/>
<path fill-rule="evenodd" clip-rule="evenodd" d="M113.5 190.5C120.5 190.5 127.5 190.5 134.5 190.5C134.5 239.833 134.5 289.167 134.5 338.5C126.833 338.5 119.167 338.5 111.5 338.5C110.694 337.272 109.694 336.272 108.5 335.5C106.292 322.615 105.958 309.615 107.5 296.5C108.332 305.816 108.832 315.149 109 324.5C109.308 325.308 109.808 325.975 110.5 326.5C110.195 313.897 110.528 301.23 111.5 288.5C106.564 287.963 105.564 289.463 108.5 293C107.824 294.683 106.824 294.85 105.5 293.5C92.4202 293.814 79.4202 293.48 66.4996 292.5C65.0994 291.9 64.0994 290.9 63.4996 289.5C63.6662 275.163 63.4995 260.829 62.9996 246.5C62.6663 258.5 62.3329 270.5 61.9996 282.5C61.7675 283.737 61.2675 284.737 60.4996 285.5C59.5038 271.677 59.1705 257.677 59.4996 243.5C60.4901 241.21 62.1567 239.544 64.4996 238.5C67.4017 237.422 70.4017 236.756 73.4996 236.5C73.6103 237.117 73.9436 237.617 74.4996 238C78.6663 238.167 82.8329 238.333 86.9996 238.5C91.5568 238.491 95.7234 237.825 99.4996 236.5C101.5 236.5 103.5 236.5 105.5 236.5C105.281 237.675 105.614 238.675 106.5 239.5C107.912 238.194 109.579 237.36 111.5 237C110.207 236.51 108.873 236.343 107.5 236.5C106.557 223.537 106.223 210.537 106.5 197.5C107.281 193.596 109.615 191.263 113.5 190.5Z" fill="#3E4EC7"/>
<path fill-rule="evenodd" clip-rule="evenodd" d="M113.5 190.5C113.5 189.833 113.833 189.5 114.5 189.5C128.171 189.333 141.837 189.5 155.5 190C159.418 191.083 161.752 193.583 162.5 197.5C162.832 210.184 162.499 222.851 161.5 235.5C158.891 236.76 159.057 237.76 162 238.5C167.866 237.232 173.866 236.565 180 236.5C185.5 236.667 191 236.833 196.5 237C186.66 238.309 176.66 238.975 166.5 239C171.833 239.167 177.167 239.333 182.5 239.5C188.61 239.412 194.61 238.745 200.5 237.5C202.994 237.622 203.661 238.622 202.5 240.5C203.728 243.071 205.728 244.405 208.5 244.5C208.5 258.167 208.5 271.833 208.5 285.5C208.443 286.609 208.11 287.609 207.5 288.5C205.508 288.328 203.842 288.995 202.5 290.5C199.013 288.152 195.347 287.985 191.5 290C194.7 290.101 197.7 290.768 200.5 292C191.99 292.171 183.657 292.671 175.5 293.5C171.5 293.5 167.5 293.5 163.5 293.5C163.5 302.167 163.5 310.833 163.5 319.5C163.666 323.514 163.499 327.514 163 331.5C162.303 333.584 161.136 335.251 159.5 336.5C151.374 338.326 143.041 338.993 134.5 338.5C134.5 289.167 134.5 239.833 134.5 190.5C127.5 190.5 120.5 190.5 113.5 190.5Z" fill="#5765CE"/>
<path fill-rule="evenodd" clip-rule="evenodd" d="M93.5 178.5C92.746 183.463 92.4126 188.463 92.5 193.5C71.8669 194.23 51.5336 197.063 31.5 202C25.8891 204.031 20.5558 206.531 15.5 209.5C13.0181 207.497 12.0181 204.831 12.5 201.5C9.69935 202.766 6.69935 203.599 3.5 204C2.74756 204.671 2.41423 205.504 2.5 206.5C1.83333 206.5 1.16667 206.5 0.5 206.5C4.59865 198.603 10.932 193.27 19.5 190.5C43.5419 183.076 68.2085 179.076 93.5 178.5Z" fill="#232F79"/>
<path fill-rule="evenodd" clip-rule="evenodd" d="M73.5 180.5C76.9594 180.62 80.1261 180.954 83 181.5C83.4983 184.817 83.665 188.15 83.5 191.5C84.675 191.719 85.675 191.386 86.5 190.5C85.2429 187.177 85.2429 183.844 86.5 180.5C87.086 180.709 87.586 181.043 88 181.5C87.9618 185.332 88.7951 188.832 90.5 192C87.1832 192.498 83.8499 192.665 80.5 192.5C80.665 189.15 80.4983 185.817 80 182.5C76.8753 183.787 73.7087 183.787 70.5 182.5C71.6016 181.824 72.6016 181.158 73.5 180.5Z" fill="#262B7C"/>
<path fill-rule="evenodd" clip-rule="evenodd" d="M223.5 196.5C221.735 197.461 219.735 197.795 217.5 197.5C217.795 199.735 217.461 201.735 216.5 203.5C216.5 201.167 216.5 198.833 216.5 196.5C218.833 196.5 221.167 196.5 223.5 196.5Z" fill="#898FC8"/>
<path fill-rule="evenodd" clip-rule="evenodd" d="M223.5 196.5C221.167 196.5 218.833 196.5 216.5 196.5C216.5 198.833 216.5 201.167 216.5 203.5C213.49 210.002 209.157 211.002 203.5 206.5C201.87 203.724 201.203 200.724 201.5 197.5C193.169 198.334 189.336 194.667 190 186.5C191.049 184.616 192.549 183.282 194.5 182.5C197.119 182.768 199.619 182.435 202 181.5C202.259 178.413 202.759 175.413 203.5 172.5C208.018 168.28 212.185 168.613 216 173.5C216.333 176.167 216.667 178.833 217 181.5C221.758 181.497 225.758 183.164 229 186.5C230.002 191.504 228.168 194.837 223.5 196.5Z" fill="#2F3996"/>
<path fill-rule="evenodd" clip-rule="evenodd" d="M-0.5 206.5C-0.166667 206.5 0.166667 206.5 0.5 206.5C1.16667 206.5 1.83333 206.5 2.5 206.5C1.31119 208.625 1.64453 210.625 3.5 212.5C2.24555 214.334 1.57888 216.334 1.5 218.5C0.833333 217.833 0.166667 217.167 -0.5 216.5C-0.5 213.167 -0.5 209.833 -0.5 206.5Z" fill="#4554BC"/>
<path fill-rule="evenodd" clip-rule="evenodd" d="M15.5 209.5C15.2148 211.288 15.5481 212.955 16.5 214.5C25.5655 221.711 35.5655 227.211 46.5 231C50.8264 236.044 50.1598 240.378 44.5 244C42.1667 244.667 39.8333 244.667 37.5 244C28.4174 240.292 19.7508 235.792 11.5 230.5C7.07287 227.407 3.73954 223.407 1.5 218.5C1.57888 216.334 2.24555 214.334 3.5 212.5C1.64453 210.625 1.31119 208.625 2.5 206.5C2.41423 205.504 2.74756 204.671 3.5 204C6.69935 203.599 9.69935 202.766 12.5 201.5C12.0181 204.831 13.0181 207.497 15.5 209.5Z" fill="#3E4EC5"/>
<path fill-rule="evenodd" clip-rule="evenodd" d="M416.5 216.5C416.227 218.451 416.893 219.951 418.5 221C438.951 225.52 458.618 232.02 477.5 240.5C477.64 242.124 476.973 243.29 475.5 244C476.457 249.176 476.123 254.343 474.5 259.5C476.484 260.706 478.484 260.706 480.5 259.5C480.833 259.833 481.167 260.167 481.5 260.5C480.757 261.182 480.091 261.849 479.5 262.5C461.272 267.204 442.606 270.204 423.5 271.5C415.505 271.935 407.505 272.269 399.5 272.5C399.338 270.473 399.505 268.473 400 266.5C407.553 250.421 413.053 233.754 416.5 216.5Z" fill="#7EBDD6"/>
<path fill-rule="evenodd" clip-rule="evenodd" d="M417.5 205.5C430.543 208.677 443.543 212.011 456.5 215.5C471.596 220.088 485.929 226.422 499.5 234.5C501.498 236.6 503.665 238.6 506 240.5C508.157 242.817 509.657 245.484 510.5 248.5C510.631 249.239 510.464 249.906 510 250.5C507.491 245.304 503.991 244.471 499.5 248C498.219 249.409 497.219 250.909 496.5 252.5C491.212 246.885 484.878 242.885 477.5 240.5C458.618 232.02 438.951 225.52 418.5 221C416.893 219.951 416.227 218.451 416.5 216.5C417.114 212.865 417.448 209.198 417.5 205.5Z" fill="#232F7A"/>
<path fill-rule="evenodd" clip-rule="evenodd" d="M106.5 197.5C106.223 210.537 106.557 223.537 107.5 236.5C108.873 236.343 110.207 236.51 111.5 237C109.579 237.36 107.912 238.194 106.5 239.5C105.614 238.675 105.281 237.675 105.5 236.5C103.5 236.5 101.5 236.5 99.5 236.5C90.8333 236.5 82.1667 236.5 73.5 236.5C70.4021 236.756 67.4021 237.422 64.5 238.5C65.0577 237.21 66.0577 236.377 67.5 236C77.828 235.5 88.1613 235.334 98.5 235.5C100.833 235.5 103.167 235.5 105.5 235.5C105.171 222.656 105.505 209.989 106.5 197.5Z" fill="#495EBE"/>
<path fill-rule="evenodd" clip-rule="evenodd" d="M73.5 236.5C82.1667 236.5 90.8333 236.5 99.5 236.5C95.7238 237.825 91.5572 238.491 87 238.5C82.8333 238.333 78.6667 238.167 74.5 238C73.944 237.617 73.6107 237.117 73.5 236.5Z" fill="#4447D5"/>
<path fill-rule="evenodd" clip-rule="evenodd" d="M92.5 193.5C92.9153 207.741 94.9153 221.741 98.5 235.5C88.1613 235.334 77.828 235.5 67.5 236C66.0577 236.377 65.0577 237.21 64.5 238.5C62.1571 239.544 60.4905 241.21 59.5 243.5C58.3387 258.995 58.172 274.661 59 290.5C61.1354 292.278 63.6354 292.945 66.5 292.5C79.4206 293.48 92.4206 293.814 105.5 293.5C105.333 305.838 105.5 318.171 106 330.5C106.757 332.315 107.59 333.981 108.5 335.5C109.694 336.272 110.694 337.272 111.5 338.5C120.318 339.493 129.318 339.827 138.5 339.5C147.823 365.963 157.656 392.296 168 418.5C176.421 435.64 189.254 439.806 206.5 431C208.79 429.223 210.457 427.056 211.5 424.5C213.481 421.872 214.981 418.872 216 415.5C216.507 408.116 217.34 400.782 218.5 393.5C219.268 392.737 219.768 391.737 220 390.5C233.722 397.227 248.222 401.727 263.5 404C273.536 405.338 283.536 406.505 293.5 407.5C294.192 420.673 300.525 429.839 312.5 435C321.167 436.749 328.833 434.916 335.5 429.5C338.147 426.883 340.314 423.883 342 420.5C345.567 410.615 349.4 400.948 353.5 391.5C353.5 393.167 353.5 394.833 353.5 396.5C354.5 396.5 355.5 396.5 356.5 396.5C403.874 378.884 439.374 345.884 463 297.5C464.996 294.092 466.163 290.425 466.5 286.5C463.813 286.664 461.146 286.497 458.5 286C461.77 285.005 465.103 284.172 468.5 283.5C467.333 283.167 466.167 282.833 465 282.5C459.316 284.183 453.483 284.85 447.5 284.5C465.263 282.059 482.596 277.726 499.5 271.5C498.629 287.725 496.129 303.725 492 319.5C466.114 404.784 410.947 461.618 326.5 490C241.955 512.985 165.622 497.318 97.5 443C34.3103 386.705 5.6436 315.872 11.5 230.5C19.7508 235.792 28.4174 240.292 37.5 244C39.8333 244.667 42.1667 244.667 44.5 244C50.1598 240.378 50.8264 236.044 46.5 231C35.5655 227.211 25.5655 221.711 16.5 214.5C15.5481 212.955 15.2148 211.288 15.5 209.5C20.5558 206.531 25.8891 204.031 31.5 202C51.5336 197.063 71.8669 194.23 92.5 193.5Z" fill="#66B1CF"/>
<path fill-rule="evenodd" clip-rule="evenodd" d="M162.5 197.5C163.495 209.989 163.829 222.656 163.5 235.5C176.171 235.333 188.838 235.5 201.5 236C205.237 237.281 207.737 239.781 209 243.5C209.827 257.673 209.661 271.673 208.5 285.5C208.5 271.833 208.5 258.167 208.5 244.5C205.728 244.405 203.728 243.071 202.5 240.5C203.661 238.622 202.994 237.622 200.5 237.5C194.61 238.745 188.61 239.412 182.5 239.5C177.167 239.333 171.833 239.167 166.5 239C176.66 238.975 186.66 238.309 196.5 237C191 236.833 185.5 236.667 180 236.5C173.866 236.565 167.866 237.232 162 238.5C159.057 237.76 158.891 236.76 161.5 235.5C162.499 222.851 162.832 210.184 162.5 197.5Z" fill="#5C67C0"/>
<path fill-rule="evenodd" clip-rule="evenodd" d="M477.5 240.5C484.878 242.885 491.212 246.885 496.5 252.5C496.489 254.017 495.823 255.184 494.5 256C489.701 258.735 484.701 260.902 479.5 262.5C480.091 261.849 480.757 261.182 481.5 260.5C481.167 260.167 480.833 259.833 480.5 259.5C478.484 260.706 476.484 260.706 474.5 259.5C476.123 254.343 476.457 249.176 475.5 244C476.973 243.29 477.64 242.124 477.5 240.5Z" fill="#66AFD0"/>
<path fill-rule="evenodd" clip-rule="evenodd" d="M63.5 289.5C61.7376 288.738 60.7376 287.404 60.5 285.5C61.2679 284.737 61.7679 283.737 62 282.5C62.3333 270.5 62.6667 258.5 63 246.5C63.4999 260.829 63.6666 275.163 63.5 289.5Z" fill="#3555BA"/>
<path fill-rule="evenodd" clip-rule="evenodd" d="M375.5 273.5C367.684 274.492 359.684 274.826 351.5 274.5C335.486 274.167 319.486 274.501 303.5 275.5C307.5 276.333 311.5 277.167 315.5 278C307.991 279.645 300.491 279.479 293 277.5C279.487 277.705 265.987 277.705 252.5 277.5C242.954 275.265 233.287 273.932 223.5 273.5C223.5 274.5 223.5 275.5 223.5 276.5C228.833 276.5 234.167 276.5 239.5 276.5C239.5 277.5 239.5 278.5 239.5 279.5C234.162 278.998 228.828 278.831 223.5 279C224.056 279.383 224.389 279.883 224.5 280.5C222.983 280.489 221.816 279.823 221 278.5C218.234 272.031 220.234 268.031 227 266.5C276.35 271.846 325.85 274.18 375.5 273.5Z" fill="#4151C3"/>
<path fill-rule="evenodd" clip-rule="evenodd" d="M423.5 271.5C422.737 272.268 421.737 272.768 420.5 273C413.174 273.5 405.841 273.666 398.5 273.5C398.5 272.833 398.833 272.5 399.5 272.5C407.505 272.269 415.505 271.935 423.5 271.5Z" fill="#4462BE"/>
<path fill-rule="evenodd" clip-rule="evenodd" d="M59.5003 243.5C59.1712 257.677 59.5045 271.677 60.5003 285.5C60.7379 287.404 61.7379 288.738 63.5003 289.5C64.1001 290.9 65.1001 291.9 66.5003 292.5C63.6357 292.945 61.1357 292.278 59.0003 290.5C58.1723 274.661 58.339 258.995 59.5003 243.5Z" fill="#68ABD8"/>
<path fill-rule="evenodd" clip-rule="evenodd" d="M510.5 248.5C510.833 248.5 511.167 248.5 511.5 248.5C511.5 251.833 511.5 255.167 511.5 258.5C508.208 263.46 504.208 267.793 499.5 271.5C482.596 277.726 465.263 282.059 447.5 284.5C444.14 284.616 440.807 284.949 437.5 285.5C438.091 284.849 438.757 284.182 439.5 283.5C431.855 282.669 424.188 282.169 416.5 282C413.627 279.908 410.293 278.908 406.5 279C388.175 277.44 369.842 277.274 351.5 278.5C356.792 279.495 362.125 279.828 367.5 279.5C367.5 280.5 367.5 281.5 367.5 282.5C359.488 282.499 351.488 282.166 343.5 281.5C332.826 282.334 322.159 282.834 311.5 283C310.833 282.667 310.167 282.333 309.5 282C318.14 280.67 326.807 279.503 335.5 278.5C335.709 277.914 336.043 277.414 336.5 277C341.933 277.118 346.933 276.285 351.5 274.5C359.684 274.826 367.684 274.492 375.5 273.5C383.167 273.5 390.833 273.5 398.5 273.5C405.841 273.666 413.174 273.5 420.5 273C421.737 272.768 422.737 272.268 423.5 271.5C442.606 270.204 461.272 267.204 479.5 262.5C484.701 260.902 489.701 258.735 494.5 256C495.823 255.184 496.489 254.017 496.5 252.5C497.219 250.909 498.219 249.409 499.5 248C503.991 244.471 507.491 245.304 510 250.5C510.464 249.906 510.631 249.239 510.5 248.5Z" fill="#3E4FC5"/>
<path fill-rule="evenodd" clip-rule="evenodd" d="M351.5 274.5C346.933 276.285 341.933 277.118 336.5 277C336.043 277.414 335.709 277.914 335.5 278.5C326.807 279.503 318.14 280.67 309.5 282C310.167 282.333 310.833 282.667 311.5 283C322.159 282.834 332.826 282.334 343.5 281.5C351.488 282.166 359.488 282.499 367.5 282.5C367.5 281.5 367.5 280.5 367.5 279.5C362.125 279.828 356.792 279.495 351.5 278.5C369.842 277.274 388.175 277.44 406.5 279C410.293 278.908 413.627 279.908 416.5 282C424.188 282.169 431.855 282.669 439.5 283.5C438.757 284.182 438.091 284.849 437.5 285.5C435.5 285.5 433.5 285.5 431.5 285.5C427.5 285.5 423.5 285.5 419.5 285.5C404.813 285.332 390.147 284.665 375.5 283.5C355.916 283.757 336.416 284.757 317 286.5C312.539 285.655 308.039 285.322 303.5 285.5C303.5 283.833 303.5 282.167 303.5 280.5C295.488 280.501 287.488 280.834 279.5 281.5C272.898 280.142 266.731 279.476 261 279.5C260.326 280.578 259.326 281.245 258 281.5C255.589 280.518 253.089 279.851 250.5 279.5C244.839 280.277 239.172 280.944 233.5 281.5C230.287 281.81 227.287 281.477 224.5 280.5C224.389 279.883 224.056 279.383 223.5 279C228.828 278.831 234.162 278.998 239.5 279.5C239.5 278.5 239.5 277.5 239.5 276.5C234.167 276.5 228.833 276.5 223.5 276.5C223.5 275.5 223.5 274.5 223.5 273.5C233.287 273.932 242.954 275.265 252.5 277.5C265.987 277.705 279.487 277.705 293 277.5C300.491 279.479 307.991 279.645 315.5 278C311.5 277.167 307.5 276.333 303.5 275.5C319.486 274.501 335.486 274.167 351.5 274.5Z" fill="#3E4DCA"/>
<path fill-rule="evenodd" clip-rule="evenodd" d="M263.5 284.5C276.07 284.42 288.404 285.42 300.5 287.5C287.982 286.95 275.649 285.95 263.5 284.5Z" fill="#747ACB"/>
<path fill-rule="evenodd" clip-rule="evenodd" d="M419.5 285.5C418.167 286.167 416.833 286.833 415.5 287.5C407.475 287.39 399.475 287.724 391.5 288.5C361.159 288.657 330.826 288.324 300.5 287.5C288.404 285.42 276.07 284.42 263.5 284.5C253.304 284.038 243.304 283.038 233.5 281.5C239.172 280.944 244.839 280.277 250.5 279.5C253.089 279.851 255.589 280.518 258 281.5C259.326 281.245 260.326 280.578 261 279.5C266.731 279.476 272.898 280.142 279.5 281.5C287.488 280.834 295.488 280.501 303.5 280.5C303.5 282.167 303.5 283.833 303.5 285.5C308.039 285.322 312.539 285.655 317 286.5C336.416 284.757 355.916 283.757 375.5 283.5C390.147 284.665 404.813 285.332 419.5 285.5Z" fill="#4150C2"/>
<path fill-rule="evenodd" clip-rule="evenodd" d="M419.5 285.5C423.5 285.5 427.5 285.5 431.5 285.5C426.342 286.458 421.009 287.125 415.5 287.5C416.833 286.833 418.167 286.167 419.5 285.5Z" fill="#466CBE"/>
<path fill-rule="evenodd" clip-rule="evenodd" d="M353.5 391.5C366.171 357.151 378.838 322.817 391.5 288.5C399.475 287.724 407.475 287.39 415.5 287.5C421.009 287.125 426.342 286.458 431.5 285.5C433.5 285.5 435.5 285.5 437.5 285.5C440.807 284.949 444.14 284.616 447.5 284.5C453.483 284.85 459.316 284.183 465 282.5C466.167 282.833 467.333 283.167 468.5 283.5C465.103 284.172 461.77 285.005 458.5 286C461.146 286.497 463.813 286.664 466.5 286.5C466.163 290.425 464.996 294.092 463 297.5C439.374 345.884 403.874 378.884 356.5 396.5C355.5 396.5 354.5 396.5 353.5 396.5C353.5 394.833 353.5 393.167 353.5 391.5Z" fill="#7EBED7"/>
<path fill-rule="evenodd" clip-rule="evenodd" d="M207.5 288.5C206.106 290.708 204.106 292.208 201.5 293C192.84 293.5 184.173 293.666 175.5 293.5C183.657 292.671 191.99 292.171 200.5 292C197.7 290.768 194.7 290.101 191.5 290C195.347 287.985 199.013 288.152 202.5 290.5C203.842 288.995 205.508 288.328 207.5 288.5Z" fill="#5A6BC1"/>
<path fill-rule="evenodd" clip-rule="evenodd" d="M71.5005 294.5C82.5005 294.5 93.5005 294.5 104.5 294.5C104.667 305.172 104.5 315.839 104 326.5C103.5 318.841 103.334 311.174 103.5 303.5C102.5 303.5 101.5 303.5 100.5 303.5C99.8338 324.833 99.1672 324.833 98.5005 303.5C89.3056 301.755 79.9723 300.588 70.5005 300C66.8205 298.775 67.1539 297.942 71.5005 297.5C71.5005 296.5 71.5005 295.5 71.5005 294.5Z" fill="#63B4C8"/>
<path fill-rule="evenodd" clip-rule="evenodd" d="M76.5 297.5C84.9839 296.507 93.6506 296.174 102.5 296.5C102.5 298.5 102.5 300.5 102.5 302.5C98.1694 303.549 96.0027 301.882 96 297.5C89.5003 298.815 83.0003 298.815 76.5 297.5Z" fill="#69ADD8"/>
<path fill-rule="evenodd" clip-rule="evenodd" d="M258.5 303.5C262.861 305.177 267.194 307.177 271.5 309.5C280.293 321.261 285.46 334.594 287 349.5C289.06 368.856 291.227 388.189 293.5 407.5C283.536 406.505 273.536 405.338 263.5 404C248.222 401.727 233.722 397.227 220 390.5C219.768 391.737 219.268 392.737 218.5 393.5C220.191 378.829 222.024 364.162 224 349.5C225.94 338.517 228.94 327.85 233 317.5C238.847 307.993 247.347 303.327 258.5 303.5Z" fill="#7EBED6"/>
<path fill-rule="evenodd" clip-rule="evenodd" d="M335.5 429.5C328.833 434.916 321.167 436.749 312.5 435C300.525 429.839 294.192 420.673 293.5 407.5C291.227 388.189 289.06 368.856 287 349.5C285.46 334.594 280.293 321.261 271.5 309.5C267.194 307.177 262.861 305.177 258.5 303.5C268.193 302.126 277.86 302.626 287.5 305C297.09 306.705 304.59 311.538 310 319.5C313.751 328.168 316.417 337.168 318 346.5C320.391 369.531 323.058 392.531 326 415.5C327.099 421.733 330.265 426.4 335.5 429.5Z" fill="#D3D3D9"/>
<path fill-rule="evenodd" clip-rule="evenodd" d="M159.5 295.5C160.209 294.596 161.209 294.263 162.5 294.5C162.667 306.171 162.5 317.838 162 329.5C161.038 318.023 160.205 306.69 159.5 295.5Z" fill="#5662DE"/>
<path fill-rule="evenodd" clip-rule="evenodd" d="M108.5 335.5C107.59 333.981 106.757 332.315 106 330.5C105.5 318.171 105.333 305.838 105.5 293.5C106.824 294.85 107.824 294.683 108.5 293C105.564 289.463 106.564 287.963 111.5 288.5C110.528 301.23 110.195 313.897 110.5 326.5C109.808 325.975 109.308 325.308 109 324.5C108.832 315.149 108.332 305.816 107.5 296.5C105.958 309.615 106.292 322.615 108.5 335.5Z" fill="#3D54BF"/>
<path fill-rule="evenodd" clip-rule="evenodd" d="M211.5 424.5C210.457 427.056 208.79 429.223 206.5 431C189.254 439.806 176.421 435.64 168 418.5C157.656 392.296 147.823 365.963 138.5 339.5C144.176 339.666 149.843 339.499 155.5 339C157.066 338.392 158.4 337.558 159.5 336.5C161.136 335.251 162.303 333.584 163 331.5C163.499 327.514 163.666 323.514 163.5 319.5C164.166 314.983 164.833 310.317 165.5 305.5C180.494 345.511 195.827 385.177 211.5 424.5Z" fill="#D3D3D9"/>
<path fill-rule="evenodd" clip-rule="evenodd" d="M159.5 336.5C158.4 337.558 157.066 338.392 155.5 339C149.843 339.499 144.176 339.666 138.5 339.5C129.318 339.827 120.318 339.493 111.5 338.5C119.167 338.5 126.833 338.5 134.5 338.5C143.041 338.993 151.374 338.326 159.5 336.5Z" fill="#5165BA"/>
</g>
<defs>
<clipPath id="clip0_12_306">
<rect width="512" height="512" fill="white"/>
</clipPath>
</defs>
</svg>
