<svg width="512" height="512" viewBox="0 0 512 512" fill="none" xmlns="http://www.w3.org/2000/svg">
<g clip-path="url(#clip0_12_146)">
<path fill-rule="evenodd" clip-rule="evenodd" d="M236.5 -0.5C247.5 -0.5 258.5 -0.5 269.5 -0.5C312.372 2.39939 352.372 14.8994 389.5 37C461.376 84.2231 502.042 150.723 511.5 236.5C511.5 247.5 511.5 258.5 511.5 269.5C506.756 334.976 481.423 390.976 435.5 437.5C434.206 438.29 433.039 439.29 432 440.5C425.254 409.097 419.92 377.431 416 345.5C414.969 329.275 408.469 315.775 396.5 305C379.58 295.43 361.913 288.596 343.5 284.5C341.818 281.823 340.151 279.157 338.5 276.5C332.843 272.877 326.843 269.71 320.5 267C315.241 266.601 310.241 265.434 305.5 263.5C305.5 265.167 305.5 266.833 305.5 268.5C309.514 268.334 313.514 268.501 317.5 269C321.255 271.755 325.255 274.089 329.5 276C331.063 276.759 332.063 277.926 332.5 279.5C322.86 276.674 313.193 274.007 303.5 271.5C299.646 268.979 295.812 266.312 292 263.5C291.501 259.848 291.335 256.182 291.5 252.5C291.249 247.493 290.916 242.493 290.5 237.5C294.897 233.108 298.897 228.442 302.5 223.5C304.474 221.572 305.974 219.239 307 216.5C307.66 213.322 308.493 210.322 309.5 207.5C311.802 201.241 313.135 194.574 313.5 187.5C314.833 192.833 316.167 192.833 317.5 187.5C318.327 191.459 318.827 195.459 319 199.5C319.499 195.848 319.665 192.182 319.5 188.5C320.833 188.5 322.167 188.5 323.5 188.5C323.5 189.5 323.5 190.5 323.5 191.5C324.675 191.719 325.675 191.386 326.5 190.5C323.928 188.364 322.761 185.697 323 182.5C323.923 181.241 324.757 179.908 325.5 178.5C325.833 181.167 326.167 183.833 326.5 186.5C327.636 184.395 328.636 182.228 329.5 180C328.267 177.598 327.267 175.098 326.5 172.5C326.997 170.182 327.33 167.848 327.5 165.5C327.666 159.491 327.499 153.491 327 147.5C326.292 146.619 325.458 145.953 324.5 145.5C324.815 128.807 324.815 112.141 324.5 95.5C321.667 90.5 318.833 85.5 316 80.5C309.467 75.9856 302.3 72.8189 294.5 71C283.534 68.307 272.534 65.807 261.5 63.5C240.389 64.4888 220.056 68.9888 200.5 77C198.246 78.3767 196.08 79.8767 194 81.5C191.839 86.4924 189.172 91.1591 186 95.5C186.186 112.156 186.352 128.823 186.5 145.5C185.542 145.953 184.708 146.619 184 147.5C183.044 156.964 183.711 166.297 186 175.5C187.43 179.249 189.264 182.749 191.5 186C194.146 186.497 196.813 186.664 199.5 186.5C200.338 195.205 201.505 203.872 203 212.5C203.957 216.41 205.457 220.077 207.5 223.5C207.833 224.5 208.5 225.167 209.5 225.5C212.796 229.298 216.296 232.964 220 236.5C220.483 237.448 220.649 238.448 220.5 239.5C219.67 247.99 219.17 256.657 219 265.5C215.186 267.984 211.353 270.318 207.5 272.5C205.598 271.489 203.598 271.322 201.5 272C191.552 275.484 181.552 278.65 171.5 281.5C173.184 280 174.851 278.333 176.5 276.5C184.878 270.936 194.211 268.436 204.5 269C205.406 267.301 205.739 265.467 205.5 263.5C191.969 264.384 179.803 268.717 169 276.5C166.588 279.37 164.421 282.37 162.5 285.5C147.804 289.027 133.47 294.527 119.5 302C106.904 309.621 99.4039 320.788 97 335.5C92.7208 361.121 88.7208 386.788 85 412.5C83.2412 421.966 81.2412 431.3 79 440.5C30.8919 393.613 4.39188 336.613 -0.5 269.5C-0.5 258.5 -0.5 247.5 -0.5 236.5C1.41106 221.484 4.07773 206.484 7.5 191.5C8.5 191.5 9.5 191.5 10.5 191.5C12.4137 182.449 13.9137 182.449 15 191.5C15.831 187.655 15.331 183.988 13.5 180.5C13.4823 178.627 13.9823 178.294 15 179.5C15.1764 176.118 15.6764 172.785 16.5 169.5C19.5757 166.954 20.909 163.62 20.5 159.5C21.8333 159.5 23.1667 159.5 24.5 159.5C24.3305 161.848 23.9971 164.182 23.5 166.5C23.3422 168.319 24.0089 169.652 25.5 170.5C27.4144 167.428 28.7477 164.095 29.5 160.5C24.4974 158.495 22.664 154.828 24 149.5C26.3873 151.355 28.054 153.688 29 156.5C29.3123 152.926 28.4789 149.593 26.5 146.5C27.9916 143.331 28.9916 139.998 29.5 136.5C33.6319 126.902 38.7986 117.902 45 109.5C92.2903 44.4452 156.124 7.77852 236.5 -0.5Z" fill="#107985"/>
<path fill-rule="evenodd" clip-rule="evenodd" d="M261.5 63.5C269.291 66.7852 277.458 69.4518 286 71.5C286.5 71.8333 287 72.1667 287.5 72.5C285.577 73.3078 283.577 73.8078 281.5 74C289.301 75.887 297.301 76.887 305.5 77C307.667 78.5 309.833 80 312 81.5C312.179 84.5535 312.679 87.5535 313.5 90.5C316.302 91.712 318.802 93.3787 321 95.5C321.5 111.506 321.333 127.506 320.5 143.5C318.61 143.297 317.11 143.963 316 145.5C315.51 144.207 315.343 142.873 315.5 141.5C314.167 141.5 312.833 141.5 311.5 141.5C301.63 138.488 291.63 135.988 281.5 134C274.88 132.863 268.214 132.363 261.5 132.5C259.359 131.837 257.025 131.503 254.5 131.5C248.162 131.945 241.829 132.445 235.5 133C229.229 133.524 223.229 134.691 217.5 136.5C210.511 138.275 203.511 139.942 196.5 141.5C196.5 142.833 196.5 144.167 196.5 145.5C197.641 147.549 197.641 149.549 196.5 151.5C195.275 150.063 194.275 148.396 193.5 146.5C191.257 145.526 188.924 145.192 186.5 145.5C186.352 128.823 186.186 112.156 186 95.5C189.172 91.1591 191.839 86.4924 194 81.5C196.08 79.8767 198.246 78.3767 200.5 77C220.056 68.9888 240.389 64.4888 261.5 63.5Z" fill="#23CFC2"/>
<path fill-rule="evenodd" clip-rule="evenodd" d="M261.5 63.5C272.534 65.807 283.534 68.307 294.5 71C302.3 72.8189 309.467 75.9856 316 80.5C318.833 85.5 321.667 90.5 324.5 95.5C324.815 112.141 324.815 128.807 324.5 145.5C322.901 145.768 321.568 145.434 320.5 144.5C320.5 144.167 320.5 143.833 320.5 143.5C321.333 127.506 321.5 111.506 321 95.5C318.802 93.3787 316.302 91.712 313.5 90.5C312.679 87.5535 312.179 84.5535 312 81.5C309.833 80 307.667 78.5 305.5 77C297.301 76.887 289.301 75.887 281.5 74C283.577 73.8078 285.577 73.3078 287.5 72.5C287 72.1667 286.5 71.8333 286 71.5C277.458 69.4518 269.291 66.7852 261.5 63.5Z" fill="#1ABEB5"/>
<path fill-rule="evenodd" clip-rule="evenodd" d="M261.5 132.5C246.759 133.174 232.093 134.508 217.5 136.5C223.229 134.691 229.229 133.524 235.5 133C241.829 132.445 248.162 131.945 254.5 131.5C257.025 131.503 259.359 131.837 261.5 132.5Z" fill="#CED9A2"/>
<path fill-rule="evenodd" clip-rule="evenodd" d="M261.5 132.5C268.214 132.363 274.88 132.863 281.5 134C291.63 135.988 301.63 138.488 311.5 141.5C312.263 142.268 313.263 142.768 314.5 143C309.089 157.482 303.756 171.982 298.5 186.5C295.236 185.676 291.902 185.342 288.5 185.5C277.172 185.845 266.005 184.845 255 182.5C240.997 185.113 226.831 186.113 212.5 185.5C207.131 172.107 201.797 158.774 196.5 145.5C196.5 144.167 196.5 142.833 196.5 141.5C203.511 139.942 210.511 138.275 217.5 136.5C232.093 134.508 246.759 133.174 261.5 132.5Z" fill="#FDD299"/>
<path fill-rule="evenodd" clip-rule="evenodd" d="M29.5 136.5C28.9916 139.998 27.9916 143.331 26.5 146.5C28.4789 149.593 29.3123 152.926 29 156.5C28.054 153.688 26.3873 151.355 24 149.5C22.664 154.828 24.4974 158.495 29.5 160.5C28.7477 164.095 27.4144 167.428 25.5 170.5C24.0089 169.652 23.3422 168.319 23.5 166.5C23.9971 164.182 24.3305 161.848 24.5 159.5C23.1667 159.5 21.8333 159.5 20.5 159.5C20.909 163.62 19.5757 166.954 16.5 169.5C15.6764 172.785 15.1764 176.118 15 179.5C13.9823 178.294 13.4823 178.627 13.5 180.5C15.331 183.988 15.831 187.655 15 191.5C13.9137 182.449 12.4137 182.449 10.5 191.5C9.5 191.5 8.5 191.5 7.5 191.5C12.3892 172.074 19.7226 153.741 29.5 136.5Z" fill="#187E83"/>
<path fill-rule="evenodd" clip-rule="evenodd" d="M186.5 145.5C188.924 145.192 191.257 145.526 193.5 146.5C194.275 148.396 195.275 150.063 196.5 151.5C196.511 153.547 196.844 155.547 197.5 157.5C200.817 164.438 203.984 171.438 207 178.5C207.953 181.432 208.453 184.432 208.5 187.5C207.722 188.156 207.056 188.989 206.5 190C207.766 195.699 208.432 201.532 208.5 207.5C208.499 213.011 208.166 218.344 207.5 223.5C205.457 220.077 203.957 216.41 203 212.5C201.505 203.872 200.338 195.205 199.5 186.5C196.813 186.664 194.146 186.497 191.5 186C189.264 182.749 187.43 179.249 186 175.5C183.711 166.297 183.044 156.964 184 147.5C184.708 146.619 185.542 145.953 186.5 145.5Z" fill="#F7D198"/>
<path fill-rule="evenodd" clip-rule="evenodd" d="M311.5 141.5C312.833 141.5 314.167 141.5 315.5 141.5C315.343 142.873 315.51 144.207 316 145.5C317.11 143.963 318.61 143.297 320.5 143.5C320.5 143.833 320.5 144.167 320.5 144.5C318.983 144.511 317.816 145.177 317 146.5C311.523 160.423 306.357 174.423 301.5 188.5C299.821 188.715 298.821 188.048 298.5 186.5C303.756 171.982 309.089 157.482 314.5 143C313.263 142.768 312.263 142.268 311.5 141.5Z" fill="#65CAB4"/>
<path fill-rule="evenodd" clip-rule="evenodd" d="M320.5 144.5C321.568 145.434 322.901 145.768 324.5 145.5C325.458 145.953 326.292 146.619 327 147.5C327.499 153.491 327.666 159.491 327.5 165.5C326.464 172.597 323.964 179.264 320 185.5C317.281 186.444 314.448 186.777 311.5 186.5C310.587 193.474 309.92 200.474 309.5 207.5C308.493 210.322 307.66 213.322 307 216.5C305.974 219.239 304.474 221.572 302.5 223.5C301.505 212.012 301.172 200.345 301.5 188.5C306.357 174.423 311.523 160.423 317 146.5C317.816 145.177 318.983 144.511 320.5 144.5Z" fill="#F7D29A"/>
<path fill-rule="evenodd" clip-rule="evenodd" d="M196.5 145.5C201.797 158.774 207.131 172.107 212.5 185.5C212.179 187.048 211.179 187.715 209.5 187.5C209.167 187.5 208.833 187.5 208.5 187.5C208.453 184.432 207.953 181.432 207 178.5C203.984 171.438 200.817 164.438 197.5 157.5C196.844 155.547 196.511 153.547 196.5 151.5C197.641 149.549 197.641 147.549 196.5 145.5Z" fill="#6ECBB6"/>
<path fill-rule="evenodd" clip-rule="evenodd" d="M288.5 185.5C281.345 186.329 274.011 186.829 266.5 187C262.852 187.11 260.185 187.943 258.5 189.5C257.087 199.052 257.421 208.552 259.5 218C257.673 228.459 256.339 238.959 255.5 249.5C256.934 250.23 258.1 251.23 259 252.5C260.087 250.068 260.587 250.402 260.5 253.5C263.5 253.5 266.5 253.5 269.5 253.5C259.696 255.988 249.696 256.154 239.5 254C234.199 249.7 229.199 245.034 224.5 240C223.207 239.51 221.873 239.343 220.5 239.5C220.649 238.448 220.483 237.448 220 236.5C216.296 232.964 212.796 229.298 209.5 225.5C209.5 212.833 209.5 200.167 209.5 187.5C211.179 187.715 212.179 187.048 212.5 185.5C226.831 186.113 240.997 185.113 255 182.5C266.005 184.845 277.172 185.845 288.5 185.5Z" fill="#FCFCFB"/>
<path fill-rule="evenodd" clip-rule="evenodd" d="M327.5 165.5C327.33 167.848 326.997 170.182 326.5 172.5C327.267 175.098 328.267 177.598 329.5 180C328.636 182.228 327.636 184.395 326.5 186.5C326.167 183.833 325.833 181.167 325.5 178.5C324.757 179.908 323.923 181.241 323 182.5C322.761 185.697 323.928 188.364 326.5 190.5C325.675 191.386 324.675 191.719 323.5 191.5C323.5 190.5 323.5 189.5 323.5 188.5C322.167 188.5 320.833 188.5 319.5 188.5C319.665 192.182 319.499 195.848 319 199.5C318.827 195.459 318.327 191.459 317.5 187.5C316.167 192.833 314.833 192.833 313.5 187.5C313.135 194.574 311.802 201.241 309.5 207.5C309.92 200.474 310.587 193.474 311.5 186.5C314.448 186.777 317.281 186.444 320 185.5C323.964 179.264 326.464 172.597 327.5 165.5Z" fill="#287E7B"/>
<path fill-rule="evenodd" clip-rule="evenodd" d="M288.5 185.5C291.902 185.342 295.236 185.676 298.5 186.5C298.821 188.048 299.821 188.715 301.5 188.5C301.172 200.345 301.505 212.012 302.5 223.5C298.897 228.442 294.897 233.108 290.5 237.5C289.662 237.842 289.328 238.508 289.5 239.5C288.127 239.343 286.793 239.51 285.5 240C281.833 245 277.5 249.333 272.5 253C271.552 253.483 270.552 253.649 269.5 253.5C266.5 253.5 263.5 253.5 260.5 253.5C260.587 250.402 260.087 250.068 259 252.5C258.1 251.23 256.934 250.23 255.5 249.5C256.339 238.959 257.673 228.459 259.5 218C257.421 208.552 257.087 199.052 258.5 189.5C260.185 187.943 262.852 187.11 266.5 187C274.011 186.829 281.345 186.329 288.5 185.5Z" fill="#EDF3F6"/>
<path fill-rule="evenodd" clip-rule="evenodd" d="M208.5 187.5C208.833 187.5 209.167 187.5 209.5 187.5C209.5 200.167 209.5 212.833 209.5 225.5C208.5 225.167 207.833 224.5 207.5 223.5C208.166 218.344 208.499 213.011 208.5 207.5C208.432 201.532 207.766 195.699 206.5 190C207.056 188.989 207.722 188.156 208.5 187.5Z" fill="#F0D3AF"/>
<path fill-rule="evenodd" clip-rule="evenodd" d="M290.5 237.5C290.916 242.493 291.249 247.493 291.5 252.5C290.105 248.409 289.438 244.076 289.5 239.5C289.328 238.508 289.662 237.842 290.5 237.5Z" fill="#B0B593"/>
<path fill-rule="evenodd" clip-rule="evenodd" d="M220.5 239.5C221.873 239.343 223.207 239.51 224.5 240C229.199 245.034 234.199 249.7 239.5 254C249.696 256.154 259.696 255.988 269.5 253.5C270.552 253.649 271.552 253.483 272.5 253C277.5 249.333 281.833 245 285.5 240C286.793 239.51 288.127 239.343 289.5 239.5C289.438 244.076 290.105 248.409 291.5 252.5C291.335 256.182 291.501 259.848 292 263.5C295.812 266.312 299.646 268.979 303.5 271.5C301.541 281.971 298.207 291.971 293.5 301.5C286.247 303.323 278.913 304.656 271.5 305.5C263.854 306.207 256.187 306.54 248.5 306.5C242.855 305.873 237.189 305.373 231.5 305C227.951 302.989 224.284 301.489 220.5 300.5C217.01 299.601 214.843 297.268 214 293.5C211.845 286.516 209.678 279.516 207.5 272.5C211.353 270.318 215.186 267.984 219 265.5C219.17 256.657 219.67 247.99 220.5 239.5Z" fill="#EFBA7C"/>
<path fill-rule="evenodd" clip-rule="evenodd" d="M171.5 281.5C165.258 288.562 162.592 296.896 163.5 306.5C163.5 308.5 163.5 310.5 163.5 312.5C162.041 312.567 160.708 312.234 159.5 311.5C157.504 302.44 158.504 293.774 162.5 285.5C164.421 282.37 166.588 279.37 169 276.5C179.803 268.717 191.969 264.384 205.5 263.5C205.739 265.467 205.406 267.301 204.5 269C194.211 268.436 184.878 270.936 176.5 276.5C174.851 278.333 173.184 280 171.5 281.5Z" fill="#4E5150"/>
<path fill-rule="evenodd" clip-rule="evenodd" d="M303.5 271.5C313.193 274.007 322.86 276.674 332.5 279.5C341.068 287.29 346.568 296.956 349 308.5C353.14 328.715 353.64 349.048 350.5 369.5C351.833 369.5 353.167 369.5 354.5 369.5C357.921 346.637 357.087 323.97 352 301.5C350.208 295.249 347.374 289.582 343.5 284.5C361.913 288.596 379.58 295.43 396.5 305C408.469 315.775 414.969 329.275 416 345.5C419.92 377.431 425.254 409.097 432 440.5C433.039 439.29 434.206 438.29 435.5 437.5C435.449 439.57 436.115 441.403 437.5 443C435.669 446.079 434.669 445.579 434.5 441.5C433.448 441.351 432.448 441.517 431.5 442C414.098 458.92 394.431 472.42 372.5 482.5C372.5 481.5 372.5 480.5 372.5 479.5C371.325 479.281 370.325 479.614 369.5 480.5C370.705 481.995 370.705 483.328 369.5 484.5C365.668 471.841 361.835 459.174 358 446.5C357.288 444.153 356.121 442.153 354.5 440.5C353.619 454.156 352.952 467.822 352.5 481.5C352.514 485.239 353.18 488.572 354.5 491.5C352.856 492.316 351.69 493.65 351 495.5C350.439 494.978 349.772 494.645 349 494.5C328.595 501.595 308.095 507.262 287.5 511.5C276.833 511.5 266.167 511.5 255.5 511.5C255.5 478.5 255.5 445.5 255.5 412.5C256.833 412.5 258.167 412.5 259.5 412.5C259.569 409.916 260.735 407.916 263 406.5C263.814 404.098 263.647 401.765 262.5 399.5C261.081 401.958 260.081 404.625 259.5 407.5C251.419 410.755 248.752 408.088 251.5 399.5C252.182 400.243 252.849 400.909 253.5 401.5C254.688 402.684 255.855 402.684 257 401.5C268.899 367.961 281.066 334.628 293.5 301.5C298.207 291.971 301.541 281.971 303.5 271.5Z" fill="#EDF2F6"/>
<path fill-rule="evenodd" clip-rule="evenodd" d="M163.5 306.5C164.343 310.469 165.509 314.469 167 318.5C168.011 319.337 169.178 319.67 170.5 319.5C167.373 320.581 164.04 321.247 160.5 321.5C159.793 318.214 159.46 314.881 159.5 311.5C160.708 312.234 162.041 312.567 163.5 312.5C163.5 310.5 163.5 308.5 163.5 306.5Z" fill="#717171"/>
<path fill-rule="evenodd" clip-rule="evenodd" d="M220.5 300.5C224.284 301.489 227.951 302.989 231.5 305C237.189 305.373 242.855 305.873 248.5 306.5C251.314 307.165 254.314 307.498 257.5 307.5C262.424 307.646 267.091 306.979 271.5 305.5C278.913 304.656 286.247 303.323 293.5 301.5C281.066 334.628 268.899 367.961 257 401.5C255.855 402.684 254.688 402.684 253.5 401.5C252.977 398.11 252.143 394.777 251 391.5C239.313 361.263 228.146 330.93 217.5 300.5C218.5 300.5 219.5 300.5 220.5 300.5Z" fill="#26CFC2"/>
<path fill-rule="evenodd" clip-rule="evenodd" d="M271.5 305.5C267.091 306.979 262.424 307.646 257.5 307.5C254.314 307.498 251.314 307.165 248.5 306.5C256.187 306.54 263.854 306.207 271.5 305.5Z" fill="#B4C49A"/>
<path fill-rule="evenodd" clip-rule="evenodd" d="M343.5 284.5C347.374 289.582 350.208 295.249 352 301.5C357.087 323.97 357.921 346.637 354.5 369.5C353.167 369.5 351.833 369.5 350.5 369.5C353.64 349.048 353.14 328.715 349 308.5C346.568 296.956 341.068 287.29 332.5 279.5C332.063 277.926 331.063 276.759 329.5 276C325.255 274.089 321.255 271.755 317.5 269C313.514 268.501 309.514 268.334 305.5 268.5C305.5 266.833 305.5 265.167 305.5 263.5C310.241 265.434 315.241 266.601 320.5 267C326.843 269.71 332.843 272.877 338.5 276.5C340.151 279.157 341.818 281.823 343.5 284.5Z" fill="#505050"/>
<path fill-rule="evenodd" clip-rule="evenodd" d="M170.5 319.5C176.909 319.183 183.243 319.683 189.5 321C207.869 326.156 217.203 337.989 217.5 356.5C216.167 356.5 214.833 356.5 213.5 356.5C212.163 345.337 206.83 336.504 197.5 330C183.371 323.029 169.038 322.695 154.5 329C134.681 337.805 127.681 352.638 133.5 373.5C131.379 373.675 129.379 373.341 127.5 372.5C123.112 345.621 134.112 328.621 160.5 321.5C164.04 321.247 167.373 320.581 170.5 319.5Z" fill="#525252"/>
<path fill-rule="evenodd" clip-rule="evenodd" d="M357.5 375.5C357.706 378.495 357.04 381.162 355.5 383.5C354.883 383.389 354.383 383.056 354 382.5C353.503 379.854 353.336 377.187 353.5 374.5C354.959 374.433 356.292 374.766 357.5 375.5Z" fill="#38CDCF"/>
<path fill-rule="evenodd" clip-rule="evenodd" d="M127.5 372.5C129.379 373.341 131.379 373.675 133.5 373.5C133.336 376.187 133.503 378.854 134 381.5C136.207 393.303 138.874 404.969 142 416.5C144.984 419.1 148.484 420.1 152.5 419.5C152.5 420.833 152.5 422.167 152.5 423.5C146.579 424.123 141.746 422.123 138 417.5C135.467 404.503 132.8 391.503 130 378.5C129.415 376.339 128.582 374.339 127.5 372.5Z" fill="#47CEC5"/>
<path fill-rule="evenodd" clip-rule="evenodd" d="M213.5 356.5C214.833 356.5 216.167 356.5 217.5 356.5C220.465 368.702 222.965 381.035 225 393.5C226.121 404.229 221.287 410.562 210.5 412.5C210.5 411.167 210.5 409.833 210.5 408.5C209.5 408.5 208.5 408.5 207.5 408.5C212.829 408.582 217.329 406.582 221 402.5C220.495 386.814 217.995 371.481 213.5 356.5Z" fill="#48CEC7"/>
<path fill-rule="evenodd" clip-rule="evenodd" d="M340.5 395.5C340.376 397.582 339.376 399.082 337.5 400C343.97 405.164 350.97 405.831 358.5 402C359.906 399.555 361.24 397.055 362.5 394.5C363.518 395.193 364.518 395.859 365.5 396.5C360.493 405.461 352.827 408.961 342.5 407C332.058 400.614 329.225 391.781 334 380.5C338.19 375.818 343.357 373.485 349.5 373.5C349.663 375.857 349.497 378.19 349 380.5C340.476 382.269 337.643 387.269 340.5 395.5Z" fill="#30D2C0"/>
<path fill-rule="evenodd" clip-rule="evenodd" d="M357.5 375.5C365.272 380.474 367.938 387.474 365.5 396.5C364.518 395.859 363.518 395.193 362.5 394.5C361.24 397.055 359.906 399.555 358.5 402C350.97 405.831 343.97 405.164 337.5 400C339.376 399.082 340.376 397.582 340.5 395.5C346.087 400.792 351.587 400.792 357 395.5C359.284 391.1 358.784 387.1 355.5 383.5C357.04 381.162 357.706 378.495 357.5 375.5Z" fill="#36CEC6"/>
<path fill-rule="evenodd" clip-rule="evenodd" d="M207.5 408.5C208.5 408.5 209.5 408.5 210.5 408.5C210.5 409.833 210.5 411.167 210.5 412.5C208.284 412.275 206.617 413.108 205.5 415C198.833 416.667 196.833 414.333 199.5 408C202.221 407.398 204.887 407.565 207.5 408.5Z" fill="#156B72"/>
<path fill-rule="evenodd" clip-rule="evenodd" d="M152.5 423.5C152.5 422.167 152.5 420.833 152.5 419.5C155.406 418.454 158.24 417.12 161 415.5C166.328 417.326 166.828 420.16 162.5 424C159.2 423.954 155.866 423.788 152.5 423.5Z" fill="#1F6F76"/>
<path fill-rule="evenodd" clip-rule="evenodd" d="M154.5 440.5C155.5 440.5 156.5 440.5 157.5 440.5C157.952 457.497 158.286 474.497 158.5 491.5C152.412 490.126 146.745 487.626 141.5 484C146.221 469.617 150.554 455.117 154.5 440.5Z" fill="#1B7A86"/>
<path fill-rule="evenodd" clip-rule="evenodd" d="M369.5 484.5C364.594 487.121 359.594 489.454 354.5 491.5C353.18 488.572 352.514 485.239 352.5 481.5C352.952 467.822 353.619 454.156 354.5 440.5C356.121 442.153 357.288 444.153 358 446.5C361.835 459.174 365.668 471.841 369.5 484.5Z" fill="#197A85"/>
</g>
<defs>
<clipPath id="clip0_12_146">
<rect width="512" height="512" fill="white"/>
</clipPath>
</defs>
</svg>
