<svg width="512" height="512" viewBox="0 0 512 512" fill="none" xmlns="http://www.w3.org/2000/svg">
<g clip-path="url(#clip0_12_11)">
<path fill-rule="evenodd" clip-rule="evenodd" d="M383.5 17.5C387.309 11.3641 392.642 7.03078 399.5 4.49999C404.676 2.81635 410.009 2.14968 415.5 2.49999C414.446 7.80993 414.446 13.1433 415.5 18.5C404.654 18.8278 393.987 18.4944 383.5 17.5Z" fill="#BDC8F4"/>
<path fill-rule="evenodd" clip-rule="evenodd" d="M84.5001 15.5C97.0597 15.8517 108.726 19.3517 119.5 26C129.304 30.9734 136.97 38.14 142.5 47.5C143.411 56.1258 143.745 64.7925 143.5 73.5C142.028 80.9514 141.361 88.618 141.5 96.5C141.5 96.8333 141.5 97.1667 141.5 97.5C138.753 97.8134 136.086 97.48 133.5 96.5C130.542 92.9455 128.542 88.9455 127.5 84.5C124.896 69.7266 116.23 60.5599 101.5 57C97.9138 55.8924 94.2471 55.3924 90.5001 55.5C88.7355 54.5386 86.7355 54.2053 84.5001 54.5C82.5768 51.3968 80.4101 48.3968 78.0001 45.5C76.0638 39.8183 76.0638 34.1516 78.0001 28.5C79.6662 23.8345 81.8328 19.5011 84.5001 15.5Z" fill="#3D58A0"/>
<path fill-rule="evenodd" clip-rule="evenodd" d="M455.5 15.5C460.319 18.0841 465.652 19.2507 471.5 19C474.106 21.0493 476.606 23.216 479 25.5C479.757 28.4757 478.591 30.309 475.5 31C477.256 31.2022 478.922 31.7022 480.5 32.5C479.704 39.1166 479.204 45.7833 479 52.5C477.186 58.7177 476.019 65.0511 475.5 71.5C474.935 75.9903 472.935 79.8237 469.5 83C467.527 83.4955 465.527 83.6621 463.5 83.5C446.515 77.2132 428.848 74.2132 410.5 74.5C413.305 73.6805 416.305 73.1805 419.5 73C418.594 71.3005 418.261 69.4672 418.5 67.5C421.142 67.5123 422.475 66.179 422.5 63.5C423.458 63.0472 424.292 62.3805 425 61.5C425.498 58.5184 425.665 55.5184 425.5 52.5C428.747 51.7485 432.081 51.2485 435.5 51C439.299 42.273 436.299 38.4397 426.5 39.5C426.81 36.2869 426.477 33.2869 425.5 30.5C423.784 28.9752 421.784 27.9752 419.5 27.5C417.358 25.1094 417.025 22.4428 418.5 19.5C431.154 18.6674 443.82 18.1674 456.5 18C455.748 17.3292 455.414 16.4959 455.5 15.5Z" fill="#E9EEFC"/>
<path fill-rule="evenodd" clip-rule="evenodd" d="M323.5 31.5C312.38 29.4698 301.38 26.9698 290.5 24C285.981 23.8247 281.647 23.3247 277.5 22.5C282.939 22.4364 288.272 21.7697 293.5 20.5C296.295 20.4526 298.961 20.9526 301.5 22C298.5 22.3333 295.5 22.6667 292.5 23C297.708 24.3967 303.041 24.8967 308.5 24.5C308.5 25.5 308.5 26.5 308.5 27.5C312.185 27.1046 315.852 26.9379 319.5 27C322.447 27.1118 323.78 28.6118 323.5 31.5Z" fill="#FAFAE0"/>
<path fill-rule="evenodd" clip-rule="evenodd" d="M411.5 -0.5C416.833 -0.5 422.167 -0.5 427.5 -0.5C438.609 1.65433 447.942 6.98767 455.5 15.5C455.414 16.4959 455.748 17.3292 456.5 18C443.82 18.1674 431.154 18.6674 418.5 19.5C417.025 22.4428 417.358 25.1094 419.5 27.5C417.225 28.1112 415.559 29.4446 414.5 31.5C413.527 33.9479 413.194 36.6146 413.5 39.5C407.603 38.0344 403.603 40.0344 401.5 45.5C401.848 47.6967 402.848 49.53 404.5 51C407.482 51.498 410.482 51.6646 413.5 51.5C413.19 54.7131 413.523 57.7131 414.5 60.5C415.404 61.209 415.737 62.209 415.5 63.5C417.833 63.5 420.167 63.5 422.5 63.5C422.475 66.179 421.142 67.5123 418.5 67.5C418.261 69.4672 418.594 71.3005 419.5 73C416.305 73.1805 413.305 73.6805 410.5 74.5C406.833 75.1667 403.167 75.8333 399.5 76.5C392.247 77.6966 385.247 79.6966 378.5 82.5C371.15 84.8266 366.817 82.1599 365.5 74.5C364.575 65.4094 363.242 56.4094 361.5 47.5C353.957 26.3926 361.29 16.3926 383.5 17.5C393.987 18.4944 404.654 18.8278 415.5 18.5C414.446 13.1433 414.446 7.80994 415.5 2.5C410.009 2.14969 404.676 2.81636 399.5 4.5C399.611 3.88258 399.944 3.38258 400.5 3C404.333 1.9662 407.999 0.799536 411.5 -0.5Z" fill="#D3DBF9"/>
<path fill-rule="evenodd" clip-rule="evenodd" d="M84.5 15.5C81.8327 19.5011 79.6661 23.8345 78 28.5C76.0637 34.1516 76.0637 39.8183 78 45.5C80.41 48.3968 82.5767 51.3968 84.5 54.5C70.4056 54.9163 58.5722 60.2496 49 70.5C46.2641 74.7795 44.7641 79.4461 44.5 84.5C42.8485 88.4742 41.1818 92.4742 39.5 96.5C36.4726 97.2492 33.4726 97.9159 30.5 98.5C30.5 97.8333 30.5 97.1667 30.5 96.5C30.9855 84.5833 30.3188 72.7499 28.5 61C28.5093 59.5962 29.0093 58.4296 30 57.5C30.3333 59.5 30.6667 61.5 31 63.5C31.022 58.1822 30.8553 52.8489 30.5 47.5C31.5472 43.7393 33.3805 40.406 36 37.5C40.7449 33.8776 45.5782 30.3776 50.5 27C60.7854 20.0217 72.1188 16.1884 84.5 15.5Z" fill="#2B428C"/>
<path fill-rule="evenodd" clip-rule="evenodd" d="M419.5 27.5C421.784 27.9752 423.784 28.9752 425.5 30.5C425.784 33.7766 425.451 36.9433 424.5 40C421.183 40.4983 417.85 40.665 414.5 40.5C414.5 37.5 414.5 34.5 414.5 31.5C415.559 29.4446 417.225 28.1112 419.5 27.5Z" fill="#F84659"/>
<path fill-rule="evenodd" clip-rule="evenodd" d="M425.5 30.5C426.477 33.2869 426.81 36.2869 426.5 39.5C436.299 38.4397 439.299 42.273 435.5 51C432.081 51.2485 428.747 51.7485 425.5 52.5C422.038 51.5184 418.371 51.185 414.5 51.5C414.5 54.5 414.5 57.5 414.5 60.5C413.523 57.7131 413.19 54.7131 413.5 51.5C410.482 51.6646 407.482 51.498 404.5 51C402.848 49.53 401.848 47.6967 401.5 45.5C403.603 40.0344 407.603 38.0344 413.5 39.5C413.194 36.6146 413.527 33.9479 414.5 31.5C414.5 34.5 414.5 37.5 414.5 40.5C417.85 40.665 421.183 40.4983 424.5 40C425.451 36.9433 425.784 33.7766 425.5 30.5Z" fill="#F8758B"/>
<path fill-rule="evenodd" clip-rule="evenodd" d="M277.5 22.5C281.647 23.3247 285.981 23.8247 290.5 24C301.38 26.9698 312.38 29.4698 323.5 31.5C329.87 34.3449 336.536 36.5116 343.5 38C349.648 40.9072 355.648 44.0739 361.5 47.5C363.242 56.4094 364.575 65.4094 365.5 74.5C357.033 84.2645 351.699 95.4311 349.5 108C351.348 116.124 351.682 124.291 350.5 132.5C345.658 137.504 341.825 143.171 339 149.5C337.749 157.742 339.749 165.076 345 171.5C345.333 178.167 345.667 184.833 346 191.5C347.24 194.978 348.74 198.311 350.5 201.5C347.151 204.062 343.485 206.062 339.5 207.5C334.559 208.484 329.559 209.65 324.5 211C322.627 212.704 320.96 214.537 319.5 216.5C315.439 219.079 312.606 222.746 311 227.5C309.381 233.761 308.214 240.095 307.5 246.5C306.132 248.564 305.132 250.898 304.5 253.5C302.754 251.146 300.421 250.146 297.5 250.5C294.898 247.172 292.731 243.506 291 239.5C290.51 238.207 290.343 236.873 290.5 235.5C293.803 231.687 296.969 227.687 300 223.5C300.49 222.207 300.657 220.873 300.5 219.5C301.5 219.5 302.5 219.5 303.5 219.5C303.433 217.599 303.767 215.766 304.5 214C306.769 210.642 308.936 207.142 311 203.5C312.649 195.586 314.149 187.586 315.5 179.5C317.861 179.326 320.194 178.993 322.5 178.5C322.5 177.5 322.5 176.5 322.5 175.5C323.5 175.5 324.5 175.5 325.5 175.5C326.356 168.725 328.523 162.392 332 156.5C333.262 151.213 333.596 145.88 333 140.5C331.322 138.334 329.155 137.001 326.5 136.5C327.127 122.808 328.127 109.141 329.5 95.5C328.973 78.6217 322.64 64.4551 310.5 53C302.008 45.7524 292.342 40.5858 281.5 37.5C259.227 30.1779 237.227 31.0112 215.5 40C211.612 41.3926 208.946 43.8926 207.5 47.5C201.919 49.5846 198.086 53.5846 196 59.5C195.144 64.5565 194.144 69.5565 193 74.5C188 76.8333 184.333 80.5 182 85.5C178.32 99.3003 177.486 113.3 179.5 127.5C179.5 130.5 179.5 133.5 179.5 136.5C176.491 136.423 174.324 137.756 173 140.5C172.304 144.905 172.637 149.239 174 153.5C177.193 160.577 179.693 167.911 181.5 175.5C183.817 179.09 187.151 180.423 191.5 179.5C192.157 200.591 199.991 218.591 215 233.5C215.497 235.81 215.663 238.143 215.5 240.5C213.119 243.56 211.119 246.894 209.5 250.5C207.801 250.34 206.134 250.506 204.5 251C203.692 252.706 202.359 253.539 200.5 253.5C199.327 244.21 197.327 235.21 194.5 226.5C192.868 221.422 189.868 217.255 185.5 214C170.421 208.631 155.421 202.964 140.5 197C139.419 194.315 137.752 192.149 135.5 190.5C132.167 188.5 128.833 186.5 125.5 184.5C117.49 182.457 113.49 177.124 113.5 168.5C123.307 158.113 129.307 145.78 131.5 131.5C132.1 130.1 133.1 129.1 134.5 128.5C136.606 127.434 138.106 125.767 139 123.5C141.028 117.591 142.528 111.591 143.5 105.5C143.357 102.887 142.69 100.553 141.5 98.5C141.5 98.1667 141.5 97.8333 141.5 97.5C141.5 97.1667 141.5 96.8333 141.5 96.5C142.762 89.0312 143.429 81.3645 143.5 73.5C143.745 64.7925 143.411 56.1258 142.5 47.5C152.245 41.9682 162.579 37.4682 173.5 34C184.716 31.0957 196.05 28.0957 207.5 25C230.724 21.4051 254.057 20.5718 277.5 22.5Z" fill="#FCDB41"/>
<path fill-rule="evenodd" clip-rule="evenodd" d="M281.5 37.5C284.403 39.245 284.07 40.245 280.5 40.5C278.5 39.8333 276.5 39.1667 274.5 38.5C261.907 40.0488 249.241 41.0488 236.5 41.5C239.785 42.3236 243.118 42.8236 246.5 43C242.773 47.0522 241.106 51.8856 241.5 57.5C241.81 65.7119 244.477 72.3786 249.5 77.5C248.675 78.3857 247.675 78.719 246.5 78.5C208.471 66.0327 191.304 79.6994 195 119.5C191.784 125.344 189.284 131.344 187.5 137.5C185.621 136.659 183.621 136.325 181.5 136.5C181.324 133.273 180.657 130.273 179.5 127.5C177.486 113.3 178.32 99.3003 182 85.5C184.333 80.5 188 76.8333 193 74.5C194.144 69.5565 195.144 64.5565 196 59.5C198.086 53.5846 201.919 49.5846 207.5 47.5C208.946 43.8926 211.612 41.3926 215.5 40C237.227 31.0112 259.227 30.1779 281.5 37.5Z" fill="#BD6242"/>
<path fill-rule="evenodd" clip-rule="evenodd" d="M425.5 52.5C425.665 55.5184 425.498 58.5184 425 61.5C424.292 62.3805 423.458 63.0472 422.5 63.5C420.167 63.5 417.833 63.5 415.5 63.5C415.737 62.209 415.404 61.209 414.5 60.5C414.5 57.5 414.5 54.5 414.5 51.5C418.371 51.185 422.038 51.5184 425.5 52.5Z" fill="#F8465A"/>
<path fill-rule="evenodd" clip-rule="evenodd" d="M90.5 55.5C94.247 55.3924 97.9137 55.8924 101.5 57C116.23 60.5599 124.896 69.7266 127.5 84.5C124.262 77.7649 119.095 72.7649 112 69.5C108.227 68.2705 104.394 67.2705 100.5 66.5C100.291 65.914 99.9574 65.414 99.5 65C92.8417 64.5004 86.175 64.3337 79.5 64.5C81.0419 63.8365 82.7086 63.1698 84.5 62.5C82.4789 56.9061 84.4789 54.5728 90.5 55.5Z" fill="#6687C8"/>
<path fill-rule="evenodd" clip-rule="evenodd" d="M84.5 54.5C86.7354 54.2053 88.7354 54.5386 90.5 55.5C84.4789 54.5728 82.4789 56.9061 84.5 62.5C82.7086 63.1698 81.0419 63.8365 79.5 64.5C72.1953 64.7156 65.5287 66.7156 59.5 70.5C52.198 72.805 47.198 77.4716 44.5 84.5C44.7641 79.4461 46.2641 74.7795 49 70.5C58.5722 60.2496 70.4056 54.9163 84.5 54.5Z" fill="#5170B4"/>
<path fill-rule="evenodd" clip-rule="evenodd" d="M281.5 37.5C292.342 40.5858 302.008 45.7524 310.5 53C322.64 64.4551 328.973 78.6217 329.5 95.5C328.127 109.141 327.127 122.808 326.5 136.5C323.941 136.198 321.607 136.532 319.5 137.5C317.504 131.704 315.004 126.037 312 120.5C311.667 112.167 311.333 103.833 311 95.5C309.097 89.8008 306.597 84.4675 303.5 79.5C299.661 77.7549 295.661 76.2549 291.5 75C280.127 73.4504 269.127 74.7837 258.5 79C255.518 79.498 252.518 79.6646 249.5 79.5C248.209 79.7373 247.209 79.404 246.5 78.5C247.675 78.719 248.675 78.3857 249.5 77.5C244.477 72.3786 241.81 65.7119 241.5 57.5C241.106 51.8856 242.773 47.0522 246.5 43C243.118 42.8236 239.785 42.3236 236.5 41.5C249.241 41.0488 261.907 40.0488 274.5 38.5C276.5 39.1667 278.5 39.8333 280.5 40.5C284.07 40.245 284.403 39.245 281.5 37.5Z" fill="#D0714B"/>
<path fill-rule="evenodd" clip-rule="evenodd" d="M30.5001 47.5C30.8554 52.8489 31.0221 58.1822 31.0001 63.5C30.6668 61.5 30.3334 59.5 30.0001 57.5C29.0094 58.4296 28.5094 59.5962 28.5001 61C30.3189 72.7499 30.9856 84.5833 30.5001 96.5C29.43 84.8276 28.43 72.9942 27.5001 61C27.3469 56.1244 28.3469 51.6244 30.5001 47.5Z" fill="#4A5B8E"/>
<path fill-rule="evenodd" clip-rule="evenodd" d="M246.5 78.5C247.209 79.404 248.209 79.7373 249.5 79.5C247.201 83.3328 245.034 87.3328 243 91.5C241.771 101.441 241.104 111.441 241 121.5C238.68 127.132 236.347 132.799 234 138.5C233.333 142.833 233.333 147.167 234 151.5C236.124 168.492 238.124 185.492 240 202.5C242.057 205.028 243.057 208.028 243 211.5C247.66 214.563 250.827 218.896 252.5 224.5C259.179 232.017 266.179 238.85 273.5 245C274.759 245.982 276.092 246.315 277.5 246C281.782 242.195 286.115 238.695 290.5 235.5C290.343 236.873 290.51 238.207 291 239.5C292.731 243.506 294.898 247.172 297.5 250.5C294.306 252.51 291.306 254.843 288.5 257.5C281.6 266.025 274.267 274.025 266.5 281.5C257.595 281.34 248.595 281.34 239.5 281.5C239.5 281.167 239.5 280.833 239.5 280.5C240.873 280.657 242.207 280.49 243.5 280C244.158 278.095 245.325 276.595 247 275.5C248.444 268.177 249.444 260.843 250 253.5C244.764 252.122 239.597 250.622 234.5 249C230.404 246.295 226.07 243.962 221.5 242C222.308 241.692 222.975 241.192 223.5 240.5C222.5 239.833 221.5 239.167 220.5 238.5C221.645 237.109 221.645 235.776 220.5 234.5C219.772 236.193 218.772 237.693 217.5 239C218.567 241.427 217.9 241.927 215.5 240.5C215.663 238.143 215.497 235.81 215 233.5C199.991 218.591 192.157 200.591 191.5 179.5C189.384 165.842 188.051 151.842 187.5 137.5C189.284 131.344 191.784 125.344 195 119.5C191.304 79.6994 208.471 66.0327 246.5 78.5Z" fill="#FDAA7B"/>
<path fill-rule="evenodd" clip-rule="evenodd" d="M79.5 64.5C86.175 64.3337 92.8417 64.5004 99.5 65C99.9574 65.414 100.291 65.914 100.5 66.5C104.394 67.2705 108.227 68.2705 112 69.5C119.095 72.7649 124.262 77.7649 127.5 84.5C128.542 88.9455 130.542 92.9455 133.5 96.5C136.086 97.48 138.753 97.8134 141.5 97.5C141.5 97.8333 141.5 98.1667 141.5 98.5C136.689 97.7401 133.022 99.4068 130.5 103.5C131.325 104.386 132.325 104.719 133.5 104.5C133.771 106.821 133.104 108.821 131.5 110.5C132.043 114.342 133.043 118.009 134.5 121.5C133.305 123.894 133.305 126.227 134.5 128.5C133.1 129.1 132.1 130.1 131.5 131.5C123.481 128.828 116.148 124.828 109.5 119.5C96.1566 114.083 82.4899 113.083 68.5 116.5C67.8519 114.914 67.3519 113.247 67 111.5C66.3333 101.833 66.3333 92.1667 67 82.5C68.6033 79.3885 70.4366 76.3885 72.5 73.5C68.3641 71.7536 64.0308 70.7536 59.5 70.5C65.5287 66.7156 72.1953 64.7156 79.5 64.5Z" fill="#F09E8A"/>
<path fill-rule="evenodd" clip-rule="evenodd" d="M59.5 70.5C64.0308 70.7536 68.3641 71.7536 72.5 73.5C70.4366 76.3885 68.6033 79.3885 67 82.5C66.3333 92.1667 66.3333 101.833 67 111.5C67.3519 113.247 67.8519 114.914 68.5 116.5C66.9275 117.687 65.2608 118.687 63.5 119.5C57.1565 123.337 50.8232 127.171 44.5 131C43.2068 131.49 41.8734 131.657 40.5 131.5C39.1979 129.972 37.5313 128.972 35.5 128.5C37.1667 128.5 38.8333 128.5 40.5 128.5C39.778 119.831 38.9447 111.165 38 102.5C36.148 97.4137 34.9813 97.4137 34.5 102.5C32.857 102.52 31.5237 101.853 30.5 100.5C29.8165 100.863 29.1499 101.196 28.5 101.5C28.427 99.9731 29.0937 98.9731 30.5 98.5C33.4726 97.9159 36.4726 97.2492 39.5 96.5C41.1818 92.4742 42.8485 88.4742 44.5 84.5C47.198 77.4716 52.198 72.805 59.5 70.5Z" fill="#E48A6B"/>
<path fill-rule="evenodd" clip-rule="evenodd" d="M319.5 137.5C318.073 151.492 316.739 165.492 315.5 179.5C314.149 187.586 312.649 195.586 311 203.5C308.936 207.142 306.769 210.642 304.5 214C303.767 215.766 303.433 217.599 303.5 219.5C302.5 219.5 301.5 219.5 300.5 219.5C300.657 220.873 300.49 222.207 300 223.5C296.969 227.687 293.803 231.687 290.5 235.5C286.115 238.695 281.782 242.195 277.5 246C276.092 246.315 274.759 245.982 273.5 245C266.179 238.85 259.179 232.017 252.5 224.5C250.827 218.896 247.66 214.563 243 211.5C243.057 208.028 242.057 205.028 240 202.5C238.124 185.492 236.124 168.492 234 151.5C233.333 147.167 233.333 142.833 234 138.5C236.347 132.799 238.68 127.132 241 121.5C241.104 111.441 241.771 101.441 243 91.5C245.034 87.3328 247.201 83.3328 249.5 79.5C252.518 79.6646 255.518 79.498 258.5 79C269.127 74.7837 280.127 73.4504 291.5 75C295.661 76.2549 299.661 77.7549 303.5 79.5C306.597 84.4675 309.097 89.8008 311 95.5C311.333 103.833 311.667 112.167 312 120.5C315.004 126.037 317.504 131.704 319.5 137.5Z" fill="#FEC6AB"/>
<path fill-rule="evenodd" clip-rule="evenodd" d="M410.5 74.5C428.848 74.2132 446.515 77.2132 463.5 83.5C464.059 87.9519 465.725 91.9519 468.5 95.5C469.046 105.202 469.046 114.869 468.5 124.5C470.167 124.5 471.833 124.5 473.5 124.5C471.891 125.771 470.058 126.771 468 127.5C465.524 134.427 463.357 141.427 461.5 148.5C458.356 155.168 454.523 161.501 450 167.5C448.991 169.025 448.491 170.692 448.5 172.5C447.577 171.697 446.577 171.53 445.5 172C442.026 174.638 438.693 177.471 435.5 180.5C433.269 179.097 430.936 177.93 428.5 177C406.171 154.519 396.838 127.352 400.5 95.5C401.743 92.6806 403.243 90.0139 405 87.5C405.497 84.854 405.664 82.1873 405.5 79.5C403.473 79.6621 401.473 79.4955 399.5 79C408.811 77.8449 408.811 77.0116 399.5 76.5C403.167 75.8333 406.833 75.1667 410.5 74.5Z" fill="#FDC6AB"/>
<path fill-rule="evenodd" clip-rule="evenodd" d="M143.5 73.5C143.429 81.3645 142.762 89.0312 141.5 96.5C141.361 88.618 142.028 80.9514 143.5 73.5Z" fill="#A8A074"/>
<path fill-rule="evenodd" clip-rule="evenodd" d="M473.5 124.5C471.833 124.5 470.167 124.5 468.5 124.5C469.046 114.869 469.046 105.202 468.5 95.5C478.45 91.9295 482.616 95.5962 481 106.5C479.282 110.995 477.949 115.662 477 120.5C476.34 122.324 475.173 123.657 473.5 124.5Z" fill="#F9A97B"/>
<path fill-rule="evenodd" clip-rule="evenodd" d="M475.5 71.5C481.178 80.8536 486.345 90.5202 491 100.5C491.151 110.208 490.818 119.875 490 129.5C490.471 131.246 491.138 132.913 492 134.5C499.215 139.644 502.715 146.644 502.5 155.5C486.389 165.539 472.722 163.206 461.5 148.5C463.357 141.427 465.524 134.427 468 127.5C470.058 126.771 471.891 125.771 473.5 124.5C475.173 123.657 476.34 122.324 477 120.5C477.949 115.662 479.282 110.995 481 106.5C482.616 95.5962 478.45 91.9295 468.5 95.5C465.725 91.9519 464.059 87.9519 463.5 83.5C465.527 83.6621 467.527 83.4955 469.5 83C472.935 79.8237 474.935 75.9903 475.5 71.5Z" fill="#6E5E77"/>
<path fill-rule="evenodd" clip-rule="evenodd" d="M374.5 95.5C373.635 103.466 373.302 111.466 373.5 119.5C372.448 119.351 371.448 119.517 370.5 120C374.459 123.638 373.459 125.138 367.5 124.5C365.331 118.927 363.165 113.26 361 107.5C358.744 95.4136 363.244 91.4136 374.5 95.5Z" fill="#F69462"/>
<path fill-rule="evenodd" clip-rule="evenodd" d="M141.5 98.5C142.69 100.553 143.357 102.887 143.5 105.5C142.528 111.591 141.028 117.591 139 123.5C138.106 125.767 136.606 127.434 134.5 128.5C133.305 126.227 133.305 123.894 134.5 121.5C133.043 118.009 132.043 114.342 131.5 110.5C133.104 108.821 133.771 106.821 133.5 104.5C132.325 104.719 131.325 104.386 130.5 103.5C133.022 99.4068 136.689 97.7401 141.5 98.5Z" fill="#E68C69"/>
<path fill-rule="evenodd" clip-rule="evenodd" d="M35.5 128.5C34.0927 126.692 32.926 124.692 32 122.5C31.5361 117.904 30.2028 113.571 28 109.5C27.1993 106.633 27.3659 103.966 28.5 101.5C29.1499 101.196 29.8165 100.863 30.5 100.5C31.5237 101.853 32.857 102.52 34.5 102.5C34.9813 97.4137 36.148 97.4137 38 102.5C38.9447 111.165 39.778 119.831 40.5 128.5C38.8333 128.5 37.1667 128.5 35.5 128.5Z" fill="#D1714F"/>
<path fill-rule="evenodd" clip-rule="evenodd" d="M131.5 131.5C129.307 145.78 123.307 158.113 113.5 168.5C109.791 173.862 104.791 177.528 98.5 179.5C98.4142 178.504 98.7476 177.671 99.5 177C95.0406 173.876 90.8739 170.376 87 166.5C84.8356 164.52 83.3356 162.187 82.5 159.5C81.5 159.5 80.5 159.5 79.5 159.5C78.2843 154.378 76.451 149.378 74 144.5C72.3333 138.5 70.6667 132.5 69 126.5C67.4002 125.134 65.5668 124.134 63.5 123.5C65.0453 122.548 66.712 122.215 68.5 122.5C68.5 121.5 68.5 120.5 68.5 119.5C66.8333 119.5 65.1667 119.5 63.5 119.5C65.2608 118.687 66.9275 117.687 68.5 116.5C82.4899 113.083 96.1566 114.083 109.5 119.5C116.148 124.828 123.481 128.828 131.5 131.5Z" fill="#E9EEFB"/>
<path fill-rule="evenodd" clip-rule="evenodd" d="M365.5 74.5C366.817 82.1599 371.15 84.8266 378.5 82.5C378.662 84.5273 378.495 86.5273 378 88.5C376.295 90.5766 375.128 92.91 374.5 95.5C363.244 91.4136 358.744 95.4136 361 107.5C363.165 113.26 365.331 118.927 367.5 124.5C369.515 125.924 371.848 126.59 374.5 126.5C377.487 141.983 383.654 155.983 393 168.5C393.64 170.265 393.473 171.932 392.5 173.5C388.548 180.453 383.214 186.12 376.5 190.5C370.855 193.322 365.189 196.156 359.5 199C356.647 200.43 353.647 201.263 350.5 201.5C348.74 198.311 347.24 194.978 346 191.5C345.667 184.833 345.333 178.167 345 171.5C339.749 165.076 337.749 157.742 339 149.5C341.825 143.171 345.658 137.504 350.5 132.5C351.682 124.291 351.348 116.124 349.5 108C351.699 95.4311 357.033 84.2645 365.5 74.5Z" fill="#57425E"/>
<path fill-rule="evenodd" clip-rule="evenodd" d="M179.5 127.5C180.657 130.273 181.324 133.273 181.5 136.5C183.621 136.325 185.621 136.659 187.5 137.5C188.051 151.842 189.384 165.842 191.5 179.5C187.151 180.423 183.817 179.09 181.5 175.5C179.693 167.911 177.193 160.577 174 153.5C172.637 149.239 172.304 144.905 173 140.5C174.324 137.756 176.491 136.423 179.5 136.5C179.5 133.5 179.5 130.5 179.5 127.5Z" fill="#F9975E"/>
<path fill-rule="evenodd" clip-rule="evenodd" d="M461.5 148.5C472.722 163.206 486.389 165.539 502.5 155.5C502.322 158.216 501.822 160.883 501 163.5C498.566 166.795 496.899 170.462 496 174.5C495.84 181.563 495.173 188.563 494 195.5C492.807 197.886 491.64 200.22 490.5 202.5C481.13 198.982 472.13 194.649 463.5 189.5C456.671 185.344 451.671 179.677 448.5 172.5C448.491 170.692 448.991 169.025 450 167.5C454.523 161.501 458.356 155.168 461.5 148.5Z" fill="#56425E"/>
<path fill-rule="evenodd" clip-rule="evenodd" d="M47.5 153.5C50.4276 159.723 54.0943 165.39 58.5 170.5C57.4695 176.591 54.4695 181.258 49.5 184.5C48.7494 183.427 47.7494 183.26 46.5 184C43.3423 186.497 39.8423 188.33 36 189.5C34.3568 191.758 32.8568 194.092 31.5 196.5C27.1829 198.324 22.8496 199.991 18.5 201.5C17.8761 201.083 17.5427 200.416 17.5 199.5C21.6753 184.435 27.5086 170.102 35 156.5C35.6307 151.048 38.1307 146.714 42.5 143.5C44.0991 147.031 45.7658 150.364 47.5 153.5Z" fill="#FBDC44"/>
<path fill-rule="evenodd" clip-rule="evenodd" d="M326.5 136.5C329.155 137.001 331.322 138.334 333 140.5C333.596 145.88 333.262 151.213 332 156.5C328.523 162.392 326.356 168.725 325.5 175.5C324.5 175.5 323.5 175.5 322.5 175.5C322.5 176.5 322.5 177.5 322.5 178.5C320.194 178.993 317.861 179.326 315.5 179.5C316.739 165.492 318.073 151.492 319.5 137.5C321.607 136.532 323.941 136.198 326.5 136.5Z" fill="#FBAB7A"/>
<path fill-rule="evenodd" clip-rule="evenodd" d="M63.5 119.5C65.1667 119.5 66.8333 119.5 68.5 119.5C68.5 120.5 68.5 121.5 68.5 122.5C66.712 122.215 65.0453 122.548 63.5 123.5C65.5668 124.134 67.4002 125.134 69 126.5C70.6667 132.5 72.3333 138.5 74 144.5C76.451 149.378 78.2843 154.378 79.5 159.5C80.5 159.5 81.5 159.5 82.5 159.5C83.3356 162.187 84.8356 164.52 87 166.5C90.8739 170.376 95.0406 173.876 99.5 177C98.7476 177.671 98.4142 178.504 98.5 179.5C94.167 181.502 89.5003 182.502 84.5 182.5C77.9374 182.591 71.9374 180.758 66.5 177C64.2736 174.272 61.607 172.105 58.5 170.5C54.0943 165.39 50.4276 159.723 47.5 153.5C45.021 146.148 42.6877 138.815 40.5 131.5C41.8734 131.657 43.2068 131.49 44.5 131C50.8232 127.171 57.1565 123.337 63.5 119.5Z" fill="#D3DBF9"/>
<path fill-rule="evenodd" clip-rule="evenodd" d="M399.5 76.5C408.811 77.0116 408.811 77.8449 399.5 79C401.473 79.4955 403.473 79.6621 405.5 79.5C405.664 82.1873 405.497 84.854 405 87.5C403.243 90.0139 401.743 92.6806 400.5 95.5C396.838 127.352 406.171 154.519 428.5 177C430.936 177.93 433.269 179.097 435.5 180.5C438.693 177.471 442.026 174.638 445.5 172C446.577 171.53 447.577 171.697 448.5 172.5C451.671 179.677 456.671 185.344 463.5 189.5C464.141 196.821 462.975 203.821 460 210.5C458.984 218.561 457.651 226.561 456 234.5C452.002 236.14 447.836 237.307 443.5 238C442.944 238.383 442.611 238.883 442.5 239.5C430.675 240.648 419.008 240.648 407.5 239.5C409.167 239.5 410.833 239.5 412.5 239.5C417.041 224.179 419.708 208.512 420.5 192.5C421.758 185.964 419.092 183.13 412.5 184C408.739 181.235 404.739 178.902 400.5 177C397.817 175.155 396.15 172.655 395.5 169.5C394.719 170.729 394.219 172.062 394 173.5C393.31 174.738 392.81 174.738 392.5 173.5C393.473 171.932 393.64 170.265 393 168.5C383.654 155.983 377.487 141.983 374.5 126.5C371.848 126.59 369.515 125.924 367.5 124.5C373.459 125.138 374.459 123.638 370.5 120C371.448 119.517 372.448 119.351 373.5 119.5C373.302 111.466 373.635 103.466 374.5 95.5C375.128 92.91 376.295 90.5766 378 88.5C378.495 86.5273 378.662 84.5273 378.5 82.5C385.247 79.6966 392.247 77.6966 399.5 76.5Z" fill="#FCAA7A"/>
<path fill-rule="evenodd" clip-rule="evenodd" d="M407.5 239.5C405.5 239.5 403.5 239.5 401.5 239.5C397.055 239.068 392.721 238.068 388.5 236.5C386.485 235.475 385.152 233.808 384.5 231.5C381.856 217.844 379.189 204.178 376.5 190.5C383.214 186.12 388.548 180.453 392.5 173.5C392.81 174.738 393.31 174.738 394 173.5C394.219 172.062 394.719 170.729 395.5 169.5C396.15 172.655 397.817 175.155 400.5 177C404.739 178.902 408.739 181.235 412.5 184C419.092 183.13 421.758 185.964 420.5 192.5C419.708 208.512 417.041 224.179 412.5 239.5C410.833 239.5 409.167 239.5 407.5 239.5Z" fill="#FA9460"/>
<path fill-rule="evenodd" clip-rule="evenodd" d="M58.5 170.5C61.607 172.105 64.2736 174.272 66.5 177C71.9374 180.758 77.9374 182.591 84.5 182.5C85.209 183.404 86.209 183.737 87.5 183.5C86.2621 197.456 82.0954 210.456 75 222.5C73.6439 223.38 72.1439 223.714 70.5 223.5C68.8657 222.045 67.5324 220.378 66.5 218.5C65.5 217.167 64.5 215.833 63.5 214.5C58.8388 204.51 54.1721 194.51 49.5 184.5C54.4695 181.258 57.4695 176.591 58.5 170.5Z" fill="#D0704B"/>
<path fill-rule="evenodd" clip-rule="evenodd" d="M113.5 168.5C113.49 177.124 117.49 182.457 125.5 184.5C124.167 184.5 122.833 184.5 121.5 184.5C114.489 205.525 103.156 223.859 87.5 239.5C86.8501 239.804 86.1835 240.137 85.5 240.5C83.9716 239.139 82.3049 237.972 80.5 237C77.3637 232.362 74.0303 227.862 70.5 223.5C72.1439 223.714 73.6439 223.38 75 222.5C82.0954 210.456 86.2621 197.456 87.5 183.5C86.209 183.737 85.209 183.404 84.5 182.5C89.5003 182.502 94.167 181.502 98.5 179.5C104.791 177.528 109.791 173.862 113.5 168.5Z" fill="#E58A6B"/>
<path fill-rule="evenodd" clip-rule="evenodd" d="M49.5 184.5C54.1721 194.51 58.8388 204.51 63.5 214.5C61.9743 213.895 60.9743 212.729 60.5 211C58.5581 211.409 57.2248 212.743 56.5 215C57.8561 216.567 58.5228 218.4 58.5 220.5C57.5 220.5 56.5 220.5 55.5 220.5C54.4233 217.474 54.4233 214.474 55.5 211.5C54.081 209.042 53.081 206.375 52.5 203.5C51.8333 205.5 51.1667 207.5 50.5 209.5C49.3145 206.407 47.9812 203.407 46.5 200.5C45.3801 201.833 44.0468 202.333 42.5 202C44.3604 200.14 46.1937 198.306 48 196.5C48.2022 198.256 48.7022 199.922 49.5 201.5C51.8539 198.794 52.5206 195.794 51.5 192.5C47.8026 192.001 44.4693 190.667 41.5 188.5C40.8333 188.833 40.1667 189.167 39.5 189.5C42.3299 189.994 43.6632 191.661 43.5 194.5C41.2489 198.702 39.5822 203.035 38.5 207.5C36.8707 204.217 34.204 201.883 30.5 200.5C31.6888 199.571 33.0222 199.238 34.5 199.5C34.5 198.5 34.5 197.5 34.5 196.5C33.5 196.5 32.5 196.5 31.5 196.5C32.8568 194.092 34.3568 191.758 36 189.5C39.8423 188.33 43.3423 186.497 46.5 184C47.7494 183.26 48.7494 183.427 49.5 184.5Z" fill="#5770AA"/>
<path fill-rule="evenodd" clip-rule="evenodd" d="M125.5 184.5C128.833 186.5 132.167 188.5 135.5 190.5C133.075 190.684 133.075 191.351 135.5 192.5C134.659 195.251 135.659 197.418 138.5 199C137.5 199.5 136.5 200 135.5 200.5C128.051 221.673 116.051 239.673 99.5 254.5C99.631 253.761 99.4643 253.094 99 252.5C95.6868 250.021 92.5202 247.355 89.5 244.5C87.7244 246.447 85.7244 246.78 83.5 245.5C82.407 243.651 81.0737 241.984 79.5 240.5C80.325 239.614 81.325 239.281 82.5 239.5C82.5 240.5 82.5 241.5 82.5 242.5C84.1667 242.5 85.8333 242.5 87.5 242.5C87.5 241.5 87.5 240.5 87.5 239.5C103.156 223.859 114.489 205.525 121.5 184.5C122.833 184.5 124.167 184.5 125.5 184.5Z" fill="#5172B5"/>
<path fill-rule="evenodd" clip-rule="evenodd" d="M135.5 190.5C137.752 192.149 139.419 194.315 140.5 197C155.421 202.964 170.421 208.631 185.5 214C189.868 217.255 192.868 221.422 194.5 226.5C194.361 229.757 193.694 232.924 192.5 236C192.639 240.717 193.639 241.217 195.5 237.5C196.68 240.453 196.347 243.286 194.5 246C194.667 246.5 194.833 247 195 247.5C196.471 245.128 197.637 245.128 198.5 247.5C198.499 250.166 198.499 252.833 198.5 255.5C192.401 259.083 186.401 262.917 180.5 267C178.946 269.287 177.279 271.454 175.5 273.5C159.457 280.015 143.123 285.849 126.5 291C111.019 297.766 102.186 309.599 99.9998 326.5C91.4651 364.45 85.6318 402.784 82.4998 441.5C74.8855 434.289 67.7189 426.622 60.9998 418.5C19.2143 364.025 2.38094 302.692 10.4998 234.5C10.2146 236.288 10.5479 237.955 11.4998 239.5C13.7867 234.482 14.9533 229.149 14.9998 223.5C14.926 234.831 14.926 246.164 14.9998 257.5C21.0462 248.891 29.2128 243.391 39.4998 241C45.3274 239.961 50.9941 238.795 56.4998 237.5C56.8331 237.5 57.1665 237.5 57.4998 237.5C64.958 248.125 73.958 257.292 84.4998 265C86.1665 265.667 87.8331 265.667 89.4998 265C93.0372 261.631 96.3705 258.131 99.4998 254.5C116.051 239.673 128.051 221.673 135.5 200.5C136.5 200 137.5 199.5 138.5 199C135.659 197.418 134.659 195.251 135.5 192.5C133.075 191.351 133.075 190.684 135.5 190.5Z" fill="#3C58A0"/>
<path fill-rule="evenodd" clip-rule="evenodd" d="M376.5 190.5C379.189 204.178 381.856 217.844 384.5 231.5C385.152 233.808 386.485 235.475 388.5 236.5C387.5 236.5 386.5 236.5 385.5 236.5C388.176 253.554 391.176 270.554 394.5 287.5C393.325 287.281 392.325 287.614 391.5 288.5C392.53 288.554 393.697 288.888 395 289.5C395.813 291.436 396.313 293.436 396.5 295.5C394.516 295.617 392.85 294.95 391.5 293.5C390.478 293.855 389.811 294.522 389.5 295.5C378.886 290.595 367.886 286.762 356.5 284C347.659 280.41 338.993 276.576 330.5 272.5C323.278 265.875 315.278 260.209 306.5 255.5C307.299 252.57 307.632 249.57 307.5 246.5C308.214 240.095 309.381 233.761 311 227.5C312.606 222.746 315.439 219.079 319.5 216.5C321.977 217.12 321.977 218.12 319.5 219.5C319.833 219.833 320.167 220.167 320.5 220.5C322.115 219.846 323.782 219.346 325.5 219C321.457 215.96 321.624 214.794 326 215.5C326.667 214.833 327.333 214.167 328 213.5C332.137 214.57 335.804 213.57 339 210.5C339.483 209.552 339.649 208.552 339.5 207.5C343.485 206.062 347.151 204.062 350.5 201.5C353.647 201.263 356.647 200.43 359.5 199C365.189 196.156 370.855 193.322 376.5 190.5Z" fill="#4AB1F6"/>
<path fill-rule="evenodd" clip-rule="evenodd" d="M31.5 196.5C32.5 196.5 33.5 196.5 34.5 196.5C34.5 197.5 34.5 198.5 34.5 199.5C33.0222 199.238 31.6888 199.571 30.5 200.5C34.204 201.883 36.8707 204.217 38.5 207.5C43.4938 218.163 49.4938 228.163 56.5 237.5C50.9943 238.795 45.3276 239.961 39.5 241C29.213 243.391 21.0464 248.891 15 257.5C14.9262 246.164 14.9262 234.831 15 223.5C14.9535 229.149 13.7869 234.482 11.5 239.5C10.5481 237.955 10.2148 236.288 10.5 234.5C11.4599 225.74 12.9599 217.074 15 208.5C15.139 205.555 16.3057 203.221 18.5 201.5C22.8496 199.991 27.1829 198.324 31.5 196.5Z" fill="#2B428C"/>
<path fill-rule="evenodd" clip-rule="evenodd" d="M463.5 189.5C472.13 194.649 481.13 198.982 490.5 202.5C503.855 256.219 500.189 308.552 479.5 359.5C473.853 357.67 467.853 356.17 461.5 355C446.484 344.459 439.984 329.959 442 311.5C446.571 286.565 451.404 261.732 456.5 237C452.748 236.024 452.082 236.69 454.5 239C453.833 239.167 453.167 239.333 452.5 239.5C449.147 238.173 445.814 238.173 442.5 239.5C442.611 238.883 442.944 238.383 443.5 238C447.836 237.307 452.002 236.14 456 234.5C457.651 226.561 458.984 218.561 460 210.5C462.975 203.821 464.141 196.821 463.5 189.5Z" fill="#74C2F8"/>
<path fill-rule="evenodd" clip-rule="evenodd" d="M339.5 207.5C339.649 208.552 339.483 209.552 339 210.5C335.804 213.57 332.137 214.57 328 213.5C327.333 214.167 326.667 214.833 326 215.5C321.624 214.794 321.457 215.96 325.5 219C323.782 219.346 322.115 219.846 320.5 220.5C320.167 220.167 319.833 219.833 319.5 219.5C321.977 218.12 321.977 217.12 319.5 216.5C320.96 214.537 322.627 212.704 324.5 211C329.559 209.65 334.559 208.484 339.5 207.5Z" fill="#62B5DE"/>
<path fill-rule="evenodd" clip-rule="evenodd" d="M63.5 214.5C64.5 215.833 65.5 217.167 66.5 218.5C66.719 219.675 66.3857 220.675 65.5 221.5C64.6667 220.5 63.8333 219.5 63 218.5C62.6413 222.48 64.308 223.813 68 222.5C68.6667 223.5 68.6667 224.5 68 225.5C61.7829 227.212 58.2829 231.212 57.5 237.5C57.1667 237.5 56.8333 237.5 56.5 237.5C49.4938 228.163 43.4938 218.163 38.5 207.5C39.5822 203.035 41.2489 198.702 43.5 194.5C43.6632 191.661 42.3299 189.994 39.5 189.5C40.1667 189.167 40.8333 188.833 41.5 188.5C44.4693 190.667 47.8026 192.001 51.5 192.5C52.5206 195.794 51.8539 198.794 49.5 201.5C48.7022 199.922 48.2022 198.256 48 196.5C46.1937 198.306 44.3604 200.14 42.5 202C44.0468 202.333 45.3801 201.833 46.5 200.5C47.9812 203.407 49.3145 206.407 50.5 209.5C51.1667 207.5 51.8333 205.5 52.5 203.5C53.081 206.375 54.081 209.042 55.5 211.5C54.4233 214.474 54.4233 217.474 55.5 220.5C56.5 220.5 57.5 220.5 58.5 220.5C58.5228 218.4 57.8561 216.567 56.5 215C57.2248 212.743 58.5581 211.409 60.5 211C60.9743 212.729 61.9743 213.895 63.5 214.5Z" fill="#4E71B8"/>
<path fill-rule="evenodd" clip-rule="evenodd" d="M66.5 218.5C67.5324 220.378 68.8657 222.045 70.5 223.5C74.0303 227.862 77.3637 232.362 80.5 237C82.3049 237.972 83.9716 239.139 85.5 240.5C86.1835 240.137 86.8501 239.804 87.5 239.5C87.5 240.5 87.5 241.5 87.5 242.5C85.8333 242.5 84.1667 242.5 82.5 242.5C82.5 241.5 82.5 240.5 82.5 239.5C81.325 239.281 80.325 239.614 79.5 240.5C81.0737 241.984 82.407 243.651 83.5 245.5C85.7244 246.78 87.7244 246.447 89.5 244.5C92.5202 247.355 95.6868 250.021 99 252.5C99.4643 253.094 99.631 253.761 99.5 254.5C96.3707 258.131 93.0374 261.631 89.5 265C87.8333 265.667 86.1667 265.667 84.5 265C73.9582 257.292 64.9582 248.125 57.5 237.5C58.2829 231.212 61.7829 227.212 68 225.5C68.6667 224.5 68.6667 223.5 68 222.5C64.308 223.813 62.6413 222.48 63 218.5C63.8333 219.5 64.6667 220.5 65.5 221.5C66.3857 220.675 66.719 219.675 66.5 218.5Z" fill="#6288CA"/>
<path fill-rule="evenodd" clip-rule="evenodd" d="M194.5 226.5C197.327 235.21 199.327 244.21 200.5 253.5C200.833 254.167 201.167 254.833 201.5 255.5C200.5 255.5 199.5 255.5 198.5 255.5C198.499 252.833 198.499 250.166 198.5 247.5C197.637 245.128 196.471 245.128 195 247.5C194.833 247 194.667 246.5 194.5 246C196.347 243.286 196.68 240.453 195.5 237.5C193.639 241.217 192.639 240.717 192.5 236C193.694 232.924 194.361 229.757 194.5 226.5Z" fill="#48618A"/>
<path fill-rule="evenodd" clip-rule="evenodd" d="M239.5 280.5C229.785 270.119 219.785 260.119 209.5 250.5C211.119 246.894 213.119 243.56 215.5 240.5C217.9 241.927 218.567 241.427 217.5 239C218.772 237.693 219.772 236.193 220.5 234.5C221.645 235.776 221.645 237.109 220.5 238.5C221.5 239.167 222.5 239.833 223.5 240.5C222.975 241.192 222.308 241.692 221.5 242C226.07 243.962 230.404 246.295 234.5 249C239.597 250.622 244.764 252.122 250 253.5C249.444 260.843 248.444 268.177 247 275.5C245.325 276.595 244.158 278.095 243.5 280C242.207 280.49 240.873 280.657 239.5 280.5Z" fill="#F99561"/>
<path fill-rule="evenodd" clip-rule="evenodd" d="M306.5 255.5C315.278 260.209 323.278 265.875 330.5 272.5C330.016 275.716 330.016 279.049 330.5 282.5C332.167 282.5 333.833 282.5 335.5 282.5C335.5 283.5 335.5 284.5 335.5 285.5C333.712 285.215 332.045 285.548 330.5 286.5C331.452 296.146 332.452 305.812 333.5 315.5C333.438 318.873 331.771 321.04 328.5 322C321.461 322.505 314.461 322.505 307.5 322C305.167 323.333 304.167 325.333 304.5 328C305.185 332.407 306.185 336.74 307.5 341C307.385 342.895 306.718 344.562 305.5 346C281.811 353.066 262.977 366.566 249 386.5C247.31 375.299 248.81 364.633 253.5 354.5C253.892 352.821 254.392 351.154 255 349.5C259.725 342.281 264.225 334.948 268.5 327.5C270.982 325.497 271.982 322.831 271.5 319.5C274.255 319.037 275.922 317.37 276.5 314.5C287.392 296.212 296.392 276.879 303.5 256.5C304.325 255.614 305.325 255.281 306.5 255.5Z" fill="#E8EEFD"/>
<path fill-rule="evenodd" clip-rule="evenodd" d="M307.5 246.5C307.632 249.57 307.299 252.57 306.5 255.5C305.325 255.281 304.325 255.614 303.5 256.5C296.392 276.879 287.392 296.212 276.5 314.5C275.862 311.715 276.528 309.048 278.5 306.5C275.334 303.465 272.668 300.132 270.5 296.5C267.051 291.972 265.717 286.972 266.5 281.5C274.267 274.025 281.6 266.025 288.5 257.5C291.306 254.843 294.306 252.51 297.5 250.5C300.421 250.146 302.754 251.146 304.5 253.5C305.132 250.898 306.132 248.564 307.5 246.5Z" fill="#76C2F5"/>
<path fill-rule="evenodd" clip-rule="evenodd" d="M175.5 273.5C173.987 287.475 172.654 301.475 171.5 315.5C171.562 318.873 173.229 321.04 176.5 322C180.5 322.333 184.5 322.667 188.5 323C165.954 327.564 154.287 341.397 153.5 364.5C142.885 379.171 142.885 393.838 153.5 408.5C153.172 435.408 153.505 462.241 154.5 489C153.906 489.464 153.239 489.631 152.5 489.5C126.139 477.787 102.806 461.787 82.5 441.5C85.632 402.784 91.4653 364.45 100 326.5C102.186 309.599 111.019 297.766 126.5 291C143.123 285.849 159.457 280.015 175.5 273.5Z" fill="#A1B2EC"/>
<path fill-rule="evenodd" clip-rule="evenodd" d="M330.5 272.5C338.993 276.576 347.659 280.41 356.5 284C367.886 286.762 378.886 290.595 389.5 295.5C395.67 300.14 400.17 306.14 403 313.5C411.064 343.754 416.897 374.421 420.5 405.5C422.139 417.611 423.473 429.611 424.5 441.5C422.763 443.55 420.763 445.383 418.5 447C417.552 447.483 416.552 447.649 415.5 447.5C415.649 448.552 415.483 449.552 415 450.5C411.075 453.547 407.241 456.714 403.5 460C397.249 464.952 390.582 469.119 383.5 472.5C383.667 450.497 383.5 428.497 383 406.5C382.118 403.211 381.452 399.877 381 396.5C378.464 389.216 374.631 382.716 369.5 377C363.248 375.417 359.082 377.584 357 383.5C356.5 417.832 356.333 452.165 356.5 486.5C357.5 486.5 358.5 486.5 359.5 486.5C357.115 488.263 354.448 489.763 351.5 491C325.036 502.366 297.369 509.199 268.5 511.5C261.5 511.5 254.5 511.5 247.5 511.5C247.667 466.165 247.5 420.832 247 375.5C234.411 361.917 219.245 352.417 201.5 347C200.667 346.167 199.833 345.333 199 344.5C198.614 338.06 198.947 331.727 200 325.5C198.89 323.757 197.39 322.424 195.5 321.5C197.711 311.642 203.878 306.642 214 306.5C217.49 306.999 220.99 307.332 224.5 307.5C224.932 308.71 225.599 309.71 226.5 310.5C229.177 317.204 232.844 323.204 237.5 328.5C242.866 337.248 248.199 345.915 253.5 354.5C248.81 364.633 247.31 375.299 249 386.5C262.977 366.566 281.811 353.066 305.5 346C306.718 344.562 307.385 342.895 307.5 341C306.185 336.74 305.185 332.407 304.5 328C304.167 325.333 305.167 323.333 307.5 322C314.461 322.505 321.461 322.505 328.5 322C331.771 321.04 333.438 318.873 333.5 315.5C332.452 305.812 331.452 296.146 330.5 286.5C332.045 285.548 333.712 285.215 335.5 285.5C335.5 284.5 335.5 283.5 335.5 282.5C333.833 282.5 332.167 282.5 330.5 282.5C330.016 279.049 330.016 275.716 330.5 272.5Z" fill="#D2DBFA"/>
<path fill-rule="evenodd" clip-rule="evenodd" d="M266.5 281.5C265.717 286.972 267.051 291.972 270.5 296.5C268.167 301.167 265.833 305.833 263.5 310.5C258.219 307.727 252.552 306.893 246.5 308C244.973 309.032 243.64 310.199 242.5 311.5C242.009 306.185 239.676 301.852 235.5 298.5C236.973 295.553 238.473 292.553 240 289.5C240.722 286.739 240.555 284.073 239.5 281.5C248.595 281.34 257.595 281.34 266.5 281.5Z" fill="#5072B6"/>
<path fill-rule="evenodd" clip-rule="evenodd" d="M209.5 250.5C219.785 260.119 229.785 270.119 239.5 280.5C239.5 280.833 239.5 281.167 239.5 281.5C240.555 284.073 240.722 286.739 240 289.5C238.473 292.553 236.973 295.553 235.5 298.5C233.215 301.452 230.548 304.118 227.5 306.5C226.571 307.689 226.238 309.022 226.5 310.5C225.599 309.71 224.932 308.71 224.5 307.5C215.289 290.872 207.622 273.539 201.5 255.5C201.167 254.833 200.833 254.167 200.5 253.5C202.359 253.539 203.692 252.706 204.5 251C206.134 250.506 207.801 250.34 209.5 250.5Z" fill="#75C2F6"/>
<path fill-rule="evenodd" clip-rule="evenodd" d="M388.5 236.5C392.721 238.068 397.055 239.068 401.5 239.5C402.988 240.831 403.655 242.164 403.5 243.5C406.084 242.607 408.751 242.274 411.5 242.5C412.999 263.494 417.499 283.827 425 303.5C427.23 307.37 429.73 311.036 432.5 314.5C434.816 316.494 437.482 317.494 440.5 317.5C435.112 348.605 429.279 379.605 423 410.5C422.626 408.509 421.793 406.842 420.5 405.5C416.897 374.421 411.064 343.754 403 313.5C400.17 306.14 395.67 300.14 389.5 295.5C389.811 294.522 390.478 293.855 391.5 293.5C392.85 294.95 394.516 295.617 396.5 295.5C396.313 293.436 395.813 291.436 395 289.5C393.697 288.888 392.53 288.554 391.5 288.5C392.325 287.614 393.325 287.281 394.5 287.5C391.176 270.554 388.176 253.554 385.5 236.5C386.5 236.5 387.5 236.5 388.5 236.5Z" fill="#209EF4"/>
<path fill-rule="evenodd" clip-rule="evenodd" d="M235.5 298.5C239.676 301.852 242.009 306.185 242.5 311.5C240.702 317.176 239.036 322.843 237.5 328.5C232.844 323.204 229.177 317.204 226.5 310.5C226.238 309.022 226.571 307.689 227.5 306.5C230.548 304.118 233.215 301.452 235.5 298.5Z" fill="#4AB1F5"/>
<path fill-rule="evenodd" clip-rule="evenodd" d="M270.5 296.5C272.668 300.132 275.334 303.465 278.5 306.5C276.528 309.048 275.862 311.715 276.5 314.5C275.922 317.37 274.255 319.037 271.5 319.5C271.982 322.831 270.982 325.497 268.5 327.5C267.36 321.687 265.693 316.021 263.5 310.5C265.833 305.833 268.167 301.167 270.5 296.5Z" fill="#4AB0F4"/>
<path fill-rule="evenodd" clip-rule="evenodd" d="M263.5 310.5C265.693 316.021 267.36 321.687 268.5 327.5C264.225 334.948 259.725 342.281 255 349.5C254.392 351.154 253.892 352.821 253.5 354.5C248.199 345.915 242.866 337.248 237.5 328.5C239.036 322.843 240.702 317.176 242.5 311.5C243.64 310.199 244.973 309.032 246.5 308C252.552 306.893 258.219 307.727 263.5 310.5Z" fill="#3D59A1"/>
<path fill-rule="evenodd" clip-rule="evenodd" d="M479.5 359.5C469.581 384.007 456.081 406.34 439 426.5C437.114 429.242 434.614 430.909 431.5 431.5C430.804 435.881 428.471 439.214 424.5 441.5C423.473 429.611 422.139 417.611 420.5 405.5C421.793 406.842 422.626 408.509 423 410.5C429.279 379.605 435.112 348.605 440.5 317.5C437.482 317.494 434.816 316.494 432.5 314.5C429.73 311.036 427.23 307.37 425 303.5C417.499 283.827 412.999 263.494 411.5 242.5C408.751 242.274 406.084 242.607 403.5 243.5C403.655 242.164 402.988 240.831 401.5 239.5C403.5 239.5 405.5 239.5 407.5 239.5C419.008 240.648 430.675 240.648 442.5 239.5C445.814 238.173 449.147 238.173 452.5 239.5C453.167 239.333 453.833 239.167 454.5 239C452.082 236.69 452.748 236.024 456.5 237C451.404 261.732 446.571 286.565 442 311.5C439.984 329.959 446.484 344.459 461.5 355C467.853 356.17 473.853 357.67 479.5 359.5Z" fill="#4AB1F6"/>
<path fill-rule="evenodd" clip-rule="evenodd" d="M198.5 255.5C199.5 255.5 200.5 255.5 201.5 255.5C207.622 273.539 215.289 290.872 224.5 307.5C220.99 307.332 217.49 306.999 214 306.5C203.878 306.642 197.711 311.642 195.5 321.5C197.39 322.424 198.89 323.757 200 325.5C198.947 331.727 198.614 338.06 199 344.5C199.833 345.333 200.667 346.167 201.5 347C219.245 352.417 234.411 361.917 247 375.5C247.5 420.832 247.667 466.165 247.5 511.5C243.167 511.5 238.833 511.5 234.5 511.5C205.788 509.094 178.455 501.761 152.5 489.5C153.239 489.631 153.906 489.464 154.5 489C153.505 462.241 153.172 435.408 153.5 408.5C168.825 421.261 184.491 421.595 200.5 409.5C210.581 396.793 212.081 383.127 205 368.5C192.852 353.676 178.019 350.343 160.5 358.5C158.362 360.735 156.029 362.735 153.5 364.5C154.287 341.397 165.954 327.564 188.5 323C184.5 322.667 180.5 322.333 176.5 322C173.229 321.04 171.562 318.873 171.5 315.5C172.654 301.475 173.987 287.475 175.5 273.5C177.279 271.454 178.946 269.287 180.5 267C186.401 262.917 192.401 259.083 198.5 255.5Z" fill="#BDC7F6"/>
<path fill-rule="evenodd" clip-rule="evenodd" d="M153.5 408.5C142.885 393.838 142.885 379.171 153.5 364.5C156.029 362.735 158.362 360.735 160.5 358.5C178.019 350.343 192.852 353.676 205 368.5C212.081 383.127 210.581 396.793 200.5 409.5C184.491 421.595 168.825 421.261 153.5 408.5Z" fill="#E8EDFC"/>
<path fill-rule="evenodd" clip-rule="evenodd" d="M182.5 370.5C182.5 373.833 182.5 377.167 182.5 380.5C179.167 380.5 175.833 380.5 172.5 380.5C172.5 377.5 172.5 374.5 172.5 371.5C173.108 369.01 174.775 367.676 177.5 367.5C179.423 368.092 181.089 369.092 182.5 370.5Z" fill="#F94458"/>
<path fill-rule="evenodd" clip-rule="evenodd" d="M383.5 472.5C376.592 478.635 368.592 483.302 359.5 486.5C358.5 486.5 357.5 486.5 356.5 486.5C356.333 452.165 356.5 417.832 357 383.5C359.082 377.584 363.248 375.417 369.5 377C374.631 382.716 378.464 389.216 381 396.5C381.452 399.877 382.118 403.211 383 406.5C383.5 428.497 383.667 450.497 383.5 472.5Z" fill="#BDC8F6"/>
<path fill-rule="evenodd" clip-rule="evenodd" d="M182.5 370.5C183.479 373.625 183.813 376.958 183.5 380.5C186.728 380.299 189.895 380.633 193 381.5C196.417 384.781 196.251 387.947 192.5 391C189.518 391.498 186.518 391.665 183.5 391.5C183.81 394.713 183.477 397.713 182.5 400.5C182.5 397.5 182.5 394.5 182.5 391.5C179.14 391.616 175.807 391.949 172.5 392.5C171.369 399.698 174.369 403.031 181.5 402.5C177.582 405.616 174.415 404.949 172 400.5C171.667 397.833 171.333 395.167 171 392.5C167.924 391.712 164.758 391.212 161.5 391C159.297 388.24 158.964 385.24 160.5 382C164.026 380.663 167.692 380.163 171.5 380.5C171.19 377.287 171.523 374.287 172.5 371.5C172.5 374.5 172.5 377.5 172.5 380.5C175.833 380.5 179.167 380.5 182.5 380.5C182.5 377.167 182.5 373.833 182.5 370.5Z" fill="#F96D84"/>
<path fill-rule="evenodd" clip-rule="evenodd" d="M182.5 400.5C182.167 401.167 181.833 401.833 181.5 402.5C174.369 403.031 171.369 399.698 172.5 392.5C175.807 391.949 179.14 391.616 182.5 391.5C182.5 394.5 182.5 397.5 182.5 400.5Z" fill="#F84256"/>
</g>
<defs>
<clipPath id="clip0_12_11">
<rect width="512" height="512" fill="white"/>
</clipPath>
</defs>
</svg>
