<svg width="7500" height="5000" viewBox="0 0 7500 5000" fill="none" xmlns="http://www.w3.org/2000/svg">
<path fill-rule="evenodd" clip-rule="evenodd" d="M4247.5 630.5C4275.32 627.832 4301.65 632.665 4326.5 645C4341.34 655.841 4353.84 669.008 4364 684.5C4368.24 689.415 4373.08 693.581 4378.5 697C4381.95 697.859 4385.45 698.359 4389 698.5C4406.13 696.708 4423.3 696.208 4440.5 697C4461.58 698.329 4479.74 706.163 4495 720.5C4500.87 727.898 4504.87 736.232 4507 745.5C4512.07 754.569 4519.57 760.735 4529.5 764C4542.18 766.921 4554.52 770.921 4566.5 776C4569.06 778.892 4571.22 782.059 4573 785.5C4575.16 795.527 4573.16 804.527 4567 812.5C4560.08 820.379 4551.58 825.879 4541.5 829C4516.7 835.553 4491.7 836.22 4466.5 831C4458.27 828.391 4449.94 826.057 4441.5 824C4418.04 812.649 4393.37 808.982 4367.5 813C4343.53 818.935 4319.53 824.935 4295.5 831C4262.27 836.214 4228.94 836.88 4195.5 833C4159.47 828.367 4123.47 823.367 4087.5 818C4066.14 817.234 4044.81 817.734 4023.5 819.5C4010.71 820.789 3999.38 817.455 3989.5 809.5C3983.73 802.939 3981.56 795.272 3983 786.5C3987.53 764.299 4000.37 749.133 4021.5 741C4046.48 733.226 4071.82 726.893 4097.5 722C4107.55 719.206 4117.55 716.206 4127.5 713C4135.65 709.426 4143.32 705.093 4150.5 700C4170.84 660.158 4203.17 636.992 4247.5 630.5Z" fill="#F0F7F6"/>
<path fill-rule="evenodd" clip-rule="evenodd" d="M2725.5 789.5C2754.66 787.714 2782.33 793.048 2808.5 805.5C2815.56 809.724 2822.23 814.557 2828.5 820C2834.23 825.745 2839.73 831.579 2845 837.5C2846.59 839.67 2847.92 842.004 2849 844.5C2853.77 850.245 2858.61 855.912 2863.5 861.5C2867.1 864.594 2871.1 867.094 2875.5 869C2896.47 867.903 2917.47 867.57 2938.5 868C2959.95 869.222 2979.95 875.222 2998.5 886C3012.16 896.123 3020.66 909.623 3024 926.5C3030.42 935.924 3038.92 942.758 3049.5 947C3061.59 950.083 3073.59 953.416 3085.5 957C3102.12 965.109 3106.95 977.942 3100 995.5C3092.85 1008.32 3082.35 1017.15 3068.5 1022C3040.66 1031.29 3012.33 1032.95 2983.5 1027C2977.24 1025.34 2970.9 1024.01 2964.5 1023C2949.43 1017.82 2934.43 1012.48 2919.5 1007C2892.78 1001.38 2866.12 1002.05 2839.5 1009C2815.66 1015.86 2791.66 1021.86 2767.5 1027C2731.23 1032.63 2694.89 1032.97 2658.5 1028C2612.81 1022.09 2567.14 1016.09 2521.5 1010C2503.09 1008.94 2484.76 1009.61 2466.5 1012C2450.7 1013.79 2435.7 1011.29 2421.5 1004.5C2414.31 1000.15 2410.14 993.812 2409 985.5C2407.52 975.698 2408.86 966.365 2413 957.5C2421.45 940.694 2434.29 928.528 2451.5 921C2457.33 919.46 2462.99 917.46 2468.5 915C2498.2 907.987 2527.86 900.987 2557.5 894C2570.59 890.123 2583.26 885.123 2595.5 879C2598.99 876.089 2602.66 873.422 2606.5 871C2626.89 830.293 2659.22 804.293 2703.5 793C2711.05 792.311 2718.38 791.144 2725.5 789.5Z" fill="#F0F7F6"/>
<path fill-rule="evenodd" clip-rule="evenodd" d="M4566.5 1746.5C4443.31 1744.38 4328.98 1774.88 4223.5 1838C4130.84 1894.98 4051.67 1967.14 3986 2054.5C3969.92 2076.4 3954.08 2098.4 3938.5 2120.5C3909.99 2068.14 3881.99 2015.47 3854.5 1962.5C3906 1892.18 3933.83 1813.18 3938 1725.5C3938.67 1707.5 3938.67 1689.5 3938 1671.5C3918.81 1606.64 3876.64 1564.81 3811.5 1546C3769.95 1536.18 3727.95 1533.85 3685.5 1539C3664.75 1541.82 3644.08 1545.15 3623.5 1549C3578.82 1554.95 3534.15 1554.95 3489.5 1549C3445.05 1541.93 3404.72 1525.27 3368.5 1499C3359.17 1491 3350.5 1482.33 3342.5 1473C3341.83 1472.33 3341.17 1472.33 3340.5 1473C3310.46 1520.04 3300.46 1571.21 3310.5 1626.5C3311.35 1648.65 3308.52 1670.32 3302 1691.5C3298.32 1703.36 3294.16 1715.03 3289.5 1726.5C3298.84 1787.24 3319.17 1843.9 3350.5 1896.5C3368.43 1926.44 3389.76 1953.77 3414.5 1978.5C3466.62 2032 3529.96 2063.84 3604.5 2074C3644.13 2077.2 3682.8 2072.7 3720.5 2060.5C3727.72 2093.72 3735.39 2126.72 3743.5 2159.5C3745.37 2185.25 3735.04 2204.42 3712.5 2217C3700.84 2223.44 3688.51 2228.11 3675.5 2231C3674.62 2231.71 3673.95 2232.54 3673.5 2233.5C3537.23 2244.39 3404.56 2272.22 3275.5 2317C3238.08 2331.07 3201.41 2346.57 3165.5 2363.5C3010.29 2354.64 2868.95 2394.14 2741.5 2482C2627.98 2566.16 2567.15 2679.33 2559 2821.5C2557.12 2868.43 2559.79 2915.1 2567 2961.5C2570.87 2984.98 2575.37 3008.32 2580.5 3031.5C2529.54 3100.97 2480.71 3171.97 2434 3244.5C2395.1 3305.61 2359.77 3368.94 2328 3434.5C2314.71 3463.42 2303.37 3493.08 2294 3523.5C2288.58 3541.5 2284.92 3559.83 2283 3578.5C2282.1 3592.24 2282.76 3605.91 2285 3619.5C2286.26 3626.87 2288.59 3633.87 2292 3640.5C2292.44 3647.55 2293.28 3654.55 2294.5 3661.5C2294.36 3663.03 2293.69 3664.03 2292.5 3664.5C2288.89 3663.35 2285.22 3662.35 2281.5 3661.5C2274.68 3658.94 2267.68 3656.61 2260.5 3654.5C2185.36 3626.37 2119.53 3584.03 2063 3527.5C2009.02 3470.57 1971.85 3403.9 1951.5 3327.5C1929.87 3243.44 1930.2 3159.44 1952.5 3075.5C1954.27 3069.52 1956.27 3063.52 1958.5 3057.5C1981.78 2983.9 2020.11 2919.57 2073.5 2864.5C2095.18 2844.32 2118.18 2825.82 2142.5 2809C2221.34 2764.43 2298.34 2717.09 2373.5 2667C2412.42 2640.37 2450.09 2612.04 2486.5 2582C2488.71 2579.96 2490.71 2577.8 2492.5 2575.5C2505.05 2565.46 2516.88 2554.46 2528 2542.5C2539.55 2529.61 2549.55 2515.61 2558 2500.5C2569.29 2478.39 2564.13 2461.55 2542.5 2450C2519.51 2443.67 2496.51 2437.33 2473.5 2431C2396.03 2402.27 2372.53 2349.44 2403 2272.5C2417.23 2244.03 2435.4 2218.36 2457.5 2195.5C2460.14 2192.53 2462.8 2189.53 2465.5 2186.5C2506.06 2148.38 2550.73 2115.88 2599.5 2089C2709.31 2030.51 2825.98 1993.51 2949.5 1978C2989.25 1967.12 3026.59 1950.79 3061.5 1929C3151.08 1868.26 3161.25 1796.09 3092 1712.5C3032.1 1650.82 3005.43 1576.82 3012 1490.5C3018.45 1432.14 3037.79 1378.47 3070 1329.5C3118.62 1258.87 3180.45 1203.04 3255.5 1162C3342.1 1115.36 3434.1 1084.69 3531.5 1070C3691.94 1046.86 3836.27 1084.19 3964.5 1182C4013.13 1220.62 4057.96 1263.46 4099 1310.5C4141.33 1361.17 4183.67 1411.83 4226 1462.5C4235.14 1472.64 4244.64 1482.47 4254.5 1492C4268.41 1505.28 4283.74 1516.62 4300.5 1526C4350.04 1544.96 4398.37 1566.62 4445.5 1591C4476.9 1607.69 4506.24 1627.36 4533.5 1650C4552.02 1665.57 4565.19 1684.73 4573 1707.5C4575.35 1721.42 4573.18 1734.42 4566.5 1746.5Z" fill="#321833"/>
<path fill-rule="evenodd" clip-rule="evenodd" d="M3938.5 2120.5C3910.01 2166.78 3883.51 2214.45 3859 2263.5C3835.55 2313.7 3814.39 2364.7 3795.5 2416.5C3768.52 2421.28 3741.52 2421.45 3714.5 2417C3688.11 2410.28 3671.28 2393.78 3664 2367.5C3657.82 2342.06 3656.82 2316.39 3661 2290.5C3663.96 2271.21 3668.12 2252.21 3673.5 2233.5C3673.95 2232.54 3674.62 2231.71 3675.5 2231C3688.51 2228.11 3700.84 2223.44 3712.5 2217C3735.04 2204.42 3745.37 2185.25 3743.5 2159.5C3786.61 2131.89 3817.45 2094.22 3836 2046.5C3844.66 2022.86 3847.5 1998.52 3844.5 1973.5C3810.74 2013.37 3769.41 2042.37 3720.5 2060.5C3682.8 2072.7 3644.13 2077.2 3604.5 2074C3529.96 2063.84 3466.62 2032 3414.5 1978.5C3430.58 1969.64 3436.41 1955.98 3432 1937.5C3426.98 1915.93 3415.81 1898.43 3398.5 1885C3394.3 1883.79 3390.3 1882.12 3386.5 1880C3378.83 1878.74 3371.5 1879.74 3364.5 1883C3359.61 1887.39 3354.95 1891.89 3350.5 1896.5C3319.17 1843.9 3298.84 1787.24 3289.5 1726.5C3294.16 1715.03 3298.32 1703.36 3302 1691.5C3308.52 1670.32 3311.35 1648.65 3310.5 1626.5C3300.46 1571.21 3310.46 1520.04 3340.5 1473C3341.17 1472.33 3341.83 1472.33 3342.5 1473C3350.5 1482.33 3359.17 1491 3368.5 1499C3404.72 1525.27 3445.05 1541.93 3489.5 1549C3534.15 1554.95 3578.82 1554.95 3623.5 1549C3644.08 1545.15 3664.75 1541.82 3685.5 1539C3727.95 1533.85 3769.95 1536.18 3811.5 1546C3876.64 1564.81 3918.81 1606.64 3938 1671.5C3938.67 1689.5 3938.67 1707.5 3938 1725.5C3933.83 1813.18 3906 1892.18 3854.5 1962.5C3881.99 2015.47 3909.99 2068.14 3938.5 2120.5Z" fill="#FEB17D"/>
<path fill-rule="evenodd" clip-rule="evenodd" d="M3611.5 1656.5C3634.91 1654.7 3655.91 1660.86 3674.5 1675C3678.03 1677.71 3679.2 1681.21 3678 1685.5C3676.26 1687.87 3673.92 1689.2 3671 1689.5C3649.47 1680.08 3626.97 1676.58 3603.5 1679C3597.31 1679.57 3591.31 1680.9 3585.5 1683C3576.67 1684.83 3573.17 1681.33 3575 1672.5C3585.84 1663.99 3598.01 1658.66 3611.5 1656.5Z" fill="#090536"/>
<path fill-rule="evenodd" clip-rule="evenodd" d="M3375.5 1715.5C3387.75 1715.03 3399.75 1716.53 3411.5 1720C3418.41 1725.15 3418.07 1729.81 3410.5 1734C3378.51 1733.33 3350.18 1743 3325.5 1763C3317.81 1762.96 3314.98 1759.13 3317 1751.5C3331.34 1730.96 3350.84 1718.96 3375.5 1715.5Z" fill="#0A0636"/>
<path fill-rule="evenodd" clip-rule="evenodd" d="M3681.5 1728.5C3693.04 1728.2 3697.21 1733.53 3694 1744.5C3667.69 1770.05 3636.19 1781.55 3599.5 1779C3593.96 1777.56 3588.62 1775.56 3583.5 1773C3577.74 1766.23 3578.41 1760.23 3585.5 1755C3588.17 1754.33 3590.83 1754.33 3593.5 1755C3603.06 1759.26 3613.06 1760.59 3623.5 1759C3645.79 1754.16 3665.12 1743.99 3681.5 1728.5Z" fill="#0A0636"/>
<path fill-rule="evenodd" clip-rule="evenodd" d="M3775.5 1738.5C3807.02 1738.55 3827.19 1753.55 3836 1783.5C3838.7 1805.04 3834.03 1824.7 3822 1842.5C3807.41 1859.03 3789.24 1865.19 3767.5 1861C3751.71 1858.3 3737.38 1852.3 3724.5 1843C3704.73 1823.14 3699.89 1799.97 3710 1773.5C3719.58 1757.62 3733.41 1747.45 3751.5 1743C3759.54 1740.94 3767.54 1739.44 3775.5 1738.5Z" fill="#F48E6A"/>
<path fill-rule="evenodd" clip-rule="evenodd" d="M4566.5 1746.5C4625.75 1748.76 4683.75 1758.93 4740.5 1777C4835.96 1809.04 4921.63 1857.54 4997.5 1922.5C5044.61 1963.44 5087.77 2008.11 5127 2056.5C5183.97 2126.77 5224.97 2205.77 5250 2293.5C5275.53 2390.85 5281.86 2489.51 5269 2589.5C5255 2694.82 5228.5 2796.82 5189.5 2895.5C5173.25 2936.66 5155.92 2977.32 5137.5 3017.5C5115.44 3063.28 5092.11 3108.28 5067.5 3152.5C5064.81 3152.17 5062.48 3152.83 5060.5 3154.5C5023.9 3140.52 4986.56 3129.02 4948.5 3120C4858.28 3100.85 4767.28 3086.18 4675.5 3076C4556.41 3063.27 4437.07 3053.43 4317.5 3046.5C4287.6 2985.79 4253.77 2927.46 4216 2871.5C4206.67 2855.5 4197.33 2839.5 4188 2823.5C4178.84 2804.02 4170.18 2784.35 4162 2764.5C4150.51 2739.36 4136.17 2716.02 4119 2694.5C4093.14 2667.74 4076.48 2672.74 4069 2709.5C4063.08 2745.49 4061.91 2781.66 4065.5 2818C4065.17 2819.17 4064.83 2820.33 4064.5 2821.5C3993.98 2774.33 3917.98 2738.16 3836.5 2713C3829.42 2712.07 3822.42 2710.74 3815.5 2709C3777.18 2703.84 3768.35 2717.34 3789 2749.5C3804.71 2770.22 3822.21 2789.38 3841.5 2807C3869.25 2831.42 3897.58 2855.09 3926.5 2878C3927.7 2878.65 3927.7 2879.15 3926.5 2879.5C3874.72 2848.27 3821.72 2819.11 3767.5 2792C3739.56 2779.04 3710.89 2767.7 3681.5 2758C3667.79 2753.84 3653.79 2752.51 3639.5 2754C3627.59 2757.98 3623.09 2766.15 3626 2778.5C3627.75 2784.74 3630.08 2790.74 3633 2796.5C3645.32 2814.83 3659.82 2831.33 3676.5 2846C3713.69 2877.59 3752.35 2907.26 3792.5 2935C3818.35 2952.03 3844.01 2969.2 3869.5 2986.5C3869 2987.52 3868.33 2987.69 3867.5 2987C3809.92 2953.21 3750.59 2922.54 3689.5 2895C3677.39 2889.89 3665.05 2885.56 3652.5 2882C3642.53 2879.48 3632.53 2879.14 3622.5 2881C3616.83 2885.53 3615 2891.36 3617 2898.5C3621.12 2911.52 3626.79 2923.85 3634 2935.5C3652.44 2961.03 3672.78 2985.03 3695 3007.5C3728.01 3040.19 3762.51 3071.02 3798.5 3100C3796.19 3099.36 3793.86 3098.36 3791.5 3097C3753.9 3071.19 3713.9 3049.53 3671.5 3032C3663.49 3029.99 3655.49 3027.99 3647.5 3026C3640.83 3025.33 3634.17 3025.33 3627.5 3026C3619.33 3028.17 3614.17 3033.33 3612 3041.5C3610.48 3050.95 3611.82 3059.95 3616 3068.5C3623.96 3081.47 3633.79 3092.97 3645.5 3103C3674.34 3126.34 3704.67 3147.51 3736.5 3166.5C3778.04 3189.87 3819.71 3213.03 3861.5 3236C3882.94 3243.9 3903.94 3252.56 3924.5 3262C3941.8 3268.54 3959.13 3274.88 3976.5 3281C4039.6 3309.7 4103.27 3337.03 4167.5 3363C4338.42 3432.09 4511.08 3497.09 4685.5 3558C4715.37 3567.46 4745.04 3576.96 4774.5 3586.5C4646.35 3747.2 4508.35 3900.04 4360.5 4045C4285.14 4118.38 4206.81 4188.05 4125.5 4254C4105.66 4269.5 4084.99 4283.84 4063.5 4297C4047.75 4303.88 4031.25 4307.04 4014 4306.5C3992.54 4306.14 3971.7 4302.31 3951.5 4295C3922.97 4284.23 3895.3 4271.57 3868.5 4257C3828.51 4235.01 3789.18 4212.01 3750.5 4188C3618.15 4104.15 3485.15 4021.32 3351.5 3939.5C3386.03 3938.58 3420.69 3937.24 3455.5 3935.5C3454.4 3936.4 3454.4 3937.23 3455.5 3938C3542.18 4001.18 3633.18 4057.51 3728.5 4107C3730.17 4107.33 3731.83 4107.67 3733.5 4108C3786.23 4136.18 3841.9 4156.85 3900.5 4170C3934.68 4177.28 3969.01 4178.28 4003.5 4173C4011.67 4170.35 4020 4168.02 4028.5 4166C4082.12 4144.49 4131.45 4115.99 4176.5 4080.5C4246.05 4029.38 4307.21 3969.72 4360 3901.5C4374.89 3879.48 4389.05 3857.15 4402.5 3834.5C4413.49 3812.84 4421.99 3790.18 4428 3766.5C4430.55 3753.63 4432.05 3740.63 4432.5 3727.5C4429.98 3681.21 4420.48 3636.54 4404 3593.5C4369.45 3517.77 4310.28 3478.27 4226.5 3475C4173.13 3473.26 4120.46 3478.42 4068.5 3490.5C4075.22 3485.63 4079.22 3479.13 4080.5 3471C4080.51 3468.7 4080.01 3466.53 4079 3464.5C4072.18 3458.37 4064.35 3453.87 4055.5 3451C4026.64 3443.73 3997.3 3439.73 3967.5 3439C3903.84 3436.12 3840.67 3440.29 3778 3451.5C3777.5 3451.17 3777 3450.83 3776.5 3450.5C3793.88 3419.74 3807.38 3387.41 3817 3353.5C3827.64 3309.08 3812.48 3296.91 3771.5 3317C3750.11 3329.39 3730.11 3343.73 3711.5 3360C3684.41 3387.52 3654.74 3411.68 3622.5 3432.5C3622.63 3431.76 3622.46 3431.09 3622 3430.5C3600.7 3408.38 3577.87 3388.21 3553.5 3370C3552.26 3368.85 3551.26 3367.51 3550.5 3366C3527.1 3349.4 3503.43 3333.06 3479.5 3317C3449.52 3298.74 3419.18 3280.74 3388.5 3263C3356.13 3244.82 3323.47 3227.15 3290.5 3210C3259.37 3192.18 3228.37 3174.18 3197.5 3156C3179.7 3143.16 3161.7 3130.83 3143.5 3119C3119.68 3101.29 3097.18 3081.79 3076 3060.5C3067.99 3051.82 3060.32 3042.82 3053 3033.5C3033.4 3003.57 3015.07 2972.91 2998 2941.5C2982.35 2914.87 2966.18 2888.53 2949.5 2862.5C2940.74 2850.57 2932.57 2838.23 2925 2825.5C2912.33 2808.83 2899.67 2792.17 2887 2775.5C2881.49 2772.13 2877.66 2767.46 2875.5 2761.5C2862.43 2749.6 2849.43 2737.44 2836.5 2725C2819.35 2710.35 2799.52 2701.85 2777 2699.5C2757.33 2701.84 2740.99 2710.5 2728 2725.5C2712.01 2745.54 2701.34 2768.21 2696 2793.5C2688.5 2835.21 2686.5 2877.21 2690 2919.5C2693.26 2965.54 2700.59 3010.87 2712 3055.5C2740.24 3169.81 2785.74 3276.14 2848.5 3374.5C2853.52 3380.86 2858.19 3387.53 2862.5 3394.5C2816.96 3382.77 2771.3 3371.44 2725.5 3360.5C2660.72 3258.18 2612.39 3148.52 2580.5 3031.5C2575.37 3008.32 2570.87 2984.98 2567 2961.5C2559.79 2915.1 2557.12 2868.43 2559 2821.5C2567.15 2679.33 2627.98 2566.16 2741.5 2482C2868.95 2394.14 3010.29 2354.64 3165.5 2363.5C3266.04 2371.8 3362.04 2397.3 3453.5 2440C3557.11 2488.53 3650.94 2551.36 3735 2628.5C3751.44 2556.73 3771.61 2486.07 3795.5 2416.5C3814.39 2364.7 3835.55 2313.7 3859 2263.5C3883.51 2214.45 3910.01 2166.78 3938.5 2120.5C3954.08 2098.4 3969.92 2076.4 3986 2054.5C4051.67 1967.14 4130.84 1894.98 4223.5 1838C4328.98 1774.88 4443.31 1744.38 4566.5 1746.5Z" fill="#EE8062"/>
<path fill-rule="evenodd" clip-rule="evenodd" d="M3462.5 1790.5C3474.38 1789.88 3478.55 1795.21 3475 1806.5C3455.05 1825.06 3431.55 1836.56 3404.5 1841C3390.93 1842.57 3377.93 1840.57 3365.5 1835C3360.13 1830.51 3359.3 1825.35 3363 1819.5C3365.26 1817.37 3367.93 1816.04 3371 1815.5C3385.8 1822.44 3400.97 1823.27 3416.5 1818C3433.65 1811.6 3448.99 1802.44 3462.5 1790.5Z" fill="#0A0636"/>
<path fill-rule="evenodd" clip-rule="evenodd" d="M3694.5 1868.5C3695.86 1903.87 3683.86 1934.37 3658.5 1960C3623.64 1988.41 3584.64 1996.08 3541.5 1983C3518.32 1973.66 3498.99 1959.16 3483.5 1939.5C3548.56 1936.09 3609.56 1918.59 3666.5 1887C3676.41 1881.55 3685.75 1875.39 3694.5 1868.5Z" fill="#FEFEFD"/>
<path fill-rule="evenodd" clip-rule="evenodd" d="M3414.5 1978.5C3389.76 1953.77 3368.43 1926.44 3350.5 1896.5C3354.95 1891.89 3359.61 1887.39 3364.5 1883C3371.5 1879.74 3378.83 1878.74 3386.5 1880C3390.3 1882.12 3394.3 1883.79 3398.5 1885C3415.81 1898.43 3426.98 1915.93 3432 1937.5C3436.41 1955.98 3430.58 1969.64 3414.5 1978.5Z" fill="#F5986E"/>
<path fill-rule="evenodd" clip-rule="evenodd" d="M4492.5 1924.5C4555.79 1922.05 4618.13 1928.55 4679.5 1944C4813.26 1983.76 4906.43 2068.26 4959 2197.5C4962.07 2206.04 4964.74 2214.71 4967 2223.5C4971.04 2251.62 4966.71 2278.29 4954 2303.5C4939.23 2324.88 4918.73 2336.05 4892.5 2337C4863.95 2338.28 4836.28 2333.95 4809.5 2324C4745.87 2301.01 4690.71 2265.18 4644 2216.5C4630.86 2197.36 4615.03 2180.86 4596.5 2167C4566.64 2149.11 4534.31 2138.44 4499.5 2135C4468.86 2132.09 4438.19 2129.43 4407.5 2127C4385.89 2125.01 4364.89 2120.35 4344.5 2113C4307.64 2096.43 4292.47 2068.27 4299 2028.5C4302.08 2018.34 4306.75 2009.01 4313 2000.5C4336.12 1973.11 4364.95 1953.94 4399.5 1943C4429.98 1933.49 4460.98 1927.33 4492.5 1924.5Z" fill="#FEC9BB"/>
<path fill-rule="evenodd" clip-rule="evenodd" d="M3743.5 2159.5C3735.39 2126.72 3727.72 2093.72 3720.5 2060.5C3769.41 2042.37 3810.74 2013.37 3844.5 1973.5C3847.5 1998.52 3844.66 2022.86 3836 2046.5C3817.45 2094.22 3786.61 2131.89 3743.5 2159.5Z" fill="#E9845C"/>
<path fill-rule="evenodd" clip-rule="evenodd" d="M3673.5 2233.5C3668.12 2252.21 3663.96 2271.21 3661 2290.5C3656.82 2316.39 3657.82 2342.06 3664 2367.5C3671.28 2393.78 3688.11 2410.28 3714.5 2417C3741.52 2421.45 3768.52 2421.28 3795.5 2416.5C3771.61 2486.07 3751.44 2556.73 3735 2628.5C3650.94 2551.36 3557.11 2488.53 3453.5 2440C3362.04 2397.3 3266.04 2371.8 3165.5 2363.5C3201.41 2346.57 3238.08 2331.07 3275.5 2317C3404.56 2272.22 3537.23 2244.39 3673.5 2233.5Z" fill="#73B2CD"/>
<path fill-rule="evenodd" clip-rule="evenodd" d="M5060.5 3154.5C5059.73 3158.18 5061.06 3160.68 5064.5 3162C5101.42 3177.54 5135.92 3197.04 5168 3220.5C5168.87 3220.26 5169.71 3219.93 5170.5 3219.5C5171.83 3217.17 5171.83 3214.83 5170.5 3212.5C5153.39 3199.44 5135.39 3187.6 5116.5 3177C5100.11 3168.8 5083.77 3160.64 5067.5 3152.5C5092.11 3108.28 5115.44 3063.28 5137.5 3017.5C5179.74 3083.99 5218.57 3152.66 5254 3223.5C5260.77 3238.04 5267.27 3252.71 5273.5 3267.5C5278.11 3278.38 5282.44 3289.38 5286.5 3300.5C5288.66 3306.32 5290.99 3311.99 5293.5 3317.5C5300.94 3341.68 5306.44 3366.34 5310 3391.5C5309.54 3413.18 5309.38 3434.85 5309.5 3456.5C5306.49 3490.51 5293.66 3520.18 5271 3545.5C5263.6 3553.06 5256.1 3560.4 5248.5 3567.5C5243.95 3570.6 5239.61 3573.94 5235.5 3577.5C5224.34 3585.58 5212.67 3592.92 5200.5 3599.5C5158.95 3621.05 5114.62 3632.55 5067.5 3634C5053.84 3634.5 5040.17 3634.67 5026.5 3634.5C5020.18 3633.99 5013.85 3633.65 5007.5 3633.5C4954.84 3628.9 4902.84 3619.9 4851.5 3606.5C4846.86 3605.5 4842.2 3604.5 4837.5 3603.5C4816.7 3597.38 4795.7 3591.72 4774.5 3586.5C4745.04 3576.96 4715.37 3567.46 4685.5 3558C4511.08 3497.09 4338.42 3432.09 4167.5 3363C4103.27 3337.03 4039.6 3309.7 3976.5 3281C3959.13 3274.88 3941.8 3268.54 3924.5 3262C3903.94 3252.56 3882.94 3243.9 3861.5 3236C3819.71 3213.03 3778.04 3189.87 3736.5 3166.5C3704.67 3147.51 3674.34 3126.34 3645.5 3103C3633.79 3092.97 3623.96 3081.47 3616 3068.5C3611.82 3059.95 3610.48 3050.95 3612 3041.5C3614.17 3033.33 3619.33 3028.17 3627.5 3026C3634.17 3025.33 3640.83 3025.33 3647.5 3026C3655.49 3027.99 3663.49 3029.99 3671.5 3032C3713.9 3049.53 3753.9 3071.19 3791.5 3097C3793.86 3098.36 3796.19 3099.36 3798.5 3100C3762.51 3071.02 3728.01 3040.19 3695 3007.5C3672.78 2985.03 3652.44 2961.03 3634 2935.5C3626.79 2923.85 3621.12 2911.52 3617 2898.5C3615 2891.36 3616.83 2885.53 3622.5 2881C3632.53 2879.14 3642.53 2879.48 3652.5 2882C3665.05 2885.56 3677.39 2889.89 3689.5 2895C3750.59 2922.54 3809.92 2953.21 3867.5 2987C3868.33 2987.69 3869 2987.52 3869.5 2986.5C3844.01 2969.2 3818.35 2952.03 3792.5 2935C3752.35 2907.26 3713.69 2877.59 3676.5 2846C3659.82 2831.33 3645.32 2814.83 3633 2796.5C3630.08 2790.74 3627.75 2784.74 3626 2778.5C3623.09 2766.15 3627.59 2757.98 3639.5 2754C3653.79 2752.51 3667.79 2753.84 3681.5 2758C3710.89 2767.7 3739.56 2779.04 3767.5 2792C3821.72 2819.11 3874.72 2848.27 3926.5 2879.5C3927.7 2879.15 3927.7 2878.65 3926.5 2878C3897.58 2855.09 3869.25 2831.42 3841.5 2807C3822.21 2789.38 3804.71 2770.22 3789 2749.5C3768.35 2717.34 3777.18 2703.84 3815.5 2709C3822.42 2710.74 3829.42 2712.07 3836.5 2713C3917.98 2738.16 3993.98 2774.33 4064.5 2821.5C4064.83 2820.33 4065.17 2819.17 4065.5 2818C4061.91 2781.66 4063.08 2745.49 4069 2709.5C4076.48 2672.74 4093.14 2667.74 4119 2694.5C4136.17 2716.02 4150.51 2739.36 4162 2764.5C4170.18 2784.35 4178.84 2804.02 4188 2823.5C4197.33 2839.5 4206.67 2855.5 4216 2871.5C4253.77 2927.46 4287.6 2985.79 4317.5 3046.5C4437.07 3053.43 4556.41 3063.27 4675.5 3076C4767.28 3086.18 4858.28 3100.85 4948.5 3120C4986.56 3129.02 5023.9 3140.52 5060.5 3154.5Z" fill="#FEB17D"/>
<path fill-rule="evenodd" clip-rule="evenodd" d="M3622.5 3432.5C3587.4 3456.41 3552.4 3480.58 3517.5 3505C3494.24 3522.46 3471.58 3540.62 3449.5 3559.5C3320.96 3521.7 3192.29 3484.53 3063.5 3448C2996.64 3429.7 2929.64 3411.87 2862.5 3394.5C2858.19 3387.53 2853.52 3380.86 2848.5 3374.5C2785.74 3276.14 2740.24 3169.81 2712 3055.5C2700.59 3010.87 2693.26 2965.54 2690 2919.5C2686.5 2877.21 2688.5 2835.21 2696 2793.5C2701.34 2768.21 2712.01 2745.54 2728 2725.5C2740.99 2710.5 2757.33 2701.84 2777 2699.5C2799.52 2701.85 2819.35 2710.35 2836.5 2725C2849.43 2737.44 2862.43 2749.6 2875.5 2761.5C2877.66 2767.46 2881.49 2772.13 2887 2775.5C2899.67 2792.17 2912.33 2808.83 2925 2825.5C2932.57 2838.23 2940.74 2850.57 2949.5 2862.5C2966.18 2888.53 2982.35 2914.87 2998 2941.5C3015.07 2972.91 3033.4 3003.57 3053 3033.5C3060.32 3042.82 3067.99 3051.82 3076 3060.5C3097.18 3081.79 3119.68 3101.29 3143.5 3119C3161.7 3130.83 3179.7 3143.16 3197.5 3156C3228.37 3174.18 3259.37 3192.18 3290.5 3210C3323.47 3227.15 3356.13 3244.82 3388.5 3263C3419.18 3280.74 3449.52 3298.74 3479.5 3317C3503.43 3333.06 3527.1 3349.4 3550.5 3366C3551.26 3367.51 3552.26 3368.85 3553.5 3370C3577.87 3388.21 3600.7 3408.38 3622 3430.5C3622.46 3431.09 3622.63 3431.76 3622.5 3432.5Z" fill="#E5765A"/>
<path fill-rule="evenodd" clip-rule="evenodd" d="M5189.5 2895.5C5191.5 2896.5 5193.5 2897.5 5195.5 2898.5C5238.66 2920.38 5280 2945.05 5319.5 2972.5C5344.85 2990.02 5366.02 3011.68 5383 3037.5C5394.64 3057.38 5398.98 3078.71 5396 3101.5C5392 3119.83 5386 3137.5 5378 3154.5C5356.12 3204.21 5321.28 3241.88 5273.5 3267.5C5267.27 3252.71 5260.77 3238.04 5254 3223.5C5218.57 3152.66 5179.74 3083.99 5137.5 3017.5C5155.92 2977.32 5173.25 2936.66 5189.5 2895.5Z" fill="#321832"/>
<path fill-rule="evenodd" clip-rule="evenodd" d="M2580.5 3031.5C2612.39 3148.52 2660.72 3258.18 2725.5 3360.5C2771.3 3371.44 2816.96 3382.77 2862.5 3394.5C2929.64 3411.87 2996.64 3429.7 3063.5 3448C3192.29 3484.53 3320.96 3521.7 3449.5 3559.5C3471.58 3540.62 3494.24 3522.46 3517.5 3505C3552.4 3480.58 3587.4 3456.41 3622.5 3432.5C3654.74 3411.68 3684.41 3387.52 3711.5 3360C3730.11 3343.73 3750.11 3329.39 3771.5 3317C3812.48 3296.91 3827.64 3309.08 3817 3353.5C3807.38 3387.41 3793.88 3419.74 3776.5 3450.5C3777 3450.83 3777.5 3451.17 3778 3451.5C3840.67 3440.29 3903.84 3436.12 3967.5 3439C3997.3 3439.73 4026.64 3443.73 4055.5 3451C4064.35 3453.87 4072.18 3458.37 4079 3464.5C4080.01 3466.53 4080.51 3468.7 4080.5 3471C4079.22 3479.13 4075.22 3485.63 4068.5 3490.5C4049.98 3502.43 4030.31 3512.26 4009.5 3520C3964.91 3536.05 3919.57 3549.72 3873.5 3561C3915.37 3555.85 3957.37 3551.52 3999.5 3548C4042.13 3544.67 4084.8 3544 4127.5 3546C4140.95 3546.79 4154.28 3548.45 4167.5 3551C4176.22 3553.35 4184.55 3556.68 4192.5 3561C4202.05 3569.82 4203.05 3579.65 4195.5 3590.5C4187.47 3599.35 4178.13 3606.52 4167.5 3612C4144.31 3623.17 4120.31 3632.17 4095.5 3639C4076.84 3643.66 4058.18 3648.33 4039.5 3653C3989.26 3663.08 3938.93 3672.58 3888.5 3681.5C3889.17 3681.83 3889.83 3682.17 3890.5 3682.5C3950.66 3676.05 4011 3672.05 4071.5 3670.5C4095.81 3669.51 4119.81 3671.68 4143.5 3677C4150.04 3678.55 4155.21 3682.05 4159 3687.5C4159.45 3695.61 4156.78 3702.61 4151 3708.5C4134.33 3724.42 4115.5 3737.26 4094.5 3747C4032.75 3775.03 3969.08 3797.7 3903.5 3815C3937.93 3809.42 3972.6 3805.42 4007.5 3803C4031.79 3801.21 4055.79 3802.87 4079.5 3808C4085.04 3810.29 4090.38 3812.96 4095.5 3816C4103.47 3824.89 4104.64 3834.72 4099 3845.5C4095.58 3850.92 4091.41 3855.76 4086.5 3860C4065 3872.39 4042 3881.06 4017.5 3886C3983.76 3892.88 3949.76 3898.21 3915.5 3902C3823.53 3910.44 3731.53 3918.44 3639.5 3926C3578.22 3930.16 3516.88 3933.33 3455.5 3935.5C3420.69 3937.24 3386.03 3938.58 3351.5 3939.5C3239.11 3941.64 3126.77 3939.97 3014.5 3934.5C2911.67 3929.02 2809.34 3918.52 2707.5 3903C2636.64 3891.76 2567.31 3874.43 2499.5 3851C2458.78 3836.14 2420.45 3816.81 2384.5 3793C2357.54 3773.71 2335.04 3750.21 2317 3722.5C2306.57 3704.71 2299.41 3685.71 2295.5 3665.5C2294.21 3665.74 2293.21 3665.4 2292.5 3664.5C2293.69 3664.03 2294.36 3663.03 2294.5 3661.5C2293.28 3654.55 2292.44 3647.55 2292 3640.5C2288.59 3633.87 2286.26 3626.87 2285 3619.5C2282.76 3605.91 2282.1 3592.24 2283 3578.5C2284.92 3559.83 2288.58 3541.5 2294 3523.5C2303.37 3493.08 2314.71 3463.42 2328 3434.5C2359.77 3368.94 2395.1 3305.61 2434 3244.5C2480.71 3171.97 2529.54 3100.97 2580.5 3031.5Z" fill="#FEB17D"/>
<path fill-rule="evenodd" clip-rule="evenodd" d="M5067.5 3152.5C5083.77 3160.64 5100.11 3168.8 5116.5 3177C5135.39 3187.6 5153.39 3199.44 5170.5 3212.5C5171.83 3214.83 5171.83 3217.17 5170.5 3219.5C5169.71 3219.93 5168.87 3220.26 5168 3220.5C5135.92 3197.04 5101.42 3177.54 5064.5 3162C5061.06 3160.68 5059.73 3158.18 5060.5 3154.5C5062.48 3152.83 5064.81 3152.17 5067.5 3152.5Z" fill="#E9855C"/>
<path fill-rule="evenodd" clip-rule="evenodd" d="M2575.5 3344.5C2603.52 3344.11 2631.52 3344.61 2659.5 3346C2677.04 3347.37 2694.37 3350.03 2711.5 3354C2714.55 3355.36 2715.22 3357.53 2713.5 3360.5C2712.44 3361.7 2711.11 3362.36 2709.5 3362.5C2686.41 3357.53 2663.07 3354.36 2639.5 3353C2602.7 3351.48 2566.03 3352.98 2529.5 3357.5C2523.95 3355.69 2523.28 3352.85 2527.5 3349C2543.61 3347.16 2559.61 3345.66 2575.5 3344.5Z" fill="#E9845C"/>
<path fill-rule="evenodd" clip-rule="evenodd" d="M3455.5 3935.5C3516.88 3933.33 3578.22 3930.16 3639.5 3926C3731.53 3918.44 3823.53 3910.44 3915.5 3902C3949.76 3898.21 3983.76 3892.88 4017.5 3886C4042 3881.06 4065 3872.39 4086.5 3860C4091.41 3855.76 4095.58 3850.92 4099 3845.5C4104.64 3834.72 4103.47 3824.89 4095.5 3816C4090.38 3812.96 4085.04 3810.29 4079.5 3808C4055.79 3802.87 4031.79 3801.21 4007.5 3803C3972.6 3805.42 3937.93 3809.42 3903.5 3815C3969.08 3797.7 4032.75 3775.03 4094.5 3747C4115.5 3737.26 4134.33 3724.42 4151 3708.5C4156.78 3702.61 4159.45 3695.61 4159 3687.5C4155.21 3682.05 4150.04 3678.55 4143.5 3677C4119.81 3671.68 4095.81 3669.51 4071.5 3670.5C4011 3672.05 3950.66 3676.05 3890.5 3682.5C3889.83 3682.17 3889.17 3681.83 3888.5 3681.5C3938.93 3672.58 3989.26 3663.08 4039.5 3653C4058.18 3648.33 4076.84 3643.66 4095.5 3639C4120.31 3632.17 4144.31 3623.17 4167.5 3612C4178.13 3606.52 4187.47 3599.35 4195.5 3590.5C4203.05 3579.65 4202.05 3569.82 4192.5 3561C4184.55 3556.68 4176.22 3553.35 4167.5 3551C4154.28 3548.45 4140.95 3546.79 4127.5 3546C4084.8 3544 4042.13 3544.67 3999.5 3548C3957.37 3551.52 3915.37 3555.85 3873.5 3561C3919.57 3549.72 3964.91 3536.05 4009.5 3520C4030.31 3512.26 4049.98 3502.43 4068.5 3490.5C4120.46 3478.42 4173.13 3473.26 4226.5 3475C4310.28 3478.27 4369.45 3517.77 4404 3593.5C4420.48 3636.54 4429.98 3681.21 4432.5 3727.5C4432.05 3740.63 4430.55 3753.63 4428 3766.5C4421.99 3790.18 4413.49 3812.84 4402.5 3834.5C4389.05 3857.15 4374.89 3879.48 4360 3901.5C4307.21 3969.72 4246.05 4029.38 4176.5 4080.5C4131.45 4115.99 4082.12 4144.49 4028.5 4166C4020 4168.02 4011.67 4170.35 4003.5 4173C3969.01 4178.28 3934.68 4177.28 3900.5 4170C3841.9 4156.85 3786.23 4136.18 3733.5 4108C3731.83 4107.67 3730.17 4107.33 3728.5 4107C3633.18 4057.51 3542.18 4001.18 3455.5 3938C3454.4 3937.23 3454.4 3936.4 3455.5 3935.5Z" fill="#E5765A"/>
<path fill-rule="evenodd" clip-rule="evenodd" d="M4774.5 3586.5C4795.7 3591.72 4816.7 3597.38 4837.5 3603.5C4838.58 3609.25 4839.92 3614.92 4841.5 3620.5C4854.94 3682.52 4867.94 3744.52 4880.5 3806.5C4903.33 3927.48 4922 4049.15 4936.5 4171.5C4937.26 4178.29 4938.26 4184.96 4939.5 4191.5C4955.7 4335.04 4964.7 4479.04 4966.5 4623.5C4961.83 4623.5 4957.17 4623.5 4952.5 4623.5C4744.34 4615.83 4536.34 4605 4328.5 4591C4209.83 4582.67 4091.17 4574.33 3972.5 4566C3779.68 4554.52 3586.68 4549.02 3393.5 4549.5C3270.15 4549.76 3146.82 4551.1 3023.5 4553.5C3018.5 4553.5 3013.5 4553.5 3008.5 4553.5C3008.82 4548.64 3008.49 4543.97 3007.5 4539.5C3005.35 4412.17 3005.02 4284.84 3006.5 4157.5C3006.5 4151.5 3006.5 4145.5 3006.5 4139.5C3008.42 4071.29 3011.09 4002.96 3014.5 3934.5C3126.77 3939.97 3239.11 3941.64 3351.5 3939.5C3485.15 4021.32 3618.15 4104.15 3750.5 4188C3789.18 4212.01 3828.51 4235.01 3868.5 4257C3895.3 4271.57 3922.97 4284.23 3951.5 4295C3971.7 4302.31 3992.54 4306.14 4014 4306.5C4031.25 4307.04 4047.75 4303.88 4063.5 4297C4084.99 4283.84 4105.66 4269.5 4125.5 4254C4206.81 4188.05 4285.14 4118.38 4360.5 4045C4508.35 3900.04 4646.35 3747.2 4774.5 3586.5Z" fill="#73B3CD"/>
<path fill-rule="evenodd" clip-rule="evenodd" d="M4837.5 3603.5C4842.2 3604.5 4846.86 3605.5 4851.5 3606.5C4848.14 3611.21 4844.81 3615.87 4841.5 3620.5C4839.92 3614.92 4838.58 3609.25 4837.5 3603.5Z" fill="#D9E9E6"/>
<path fill-rule="evenodd" clip-rule="evenodd" d="M3007.5 4539.5C3008.49 4543.97 3008.82 4548.64 3008.5 4553.5C3013.5 4553.5 3018.5 4553.5 3023.5 4553.5C3015.68 4554.49 3007.68 4554.83 2999.5 4554.5C3001.95 4553.53 3004.61 4553.19 3007.5 4553.5C3007.5 4548.83 3007.5 4544.17 3007.5 4539.5Z" fill="#C7D8C7"/>
</svg>
