<svg width="183" height="164" viewBox="0 0 183 164" fill="none" xmlns="http://www.w3.org/2000/svg">
<path d="M35.0103 130.469C16.9582 112.182 -5.00009 70.2812 16.8957 39.5573C18.453 37.3698 24.6822 32.3541 21.5416 40.4948C17.177 51.7916 12.2291 72.6406 26.4791 96.3177C43.6926 124.927 59.6353 102.479 57.4582 88.4531C55.0989 73.2031 62.4582 66.3854 67.2655 91.9739C73.1666 123.344 69.3541 145.766 91.8176 163.792C91.8176 163.792 57.2447 152.979 35.0103 130.469Z" fill="#0391D7"/>
<path d="M32.0105 58.4953C29.8126 60.7609 28.0105 63.214 26.5418 65.8078C25.0834 75.5317 26.2449 85.6255 30.7657 94.3755C27.6824 79.1307 32.1824 66.9275 35.8699 59.6984C39.2501 53.063 33.6043 56.8494 32.0105 58.4953Z" fill="#0391D7"/>
<path d="M25.6197 89.7809C19.9426 78.2028 18.1457 66.2236 20.2291 54.0309C21.7447 51.333 23.6249 48.7809 25.9009 46.4215C27.5468 44.7236 33.3749 40.8226 29.8853 47.6663C25.2811 56.6976 19.4322 73.2653 27.7707 93.8278C26.9999 92.484 26.2811 91.1298 25.6197 89.7809Z" fill="#0391D7"/>
<path d="M56.7292 2.0679C22.7031 -5.73939 -5.94269 24.7085 2.19273 62.5523C1.16148 35.9898 21.9896 18.4794 47.5938 19.9533C55.5469 20.4116 74.1146 24.5679 82.7292 39.2242C84.1094 26.7554 76.3802 6.57832 56.7292 2.0679Z" fill="#38B6FF"/>
<path d="M126.906 2.06783C115.057 4.80741 103.932 11.6668 95.078 24.7449C98.0468 23.7397 101.203 22.823 104.568 22.047C139.276 14.021 167.12 55.1876 137.443 95.5626C119.213 120.365 97.6874 130.87 91.8176 159.037C107.698 133.589 144.698 123.474 167.391 92.5991C203.932 42.8751 169.646 -7.81759 126.906 2.06783Z" fill="#38B6FF"/>
</svg>
